<?xml version="1.0" encoding="UTF-8" standalone="no"?>
<!DOCTYPE svg PUBLIC "-//W3C//DTD SVG 1.1//EN"
 "http://www.w3.org/Graphics/SVG/1.1/DTD/svg11.dtd">
<!-- Generated by graphviz version 2.43.0 (0)
 -->
<!-- Title: include/CallbackLinker.h Pages: 1 -->
<svg width="756pt" height="196pt"
 viewBox="0.00 0.00 756.01 196.00" xmlns="http://www.w3.org/2000/svg" xmlns:xlink="http://www.w3.org/1999/xlink">
<g id="graph0" class="graph" transform="scale(1 1) rotate(0) translate(4 192)">
<title>include/CallbackLinker.h</title>
<polygon fill="white" stroke="transparent" points="-4,4 -4,-192 752.01,-192 752.01,4 -4,4"/>
<!-- Node1 -->
<g id="node1" class="node">
<title>Node1</title>
<g id="a_node1"><a xlink:title=" ">
<polygon fill="#bfbfbf" stroke="black" points="329.01,-168.5 329.01,-187.5 463.01,-187.5 463.01,-168.5 329.01,-168.5"/>
<text text-anchor="middle" x="396.01" y="-175.5" font-family="Helvetica,sans-Serif" font-size="10.00">include/CallbackLinker.h</text>
</a>
</g>
</g>
<!-- Node2 -->
<g id="node2" class="node">
<title>Node2</title>
<g id="a_node2"><a xlink:href="Camera_8h.html" target="_top" xlink:title=" ">
<polygon fill="white" stroke="black" points="207.01,-112.5 207.01,-131.5 309.01,-131.5 309.01,-112.5 207.01,-112.5"/>
<text text-anchor="middle" x="258.01" y="-119.5" font-family="Helvetica,sans-Serif" font-size="10.00">include/Camera.h</text>
</a>
</g>
</g>
<!-- Node1&#45;&gt;Node2 -->
<g id="edge1" class="edge">
<title>Node1&#45;&gt;Node2</title>
<path fill="none" stroke="midnightblue" d="M364.76,-164.77C338.83,-154.63 302.64,-140.47 279.77,-131.52"/>
<polygon fill="midnightblue" stroke="midnightblue" points="363.55,-168.06 374.14,-168.44 366.1,-161.54 363.55,-168.06"/>
</g>
<!-- Node5 -->
<g id="node5" class="node">
<title>Node5</title>
<g id="a_node5"><a xlink:href="DetectCard_8h.html" target="_top" xlink:title=" ">
<polygon fill="white" stroke="black" points="9.51,-112.5 9.51,-131.5 128.51,-131.5 128.51,-112.5 9.51,-112.5"/>
<text text-anchor="middle" x="69.01" y="-119.5" font-family="Helvetica,sans-Serif" font-size="10.00">include/DetectCard.h</text>
</a>
</g>
</g>
<!-- Node1&#45;&gt;Node5 -->
<g id="edge4" class="edge">
<title>Node1&#45;&gt;Node5</title>
<path fill="none" stroke="midnightblue" d="M334.18,-166.79C272.39,-156.59 178.48,-141.08 120.58,-131.52"/>
<polygon fill="midnightblue" stroke="midnightblue" points="333.75,-170.27 344.19,-168.44 334.89,-163.36 333.75,-170.27"/>
</g>
<!-- Node7 -->
<g id="node7" class="node">
<title>Node7</title>
<g id="a_node7"><a xlink:href="GamePlay_8h.html" target="_top" xlink:title=" ">
<polygon fill="white" stroke="black" points="474.51,-56.5 474.51,-75.5 587.51,-75.5 587.51,-56.5 474.51,-56.5"/>
<text text-anchor="middle" x="531.01" y="-63.5" font-family="Helvetica,sans-Serif" font-size="10.00">include/GamePlay.h</text>
</a>
</g>
</g>
<!-- Node1&#45;&gt;Node7 -->
<g id="edge7" class="edge">
<title>Node1&#45;&gt;Node7</title>
<path fill="none" stroke="midnightblue" d="M423.88,-163.77C439.43,-155.71 458.69,-144.56 474.01,-132 495.12,-114.67 515.02,-89.13 524.76,-75.81"/>
<polygon fill="midnightblue" stroke="midnightblue" points="422.1,-160.75 414.74,-168.38 425.25,-167 422.1,-160.75"/>
</g>
<!-- Node9 -->
<g id="node9" class="node">
<title>Node9</title>
<g id="a_node9"><a xlink:href="StrategyEngine_8h.html" target="_top" xlink:title=" ">
<polygon fill="white" stroke="black" points="327.01,-112.5 327.01,-131.5 465.01,-131.5 465.01,-112.5 327.01,-112.5"/>
<text text-anchor="middle" x="396.01" y="-119.5" font-family="Helvetica,sans-Serif" font-size="10.00">include/StrategyEngine.h</text>
</a>
</g>
</g>
<!-- Node1&#45;&gt;Node9 -->
<g id="edge10" class="edge">
<title>Node1&#45;&gt;Node9</title>
<path fill="none" stroke="midnightblue" d="M396.01,-157.8C396.01,-148.91 396.01,-138.78 396.01,-131.75"/>
<polygon fill="midnightblue" stroke="midnightblue" points="392.51,-158.08 396.01,-168.08 399.51,-158.08 392.51,-158.08"/>
</g>
<!-- Node11 -->
<g id="node11" class="node">
<title>Node11</title>
<g id="a_node11"><a xlink:href="ToggleLED_8h.html" target="_top" xlink:title=" ">
<polygon fill="white" stroke="black" points="552.01,-112.5 552.01,-131.5 666.01,-131.5 666.01,-112.5 552.01,-112.5"/>
<text text-anchor="middle" x="609.01" y="-119.5" font-family="Helvetica,sans-Serif" font-size="10.00">include/ToggleLED.h</text>
</a>
</g>
</g>
<!-- Node1&#45;&gt;Node11 -->
<g id="edge14" class="edge">
<title>Node1&#45;&gt;Node11</title>
<path fill="none" stroke="midnightblue" d="M439.56,-165.96C479.79,-155.76 538.71,-140.82 575.41,-131.52"/>
<polygon fill="midnightblue" stroke="midnightblue" points="438.59,-162.59 429.76,-168.44 440.31,-169.38 438.59,-162.59"/>
</g>
<!-- Node3 -->
<g id="node3" class="node">
<title>Node3</title>
<g id="a_node3"><a xlink:href="Camera_8cpp.html" target="_top" xlink:title=" ">
<polygon fill="white" stroke="black" points="142.01,-56.5 142.01,-75.5 234.01,-75.5 234.01,-56.5 142.01,-56.5"/>
<text text-anchor="middle" x="188.01" y="-63.5" font-family="Helvetica,sans-Serif" font-size="10.00">src/Camera.cpp</text>
</a>
</g>
</g>
<!-- Node2&#45;&gt;Node3 -->
<g id="edge2" class="edge">
<title>Node2&#45;&gt;Node3</title>
<path fill="none" stroke="midnightblue" d="M238.69,-106.1C226.09,-96.38 210.08,-84.03 199.46,-75.83"/>
<polygon fill="midnightblue" stroke="midnightblue" points="236.7,-108.99 246.76,-112.32 240.98,-103.44 236.7,-108.99"/>
</g>
<!-- Node4 -->
<g id="node4" class="node">
<title>Node4</title>
<g id="a_node4"><a xlink:href="main_8cpp.html" target="_top" xlink:title=" ">
<polygon fill="white" stroke="black" points="260.51,-0.5 260.51,-19.5 339.51,-19.5 339.51,-0.5 260.51,-0.5"/>
<text text-anchor="middle" x="300.01" y="-7.5" font-family="Helvetica,sans-Serif" font-size="10.00">src/main.cpp</text>
</a>
</g>
</g>
<!-- Node2&#45;&gt;Node4 -->
<g id="edge3" class="edge">
<title>Node2&#45;&gt;Node4</title>
<path fill="none" stroke="midnightblue" d="M264.88,-103C274.04,-79 289.9,-37.47 296.72,-19.59"/>
<polygon fill="midnightblue" stroke="midnightblue" points="261.6,-101.78 261.3,-112.37 268.14,-104.27 261.6,-101.78"/>
</g>
<!-- Node5&#45;&gt;Node4 -->
<g id="edge6" class="edge">
<title>Node5&#45;&gt;Node4</title>
<path fill="none" stroke="midnightblue" d="M40.09,-107.64C16.28,-94.84 -11.12,-74.77 5.01,-56 37.46,-18.22 187.54,-11.81 260.27,-10.95"/>
<polygon fill="midnightblue" stroke="midnightblue" points="38.77,-110.89 49.26,-112.33 41.95,-104.66 38.77,-110.89"/>
</g>
<!-- Node6 -->
<g id="node6" class="node">
<title>Node6</title>
<g id="a_node6"><a xlink:href="DetectCard_8cpp.html" target="_top" xlink:title=" ">
<polygon fill="white" stroke="black" points="14.51,-56.5 14.51,-75.5 123.51,-75.5 123.51,-56.5 14.51,-56.5"/>
<text text-anchor="middle" x="69.01" y="-63.5" font-family="Helvetica,sans-Serif" font-size="10.00">src/DetectCard.cpp</text>
</a>
</g>
</g>
<!-- Node5&#45;&gt;Node6 -->
<g id="edge5" class="edge">
<title>Node5&#45;&gt;Node6</title>
<path fill="none" stroke="midnightblue" d="M69.01,-101.8C69.01,-92.91 69.01,-82.78 69.01,-75.75"/>
<polygon fill="midnightblue" stroke="midnightblue" points="65.51,-102.08 69.01,-112.08 72.51,-102.08 65.51,-102.08"/>
</g>
<!-- Node7&#45;&gt;Node4 -->
<g id="edge9" class="edge">
<title>Node7&#45;&gt;Node4</title>
<path fill="none" stroke="midnightblue" d="M484.6,-54.15C440.96,-43.95 376.5,-28.88 336.44,-19.52"/>
<polygon fill="midnightblue" stroke="midnightblue" points="483.87,-57.58 494.4,-56.44 485.46,-50.76 483.87,-57.58"/>
</g>
<!-- Node8 -->
<g id="node8" class="node">
<title>Node8</title>
<g id="a_node8"><a xlink:href="GamePlay_8cpp.html" target="_top" xlink:title=" ">
<polygon fill="white" stroke="black" points="479.51,-0.5 479.51,-19.5 582.51,-19.5 582.51,-0.5 479.51,-0.5"/>
<text text-anchor="middle" x="531.01" y="-7.5" font-family="Helvetica,sans-Serif" font-size="10.00">src/GamePlay.cpp</text>
</a>
</g>
</g>
<!-- Node7&#45;&gt;Node8 -->
<g id="edge8" class="edge">
<title>Node7&#45;&gt;Node8</title>
<path fill="none" stroke="midnightblue" d="M531.01,-45.8C531.01,-36.91 531.01,-26.78 531.01,-19.75"/>
<polygon fill="midnightblue" stroke="midnightblue" points="527.51,-46.08 531.01,-56.08 534.51,-46.08 527.51,-46.08"/>
</g>
<!-- Node9&#45;&gt;Node4 -->
<g id="edge12" class="edge">
<title>Node9&#45;&gt;Node4</title>
<path fill="none" stroke="midnightblue" d="M362.65,-108.34C347.37,-101.01 330.21,-90.35 319.01,-76 305.83,-59.14 301.79,-33.4 300.55,-19.93"/>
<polygon fill="midnightblue" stroke="midnightblue" points="361.29,-111.57 371.85,-112.48 364.17,-105.19 361.29,-111.57"/>
</g>
<!-- Node9&#45;&gt;Node7 -->
<g id="edge11" class="edge">
<title>Node9&#45;&gt;Node7</title>
<path fill="none" stroke="midnightblue" d="M426.91,-108.64C452.25,-98.5 487.44,-84.43 509.71,-75.52"/>
<polygon fill="midnightblue" stroke="midnightblue" points="425.38,-105.48 417.4,-112.44 427.98,-111.98 425.38,-105.48"/>
</g>
<!-- Node10 -->
<g id="node10" class="node">
<title>Node10</title>
<g id="a_node10"><a xlink:href="StrategyEngine_8cpp.html" target="_top" xlink:title=" ">
<polygon fill="white" stroke="black" points="328.01,-56.5 328.01,-75.5 456.01,-75.5 456.01,-56.5 328.01,-56.5"/>
<text text-anchor="middle" x="392.01" y="-63.5" font-family="Helvetica,sans-Serif" font-size="10.00">src/StrategyEngine.cpp</text>
</a>
</g>
</g>
<!-- Node9&#45;&gt;Node10 -->
<g id="edge13" class="edge">
<title>Node9&#45;&gt;Node10</title>
<path fill="none" stroke="midnightblue" d="M394.61,-102.1C393.94,-93.14 393.18,-82.86 392.65,-75.75"/>
<polygon fill="midnightblue" stroke="midnightblue" points="391.12,-102.37 395.34,-112.08 398.1,-101.85 391.12,-102.37"/>
</g>
<!-- Node11&#45;&gt;Node4 -->
<g id="edge16" class="edge">
<title>Node11&#45;&gt;Node4</title>
<path fill="none" stroke="midnightblue" d="M610.59,-102.4C610.75,-87.71 608.34,-67.78 596.01,-56 559.96,-21.59 411.84,-13.48 339.77,-11.58"/>
<polygon fill="midnightblue" stroke="midnightblue" points="607.1,-102.23 610.09,-112.39 614.09,-102.58 607.1,-102.23"/>
</g>
<!-- Node11&#45;&gt;Node7 -->
<g id="edge15" class="edge">
<title>Node11&#45;&gt;Node7</title>
<path fill="none" stroke="midnightblue" d="M588.24,-106.62C573.99,-96.76 555.55,-83.99 543.51,-75.65"/>
<polygon fill="midnightblue" stroke="midnightblue" points="586.26,-109.51 596.47,-112.32 590.24,-103.75 586.26,-109.51"/>
</g>
<!-- Node12 -->
<g id="node12" class="node">
<title>Node12</title>
<g id="a_node12"><a xlink:href="ToggleLED_8cpp.html" target="_top" xlink:title=" ">
<polygon fill="white" stroke="black" points="644.01,-56.5 644.01,-75.5 748.01,-75.5 748.01,-56.5 644.01,-56.5"/>
<text text-anchor="middle" x="696.01" y="-63.5" font-family="Helvetica,sans-Serif" font-size="10.00">src/ToggleLED.cpp</text>
</a>
</g>
</g>
<!-- Node11&#45;&gt;Node12 -->
<g id="edge17" class="edge">
<title>Node11&#45;&gt;Node12</title>
<path fill="none" stroke="midnightblue" d="M631.72,-106.9C647.67,-97 668.5,-84.07 682.06,-75.65"/>
<polygon fill="midnightblue" stroke="midnightblue" points="629.63,-104.08 622.98,-112.32 633.33,-110.02 629.63,-104.08"/>
</g>
</g>
</svg>
