<?xml version="1.0" encoding="UTF-8" standalone="no"?>
<!DOCTYPE svg PUBLIC "-//W3C//DTD SVG 1.1//EN"
 "http://www.w3.org/Graphics/SVG/1.1/DTD/svg11.dtd">
<!-- Generated by graphviz version 2.43.0 (0)
 -->
<!-- Title: include/CallbackLinker.h Pages: 1 -->
<!--zoomable 196 -->
<svg id="main" version="1.1" xmlns="http://www.w3.org/2000/svg" xmlns:xlink="http://www.w3.org/1999/xlink" xml:space="preserve" onload="init(evt)">
<style type="text/css"><![CDATA[
.edge:hover path { stroke: red; }
.edge:hover polygon { stroke: red; fill: red; }
]]></style>
<script type="text/javascript"><![CDATA[
var edges = document.getElementsByTagName('g');
if (edges && edges.length) {
  for (var i=0;i<edges.length;i++) {
    if (edges[i].id.substr(0,4)=='edge') {
      edges[i].setAttribute('class','edge');
    }
  }
}
]]></script>
        <defs>
                <circle id="rim" cx="0" cy="0" r="7"/>
                <circle id="rim2" cx="0" cy="0" r="3.5"/>
                <g id="zoomPlus">
                        <use xlink:href="#rim" fill="#404040">
                                <set attributeName="fill" to="#808080" begin="zoomplus.mouseover" end="zoomplus.mouseout"/>
                        </use>
                        <path d="M-4,0h8M0,-4v8" fill="none" stroke="white" stroke-width="1.5" pointer-events="none"/>
                </g>
                <g id="zoomMin">
                        <use xlink:href="#rim" fill="#404040">
                                <set attributeName="fill" to="#808080" begin="zoomminus.mouseover" end="zoomminus.mouseout"/>
                        </use>
                        <path d="M-4,0h8" fill="none" stroke="white" stroke-width="1.5" pointer-events="none"/>
                </g>
                <g id="dirArrow">
                        <path fill="none" stroke="white" stroke-width="1.5" d="M0,-3.0v7 M-2.5,-0.5L0,-3.0L2.5,-0.5"/>
                </g>
               <g id="resetDef">
                       <use xlink:href="#rim2" fill="#404040">
                               <set attributeName="fill" to="#808080" begin="reset.mouseover" end="reset.mouseout"/>
                       </use>
               </g>
        </defs>

<script type="text/javascript">
var viewWidth = 1362;
var viewHeight = 196;
var sectionId = 'dynsection-1';
</script>
<script xlink:href="svgpan.js"/>
<svg id="graph" class="graph">
<g id="viewport">
<title>include/CallbackLinker.h</title>
<polygon fill="white" stroke="transparent" points="-4,4 -4,-192 1357.5,-192 1357.5,4 -4,4"/>
<!-- Node1 -->
<g id="node1" class="node">
<title>Node1</title>
<g id="a_node1"><a xlink:title=" ">
<polygon fill="#bfbfbf" stroke="black" points="461.5,-168.5 461.5,-187.5 595.5,-187.5 595.5,-168.5 461.5,-168.5"/>
<text text-anchor="middle" x="528.5" y="-175.5" font-family="Helvetica,sans-Serif" font-size="10.00">include/CallbackLinker.h</text>
</a>
</g>
</g>
<!-- Node2 -->
<g id="node2" class="node">
<title>Node2</title>
<g id="a_node2"><a xlink:href="Camera_8h.html" target="_top" xlink:title=" ">
<polygon fill="white" stroke="black" points="310.5,-112.5 310.5,-131.5 412.5,-131.5 412.5,-112.5 310.5,-112.5"/>
<text text-anchor="middle" x="361.5" y="-119.5" font-family="Helvetica,sans-Serif" font-size="10.00">include/Camera.h</text>
</a>
</g>
</g>
<!-- Node1&#45;&gt;Node2 -->
<g id="edge1" class="edge">
<title>Node1&#45;&gt;Node2</title>
<path fill="none" stroke="midnightblue" d="M492.33,-165.3C460.86,-155.13 416.01,-140.62 387.84,-131.52"/>
<polygon fill="midnightblue" stroke="midnightblue" points="491.45,-168.7 502.04,-168.44 493.6,-162.04 491.45,-168.7"/>
</g>
<!-- Node5 -->
<g id="node5" class="node">
<title>Node5</title>
<g id="a_node5"><a xlink:href="CameraTest_8cpp.html" target="_top" xlink:title=" ">
<polygon fill="white" stroke="black" points="389.5,-56.5 389.5,-75.5 511.5,-75.5 511.5,-56.5 389.5,-56.5"/>
<text text-anchor="middle" x="450.5" y="-63.5" font-family="Helvetica,sans-Serif" font-size="10.00">tests/CameraTest.cpp</text>
</a>
</g>
</g>
<!-- Node1&#45;&gt;Node5 -->
<g id="edge27" class="edge">
<title>Node1&#45;&gt;Node5</title>
<path fill="none" stroke="midnightblue" d="M516.42,-159.96C499.51,-136.12 469.44,-93.71 456.59,-75.59"/>
<polygon fill="midnightblue" stroke="midnightblue" points="513.74,-162.24 522.38,-168.37 519.45,-158.19 513.74,-162.24"/>
</g>
<!-- Node7 -->
<g id="node7" class="node">
<title>Node7</title>
<g id="a_node7"><a xlink:href="DetectCard_8h.html" target="_top" xlink:title=" ">
<polygon fill="white" stroke="black" points="66,-56.5 66,-75.5 185,-75.5 185,-56.5 66,-56.5"/>
<text text-anchor="middle" x="125.5" y="-63.5" font-family="Helvetica,sans-Serif" font-size="10.00">include/DetectCard.h</text>
</a>
</g>
</g>
<!-- Node1&#45;&gt;Node7 -->
<g id="edge6" class="edge">
<title>Node1&#45;&gt;Node7</title>
<path fill="none" stroke="midnightblue" d="M462.81,-166.81C417.13,-159.03 355.07,-147.1 301.5,-132 243.66,-115.7 177.77,-89.13 145.48,-75.56"/>
<polygon fill="midnightblue" stroke="midnightblue" points="462.44,-170.29 472.88,-168.5 463.6,-163.39 462.44,-170.29"/>
</g>
<!-- Node10 -->
<g id="node10" class="node">
<title>Node10</title>
<g id="a_node10"><a xlink:href="GamePlay_8h.html" target="_top" xlink:title=" ">
<polygon fill="white" stroke="black" points="928,-56.5 928,-75.5 1041,-75.5 1041,-56.5 928,-56.5"/>
<text text-anchor="middle" x="984.5" y="-63.5" font-family="Helvetica,sans-Serif" font-size="10.00">include/GamePlay.h</text>
</a>
</g>
</g>
<!-- Node1&#45;&gt;Node10 -->
<g id="edge11" class="edge">
<title>Node1&#45;&gt;Node10</title>
<path fill="none" stroke="midnightblue" d="M573.9,-166.05C664.75,-144.13 867.24,-95.29 949.12,-75.53"/>
<polygon fill="midnightblue" stroke="midnightblue" points="572.8,-162.71 563.9,-168.46 574.44,-169.52 572.8,-162.71"/>
</g>
<!-- Node13 -->
<g id="node13" class="node">
<title>Node13</title>
<g id="a_node13"><a xlink:href="StrategyEngine_8h.html" target="_top" xlink:title=" ">
<polygon fill="white" stroke="black" points="554.5,-112.5 554.5,-131.5 692.5,-131.5 692.5,-112.5 554.5,-112.5"/>
<text text-anchor="middle" x="623.5" y="-119.5" font-family="Helvetica,sans-Serif" font-size="10.00">include/StrategyEngine.h</text>
</a>
</g>
</g>
<!-- Node1&#45;&gt;Node13 -->
<g id="edge16" class="edge">
<title>Node1&#45;&gt;Node13</title>
<path fill="none" stroke="midnightblue" d="M552.82,-163.18C570.3,-153.24 593.33,-140.15 608.27,-131.65"/>
<polygon fill="midnightblue" stroke="midnightblue" points="550.73,-160.34 543.76,-168.32 554.19,-166.43 550.73,-160.34"/>
</g>
<!-- Node16 -->
<g id="node16" class="node">
<title>Node16</title>
<g id="a_node16"><a xlink:href="ToggleLED_8h.html" target="_top" xlink:title=" ">
<polygon fill="white" stroke="black" points="1012.5,-112.5 1012.5,-131.5 1126.5,-131.5 1126.5,-112.5 1012.5,-112.5"/>
<text text-anchor="middle" x="1069.5" y="-119.5" font-family="Helvetica,sans-Serif" font-size="10.00">include/ToggleLED.h</text>
</a>
</g>
</g>
<!-- Node1&#45;&gt;Node16 -->
<g id="edge22" class="edge">
<title>Node1&#45;&gt;Node16</title>
<path fill="none" stroke="midnightblue" d="M605.68,-169.3C715.57,-158.33 914.61,-138.46 1012.3,-128.71"/>
<polygon fill="midnightblue" stroke="midnightblue" points="605.25,-165.82 595.65,-170.3 605.95,-172.79 605.25,-165.82"/>
</g>
<!-- Node3 -->
<g id="node3" class="node">
<title>Node3</title>
<g id="a_node3"><a xlink:href="Camera_8cpp.html" target="_top" xlink:title=" ">
<polygon fill="white" stroke="black" points="203.5,-56.5 203.5,-75.5 295.5,-75.5 295.5,-56.5 203.5,-56.5"/>
<text text-anchor="middle" x="249.5" y="-63.5" font-family="Helvetica,sans-Serif" font-size="10.00">src/Camera.cpp</text>
</a>
</g>
</g>
<!-- Node2&#45;&gt;Node3 -->
<g id="edge2" class="edge">
<title>Node2&#45;&gt;Node3</title>
<path fill="none" stroke="midnightblue" d="M334.25,-107.86C313.48,-97.85 285.48,-84.35 267.45,-75.65"/>
<polygon fill="midnightblue" stroke="midnightblue" points="332.98,-111.13 343.51,-112.32 336.02,-104.83 332.98,-111.13"/>
</g>
<!-- Node4 -->
<g id="node4" class="node">
<title>Node4</title>
<g id="a_node4"><a xlink:href="src_2main_8cpp.html" target="_top" xlink:title=" ">
<polygon fill="white" stroke="black" points="538,-0.5 538,-19.5 617,-19.5 617,-0.5 538,-0.5"/>
<text text-anchor="middle" x="577.5" y="-7.5" font-family="Helvetica,sans-Serif" font-size="10.00">src/main.cpp</text>
</a>
</g>
</g>
<!-- Node2&#45;&gt;Node4 -->
<g id="edge3" class="edge">
<title>Node2&#45;&gt;Node4</title>
<path fill="none" stroke="midnightblue" d="M362.07,-102.06C363.54,-87.46 367.94,-67.83 380.5,-56 402.91,-34.89 487.18,-21.58 537.96,-15.29"/>
<polygon fill="midnightblue" stroke="midnightblue" points="358.55,-102.24 361.41,-112.44 365.53,-102.68 358.55,-102.24"/>
</g>
<!-- Node2&#45;&gt;Node5 -->
<g id="edge4" class="edge">
<title>Node2&#45;&gt;Node5</title>
<path fill="none" stroke="midnightblue" d="M384.74,-106.9C401.06,-97 422.37,-84.07 436.24,-75.65"/>
<polygon fill="midnightblue" stroke="midnightblue" points="382.53,-104.14 375.8,-112.32 386.16,-110.13 382.53,-104.14"/>
</g>
<!-- Node6 -->
<g id="node6" class="node">
<title>Node6</title>
<g id="a_node6"><a xlink:href="tests_2main_8cpp.html" target="_top" xlink:title=" ">
<polygon fill="white" stroke="black" points="358,-0.5 358,-19.5 447,-19.5 447,-0.5 358,-0.5"/>
<text text-anchor="middle" x="402.5" y="-7.5" font-family="Helvetica,sans-Serif" font-size="10.00">tests/main.cpp</text>
</a>
</g>
</g>
<!-- Node2&#45;&gt;Node6 -->
<g id="edge5" class="edge">
<title>Node2&#45;&gt;Node6</title>
<path fill="none" stroke="midnightblue" d="M351.65,-103.03C345.66,-89.56 340.41,-70.96 347.5,-56 355.27,-39.61 372.25,-27.21 385.3,-19.61"/>
<polygon fill="midnightblue" stroke="midnightblue" points="348.6,-104.77 356.18,-112.18 354.88,-101.67 348.6,-104.77"/>
</g>
<!-- Node7&#45;&gt;Node4 -->
<g id="edge8" class="edge">
<title>Node7&#45;&gt;Node4</title>
<path fill="none" stroke="midnightblue" d="M195.6,-55.88C327.23,-39.61 469.97,-23.21 537.78,-15.5"/>
<polygon fill="midnightblue" stroke="midnightblue" points="194.83,-52.45 185.33,-57.15 195.69,-59.39 194.83,-52.45"/>
</g>
<!-- Node7&#45;&gt;Node6 -->
<g id="edge10" class="edge">
<title>Node7&#45;&gt;Node6</title>
<path fill="none" stroke="midnightblue" d="M179.5,-54.47C231.85,-44.27 310.27,-28.98 358.81,-19.52"/>
<polygon fill="midnightblue" stroke="midnightblue" points="178.54,-51.09 169.39,-56.44 179.88,-57.97 178.54,-51.09"/>
</g>
<!-- Node8 -->
<g id="node8" class="node">
<title>Node8</title>
<g id="a_node8"><a xlink:href="DetectCard_8cpp.html" target="_top" xlink:title=" ">
<polygon fill="white" stroke="black" points="0,-0.5 0,-19.5 109,-19.5 109,-0.5 0,-0.5"/>
<text text-anchor="middle" x="54.5" y="-7.5" font-family="Helvetica,sans-Serif" font-size="10.00">src/DetectCard.cpp</text>
</a>
</g>
</g>
<!-- Node7&#45;&gt;Node8 -->
<g id="edge7" class="edge">
<title>Node7&#45;&gt;Node8</title>
<path fill="none" stroke="midnightblue" d="M105.91,-50.1C93.13,-40.38 76.89,-28.03 66.11,-19.83"/>
<polygon fill="midnightblue" stroke="midnightblue" points="104.01,-53.06 114.09,-56.32 108.25,-47.48 104.01,-53.06"/>
</g>
<!-- Node9 -->
<g id="node9" class="node">
<title>Node9</title>
<g id="a_node9"><a xlink:href="DetectCardTest_8cpp.html" target="_top" xlink:title=" ">
<polygon fill="white" stroke="black" points="127.5,-0.5 127.5,-19.5 265.5,-19.5 265.5,-0.5 127.5,-0.5"/>
<text text-anchor="middle" x="196.5" y="-7.5" font-family="Helvetica,sans-Serif" font-size="10.00">tests/DetectCardTest.cpp</text>
</a>
</g>
</g>
<!-- Node7&#45;&gt;Node9 -->
<g id="edge9" class="edge">
<title>Node7&#45;&gt;Node9</title>
<path fill="none" stroke="midnightblue" d="M145.09,-50.1C157.87,-40.38 174.11,-28.03 184.89,-19.83"/>
<polygon fill="midnightblue" stroke="midnightblue" points="142.75,-47.48 136.91,-56.32 146.99,-53.06 142.75,-47.48"/>
</g>
<!-- Node10&#45;&gt;Node4 -->
<g id="edge13" class="edge">
<title>Node10&#45;&gt;Node4</title>
<path fill="none" stroke="midnightblue" d="M917.88,-55.92C802.21,-40.42 678.93,-24.25 617.15,-16.18"/>
<polygon fill="midnightblue" stroke="midnightblue" points="917.6,-59.42 927.98,-57.28 918.53,-52.48 917.6,-59.42"/>
</g>
<!-- Node10&#45;&gt;Node6 -->
<g id="edge15" class="edge">
<title>Node10&#45;&gt;Node6</title>
<path fill="none" stroke="midnightblue" d="M918.03,-56C736.98,-35.98 534.98,-20.54 447.09,-14.16"/>
<polygon fill="midnightblue" stroke="midnightblue" points="917.67,-59.48 928,-57.11 918.45,-52.53 917.67,-59.48"/>
</g>
<!-- Node11 -->
<g id="node11" class="node">
<title>Node11</title>
<g id="a_node11"><a xlink:href="GamePlay_8cpp.html" target="_top" xlink:title=" ">
<polygon fill="white" stroke="black" points="864,-0.5 864,-19.5 967,-19.5 967,-0.5 864,-0.5"/>
<text text-anchor="middle" x="915.5" y="-7.5" font-family="Helvetica,sans-Serif" font-size="10.00">src/GamePlay.cpp</text>
</a>
</g>
</g>
<!-- Node10&#45;&gt;Node11 -->
<g id="edge12" class="edge">
<title>Node10&#45;&gt;Node11</title>
<path fill="none" stroke="midnightblue" d="M965.46,-50.1C953.04,-40.38 937.26,-28.03 926.79,-19.83"/>
<polygon fill="midnightblue" stroke="midnightblue" points="963.38,-52.92 973.41,-56.32 967.7,-47.4 963.38,-52.92"/>
</g>
<!-- Node12 -->
<g id="node12" class="node">
<title>Node12</title>
<g id="a_node12"><a xlink:href="GamePlayTest_8cpp.html" target="_top" xlink:title=" ">
<polygon fill="white" stroke="black" points="985.5,-0.5 985.5,-19.5 1119.5,-19.5 1119.5,-0.5 985.5,-0.5"/>
<text text-anchor="middle" x="1052.5" y="-7.5" font-family="Helvetica,sans-Serif" font-size="10.00">tests/GamePlayTest.cpp</text>
</a>
</g>
</g>
<!-- Node10&#45;&gt;Node12 -->
<g id="edge14" class="edge">
<title>Node10&#45;&gt;Node12</title>
<path fill="none" stroke="midnightblue" d="M1003.26,-50.1C1015.5,-40.38 1031.06,-28.03 1041.38,-19.83"/>
<polygon fill="midnightblue" stroke="midnightblue" points="1001.08,-47.36 995.43,-56.32 1005.43,-52.85 1001.08,-47.36"/>
</g>
<!-- Node13&#45;&gt;Node4 -->
<g id="edge18" class="edge">
<title>Node13&#45;&gt;Node4</title>
<path fill="none" stroke="midnightblue" d="M611.77,-103.82C606.57,-95.65 600.7,-85.6 596.5,-76 588.02,-56.61 582.07,-32.35 579.29,-19.66"/>
<polygon fill="midnightblue" stroke="midnightblue" points="609,-105.97 617.42,-112.4 614.84,-102.12 609,-105.97"/>
</g>
<!-- Node13&#45;&gt;Node6 -->
<g id="edge20" class="edge">
<title>Node13&#45;&gt;Node6</title>
<path fill="none" stroke="midnightblue" d="M603.18,-106.47C582.9,-92.39 550.51,-71.01 520.5,-56 490.3,-40.9 453.73,-27.68 429.39,-19.55"/>
<polygon fill="midnightblue" stroke="midnightblue" points="601.4,-109.5 611.59,-112.38 605.42,-103.77 601.4,-109.5"/>
</g>
<!-- Node13&#45;&gt;Node10 -->
<g id="edge17" class="edge">
<title>Node13&#45;&gt;Node10</title>
<path fill="none" stroke="midnightblue" d="M690.92,-110.91C759.23,-100.7 863.71,-85.07 927.86,-75.47"/>
<polygon fill="midnightblue" stroke="midnightblue" points="690.07,-107.5 680.7,-112.44 691.11,-114.43 690.07,-107.5"/>
</g>
<!-- Node14 -->
<g id="node14" class="node">
<title>Node14</title>
<g id="a_node14"><a xlink:href="StrategyEngine_8cpp.html" target="_top" xlink:title=" ">
<polygon fill="white" stroke="black" points="605.5,-56.5 605.5,-75.5 733.5,-75.5 733.5,-56.5 605.5,-56.5"/>
<text text-anchor="middle" x="669.5" y="-63.5" font-family="Helvetica,sans-Serif" font-size="10.00">src/StrategyEngine.cpp</text>
</a>
</g>
</g>
<!-- Node13&#45;&gt;Node14 -->
<g id="edge19" class="edge">
<title>Node13&#45;&gt;Node14</title>
<path fill="none" stroke="midnightblue" d="M637.61,-104.43C645.68,-94.97 655.46,-83.48 662.05,-75.75"/>
<polygon fill="midnightblue" stroke="midnightblue" points="634.92,-102.2 631.1,-112.08 640.25,-106.74 634.92,-102.2"/>
</g>
<!-- Node15 -->
<g id="node15" class="node">
<title>Node15</title>
<g id="a_node15"><a xlink:href="StrategyEngineTest_8cpp.html" target="_top" xlink:title=" ">
<polygon fill="white" stroke="black" points="751.5,-56.5 751.5,-75.5 909.5,-75.5 909.5,-56.5 751.5,-56.5"/>
<text text-anchor="middle" x="830.5" y="-63.5" font-family="Helvetica,sans-Serif" font-size="10.00">tests/StrategyEngineTest.cpp</text>
</a>
</g>
</g>
<!-- Node13&#45;&gt;Node15 -->
<g id="edge21" class="edge">
<title>Node13&#45;&gt;Node15</title>
<path fill="none" stroke="midnightblue" d="M666.32,-109.83C705.41,-99.63 762.33,-84.78 797.85,-75.52"/>
<polygon fill="midnightblue" stroke="midnightblue" points="665.09,-106.53 656.3,-112.44 666.86,-113.31 665.09,-106.53"/>
</g>
<!-- Node16&#45;&gt;Node4 -->
<g id="edge24" class="edge">
<title>Node16&#45;&gt;Node4</title>
<path fill="none" stroke="midnightblue" d="M1069.38,-102.04C1068.18,-87.14 1063.93,-67.1 1050.5,-56 1017.4,-28.64 725.15,-16.02 617.27,-12.26"/>
<polygon fill="midnightblue" stroke="midnightblue" points="1065.89,-102.36 1069.8,-112.2 1072.88,-102.07 1065.89,-102.36"/>
</g>
<!-- Node16&#45;&gt;Node10 -->
<g id="edge23" class="edge">
<title>Node16&#45;&gt;Node10</title>
<path fill="none" stroke="midnightblue" d="M1047.31,-106.9C1031.72,-97 1011.37,-84.07 998.12,-75.65"/>
<polygon fill="midnightblue" stroke="midnightblue" points="1045.53,-109.92 1055.84,-112.32 1049.28,-104.01 1045.53,-109.92"/>
</g>
<!-- Node17 -->
<g id="node17" class="node">
<title>Node17</title>
<g id="a_node17"><a xlink:href="ToggleLED_8cpp.html" target="_top" xlink:title=" ">
<polygon fill="white" stroke="black" points="1097.5,-56.5 1097.5,-75.5 1201.5,-75.5 1201.5,-56.5 1097.5,-56.5"/>
<text text-anchor="middle" x="1149.5" y="-63.5" font-family="Helvetica,sans-Serif" font-size="10.00">src/ToggleLED.cpp</text>
</a>
</g>
</g>
<!-- Node16&#45;&gt;Node17 -->
<g id="edge25" class="edge">
<title>Node16&#45;&gt;Node17</title>
<path fill="none" stroke="midnightblue" d="M1090.8,-106.62C1105.42,-96.76 1124.33,-83.99 1136.68,-75.65"/>
<polygon fill="midnightblue" stroke="midnightblue" points="1088.68,-103.83 1082.35,-112.32 1092.6,-109.63 1088.68,-103.83"/>
</g>
<!-- Node18 -->
<g id="node18" class="node">
<title>Node18</title>
<g id="a_node18"><a xlink:href="ToggleLEDTest_8cpp.html" target="_top" xlink:title=" ">
<polygon fill="white" stroke="black" points="1219.5,-56.5 1219.5,-75.5 1353.5,-75.5 1353.5,-56.5 1219.5,-56.5"/>
<text text-anchor="middle" x="1286.5" y="-63.5" font-family="Helvetica,sans-Serif" font-size="10.00">tests/ToggleLEDTest.cpp</text>
</a>
</g>
</g>
<!-- Node16&#45;&gt;Node18 -->
<g id="edge26" class="edge">
<title>Node16&#45;&gt;Node18</title>
<path fill="none" stroke="midnightblue" d="M1113.61,-110.02C1154.6,-99.82 1214.8,-84.84 1252.28,-75.52"/>
<polygon fill="midnightblue" stroke="midnightblue" points="1112.74,-106.63 1103.88,-112.44 1114.43,-113.43 1112.74,-106.63"/>
</g>
</g>
</svg>
        <g id="navigator" transform="translate(0 0)" fill="#404254">
                <rect fill="#f2f5e9" fill-opacity="0.5" stroke="#606060" stroke-width=".5" x="0" y="0" width="60" height="60"/>
                <use id="zoomplus" xlink:href="#zoomPlus" x="17" y="9" onmousedown="handleZoom(evt,'in')"/>
                <use id="zoomminus" xlink:href="#zoomMin" x="42" y="9" onmousedown="handleZoom(evt,'out')"/>
                <use id="reset" xlink:href="#resetDef" x="30" y="36" onmousedown="handleReset()"/>
                <g id="arrowUp" xlink:href="#dirArrow" transform="translate(30 24)" onmousedown="handlePan(0,-1)">
                  <use xlink:href="#rim" fill="#404040">
                        <set attributeName="fill" to="#808080" begin="arrowUp.mouseover" end="arrowUp.mouseout"/>
                  </use>
                  <path fill="none" stroke="white" stroke-width="1.5" d="M0,-3.0v7 M-2.5,-0.5L0,-3.0L2.5,-0.5"/>
                </g>
                <g id="arrowRight" xlink:href="#dirArrow" transform="rotate(90) translate(36 -43)" onmousedown="handlePan(1,0)">
                  <use xlink:href="#rim" fill="#404040">
                        <set attributeName="fill" to="#808080" begin="arrowRight.mouseover" end="arrowRight.mouseout"/>
                  </use>
                  <path fill="none" stroke="white" stroke-width="1.5" d="M0,-3.0v7 M-2.5,-0.5L0,-3.0L2.5,-0.5"/>
                </g>
                <g id="arrowDown" xlink:href="#dirArrow" transform="rotate(180) translate(-30 -48)" onmousedown="handlePan(0,1)">
                  <use xlink:href="#rim" fill="#404040">
                        <set attributeName="fill" to="#808080" begin="arrowDown.mouseover" end="arrowDown.mouseout"/>
                  </use>
                  <path fill="none" stroke="white" stroke-width="1.5" d="M0,-3.0v7 M-2.5,-0.5L0,-3.0L2.5,-0.5"/>
                </g>
                <g id="arrowLeft" xlink:href="#dirArrow" transform="rotate(270) translate(-36 17)" onmousedown="handlePan(-1,0)">
                  <use xlink:href="#rim" fill="#404040">
                        <set attributeName="fill" to="#808080" begin="arrowLeft.mouseover" end="arrowLeft.mouseout"/>
                  </use>
                  <path fill="none" stroke="white" stroke-width="1.5" d="M0,-3.0v7 M-2.5,-0.5L0,-3.0L2.5,-0.5"/>
                </g>
        </g>
        <svg viewBox="0 0 15 15" width="100%" height="30px" preserveAspectRatio="xMaxYMin meet">
         <g id="arrow_out" transform="scale(0.3 0.3)">
          <a xlink:href="CallbackLinker_8h__dep__incl_org.svg" target="_base">
           <rect id="button" ry="5" rx="5" y="6" x="6" height="38" width="38"
                fill="#f2f5e9" fill-opacity="0.5" stroke="#606060" stroke-width="1.0"/>
           <path id="arrow"
             d="M 11.500037,31.436501 C 11.940474,20.09759 22.043105,11.32322 32.158766,21.979434 L 37.068811,17.246167 C 37.068811,17.246167 37.088388,32 37.088388,32 L 22.160133,31.978069 C 22.160133,31.978069 26.997745,27.140456 26.997745,27.140456 C 18.528582,18.264221 13.291696,25.230495 11.500037,31.436501 z"
             style="fill:#404040;"/>
          </a>
         </g>
        </svg>
</svg>
