<?xml version="1.0" encoding="UTF-8" standalone="no"?>
<!DOCTYPE svg PUBLIC "-//W3C//DTD SVG 1.1//EN"
 "http://www.w3.org/Graphics/SVG/1.1/DTD/svg11.dtd">
<!-- Generated by graphviz version 2.43.0 (0)
 -->
<!-- Title: include/Camera.h Pages: 1 -->
<svg width="546pt" height="196pt"
 viewBox="0.00 0.00 546.00 196.00" xmlns="http://www.w3.org/2000/svg" xmlns:xlink="http://www.w3.org/1999/xlink">
<g id="graph0" class="graph" transform="scale(1 1) rotate(0) translate(4 192)">
<title>include/Camera.h</title>
<polygon fill="white" stroke="transparent" points="-4,4 -4,-192 542,-192 542,4 -4,4"/>
<!-- Node1 -->
<g id="node1" class="node">
<title>Node1</title>
<g id="a_node1"><a xlink:title=" ">
<polygon fill="#bfbfbf" stroke="black" points="188,-168.5 188,-187.5 290,-187.5 290,-168.5 188,-168.5"/>
<text text-anchor="middle" x="239" y="-175.5" font-family="Helvetica,sans-Serif" font-size="10.00">include/Camera.h</text>
</a>
</g>
</g>
<!-- Node2 -->
<g id="node2" class="node">
<title>Node2</title>
<g id="a_node2"><a xlink:title=" ">
<polygon fill="white" stroke="#bfbfbf" points="31.5,-112.5 31.5,-131.5 134.5,-131.5 134.5,-112.5 31.5,-112.5"/>
<text text-anchor="middle" x="83" y="-119.5" font-family="Helvetica,sans-Serif" font-size="10.00">opencv2/core.hpp</text>
</a>
</g>
</g>
<!-- Node1&#45;&gt;Node2 -->
<g id="edge1" class="edge">
<title>Node1&#45;&gt;Node2</title>
<path fill="none" stroke="midnightblue" d="M214.28,-168.44C188.15,-159.4 146.74,-145.06 117.42,-134.92"/>
<polygon fill="midnightblue" stroke="midnightblue" points="118.2,-131.48 107.6,-131.52 115.91,-138.1 118.2,-131.48"/>
</g>
<!-- Node3 -->
<g id="node3" class="node">
<title>Node3</title>
<g id="a_node3"><a xlink:title=" ">
<polygon fill="white" stroke="#bfbfbf" points="0,-0.5 0,-19.5 118,-19.5 118,-0.5 0,-0.5"/>
<text text-anchor="middle" x="59" y="-7.5" font-family="Helvetica,sans-Serif" font-size="10.00">opencv2/videoio.hpp</text>
</a>
</g>
</g>
<!-- Node1&#45;&gt;Node3 -->
<g id="edge2" class="edge">
<title>Node1&#45;&gt;Node3</title>
<path fill="none" stroke="midnightblue" d="M229.32,-168.08C200.13,-141.15 112.69,-60.51 75.76,-26.45"/>
<polygon fill="midnightblue" stroke="midnightblue" points="78.01,-23.77 68.29,-19.57 73.27,-28.92 78.01,-23.77"/>
</g>
<!-- Node4 -->
<g id="node4" class="node">
<title>Node4</title>
<g id="a_node4"><a xlink:title=" ">
<polygon fill="white" stroke="#bfbfbf" points="136,-0.5 136,-19.5 254,-19.5 254,-0.5 136,-0.5"/>
<text text-anchor="middle" x="195" y="-7.5" font-family="Helvetica,sans-Serif" font-size="10.00">opencv2/highgui.hpp</text>
</a>
</g>
</g>
<!-- Node1&#45;&gt;Node4 -->
<g id="edge3" class="edge">
<title>Node1&#45;&gt;Node4</title>
<path fill="none" stroke="midnightblue" d="M234.69,-168.23C230.45,-159.3 224.03,-144.96 220,-132 208.99,-96.62 201.46,-53.9 197.72,-29.85"/>
<polygon fill="midnightblue" stroke="midnightblue" points="201.14,-29.03 196.19,-19.65 194.21,-30.06 201.14,-29.03"/>
</g>
<!-- Node5 -->
<g id="node5" class="node">
<title>Node5</title>
<g id="a_node5"><a xlink:title=" ">
<polygon fill="white" stroke="#bfbfbf" points="478,-0.5 478,-19.5 538,-19.5 538,-0.5 478,-0.5"/>
<text text-anchor="middle" x="508" y="-7.5" font-family="Helvetica,sans-Serif" font-size="10.00">iostream</text>
</a>
</g>
</g>
<!-- Node1&#45;&gt;Node5 -->
<g id="edge4" class="edge">
<title>Node1&#45;&gt;Node5</title>
<path fill="none" stroke="midnightblue" d="M259.51,-168.46C279.09,-160.03 309.21,-146.36 334,-132 392.83,-97.93 457.37,-50.01 488.74,-25.98"/>
<polygon fill="midnightblue" stroke="midnightblue" points="491.24,-28.47 497.03,-19.6 486.97,-22.93 491.24,-28.47"/>
</g>
<!-- Node6 -->
<g id="node6" class="node">
<title>Node6</title>
<g id="a_node6"><a xlink:title=" ">
<polygon fill="white" stroke="#bfbfbf" points="381,-112.5 381,-131.5 429,-131.5 429,-112.5 381,-112.5"/>
<text text-anchor="middle" x="405" y="-119.5" font-family="Helvetica,sans-Serif" font-size="10.00">thread</text>
</a>
</g>
</g>
<!-- Node1&#45;&gt;Node6 -->
<g id="edge5" class="edge">
<title>Node1&#45;&gt;Node6</title>
<path fill="none" stroke="midnightblue" d="M265.3,-168.44C294.01,-159.1 340.05,-144.13 371.37,-133.94"/>
<polygon fill="midnightblue" stroke="midnightblue" points="372.55,-137.24 380.98,-130.82 370.38,-130.58 372.55,-137.24"/>
</g>
<!-- Node7 -->
<g id="node7" class="node">
<title>Node7</title>
<g id="a_node7"><a xlink:href="CallbackLinker_8h.html" target="_top" xlink:title=" ">
<polygon fill="white" stroke="black" points="229,-112.5 229,-131.5 325,-131.5 325,-112.5 229,-112.5"/>
<text text-anchor="middle" x="277" y="-119.5" font-family="Helvetica,sans-Serif" font-size="10.00">CallbackLinker.h</text>
</a>
</g>
</g>
<!-- Node1&#45;&gt;Node7 -->
<g id="edge6" class="edge">
<title>Node1&#45;&gt;Node7</title>
<path fill="none" stroke="midnightblue" d="M245.27,-168.08C250.64,-160.46 258.52,-149.26 265.08,-139.94"/>
<polygon fill="midnightblue" stroke="midnightblue" points="267.95,-141.94 270.84,-131.75 262.22,-137.91 267.95,-141.94"/>
</g>
<!-- Node8 -->
<g id="node8" class="node">
<title>Node8</title>
<g id="a_node8"><a xlink:href="Card_8h.html" target="_top" xlink:title=" ">
<polygon fill="white" stroke="black" points="265,-56.5 265,-75.5 313,-75.5 313,-56.5 265,-56.5"/>
<text text-anchor="middle" x="289" y="-63.5" font-family="Helvetica,sans-Serif" font-size="10.00">Card.h</text>
</a>
</g>
</g>
<!-- Node7&#45;&gt;Node8 -->
<g id="edge7" class="edge">
<title>Node7&#45;&gt;Node8</title>
<path fill="none" stroke="midnightblue" d="M278.98,-112.08C280.57,-104.93 282.86,-94.64 284.85,-85.69"/>
<polygon fill="midnightblue" stroke="midnightblue" points="288.3,-86.27 287.06,-75.75 281.47,-84.75 288.3,-86.27"/>
</g>
<!-- Node8&#45;&gt;Node3 -->
<g id="edge8" class="edge">
<title>Node8&#45;&gt;Node3</title>
<path fill="none" stroke="midnightblue" d="M264.82,-59.32C227.03,-50.45 153.3,-33.14 105.12,-21.83"/>
<polygon fill="midnightblue" stroke="midnightblue" points="105.78,-18.39 95.25,-19.51 104.18,-25.2 105.78,-18.39"/>
</g>
<!-- Node8&#45;&gt;Node4 -->
<g id="edge9" class="edge">
<title>Node8&#45;&gt;Node4</title>
<path fill="none" stroke="midnightblue" d="M273.9,-56.32C259.1,-47.82 236.31,-34.73 219.02,-24.8"/>
<polygon fill="midnightblue" stroke="midnightblue" points="220.48,-21.6 210.07,-19.65 216.99,-27.67 220.48,-21.6"/>
</g>
<!-- Node8&#45;&gt;Node5 -->
<g id="edge12" class="edge">
<title>Node8&#45;&gt;Node5</title>
<path fill="none" stroke="midnightblue" d="M313.27,-59.01C350.65,-49.8 422.7,-32.03 467.9,-20.89"/>
<polygon fill="midnightblue" stroke="midnightblue" points="468.8,-24.27 477.67,-18.48 467.12,-17.47 468.8,-24.27"/>
</g>
<!-- Node9 -->
<g id="node9" class="node">
<title>Node9</title>
<g id="a_node9"><a xlink:title=" ">
<polygon fill="white" stroke="#bfbfbf" points="338,-0.5 338,-19.5 460,-19.5 460,-0.5 338,-0.5"/>
<text text-anchor="middle" x="399" y="-7.5" font-family="Helvetica,sans-Serif" font-size="10.00">opencv2/imgproc.hpp</text>
</a>
</g>
</g>
<!-- Node8&#45;&gt;Node9 -->
<g id="edge10" class="edge">
<title>Node8&#45;&gt;Node9</title>
<path fill="none" stroke="midnightblue" d="M306.67,-56.32C324.39,-47.62 351.9,-34.12 372.29,-24.11"/>
<polygon fill="midnightblue" stroke="midnightblue" points="373.94,-27.2 381.37,-19.65 370.85,-20.92 373.94,-27.2"/>
</g>
<!-- Node10 -->
<g id="node10" class="node">
<title>Node10</title>
<g id="a_node10"><a xlink:title=" ">
<polygon fill="white" stroke="#bfbfbf" points="272.5,-0.5 272.5,-19.5 319.5,-19.5 319.5,-0.5 272.5,-0.5"/>
<text text-anchor="middle" x="296" y="-7.5" font-family="Helvetica,sans-Serif" font-size="10.00">vector</text>
</a>
</g>
</g>
<!-- Node8&#45;&gt;Node10 -->
<g id="edge11" class="edge">
<title>Node8&#45;&gt;Node10</title>
<path fill="none" stroke="midnightblue" d="M290.16,-56.08C291.08,-48.93 292.42,-38.64 293.58,-29.69"/>
<polygon fill="midnightblue" stroke="midnightblue" points="297.05,-30.12 294.87,-19.75 290.11,-29.22 297.05,-30.12"/>
</g>
</g>
</svg>
