<?xml version="1.0" encoding="UTF-8" standalone="no"?>
<!DOCTYPE svg PUBLIC "-//W3C//DTD SVG 1.1//EN"
 "http://www.w3.org/Graphics/SVG/1.1/DTD/svg11.dtd">
<!-- Generated by graphviz version 2.43.0 (0)
 -->
<!-- Title: include/CardDiscriminator.h Pages: 1 -->
<svg width="339pt" height="140pt"
 viewBox="0.00 0.00 338.50 140.00" xmlns="http://www.w3.org/2000/svg" xmlns:xlink="http://www.w3.org/1999/xlink">
<g id="graph0" class="graph" transform="scale(1 1) rotate(0) translate(4 136)">
<title>include/CardDiscriminator.h</title>
<polygon fill="white" stroke="transparent" points="-4,4 -4,-136 334.5,-136 334.5,4 -4,4"/>
<!-- Node1 -->
<g id="node1" class="node">
<title>Node1</title>
<g id="a_node1"><a xlink:title=" ">
<polygon fill="#bfbfbf" stroke="black" points="108.5,-112.5 108.5,-131.5 260.5,-131.5 260.5,-112.5 108.5,-112.5"/>
<text text-anchor="middle" x="184.5" y="-119.5" font-family="Helvetica,sans-Serif" font-size="10.00">include/CardDiscriminator.h</text>
</a>
</g>
</g>
<!-- Node2 -->
<g id="node2" class="node">
<title>Node2</title>
<g id="a_node2"><a xlink:href="DetectCard_8h.html" target="_top" xlink:title=" ">
<polygon fill="white" stroke="black" points="51,-56.5 51,-75.5 170,-75.5 170,-56.5 51,-56.5"/>
<text text-anchor="middle" x="110.5" y="-63.5" font-family="Helvetica,sans-Serif" font-size="10.00">include/DetectCard.h</text>
</a>
</g>
</g>
<!-- Node1&#45;&gt;Node2 -->
<g id="edge1" class="edge">
<title>Node1&#45;&gt;Node2</title>
<path fill="none" stroke="midnightblue" d="M164.47,-106.38C151.09,-96.62 133.94,-84.11 122.61,-75.83"/>
<polygon fill="midnightblue" stroke="midnightblue" points="162.47,-109.26 172.61,-112.32 166.6,-103.6 162.47,-109.26"/>
</g>
<!-- Node5 -->
<g id="node5" class="node">
<title>Node5</title>
<g id="a_node5"><a xlink:href="CardDiscriminator_8cpp.html" target="_top" xlink:title=" ">
<polygon fill="white" stroke="black" points="188.5,-56.5 188.5,-75.5 330.5,-75.5 330.5,-56.5 188.5,-56.5"/>
<text text-anchor="middle" x="259.5" y="-63.5" font-family="Helvetica,sans-Serif" font-size="10.00">src/CardDiscriminator.cpp</text>
</a>
</g>
</g>
<!-- Node1&#45;&gt;Node5 -->
<g id="edge4" class="edge">
<title>Node1&#45;&gt;Node5</title>
<path fill="none" stroke="midnightblue" d="M204.81,-106.38C218.36,-96.62 235.74,-84.11 247.23,-75.83"/>
<polygon fill="midnightblue" stroke="midnightblue" points="202.62,-103.64 196.55,-112.32 206.71,-109.32 202.62,-103.64"/>
</g>
<!-- Node3 -->
<g id="node3" class="node">
<title>Node3</title>
<g id="a_node3"><a xlink:href="DetectCard_8cpp.html" target="_top" xlink:title=" ">
<polygon fill="white" stroke="black" points="0,-0.5 0,-19.5 109,-19.5 109,-0.5 0,-0.5"/>
<text text-anchor="middle" x="54.5" y="-7.5" font-family="Helvetica,sans-Serif" font-size="10.00">src/DetectCard.cpp</text>
</a>
</g>
</g>
<!-- Node2&#45;&gt;Node3 -->
<g id="edge2" class="edge">
<title>Node2&#45;&gt;Node3</title>
<path fill="none" stroke="midnightblue" d="M94.17,-49.25C84.24,-39.67 71.91,-27.79 63.66,-19.83"/>
<polygon fill="midnightblue" stroke="midnightblue" points="91.87,-51.9 101.5,-56.32 96.73,-46.86 91.87,-51.9"/>
</g>
<!-- Node4 -->
<g id="node4" class="node">
<title>Node4</title>
<g id="a_node4"><a xlink:href="main_8cpp.html" target="_top" xlink:title=" ">
<polygon fill="white" stroke="black" points="127,-0.5 127,-19.5 206,-19.5 206,-0.5 127,-0.5"/>
<text text-anchor="middle" x="166.5" y="-7.5" font-family="Helvetica,sans-Serif" font-size="10.00">src/main.cpp</text>
</a>
</g>
</g>
<!-- Node2&#45;&gt;Node4 -->
<g id="edge3" class="edge">
<title>Node2&#45;&gt;Node4</title>
<path fill="none" stroke="midnightblue" d="M126.83,-49.25C136.76,-39.67 149.09,-27.79 157.34,-19.83"/>
<polygon fill="midnightblue" stroke="midnightblue" points="124.27,-46.86 119.5,-56.32 129.13,-51.9 124.27,-46.86"/>
</g>
</g>
</svg>
