<?xml version="1.0" encoding="UTF-8" standalone="no"?>
<!DOCTYPE svg PUBLIC "-//W3C//DTD SVG 1.1//EN"
 "http://www.w3.org/Graphics/SVG/1.1/DTD/svg11.dtd">
<!-- Generated by graphviz version 2.43.0 (0)
 -->
<!-- Title: include/CardDiscriminator.h Pages: 1 -->
<!--zoomable 140 -->
<svg id="main" version="1.1" xmlns="http://www.w3.org/2000/svg" xmlns:xlink="http://www.w3.org/1999/xlink" xml:space="preserve" onload="init(evt)">
<style type="text/css"><![CDATA[
.edge:hover path { stroke: red; }
.edge:hover polygon { stroke: red; fill: red; }
]]></style>
<script type="text/javascript"><![CDATA[
var edges = document.getElementsByTagName('g');
if (edges && edges.length) {
  for (var i=0;i<edges.length;i++) {
    if (edges[i].id.substr(0,4)=='edge') {
      edges[i].setAttribute('class','edge');
    }
  }
}
]]></script>
        <defs>
                <circle id="rim" cx="0" cy="0" r="7"/>
                <circle id="rim2" cx="0" cy="0" r="3.5"/>
                <g id="zoomPlus">
                        <use xlink:href="#rim" fill="#404040">
                                <set attributeName="fill" to="#808080" begin="zoomplus.mouseover" end="zoomplus.mouseout"/>
                        </use>
                        <path d="M-4,0h8M0,-4v8" fill="none" stroke="white" stroke-width="1.5" pointer-events="none"/>
                </g>
                <g id="zoomMin">
                        <use xlink:href="#rim" fill="#404040">
                                <set attributeName="fill" to="#808080" begin="zoomminus.mouseover" end="zoomminus.mouseout"/>
                        </use>
                        <path d="M-4,0h8" fill="none" stroke="white" stroke-width="1.5" pointer-events="none"/>
                </g>
                <g id="dirArrow">
                        <path fill="none" stroke="white" stroke-width="1.5" d="M0,-3.0v7 M-2.5,-0.5L0,-3.0L2.5,-0.5"/>
                </g>
               <g id="resetDef">
                       <use xlink:href="#rim2" fill="#404040">
                               <set attributeName="fill" to="#808080" begin="reset.mouseover" end="reset.mouseout"/>
                       </use>
               </g>
        </defs>

<script type="text/javascript">
var viewWidth = 772;
var viewHeight = 140;
var sectionId = 'dynsection-1';
</script>
<script xlink:href="svgpan.js"/>
<svg id="graph" class="graph">
<g id="viewport">
<title>include/CardDiscriminator.h</title>
<polygon fill="white" stroke="transparent" points="-4,4 -4,-136 767.5,-136 767.5,4 -4,4"/>
<!-- Node1 -->
<g id="node1" class="node">
<title>Node1</title>
<g id="a_node1"><a xlink:title=" ">
<polygon fill="#bfbfbf" stroke="black" points="376.5,-112.5 376.5,-131.5 528.5,-131.5 528.5,-112.5 376.5,-112.5"/>
<text text-anchor="middle" x="452.5" y="-119.5" font-family="Helvetica,sans-Serif" font-size="10.00">include/CardDiscriminator.h</text>
</a>
</g>
</g>
<!-- Node2 -->
<g id="node2" class="node">
<title>Node2</title>
<g id="a_node2"><a xlink:href="DetectCard_8h.html" target="_top" xlink:title=" ">
<polygon fill="white" stroke="black" points="234,-56.5 234,-75.5 353,-75.5 353,-56.5 234,-56.5"/>
<text text-anchor="middle" x="293.5" y="-63.5" font-family="Helvetica,sans-Serif" font-size="10.00">include/DetectCard.h</text>
</a>
</g>
</g>
<!-- Node1&#45;&gt;Node2 -->
<g id="edge1" class="edge">
<title>Node1&#45;&gt;Node2</title>
<path fill="none" stroke="midnightblue" d="M417.67,-109.17C387.73,-99 345.28,-84.59 318.58,-75.52"/>
<polygon fill="midnightblue" stroke="midnightblue" points="416.71,-112.54 427.31,-112.44 418.96,-105.91 416.71,-112.54"/>
</g>
<!-- Node6 -->
<g id="node6" class="node">
<title>Node6</title>
<g id="a_node6"><a xlink:href="tests_2main_8cpp.html" target="_top" xlink:title=" ">
<polygon fill="white" stroke="black" points="381,-0.5 381,-19.5 470,-19.5 470,-0.5 381,-0.5"/>
<text text-anchor="middle" x="425.5" y="-7.5" font-family="Helvetica,sans-Serif" font-size="10.00">tests/main.cpp</text>
</a>
</g>
</g>
<!-- Node1&#45;&gt;Node6 -->
<g id="edge8" class="edge">
<title>Node1&#45;&gt;Node6</title>
<path fill="none" stroke="midnightblue" d="M438,-104.4C431.95,-96.39 425.62,-86.3 422.5,-76 416.61,-56.54 420.48,-32.31 423.31,-19.64"/>
<polygon fill="midnightblue" stroke="midnightblue" points="435.28,-106.6 444.29,-112.18 440.73,-102.2 435.28,-106.6"/>
</g>
<!-- Node7 -->
<g id="node7" class="node">
<title>Node7</title>
<g id="a_node7"><a xlink:href="CardDiscriminator_8cpp.html" target="_top" xlink:title=" ">
<polygon fill="white" stroke="black" points="431.5,-56.5 431.5,-75.5 573.5,-75.5 573.5,-56.5 431.5,-56.5"/>
<text text-anchor="middle" x="502.5" y="-63.5" font-family="Helvetica,sans-Serif" font-size="10.00">src/CardDiscriminator.cpp</text>
</a>
</g>
</g>
<!-- Node1&#45;&gt;Node7 -->
<g id="edge6" class="edge">
<title>Node1&#45;&gt;Node7</title>
<path fill="none" stroke="midnightblue" d="M467.58,-104.72C476.39,-95.2 487.17,-83.56 494.4,-75.75"/>
<polygon fill="midnightblue" stroke="midnightblue" points="464.98,-102.37 460.76,-112.08 470.12,-107.12 464.98,-102.37"/>
</g>
<!-- Node8 -->
<g id="node8" class="node">
<title>Node8</title>
<g id="a_node8"><a xlink:href="CardDiscriminatorTest_8cpp.html" target="_top" xlink:title=" ">
<polygon fill="white" stroke="black" points="591.5,-56.5 591.5,-75.5 763.5,-75.5 763.5,-56.5 591.5,-56.5"/>
<text text-anchor="middle" x="677.5" y="-63.5" font-family="Helvetica,sans-Serif" font-size="10.00">tests/CardDiscriminatorTest.cpp</text>
</a>
</g>
</g>
<!-- Node1&#45;&gt;Node8 -->
<g id="edge7" class="edge">
<title>Node1&#45;&gt;Node8</title>
<path fill="none" stroke="midnightblue" d="M497.97,-110.09C540.47,-99.89 603.08,-84.86 642.01,-75.52"/>
<polygon fill="midnightblue" stroke="midnightblue" points="497.06,-106.71 488.15,-112.44 498.69,-113.51 497.06,-106.71"/>
</g>
<!-- Node3 -->
<g id="node3" class="node">
<title>Node3</title>
<g id="a_node3"><a xlink:href="DetectCard_8cpp.html" target="_top" xlink:title=" ">
<polygon fill="white" stroke="black" points="0,-0.5 0,-19.5 109,-19.5 109,-0.5 0,-0.5"/>
<text text-anchor="middle" x="54.5" y="-7.5" font-family="Helvetica,sans-Serif" font-size="10.00">src/DetectCard.cpp</text>
</a>
</g>
</g>
<!-- Node2&#45;&gt;Node3 -->
<g id="edge2" class="edge">
<title>Node2&#45;&gt;Node3</title>
<path fill="none" stroke="midnightblue" d="M245.78,-54.22C200.61,-44.01 133.73,-28.9 92.19,-19.52"/>
<polygon fill="midnightblue" stroke="midnightblue" points="245.1,-57.65 255.63,-56.44 246.65,-50.83 245.1,-57.65"/>
</g>
<!-- Node4 -->
<g id="node4" class="node">
<title>Node4</title>
<g id="a_node4"><a xlink:href="src_2main_8cpp.html" target="_top" xlink:title=" ">
<polygon fill="white" stroke="black" points="127,-0.5 127,-19.5 206,-19.5 206,-0.5 127,-0.5"/>
<text text-anchor="middle" x="166.5" y="-7.5" font-family="Helvetica,sans-Serif" font-size="10.00">src/main.cpp</text>
</a>
</g>
</g>
<!-- Node2&#45;&gt;Node4 -->
<g id="edge3" class="edge">
<title>Node2&#45;&gt;Node4</title>
<path fill="none" stroke="midnightblue" d="M264.11,-52.5C240.3,-42.38 207.39,-28.39 186.53,-19.52"/>
<polygon fill="midnightblue" stroke="midnightblue" points="262.8,-55.75 273.38,-56.44 265.54,-49.31 262.8,-55.75"/>
</g>
<!-- Node5 -->
<g id="node5" class="node">
<title>Node5</title>
<g id="a_node5"><a xlink:href="DetectCardTest_8cpp.html" target="_top" xlink:title=" ">
<polygon fill="white" stroke="black" points="224.5,-0.5 224.5,-19.5 362.5,-19.5 362.5,-0.5 224.5,-0.5"/>
<text text-anchor="middle" x="293.5" y="-7.5" font-family="Helvetica,sans-Serif" font-size="10.00">tests/DetectCardTest.cpp</text>
</a>
</g>
</g>
<!-- Node2&#45;&gt;Node5 -->
<g id="edge4" class="edge">
<title>Node2&#45;&gt;Node5</title>
<path fill="none" stroke="midnightblue" d="M293.5,-45.8C293.5,-36.91 293.5,-26.78 293.5,-19.75"/>
<polygon fill="midnightblue" stroke="midnightblue" points="290,-46.08 293.5,-56.08 297,-46.08 290,-46.08"/>
</g>
<!-- Node2&#45;&gt;Node6 -->
<g id="edge5" class="edge">
<title>Node2&#45;&gt;Node6</title>
<path fill="none" stroke="midnightblue" d="M323.72,-52.64C348.49,-42.5 382.9,-28.43 404.68,-19.52"/>
<polygon fill="midnightblue" stroke="midnightblue" points="322.35,-49.42 314.42,-56.44 325,-55.9 322.35,-49.42"/>
</g>
</g>
</svg>
        <g id="navigator" transform="translate(0 0)" fill="#404254">
                <rect fill="#f2f5e9" fill-opacity="0.5" stroke="#606060" stroke-width=".5" x="0" y="0" width="60" height="60"/>
                <use id="zoomplus" xlink:href="#zoomPlus" x="17" y="9" onmousedown="handleZoom(evt,'in')"/>
                <use id="zoomminus" xlink:href="#zoomMin" x="42" y="9" onmousedown="handleZoom(evt,'out')"/>
                <use id="reset" xlink:href="#resetDef" x="30" y="36" onmousedown="handleReset()"/>
                <g id="arrowUp" xlink:href="#dirArrow" transform="translate(30 24)" onmousedown="handlePan(0,-1)">
                  <use xlink:href="#rim" fill="#404040">
                        <set attributeName="fill" to="#808080" begin="arrowUp.mouseover" end="arrowUp.mouseout"/>
                  </use>
                  <path fill="none" stroke="white" stroke-width="1.5" d="M0,-3.0v7 M-2.5,-0.5L0,-3.0L2.5,-0.5"/>
                </g>
                <g id="arrowRight" xlink:href="#dirArrow" transform="rotate(90) translate(36 -43)" onmousedown="handlePan(1,0)">
                  <use xlink:href="#rim" fill="#404040">
                        <set attributeName="fill" to="#808080" begin="arrowRight.mouseover" end="arrowRight.mouseout"/>
                  </use>
                  <path fill="none" stroke="white" stroke-width="1.5" d="M0,-3.0v7 M-2.5,-0.5L0,-3.0L2.5,-0.5"/>
                </g>
                <g id="arrowDown" xlink:href="#dirArrow" transform="rotate(180) translate(-30 -48)" onmousedown="handlePan(0,1)">
                  <use xlink:href="#rim" fill="#404040">
                        <set attributeName="fill" to="#808080" begin="arrowDown.mouseover" end="arrowDown.mouseout"/>
                  </use>
                  <path fill="none" stroke="white" stroke-width="1.5" d="M0,-3.0v7 M-2.5,-0.5L0,-3.0L2.5,-0.5"/>
                </g>
                <g id="arrowLeft" xlink:href="#dirArrow" transform="rotate(270) translate(-36 17)" onmousedown="handlePan(-1,0)">
                  <use xlink:href="#rim" fill="#404040">
                        <set attributeName="fill" to="#808080" begin="arrowLeft.mouseover" end="arrowLeft.mouseout"/>
                  </use>
                  <path fill="none" stroke="white" stroke-width="1.5" d="M0,-3.0v7 M-2.5,-0.5L0,-3.0L2.5,-0.5"/>
                </g>
        </g>
        <svg viewBox="0 0 15 15" width="100%" height="30px" preserveAspectRatio="xMaxYMin meet">
         <g id="arrow_out" transform="scale(0.3 0.3)">
          <a xlink:href="CardDiscriminator_8h__dep__incl_org.svg" target="_base">
           <rect id="button" ry="5" rx="5" y="6" x="6" height="38" width="38"
                fill="#f2f5e9" fill-opacity="0.5" stroke="#606060" stroke-width="1.0"/>
           <path id="arrow"
             d="M 11.500037,31.436501 C 11.940474,20.09759 22.043105,11.32322 32.158766,21.979434 L 37.068811,17.246167 C 37.068811,17.246167 37.088388,32 37.088388,32 L 22.160133,31.978069 C 22.160133,31.978069 26.997745,27.140456 26.997745,27.140456 C 18.528582,18.264221 13.291696,25.230495 11.500037,31.436501 z"
             style="fill:#404040;"/>
          </a>
         </g>
        </svg>
</svg>
