<?xml version="1.0" encoding="UTF-8" standalone="no"?>
<!DOCTYPE svg PUBLIC "-//W3C//DTD SVG 1.1//EN"
 "http://www.w3.org/Graphics/SVG/1.1/DTD/svg11.dtd">
<!-- Generated by graphviz version 2.43.0 (0)
 -->
<!-- Title: include/Card.h Pages: 1 -->
<svg width="1668pt" height="252pt"
 viewBox="0.00 0.00 1667.79 252.00" xmlns="http://www.w3.org/2000/svg" xmlns:xlink="http://www.w3.org/1999/xlink">
<g id="graph0" class="graph" transform="scale(1 1) rotate(0) translate(4 248)">
<title>include/Card.h</title>
<polygon fill="white" stroke="transparent" points="-4,4 -4,-248 1663.79,-248 1663.79,4 -4,4"/>
<!-- Node1 -->
<g id="node1" class="node">
<title>Node1</title>
<g id="a_node1"><a xlink:title=" ">
<polygon fill="#bfbfbf" stroke="black" points="1127,-224.5 1127,-243.5 1213,-243.5 1213,-224.5 1127,-224.5"/>
<text text-anchor="middle" x="1170" y="-231.5" font-family="Helvetica,sans-Serif" font-size="10.00">include/Card.h</text>
</a>
</g>
</g>
<!-- Node2 -->
<g id="node2" class="node">
<title>Node2</title>
<g id="a_node2"><a xlink:href="CallbackLinker_8h.html" target="_top" xlink:title=" ">
<polygon fill="white" stroke="black" points="717,-168.5 717,-187.5 851,-187.5 851,-168.5 717,-168.5"/>
<text text-anchor="middle" x="784" y="-175.5" font-family="Helvetica,sans-Serif" font-size="10.00">include/CallbackLinker.h</text>
</a>
</g>
</g>
<!-- Node1&#45;&gt;Node2 -->
<g id="edge1" class="edge">
<title>Node1&#45;&gt;Node2</title>
<path fill="none" stroke="midnightblue" d="M1116.75,-225.55C1045.59,-215.6 919.76,-197.99 844.91,-187.52"/>
<polygon fill="midnightblue" stroke="midnightblue" points="1116.46,-229.04 1126.84,-226.96 1117.43,-222.11 1116.46,-229.04"/>
</g>
<!-- Node7 -->
<g id="node7" class="node">
<title>Node7</title>
<g id="a_node7"><a xlink:href="tests_2main_8cpp.html" target="_top" xlink:title=" ">
<polygon fill="white" stroke="black" points="1009.5,-0.5 1009.5,-19.5 1098.5,-19.5 1098.5,-0.5 1009.5,-0.5"/>
<text text-anchor="middle" x="1054" y="-7.5" font-family="Helvetica,sans-Serif" font-size="10.00">tests/main.cpp</text>
</a>
</g>
</g>
<!-- Node1&#45;&gt;Node7 -->
<g id="edge40" class="edge">
<title>Node1&#45;&gt;Node7</title>
<path fill="none" stroke="midnightblue" d="M1223.42,-229.8C1315.83,-223.77 1501.57,-209.41 1563,-188 1612.44,-170.77 1680.68,-156.44 1653,-112 1594.38,-17.9 1228.01,-10.24 1098.94,-10.51"/>
<polygon fill="midnightblue" stroke="midnightblue" points="1222.91,-226.32 1213.16,-230.46 1223.36,-233.31 1222.91,-226.32"/>
</g>
<!-- Node8 -->
<g id="node8" class="node">
<title>Node8</title>
<g id="a_node8"><a xlink:href="DetectCard_8h.html" target="_top" xlink:title=" ">
<polygon fill="white" stroke="black" points="1118.5,-112.5 1118.5,-131.5 1237.5,-131.5 1237.5,-112.5 1118.5,-112.5"/>
<text text-anchor="middle" x="1178" y="-119.5" font-family="Helvetica,sans-Serif" font-size="10.00">include/DetectCard.h</text>
</a>
</g>
</g>
<!-- Node1&#45;&gt;Node8 -->
<g id="edge34" class="edge">
<title>Node1&#45;&gt;Node8</title>
<path fill="none" stroke="midnightblue" d="M1171.36,-214.35C1173.11,-190.25 1176.09,-149.31 1177.38,-131.59"/>
<polygon fill="midnightblue" stroke="midnightblue" points="1167.86,-214.14 1170.63,-224.37 1174.84,-214.65 1167.86,-214.14"/>
</g>
<!-- Node10 -->
<g id="node10" class="node">
<title>Node10</title>
<g id="a_node10"><a xlink:href="DetectCardTest_8cpp.html" target="_top" xlink:title=" ">
<polygon fill="white" stroke="black" points="1372,-56.5 1372,-75.5 1510,-75.5 1510,-56.5 1372,-56.5"/>
<text text-anchor="middle" x="1441" y="-63.5" font-family="Helvetica,sans-Serif" font-size="10.00">tests/DetectCardTest.cpp</text>
</a>
</g>
</g>
<!-- Node1&#45;&gt;Node10 -->
<g id="edge39" class="edge">
<title>Node1&#45;&gt;Node10</title>
<path fill="none" stroke="midnightblue" d="M1223.31,-229.68C1334.38,-221.51 1584.52,-196.25 1635,-132 1671.32,-85.78 1579.6,-72.15 1510.21,-68.3"/>
<polygon fill="midnightblue" stroke="midnightblue" points="1223.04,-226.19 1213.32,-230.39 1223.54,-233.17 1223.04,-226.19"/>
</g>
<!-- Node11 -->
<g id="node11" class="node">
<title>Node11</title>
<g id="a_node11"><a xlink:href="GamePlay_8h.html" target="_top" xlink:title=" ">
<polygon fill="white" stroke="black" points="360.5,-56.5 360.5,-75.5 473.5,-75.5 473.5,-56.5 360.5,-56.5"/>
<text text-anchor="middle" x="417" y="-63.5" font-family="Helvetica,sans-Serif" font-size="10.00">include/GamePlay.h</text>
</a>
</g>
</g>
<!-- Node1&#45;&gt;Node11 -->
<g id="edge35" class="edge">
<title>Node1&#45;&gt;Node11</title>
<path fill="none" stroke="midnightblue" d="M1116.87,-232.56C1030.11,-230.79 853.16,-222.78 708,-188 641.62,-172.1 628.04,-158.17 565,-132 518.35,-112.63 464.13,-88.36 436.05,-75.66"/>
<polygon fill="midnightblue" stroke="midnightblue" points="1116.93,-236.06 1126.99,-232.74 1117.06,-229.06 1116.93,-236.06"/>
</g>
<!-- Node14 -->
<g id="node14" class="node">
<title>Node14</title>
<g id="a_node14"><a xlink:href="StrategyEngine_8h.html" target="_top" xlink:title=" ">
<polygon fill="white" stroke="black" points="348,-112.5 348,-131.5 486,-131.5 486,-112.5 348,-112.5"/>
<text text-anchor="middle" x="417" y="-119.5" font-family="Helvetica,sans-Serif" font-size="10.00">include/StrategyEngine.h</text>
</a>
</g>
</g>
<!-- Node1&#45;&gt;Node14 -->
<g id="edge36" class="edge">
<title>Node1&#45;&gt;Node14</title>
<path fill="none" stroke="midnightblue" d="M1116.51,-232.1C984.32,-229.4 645.13,-219.53 537,-188 494.24,-175.53 449.57,-146.32 428.85,-131.68"/>
<polygon fill="midnightblue" stroke="midnightblue" points="1116.72,-235.6 1126.79,-232.3 1116.86,-228.6 1116.72,-235.6"/>
</g>
<!-- Node17 -->
<g id="node17" class="node">
<title>Node17</title>
<g id="a_node17"><a xlink:href="ToggleLED_8h.html" target="_top" xlink:title=" ">
<polygon fill="white" stroke="black" points="875,-112.5 875,-131.5 989,-131.5 989,-112.5 875,-112.5"/>
<text text-anchor="middle" x="932" y="-119.5" font-family="Helvetica,sans-Serif" font-size="10.00">include/ToggleLED.h</text>
</a>
</g>
</g>
<!-- Node1&#45;&gt;Node17 -->
<g id="edge37" class="edge">
<title>Node1&#45;&gt;Node17</title>
<path fill="none" stroke="midnightblue" d="M1142.23,-220.16C1093.12,-197.47 992.22,-150.83 950.59,-131.59"/>
<polygon fill="midnightblue" stroke="midnightblue" points="1140.78,-223.35 1151.32,-224.37 1143.72,-217 1140.78,-223.35"/>
</g>
<!-- Node20 -->
<g id="node20" class="node">
<title>Node20</title>
<g id="a_node20"><a xlink:href="CardDiscriminator_8h.html" target="_top" xlink:title=" ">
<polygon fill="white" stroke="black" points="1198,-168.5 1198,-187.5 1350,-187.5 1350,-168.5 1198,-168.5"/>
<text text-anchor="middle" x="1274" y="-175.5" font-family="Helvetica,sans-Serif" font-size="10.00">include/CardDiscriminator.h</text>
</a>
</g>
</g>
<!-- Node1&#45;&gt;Node20 -->
<g id="edge29" class="edge">
<title>Node1&#45;&gt;Node20</title>
<path fill="none" stroke="midnightblue" d="M1195.83,-219.59C1215.06,-209.61 1240.74,-196.27 1257.33,-187.65"/>
<polygon fill="midnightblue" stroke="midnightblue" points="1193.97,-216.61 1186.71,-224.32 1197.2,-222.82 1193.97,-216.61"/>
</g>
<!-- Node21 -->
<g id="node21" class="node">
<title>Node21</title>
<g id="a_node21"><a xlink:href="CardDiscriminator_8cpp.html" target="_top" xlink:title=" ">
<polygon fill="white" stroke="black" points="1484,-112.5 1484,-131.5 1626,-131.5 1626,-112.5 1484,-112.5"/>
<text text-anchor="middle" x="1555" y="-119.5" font-family="Helvetica,sans-Serif" font-size="10.00">src/CardDiscriminator.cpp</text>
</a>
</g>
</g>
<!-- Node1&#45;&gt;Node21 -->
<g id="edge38" class="edge">
<title>Node1&#45;&gt;Node21</title>
<path fill="none" stroke="midnightblue" d="M1220.32,-222.26C1258.57,-213.8 1312.39,-201.25 1359,-188 1421.93,-170.11 1494.75,-144.69 1531.37,-131.57"/>
<polygon fill="midnightblue" stroke="midnightblue" points="1219.46,-218.87 1210.45,-224.43 1220.97,-225.7 1219.46,-218.87"/>
</g>
<!-- Node3 -->
<g id="node3" class="node">
<title>Node3</title>
<g id="a_node3"><a xlink:href="Camera_8h.html" target="_top" xlink:title=" ">
<polygon fill="white" stroke="black" points="733,-112.5 733,-131.5 835,-131.5 835,-112.5 733,-112.5"/>
<text text-anchor="middle" x="784" y="-119.5" font-family="Helvetica,sans-Serif" font-size="10.00">include/Camera.h</text>
</a>
</g>
</g>
<!-- Node2&#45;&gt;Node3 -->
<g id="edge2" class="edge">
<title>Node2&#45;&gt;Node3</title>
<path fill="none" stroke="midnightblue" d="M784,-157.8C784,-148.91 784,-138.78 784,-131.75"/>
<polygon fill="midnightblue" stroke="midnightblue" points="780.5,-158.08 784,-168.08 787.5,-158.08 780.5,-158.08"/>
</g>
<!-- Node6 -->
<g id="node6" class="node">
<title>Node6</title>
<g id="a_node6"><a xlink:href="CameraTest_8cpp.html" target="_top" xlink:title=" ">
<polygon fill="white" stroke="black" points="530,-56.5 530,-75.5 652,-75.5 652,-56.5 530,-56.5"/>
<text text-anchor="middle" x="591" y="-63.5" font-family="Helvetica,sans-Serif" font-size="10.00">tests/CameraTest.cpp</text>
</a>
</g>
</g>
<!-- Node2&#45;&gt;Node6 -->
<g id="edge28" class="edge">
<title>Node2&#45;&gt;Node6</title>
<path fill="none" stroke="midnightblue" d="M759.96,-163.3C719.62,-140.3 639.41,-94.59 606.07,-75.59"/>
<polygon fill="midnightblue" stroke="midnightblue" points="758.43,-166.46 768.86,-168.37 761.9,-160.38 758.43,-166.46"/>
</g>
<!-- Node2&#45;&gt;Node8 -->
<g id="edge7" class="edge">
<title>Node2&#45;&gt;Node8</title>
<path fill="none" stroke="midnightblue" d="M856.78,-167.03C932.11,-156.7 1048.39,-140.76 1118.44,-131.16"/>
<polygon fill="midnightblue" stroke="midnightblue" points="855.86,-163.62 846.43,-168.44 856.81,-170.55 855.86,-163.62"/>
</g>
<!-- Node2&#45;&gt;Node11 -->
<g id="edge12" class="edge">
<title>Node2&#45;&gt;Node11</title>
<path fill="none" stroke="midnightblue" d="M745.67,-165.51C671.7,-143.34 510.84,-95.13 445.47,-75.53"/>
<polygon fill="midnightblue" stroke="midnightblue" points="744.92,-168.94 755.51,-168.46 746.93,-162.24 744.92,-168.94"/>
</g>
<!-- Node2&#45;&gt;Node14 -->
<g id="edge17" class="edge">
<title>Node2&#45;&gt;Node14</title>
<path fill="none" stroke="midnightblue" d="M715.9,-166.98C646.57,-156.78 540.27,-141.14 474.88,-131.52"/>
<polygon fill="midnightblue" stroke="midnightblue" points="715.44,-170.45 725.85,-168.44 716.46,-163.53 715.44,-170.45"/>
</g>
<!-- Node2&#45;&gt;Node17 -->
<g id="edge23" class="edge">
<title>Node2&#45;&gt;Node17</title>
<path fill="none" stroke="midnightblue" d="M817.15,-164.91C844.97,-154.75 884.02,-140.51 908.66,-131.52"/>
<polygon fill="midnightblue" stroke="midnightblue" points="815.65,-161.73 807.45,-168.44 818.04,-168.3 815.65,-161.73"/>
</g>
<!-- Node4 -->
<g id="node4" class="node">
<title>Node4</title>
<g id="a_node4"><a xlink:href="Camera_8cpp.html" target="_top" xlink:title=" ">
<polygon fill="white" stroke="black" points="670,-56.5 670,-75.5 762,-75.5 762,-56.5 670,-56.5"/>
<text text-anchor="middle" x="716" y="-63.5" font-family="Helvetica,sans-Serif" font-size="10.00">src/Camera.cpp</text>
</a>
</g>
</g>
<!-- Node3&#45;&gt;Node4 -->
<g id="edge3" class="edge">
<title>Node3&#45;&gt;Node4</title>
<path fill="none" stroke="midnightblue" d="M765.24,-106.1C753,-96.38 737.44,-84.03 727.12,-75.83"/>
<polygon fill="midnightblue" stroke="midnightblue" points="763.07,-108.85 773.07,-112.32 767.42,-103.36 763.07,-108.85"/>
</g>
<!-- Node5 -->
<g id="node5" class="node">
<title>Node5</title>
<g id="a_node5"><a xlink:href="src_2main_8cpp.html" target="_top" xlink:title=" ">
<polygon fill="white" stroke="black" points="750.5,-0.5 750.5,-19.5 829.5,-19.5 829.5,-0.5 750.5,-0.5"/>
<text text-anchor="middle" x="790" y="-7.5" font-family="Helvetica,sans-Serif" font-size="10.00">src/main.cpp</text>
</a>
</g>
</g>
<!-- Node3&#45;&gt;Node5 -->
<g id="edge4" class="edge">
<title>Node3&#45;&gt;Node5</title>
<path fill="none" stroke="midnightblue" d="M785.02,-102.35C786.33,-78.25 788.57,-37.31 789.53,-19.59"/>
<polygon fill="midnightblue" stroke="midnightblue" points="781.52,-102.19 784.47,-112.37 788.51,-102.57 781.52,-102.19"/>
</g>
<!-- Node3&#45;&gt;Node6 -->
<g id="edge5" class="edge">
<title>Node3&#45;&gt;Node6</title>
<path fill="none" stroke="midnightblue" d="M743.61,-109.7C707.18,-99.51 654.41,-84.74 621.44,-75.52"/>
<polygon fill="midnightblue" stroke="midnightblue" points="742.85,-113.12 753.42,-112.44 744.73,-106.38 742.85,-113.12"/>
</g>
<!-- Node3&#45;&gt;Node7 -->
<g id="edge6" class="edge">
<title>Node3&#45;&gt;Node7</title>
<path fill="none" stroke="midnightblue" d="M802.93,-106.24C822.49,-91.62 854.4,-69.52 885,-56 925.41,-38.15 974.48,-26.05 1009.31,-18.94"/>
<polygon fill="midnightblue" stroke="midnightblue" points="800.7,-103.53 794.85,-112.37 804.93,-109.11 800.7,-103.53"/>
</g>
<!-- Node8&#45;&gt;Node5 -->
<g id="edge9" class="edge">
<title>Node8&#45;&gt;Node5</title>
<path fill="none" stroke="midnightblue" d="M1177.8,-102.13C1176.56,-87.29 1172.28,-67.28 1159,-56 1134.22,-34.96 919.84,-19.16 829.68,-13.39"/>
<polygon fill="midnightblue" stroke="midnightblue" points="1174.31,-102.42 1178.25,-112.25 1181.3,-102.1 1174.31,-102.42"/>
</g>
<!-- Node8&#45;&gt;Node7 -->
<g id="edge11" class="edge">
<title>Node8&#45;&gt;Node7</title>
<path fill="none" stroke="midnightblue" d="M1188.95,-103C1195.92,-88.98 1201.93,-69.68 1192,-56 1170.83,-26.84 1130.25,-16.21 1098.55,-12.52"/>
<polygon fill="midnightblue" stroke="midnightblue" points="1185.69,-101.66 1183.93,-112.11 1191.82,-105.04 1185.69,-101.66"/>
</g>
<!-- Node9 -->
<g id="node9" class="node">
<title>Node9</title>
<g id="a_node9"><a xlink:href="DetectCard_8cpp.html" target="_top" xlink:title=" ">
<polygon fill="white" stroke="black" points="1244.5,-56.5 1244.5,-75.5 1353.5,-75.5 1353.5,-56.5 1244.5,-56.5"/>
<text text-anchor="middle" x="1299" y="-63.5" font-family="Helvetica,sans-Serif" font-size="10.00">src/DetectCard.cpp</text>
</a>
</g>
</g>
<!-- Node8&#45;&gt;Node9 -->
<g id="edge8" class="edge">
<title>Node8&#45;&gt;Node9</title>
<path fill="none" stroke="midnightblue" d="M1206.31,-108.37C1228.97,-98.26 1260.13,-84.35 1279.92,-75.52"/>
<polygon fill="midnightblue" stroke="midnightblue" points="1204.88,-105.17 1197.17,-112.44 1207.73,-111.56 1204.88,-105.17"/>
</g>
<!-- Node8&#45;&gt;Node10 -->
<g id="edge10" class="edge">
<title>Node8&#45;&gt;Node10</title>
<path fill="none" stroke="midnightblue" d="M1229.58,-110.41C1279.28,-100.2 1353.53,-84.96 1399.52,-75.52"/>
<polygon fill="midnightblue" stroke="midnightblue" points="1228.76,-107 1219.67,-112.44 1230.17,-113.86 1228.76,-107"/>
</g>
<!-- Node11&#45;&gt;Node5 -->
<g id="edge14" class="edge">
<title>Node11&#45;&gt;Node5</title>
<path fill="none" stroke="midnightblue" d="M483.8,-55.33C561.36,-44.1 686.75,-25.95 750.32,-16.74"/>
<polygon fill="midnightblue" stroke="midnightblue" points="483.05,-51.9 473.65,-56.8 484.05,-58.83 483.05,-51.9"/>
</g>
<!-- Node11&#45;&gt;Node7 -->
<g id="edge16" class="edge">
<title>Node11&#45;&gt;Node7</title>
<path fill="none" stroke="midnightblue" d="M483.55,-56.47C485.05,-56.31 486.53,-56.15 488,-56 681.66,-36.04 913.38,-20.09 1009.18,-13.85"/>
<polygon fill="midnightblue" stroke="midnightblue" points="483.1,-53 473.55,-57.59 483.88,-59.95 483.1,-53"/>
</g>
<!-- Node12 -->
<g id="node12" class="node">
<title>Node12</title>
<g id="a_node12"><a xlink:href="GamePlay_8cpp.html" target="_top" xlink:title=" ">
<polygon fill="white" stroke="black" points="433.5,-0.5 433.5,-19.5 536.5,-19.5 536.5,-0.5 433.5,-0.5"/>
<text text-anchor="middle" x="485" y="-7.5" font-family="Helvetica,sans-Serif" font-size="10.00">src/GamePlay.cpp</text>
</a>
</g>
</g>
<!-- Node11&#45;&gt;Node12 -->
<g id="edge13" class="edge">
<title>Node11&#45;&gt;Node12</title>
<path fill="none" stroke="midnightblue" d="M435.76,-50.1C448,-40.38 463.56,-28.03 473.88,-19.83"/>
<polygon fill="midnightblue" stroke="midnightblue" points="433.58,-47.36 427.93,-56.32 437.93,-52.85 433.58,-47.36"/>
</g>
<!-- Node13 -->
<g id="node13" class="node">
<title>Node13</title>
<g id="a_node13"><a xlink:href="GamePlayTest_8cpp.html" target="_top" xlink:title=" ">
<polygon fill="white" stroke="black" points="281,-0.5 281,-19.5 415,-19.5 415,-0.5 281,-0.5"/>
<text text-anchor="middle" x="348" y="-7.5" font-family="Helvetica,sans-Serif" font-size="10.00">tests/GamePlayTest.cpp</text>
</a>
</g>
</g>
<!-- Node11&#45;&gt;Node13 -->
<g id="edge15" class="edge">
<title>Node11&#45;&gt;Node13</title>
<path fill="none" stroke="midnightblue" d="M397.96,-50.1C385.54,-40.38 369.76,-28.03 359.29,-19.83"/>
<polygon fill="midnightblue" stroke="midnightblue" points="395.88,-52.92 405.91,-56.32 400.2,-47.4 395.88,-52.92"/>
</g>
<!-- Node14&#45;&gt;Node5 -->
<g id="edge19" class="edge">
<title>Node14&#45;&gt;Node5</title>
<path fill="none" stroke="midnightblue" d="M387.83,-107.97C363.04,-95.16 333.99,-74.84 351,-56 377.54,-26.61 647.55,-15.34 750.45,-12.09"/>
<polygon fill="midnightblue" stroke="midnightblue" points="386.49,-111.21 397.01,-112.49 389.59,-104.93 386.49,-111.21"/>
</g>
<!-- Node14&#45;&gt;Node7 -->
<g id="edge21" class="edge">
<title>Node14&#45;&gt;Node7</title>
<path fill="none" stroke="midnightblue" d="M437.68,-106.43C462.7,-89.1 503.64,-61.78 521,-56 566.76,-40.76 889.27,-20.62 1009.21,-13.57"/>
<polygon fill="midnightblue" stroke="midnightblue" points="435.46,-103.72 429.25,-112.31 439.46,-109.46 435.46,-103.72"/>
</g>
<!-- Node14&#45;&gt;Node11 -->
<g id="edge18" class="edge">
<title>Node14&#45;&gt;Node11</title>
<path fill="none" stroke="midnightblue" d="M417,-101.8C417,-92.91 417,-82.78 417,-75.75"/>
<polygon fill="midnightblue" stroke="midnightblue" points="413.5,-102.08 417,-112.08 420.5,-102.08 413.5,-102.08"/>
</g>
<!-- Node15 -->
<g id="node15" class="node">
<title>Node15</title>
<g id="a_node15"><a xlink:href="StrategyEngine_8cpp.html" target="_top" xlink:title=" ">
<polygon fill="white" stroke="black" points="176,-56.5 176,-75.5 304,-75.5 304,-56.5 176,-56.5"/>
<text text-anchor="middle" x="240" y="-63.5" font-family="Helvetica,sans-Serif" font-size="10.00">src/StrategyEngine.cpp</text>
</a>
</g>
</g>
<!-- Node14&#45;&gt;Node15 -->
<g id="edge20" class="edge">
<title>Node14&#45;&gt;Node15</title>
<path fill="none" stroke="midnightblue" d="M379.1,-109.44C345.72,-99.26 297.9,-84.66 267.91,-75.52"/>
<polygon fill="midnightblue" stroke="midnightblue" points="378.37,-112.87 388.95,-112.44 380.41,-106.18 378.37,-112.87"/>
</g>
<!-- Node16 -->
<g id="node16" class="node">
<title>Node16</title>
<g id="a_node16"><a xlink:href="StrategyEngineTest_8cpp.html" target="_top" xlink:title=" ">
<polygon fill="white" stroke="black" points="0,-56.5 0,-75.5 158,-75.5 158,-56.5 0,-56.5"/>
<text text-anchor="middle" x="79" y="-63.5" font-family="Helvetica,sans-Serif" font-size="10.00">tests/StrategyEngineTest.cpp</text>
</a>
</g>
</g>
<!-- Node14&#45;&gt;Node16 -->
<g id="edge22" class="edge">
<title>Node14&#45;&gt;Node16</title>
<path fill="none" stroke="midnightblue" d="M353.49,-110.85C289.63,-100.65 192.28,-85.1 132.31,-75.52"/>
<polygon fill="midnightblue" stroke="midnightblue" points="353.02,-114.32 363.44,-112.44 354.12,-107.41 353.02,-114.32"/>
</g>
<!-- Node17&#45;&gt;Node5 -->
<g id="edge25" class="edge">
<title>Node17&#45;&gt;Node5</title>
<path fill="none" stroke="midnightblue" d="M912.79,-106.12C882.65,-82.77 825.2,-38.27 801.09,-19.59"/>
<polygon fill="midnightblue" stroke="midnightblue" points="910.81,-109.01 920.86,-112.37 915.1,-103.48 910.81,-109.01"/>
</g>
<!-- Node17&#45;&gt;Node11 -->
<g id="edge24" class="edge">
<title>Node17&#45;&gt;Node11</title>
<path fill="none" stroke="midnightblue" d="M864.7,-113.94C762.28,-103.2 569.15,-82.95 473.55,-72.93"/>
<polygon fill="midnightblue" stroke="midnightblue" points="864.61,-117.45 874.92,-115.01 865.34,-110.49 864.61,-117.45"/>
</g>
<!-- Node18 -->
<g id="node18" class="node">
<title>Node18</title>
<g id="a_node18"><a xlink:href="ToggleLED_8cpp.html" target="_top" xlink:title=" ">
<polygon fill="white" stroke="black" points="1046,-56.5 1046,-75.5 1150,-75.5 1150,-56.5 1046,-56.5"/>
<text text-anchor="middle" x="1098" y="-63.5" font-family="Helvetica,sans-Serif" font-size="10.00">src/ToggleLED.cpp</text>
</a>
</g>
</g>
<!-- Node17&#45;&gt;Node18 -->
<g id="edge26" class="edge">
<title>Node17&#45;&gt;Node18</title>
<path fill="none" stroke="midnightblue" d="M967.95,-109.3C999.23,-99.13 1043.82,-84.62 1071.82,-75.52"/>
<polygon fill="midnightblue" stroke="midnightblue" points="966.73,-106.02 958.3,-112.44 968.9,-112.68 966.73,-106.02"/>
</g>
<!-- Node19 -->
<g id="node19" class="node">
<title>Node19</title>
<g id="a_node19"><a xlink:href="ToggleLEDTest_8cpp.html" target="_top" xlink:title=" ">
<polygon fill="white" stroke="black" points="894,-56.5 894,-75.5 1028,-75.5 1028,-56.5 894,-56.5"/>
<text text-anchor="middle" x="961" y="-63.5" font-family="Helvetica,sans-Serif" font-size="10.00">tests/ToggleLEDTest.cpp</text>
</a>
</g>
</g>
<!-- Node17&#45;&gt;Node19 -->
<g id="edge27" class="edge">
<title>Node17&#45;&gt;Node19</title>
<path fill="none" stroke="midnightblue" d="M941.68,-102.98C946.6,-93.82 952.36,-83.09 956.3,-75.75"/>
<polygon fill="midnightblue" stroke="midnightblue" points="938.44,-101.62 936.79,-112.08 944.6,-104.93 938.44,-101.62"/>
</g>
<!-- Node20&#45;&gt;Node7 -->
<g id="edge33" class="edge">
<title>Node20&#45;&gt;Node7</title>
<path fill="none" stroke="midnightblue" d="M1271.76,-158.03C1271.17,-143.42 1273.03,-123.79 1285,-112 1361.18,-36.95 1590.88,-135.17 1519,-56 1491.06,-25.22 1209.69,-14.88 1098.69,-11.98"/>
<polygon fill="midnightblue" stroke="midnightblue" points="1268.31,-158.75 1272.62,-168.43 1275.29,-158.18 1268.31,-158.75"/>
</g>
<!-- Node20&#45;&gt;Node8 -->
<g id="edge30" class="edge">
<title>Node20&#45;&gt;Node8</title>
<path fill="none" stroke="midnightblue" d="M1249.43,-163.18C1231.76,-153.24 1208.49,-140.15 1193.39,-131.65"/>
<polygon fill="midnightblue" stroke="midnightblue" points="1248.14,-166.47 1258.58,-168.32 1251.58,-160.37 1248.14,-166.47"/>
</g>
<!-- Node20&#45;&gt;Node21 -->
<g id="edge31" class="edge">
<title>Node20&#45;&gt;Node21</title>
<path fill="none" stroke="midnightblue" d="M1328.45,-166.54C1381.55,-156.33 1461.34,-141 1510.68,-131.52"/>
<polygon fill="midnightblue" stroke="midnightblue" points="1327.69,-163.12 1318.53,-168.44 1329.01,-169.99 1327.69,-163.12"/>
</g>
<!-- Node22 -->
<g id="node22" class="node">
<title>Node22</title>
<g id="a_node22"><a xlink:href="CardDiscriminatorTest_8cpp.html" target="_top" xlink:title=" ">
<polygon fill="white" stroke="black" points="1294,-112.5 1294,-131.5 1466,-131.5 1466,-112.5 1294,-112.5"/>
<text text-anchor="middle" x="1380" y="-119.5" font-family="Helvetica,sans-Serif" font-size="10.00">tests/CardDiscriminatorTest.cpp</text>
</a>
</g>
</g>
<!-- Node20&#45;&gt;Node22 -->
<g id="edge32" class="edge">
<title>Node20&#45;&gt;Node22</title>
<path fill="none" stroke="midnightblue" d="M1300.06,-163.73C1319.68,-153.73 1346.03,-140.31 1363.01,-131.65"/>
<polygon fill="midnightblue" stroke="midnightblue" points="1298.35,-160.67 1291.03,-168.32 1301.53,-166.9 1298.35,-160.67"/>
</g>
</g>
</svg>
