<?xml version="1.0" encoding="UTF-8" standalone="no"?>
<!DOCTYPE svg PUBLIC "-//W3C//DTD SVG 1.1//EN"
 "http://www.w3.org/Graphics/SVG/1.1/DTD/svg11.dtd">
<!-- Generated by graphviz version 2.43.0 (0)
 -->
<!-- Title: include/Card.h Pages: 1 -->
<!--zoomable 252 -->
<svg id="main" version="1.1" xmlns="http://www.w3.org/2000/svg" xmlns:xlink="http://www.w3.org/1999/xlink" xml:space="preserve" onload="init(evt)">
<style type="text/css"><![CDATA[
.edge:hover path { stroke: red; }
.edge:hover polygon { stroke: red; fill: red; }
]]></style>
<script type="text/javascript"><![CDATA[
var edges = document.getElementsByTagName('g');
if (edges && edges.length) {
  for (var i=0;i<edges.length;i++) {
    if (edges[i].id.substr(0,4)=='edge') {
      edges[i].setAttribute('class','edge');
    }
  }
}
]]></script>
        <defs>
                <circle id="rim" cx="0" cy="0" r="7"/>
                <circle id="rim2" cx="0" cy="0" r="3.5"/>
                <g id="zoomPlus">
                        <use xlink:href="#rim" fill="#404040">
                                <set attributeName="fill" to="#808080" begin="zoomplus.mouseover" end="zoomplus.mouseout"/>
                        </use>
                        <path d="M-4,0h8M0,-4v8" fill="none" stroke="white" stroke-width="1.5" pointer-events="none"/>
                </g>
                <g id="zoomMin">
                        <use xlink:href="#rim" fill="#404040">
                                <set attributeName="fill" to="#808080" begin="zoomminus.mouseover" end="zoomminus.mouseout"/>
                        </use>
                        <path d="M-4,0h8" fill="none" stroke="white" stroke-width="1.5" pointer-events="none"/>
                </g>
                <g id="dirArrow">
                        <path fill="none" stroke="white" stroke-width="1.5" d="M0,-3.0v7 M-2.5,-0.5L0,-3.0L2.5,-0.5"/>
                </g>
               <g id="resetDef">
                       <use xlink:href="#rim2" fill="#404040">
                               <set attributeName="fill" to="#808080" begin="reset.mouseover" end="reset.mouseout"/>
                       </use>
               </g>
        </defs>

<script type="text/javascript">
var viewWidth = 806;
var viewHeight = 252;
var sectionId = 'dynsection-1';
</script>
<script xlink:href="svgpan.js"/>
<svg id="graph" class="graph">
<g id="viewport">
<title>include/Card.h</title>
<polygon fill="white" stroke="transparent" points="-4,4 -4,-248 802.4,-248 802.4,4 -4,4"/>
<!-- Node1 -->
<g id="node1" class="node">
<title>Node1</title>
<g id="a_node1"><a xlink:title=" ">
<polygon fill="#bfbfbf" stroke="black" points="506.29,-224.5 506.29,-243.5 592.29,-243.5 592.29,-224.5 506.29,-224.5"/>
<text text-anchor="middle" x="549.29" y="-231.5" font-family="Helvetica,sans-Serif" font-size="10.00">include/Card.h</text>
</a>
</g>
</g>
<!-- Node2 -->
<g id="node2" class="node">
<title>Node2</title>
<g id="a_node2"><a xlink:href="CallbackLinker_8h.html" target="_top" xlink:title=" ">
<polygon fill="white" stroke="black" points="217.29,-168.5 217.29,-187.5 351.29,-187.5 351.29,-168.5 217.29,-168.5"/>
<text text-anchor="middle" x="284.29" y="-175.5" font-family="Helvetica,sans-Serif" font-size="10.00">include/CallbackLinker.h</text>
</a>
</g>
</g>
<!-- Node1&#45;&gt;Node2 -->
<g id="edge1" class="edge">
<title>Node1&#45;&gt;Node2</title>
<path fill="none" stroke="midnightblue" d="M497.31,-222.41C447.23,-212.2 372.42,-196.96 326.08,-187.52"/>
<polygon fill="midnightblue" stroke="midnightblue" points="496.8,-225.88 507.3,-224.44 498.2,-219.02 496.8,-225.88"/>
</g>
<!-- Node6 -->
<g id="node6" class="node">
<title>Node6</title>
<g id="a_node6"><a xlink:href="DetectCard_8h.html" target="_top" xlink:title=" ">
<polygon fill="white" stroke="black" points="51.79,-112.5 51.79,-131.5 170.79,-131.5 170.79,-112.5 51.79,-112.5"/>
<text text-anchor="middle" x="111.29" y="-119.5" font-family="Helvetica,sans-Serif" font-size="10.00">include/DetectCard.h</text>
</a>
</g>
</g>
<!-- Node1&#45;&gt;Node6 -->
<g id="edge22" class="edge">
<title>Node1&#45;&gt;Node6</title>
<path fill="none" stroke="midnightblue" d="M495.89,-233.38C427.18,-232.23 305.14,-224.54 208.29,-188 172.82,-174.62 137.41,-146.1 120.9,-131.7"/>
<polygon fill="midnightblue" stroke="midnightblue" points="496,-236.89 506.04,-233.51 496.09,-229.89 496,-236.89"/>
</g>
<!-- Node8 -->
<g id="node8" class="node">
<title>Node8</title>
<g id="a_node8"><a xlink:href="GamePlay_8h.html" target="_top" xlink:title=" ">
<polygon fill="white" stroke="black" points="475.79,-56.5 475.79,-75.5 588.79,-75.5 588.79,-56.5 475.79,-56.5"/>
<text text-anchor="middle" x="532.29" y="-63.5" font-family="Helvetica,sans-Serif" font-size="10.00">include/GamePlay.h</text>
</a>
</g>
</g>
<!-- Node1&#45;&gt;Node8 -->
<g id="edge23" class="edge">
<title>Node1&#45;&gt;Node8</title>
<path fill="none" stroke="midnightblue" d="M602.57,-225.98C688.34,-212.56 842.05,-178.51 786.29,-112 779.95,-104.44 661.94,-85.96 589.03,-75.18"/>
<polygon fill="midnightblue" stroke="midnightblue" points="601.82,-222.55 592.46,-227.52 602.87,-229.48 601.82,-222.55"/>
</g>
<!-- Node10 -->
<g id="node10" class="node">
<title>Node10</title>
<g id="a_node10"><a xlink:href="StrategyEngine_8h.html" target="_top" xlink:title=" ">
<polygon fill="white" stroke="black" points="309.29,-112.5 309.29,-131.5 447.29,-131.5 447.29,-112.5 309.29,-112.5"/>
<text text-anchor="middle" x="378.29" y="-119.5" font-family="Helvetica,sans-Serif" font-size="10.00">include/StrategyEngine.h</text>
</a>
</g>
</g>
<!-- Node1&#45;&gt;Node10 -->
<g id="edge24" class="edge">
<title>Node1&#45;&gt;Node10</title>
<path fill="none" stroke="midnightblue" d="M548.46,-213.8C546.83,-199.37 542.34,-180.09 530.29,-168 508.43,-146.07 476.43,-134.72 447.42,-128.89"/>
<polygon fill="midnightblue" stroke="midnightblue" points="545,-214.4 549.25,-224.1 551.98,-213.87 545,-214.4"/>
</g>
<!-- Node12 -->
<g id="node12" class="node">
<title>Node12</title>
<g id="a_node12"><a xlink:href="ToggleLED_8h.html" target="_top" xlink:title=" ">
<polygon fill="white" stroke="black" points="503.29,-112.5 503.29,-131.5 617.29,-131.5 617.29,-112.5 503.29,-112.5"/>
<text text-anchor="middle" x="560.29" y="-119.5" font-family="Helvetica,sans-Serif" font-size="10.00">include/ToggleLED.h</text>
</a>
</g>
</g>
<!-- Node1&#45;&gt;Node12 -->
<g id="edge25" class="edge">
<title>Node1&#45;&gt;Node12</title>
<path fill="none" stroke="midnightblue" d="M556.34,-214.74C559.1,-206.67 561.92,-197 563.29,-188 566.31,-168.12 563.68,-144.46 561.79,-131.89"/>
<polygon fill="midnightblue" stroke="midnightblue" points="553.02,-213.63 552.89,-224.22 559.6,-216.02 553.02,-213.63"/>
</g>
<!-- Node14 -->
<g id="node14" class="node">
<title>Node14</title>
<g id="a_node14"><a xlink:href="CardDiscriminator_8h.html" target="_top" xlink:title=" ">
<polygon fill="white" stroke="black" points="369.29,-168.5 369.29,-187.5 521.29,-187.5 521.29,-168.5 369.29,-168.5"/>
<text text-anchor="middle" x="445.29" y="-175.5" font-family="Helvetica,sans-Serif" font-size="10.00">include/CardDiscriminator.h</text>
</a>
</g>
</g>
<!-- Node1&#45;&gt;Node14 -->
<g id="edge19" class="edge">
<title>Node1&#45;&gt;Node14</title>
<path fill="none" stroke="midnightblue" d="M523.46,-219.59C504.23,-209.61 478.54,-196.27 461.95,-187.65"/>
<polygon fill="midnightblue" stroke="midnightblue" points="522.09,-222.82 532.58,-224.32 525.31,-216.61 522.09,-222.82"/>
</g>
<!-- Node15 -->
<g id="node15" class="node">
<title>Node15</title>
<g id="a_node15"><a xlink:href="CardDiscriminator_8cpp.html" target="_top" xlink:title=" ">
<polygon fill="white" stroke="black" points="635.29,-112.5 635.29,-131.5 777.29,-131.5 777.29,-112.5 635.29,-112.5"/>
<text text-anchor="middle" x="706.29" y="-119.5" font-family="Helvetica,sans-Serif" font-size="10.00">src/CardDiscriminator.cpp</text>
</a>
</g>
</g>
<!-- Node1&#45;&gt;Node15 -->
<g id="edge26" class="edge">
<title>Node1&#45;&gt;Node15</title>
<path fill="none" stroke="midnightblue" d="M570.1,-218.42C603.31,-195.15 667.25,-150.35 694.02,-131.59"/>
<polygon fill="midnightblue" stroke="midnightblue" points="567.79,-215.76 561.61,-224.37 571.8,-221.5 567.79,-215.76"/>
</g>
<!-- Node3 -->
<g id="node3" class="node">
<title>Node3</title>
<g id="a_node3"><a xlink:href="Camera_8h.html" target="_top" xlink:title=" ">
<polygon fill="white" stroke="black" points="189.29,-112.5 189.29,-131.5 291.29,-131.5 291.29,-112.5 189.29,-112.5"/>
<text text-anchor="middle" x="240.29" y="-119.5" font-family="Helvetica,sans-Serif" font-size="10.00">include/Camera.h</text>
</a>
</g>
</g>
<!-- Node2&#45;&gt;Node3 -->
<g id="edge2" class="edge">
<title>Node2&#45;&gt;Node3</title>
<path fill="none" stroke="midnightblue" d="M270.55,-160.14C262.89,-150.74 253.65,-139.4 247.42,-131.75"/>
<polygon fill="midnightblue" stroke="midnightblue" points="267.99,-162.54 277.02,-168.08 273.42,-158.12 267.99,-162.54"/>
</g>
<!-- Node2&#45;&gt;Node6 -->
<g id="edge5" class="edge">
<title>Node2&#45;&gt;Node6</title>
<path fill="none" stroke="midnightblue" d="M247.24,-165.44C214.62,-155.26 167.88,-140.66 138.57,-131.52"/>
<polygon fill="midnightblue" stroke="midnightblue" points="246.29,-168.8 256.87,-168.44 248.37,-162.12 246.29,-168.8"/>
</g>
<!-- Node2&#45;&gt;Node8 -->
<g id="edge8" class="edge">
<title>Node2&#45;&gt;Node8</title>
<path fill="none" stroke="midnightblue" d="M352.74,-166.47C385.37,-159.64 424.18,-148.78 456.29,-132 484.9,-117.04 512.06,-89.5 524.77,-75.57"/>
<polygon fill="midnightblue" stroke="midnightblue" points="351.94,-163.06 342.83,-168.46 353.32,-169.92 351.94,-163.06"/>
</g>
<!-- Node2&#45;&gt;Node10 -->
<g id="edge11" class="edge">
<title>Node2&#45;&gt;Node10</title>
<path fill="none" stroke="midnightblue" d="M308.35,-163.18C325.65,-153.24 348.43,-140.15 363.22,-131.65"/>
<polygon fill="midnightblue" stroke="midnightblue" points="306.32,-160.31 299.39,-168.32 309.8,-166.38 306.32,-160.31"/>
</g>
<!-- Node2&#45;&gt;Node12 -->
<g id="edge15" class="edge">
<title>Node2&#45;&gt;Node12</title>
<path fill="none" stroke="midnightblue" d="M338.09,-166.47C390.25,-156.27 468.39,-140.98 516.76,-131.52"/>
<polygon fill="midnightblue" stroke="midnightblue" points="337.16,-163.09 328.02,-168.44 338.51,-169.96 337.16,-163.09"/>
</g>
<!-- Node4 -->
<g id="node4" class="node">
<title>Node4</title>
<g id="a_node4"><a xlink:href="Camera_8cpp.html" target="_top" xlink:title=" ">
<polygon fill="white" stroke="black" points="143.29,-56.5 143.29,-75.5 235.29,-75.5 235.29,-56.5 143.29,-56.5"/>
<text text-anchor="middle" x="189.29" y="-63.5" font-family="Helvetica,sans-Serif" font-size="10.00">src/Camera.cpp</text>
</a>
</g>
</g>
<!-- Node3&#45;&gt;Node4 -->
<g id="edge3" class="edge">
<title>Node3&#45;&gt;Node4</title>
<path fill="none" stroke="midnightblue" d="M224.91,-104.72C215.92,-95.2 204.93,-83.56 197.55,-75.75"/>
<polygon fill="midnightblue" stroke="midnightblue" points="222.45,-107.22 231.86,-112.08 227.54,-102.41 222.45,-107.22"/>
</g>
<!-- Node5 -->
<g id="node5" class="node">
<title>Node5</title>
<g id="a_node5"><a xlink:href="main_8cpp.html" target="_top" xlink:title=" ">
<polygon fill="white" stroke="black" points="395.79,-0.5 395.79,-19.5 474.79,-19.5 474.79,-0.5 395.79,-0.5"/>
<text text-anchor="middle" x="435.29" y="-7.5" font-family="Helvetica,sans-Serif" font-size="10.00">src/main.cpp</text>
</a>
</g>
</g>
<!-- Node3&#45;&gt;Node5 -->
<g id="edge4" class="edge">
<title>Node3&#45;&gt;Node5</title>
<path fill="none" stroke="midnightblue" d="M247.67,-102.9C254.55,-88.22 266.18,-68.03 282.29,-56 315.67,-31.06 362.68,-19.89 395.76,-14.92"/>
<polygon fill="midnightblue" stroke="midnightblue" points="244.3,-101.87 243.5,-112.43 250.71,-104.67 244.3,-101.87"/>
</g>
<!-- Node6&#45;&gt;Node5 -->
<g id="edge7" class="edge">
<title>Node6&#45;&gt;Node5</title>
<path fill="none" stroke="midnightblue" d="M63.2,-109.7C26.04,-98.79 -15.64,-80.35 6.29,-56 32.1,-27.34 294.16,-15.67 395.54,-12.2"/>
<polygon fill="midnightblue" stroke="midnightblue" points="62.43,-113.12 73,-112.45 64.31,-106.38 62.43,-113.12"/>
</g>
<!-- Node7 -->
<g id="node7" class="node">
<title>Node7</title>
<g id="a_node7"><a xlink:href="DetectCard_8cpp.html" target="_top" xlink:title=" ">
<polygon fill="white" stroke="black" points="15.79,-56.5 15.79,-75.5 124.79,-75.5 124.79,-56.5 15.79,-56.5"/>
<text text-anchor="middle" x="70.29" y="-63.5" font-family="Helvetica,sans-Serif" font-size="10.00">src/DetectCard.cpp</text>
</a>
</g>
</g>
<!-- Node6&#45;&gt;Node7 -->
<g id="edge6" class="edge">
<title>Node6&#45;&gt;Node7</title>
<path fill="none" stroke="midnightblue" d="M98.27,-103.86C91.17,-94.5 82.68,-83.33 76.93,-75.75"/>
<polygon fill="midnightblue" stroke="midnightblue" points="95.68,-106.24 104.52,-112.08 101.26,-102 95.68,-106.24"/>
</g>
<!-- Node8&#45;&gt;Node5 -->
<g id="edge10" class="edge">
<title>Node8&#45;&gt;Node5</title>
<path fill="none" stroke="midnightblue" d="M507.95,-51.45C490.04,-41.48 466.23,-28.23 450.83,-19.65"/>
<polygon fill="midnightblue" stroke="midnightblue" points="506.26,-54.52 516.7,-56.32 509.67,-48.4 506.26,-54.52"/>
</g>
<!-- Node9 -->
<g id="node9" class="node">
<title>Node9</title>
<g id="a_node9"><a xlink:href="GamePlay_8cpp.html" target="_top" xlink:title=" ">
<polygon fill="white" stroke="black" points="492.79,-0.5 492.79,-19.5 595.79,-19.5 595.79,-0.5 492.79,-0.5"/>
<text text-anchor="middle" x="544.29" y="-7.5" font-family="Helvetica,sans-Serif" font-size="10.00">src/GamePlay.cpp</text>
</a>
</g>
</g>
<!-- Node8&#45;&gt;Node9 -->
<g id="edge9" class="edge">
<title>Node8&#45;&gt;Node9</title>
<path fill="none" stroke="midnightblue" d="M536.49,-46.1C538.48,-37.14 540.76,-26.86 542.34,-19.75"/>
<polygon fill="midnightblue" stroke="midnightblue" points="533.02,-45.56 534.27,-56.08 539.85,-47.08 533.02,-45.56"/>
</g>
<!-- Node10&#45;&gt;Node5 -->
<g id="edge13" class="edge">
<title>Node10&#45;&gt;Node5</title>
<path fill="none" stroke="midnightblue" d="M400.95,-106.4C411.05,-98.64 422.06,-88.19 428.29,-76 437.69,-57.61 437.26,-32.51 436.23,-19.54"/>
<polygon fill="midnightblue" stroke="midnightblue" points="398.88,-103.58 392.8,-112.27 402.96,-109.27 398.88,-103.58"/>
</g>
<!-- Node10&#45;&gt;Node8 -->
<g id="edge12" class="edge">
<title>Node10&#45;&gt;Node8</title>
<path fill="none" stroke="midnightblue" d="M412.4,-109.04C441.37,-98.88 482.25,-84.55 508,-75.52"/>
<polygon fill="midnightblue" stroke="midnightblue" points="410.97,-105.83 402.69,-112.44 413.28,-112.44 410.97,-105.83"/>
</g>
<!-- Node11 -->
<g id="node11" class="node">
<title>Node11</title>
<g id="a_node11"><a xlink:href="StrategyEngine_8cpp.html" target="_top" xlink:title=" ">
<polygon fill="white" stroke="black" points="291.29,-56.5 291.29,-75.5 419.29,-75.5 419.29,-56.5 291.29,-56.5"/>
<text text-anchor="middle" x="355.29" y="-63.5" font-family="Helvetica,sans-Serif" font-size="10.00">src/StrategyEngine.cpp</text>
</a>
</g>
</g>
<!-- Node10&#45;&gt;Node11 -->
<g id="edge14" class="edge">
<title>Node10&#45;&gt;Node11</title>
<path fill="none" stroke="midnightblue" d="M370.49,-102.69C366.61,-93.59 362.11,-83.01 359.01,-75.75"/>
<polygon fill="midnightblue" stroke="midnightblue" points="367.35,-104.25 374.49,-112.08 373.79,-101.51 367.35,-104.25"/>
</g>
<!-- Node12&#45;&gt;Node5 -->
<g id="edge17" class="edge">
<title>Node12&#45;&gt;Node5</title>
<path fill="none" stroke="midnightblue" d="M627.09,-110.51C665.6,-102.94 708.65,-91.36 720.29,-76 725.65,-68.91 726.08,-62.74 720.29,-56 685.72,-15.76 536.6,-28.79 484.29,-20 481.22,-19.48 478.04,-18.94 474.85,-18.37"/>
<polygon fill="midnightblue" stroke="midnightblue" points="626.07,-107.14 616.9,-112.44 627.37,-114.01 626.07,-107.14"/>
</g>
<!-- Node12&#45;&gt;Node8 -->
<g id="edge16" class="edge">
<title>Node12&#45;&gt;Node8</title>
<path fill="none" stroke="midnightblue" d="M550.94,-102.98C546.19,-93.82 540.63,-83.09 536.82,-75.75"/>
<polygon fill="midnightblue" stroke="midnightblue" points="547.95,-104.82 555.66,-112.08 554.17,-101.59 547.95,-104.82"/>
</g>
<!-- Node13 -->
<g id="node13" class="node">
<title>Node13</title>
<g id="a_node13"><a xlink:href="ToggleLED_8cpp.html" target="_top" xlink:title=" ">
<polygon fill="white" stroke="black" points="607.29,-56.5 607.29,-75.5 711.29,-75.5 711.29,-56.5 607.29,-56.5"/>
<text text-anchor="middle" x="659.29" y="-63.5" font-family="Helvetica,sans-Serif" font-size="10.00">src/ToggleLED.cpp</text>
</a>
</g>
</g>
<!-- Node12&#45;&gt;Node13 -->
<g id="edge18" class="edge">
<title>Node12&#45;&gt;Node13</title>
<path fill="none" stroke="midnightblue" d="M585.12,-107.45C603.4,-97.48 627.7,-84.23 643.42,-75.65"/>
<polygon fill="midnightblue" stroke="midnightblue" points="583.3,-104.46 576.19,-112.32 586.65,-110.61 583.3,-104.46"/>
</g>
<!-- Node14&#45;&gt;Node6 -->
<g id="edge20" class="edge">
<title>Node14&#45;&gt;Node6</title>
<path fill="none" stroke="midnightblue" d="M382.14,-166.79C319.03,-156.59 223.1,-141.08 163.96,-131.52"/>
<polygon fill="midnightblue" stroke="midnightblue" points="381.93,-170.3 392.36,-168.44 383.05,-163.39 381.93,-170.3"/>
</g>
<!-- Node14&#45;&gt;Node15 -->
<g id="edge21" class="edge">
<title>Node14&#45;&gt;Node15</title>
<path fill="none" stroke="midnightblue" d="M496.47,-166.41C545.8,-156.2 619.48,-140.96 665.12,-131.52"/>
<polygon fill="midnightblue" stroke="midnightblue" points="495.73,-162.99 486.64,-168.44 497.14,-169.84 495.73,-162.99"/>
</g>
</g>
</svg>
        <g id="navigator" transform="translate(0 0)" fill="#404254">
                <rect fill="#f2f5e9" fill-opacity="0.5" stroke="#606060" stroke-width=".5" x="0" y="0" width="60" height="60"/>
                <use id="zoomplus" xlink:href="#zoomPlus" x="17" y="9" onmousedown="handleZoom(evt,'in')"/>
                <use id="zoomminus" xlink:href="#zoomMin" x="42" y="9" onmousedown="handleZoom(evt,'out')"/>
                <use id="reset" xlink:href="#resetDef" x="30" y="36" onmousedown="handleReset()"/>
                <g id="arrowUp" xlink:href="#dirArrow" transform="translate(30 24)" onmousedown="handlePan(0,-1)">
                  <use xlink:href="#rim" fill="#404040">
                        <set attributeName="fill" to="#808080" begin="arrowUp.mouseover" end="arrowUp.mouseout"/>
                  </use>
                  <path fill="none" stroke="white" stroke-width="1.5" d="M0,-3.0v7 M-2.5,-0.5L0,-3.0L2.5,-0.5"/>
                </g>
                <g id="arrowRight" xlink:href="#dirArrow" transform="rotate(90) translate(36 -43)" onmousedown="handlePan(1,0)">
                  <use xlink:href="#rim" fill="#404040">
                        <set attributeName="fill" to="#808080" begin="arrowRight.mouseover" end="arrowRight.mouseout"/>
                  </use>
                  <path fill="none" stroke="white" stroke-width="1.5" d="M0,-3.0v7 M-2.5,-0.5L0,-3.0L2.5,-0.5"/>
                </g>
                <g id="arrowDown" xlink:href="#dirArrow" transform="rotate(180) translate(-30 -48)" onmousedown="handlePan(0,1)">
                  <use xlink:href="#rim" fill="#404040">
                        <set attributeName="fill" to="#808080" begin="arrowDown.mouseover" end="arrowDown.mouseout"/>
                  </use>
                  <path fill="none" stroke="white" stroke-width="1.5" d="M0,-3.0v7 M-2.5,-0.5L0,-3.0L2.5,-0.5"/>
                </g>
                <g id="arrowLeft" xlink:href="#dirArrow" transform="rotate(270) translate(-36 17)" onmousedown="handlePan(-1,0)">
                  <use xlink:href="#rim" fill="#404040">
                        <set attributeName="fill" to="#808080" begin="arrowLeft.mouseover" end="arrowLeft.mouseout"/>
                  </use>
                  <path fill="none" stroke="white" stroke-width="1.5" d="M0,-3.0v7 M-2.5,-0.5L0,-3.0L2.5,-0.5"/>
                </g>
        </g>
        <svg viewBox="0 0 15 15" width="100%" height="30px" preserveAspectRatio="xMaxYMin meet">
         <g id="arrow_out" transform="scale(0.3 0.3)">
          <a xlink:href="Card_8h__dep__incl_org.svg" target="_base">
           <rect id="button" ry="5" rx="5" y="6" x="6" height="38" width="38"
                fill="#f2f5e9" fill-opacity="0.5" stroke="#606060" stroke-width="1.0"/>
           <path id="arrow"
             d="M 11.500037,31.436501 C 11.940474,20.09759 22.043105,11.32322 32.158766,21.979434 L 37.068811,17.246167 C 37.068811,17.246167 37.088388,32 37.088388,32 L 22.160133,31.978069 C 22.160133,31.978069 26.997745,27.140456 26.997745,27.140456 C 18.528582,18.264221 13.291696,25.230495 11.500037,31.436501 z"
             style="fill:#404040;"/>
          </a>
         </g>
        </svg>
</svg>
