<?xml version="1.0" encoding="UTF-8" standalone="no"?>
<!DOCTYPE svg PUBLIC "-//W3C//DTD SVG 1.1//EN"
 "http://www.w3.org/Graphics/SVG/1.1/DTD/svg11.dtd">
<!-- Generated by graphviz version 2.43.0 (0)
 -->
<!-- Title: StrategyEngine Pages: 1 -->
<svg width="118pt" height="182pt"
 viewBox="0.00 0.00 118.00 182.00" xmlns="http://www.w3.org/2000/svg" xmlns:xlink="http://www.w3.org/1999/xlink">
<g id="graph0" class="graph" transform="scale(1 1) rotate(0) translate(4 178)">
<title>StrategyEngine</title>
<polygon fill="white" stroke="transparent" points="-4,4 -4,-178 114,-178 114,4 -4,4"/>
<!-- Node1 -->
<g id="node1" class="node">
<title>Node1</title>
<g id="a_node1"><a xlink:title="Class implementing the optimum Blackjack strategy.">
<polygon fill="#bfbfbf" stroke="black" points="0,-0.5 0,-79.5 110,-79.5 110,-0.5 0,-0.5"/>
<text text-anchor="middle" x="55" y="-67.5" font-family="Helvetica,sans-Serif" font-size="10.00">StrategyEngine</text>
<polyline fill="none" stroke="black" points="0,-60.5 110,-60.5 "/>
<text text-anchor="middle" x="55" y="-48.5" font-family="Helvetica,sans-Serif" font-size="10.00"> </text>
<polyline fill="none" stroke="black" points="0,-41.5 110,-41.5 "/>
<text text-anchor="start" x="8" y="-29.5" font-family="Helvetica,sans-Serif" font-size="10.00">+ StrategyEngine()</text>
<text text-anchor="start" x="8" y="-18.5" font-family="Helvetica,sans-Serif" font-size="10.00">+ getchoice()</text>
<text text-anchor="start" x="8" y="-7.5" font-family="Helvetica,sans-Serif" font-size="10.00">+ nextCallback()</text>
</a>
</g>
</g>
<!-- Node2 -->
<g id="node2" class="node">
<title>Node2</title>
<g id="a_node2"><a xlink:href="classCallbackLinker.html" target="_top" xlink:title="Generic abstract Callback Interface class.">
<polygon fill="white" stroke="black" points="5.5,-116.5 5.5,-173.5 104.5,-173.5 104.5,-116.5 5.5,-116.5"/>
<text text-anchor="middle" x="55" y="-161.5" font-family="Helvetica,sans-Serif" font-size="10.00">CallbackLinker</text>
<polyline fill="none" stroke="black" points="5.5,-154.5 104.5,-154.5 "/>
<text text-anchor="middle" x="55" y="-142.5" font-family="Helvetica,sans-Serif" font-size="10.00"> </text>
<polyline fill="none" stroke="black" points="5.5,-135.5 104.5,-135.5 "/>
<text text-anchor="start" x="13.5" y="-123.5" font-family="Helvetica,sans-Serif" font-size="10.00">+ nextCallback()</text>
</a>
</g>
</g>
<!-- Node2&#45;&gt;Node1 -->
<g id="edge1" class="edge">
<title>Node2&#45;&gt;Node1</title>
<path fill="none" stroke="midnightblue" d="M55,-106.16C55,-97.47 55,-88.23 55,-79.52"/>
<polygon fill="none" stroke="midnightblue" points="51.5,-106.4 55,-116.4 58.5,-106.4 51.5,-106.4"/>
</g>
</g>
</svg>
