<?xml version="1.0" encoding="UTF-8" standalone="no"?>
<!DOCTYPE svg PUBLIC "-//W3C//DTD SVG 1.1//EN"
 "http://www.w3.org/Graphics/SVG/1.1/DTD/svg11.dtd">
<!-- Generated by graphviz version 2.43.0 (0)
 -->
<!-- Title: CallbackLinker Pages: 1 -->
<svg width="567pt" height="226pt"
 viewBox="0.00 0.00 567.00 226.00" xmlns="http://www.w3.org/2000/svg" xmlns:xlink="http://www.w3.org/1999/xlink">
<g id="graph0" class="graph" transform="scale(1 1) rotate(0) translate(4 222)">
<title>CallbackLinker</title>
<polygon fill="white" stroke="transparent" points="-4,4 -4,-222 563,-222 563,4 -4,4"/>
<!-- Node1 -->
<g id="node1" class="node">
<title>Node1</title>
<g id="a_node1"><a xlink:title="Generic abstract Callback Interface class.">
<polygon fill="#bfbfbf" stroke="black" points="258,-160.5 258,-217.5 357,-217.5 357,-160.5 258,-160.5"/>
<text text-anchor="middle" x="307.5" y="-205.5" font-family="Helvetica,sans-Serif" font-size="10.00">CallbackLinker</text>
<polyline fill="none" stroke="black" points="258,-198.5 357,-198.5 "/>
<text text-anchor="middle" x="307.5" y="-186.5" font-family="Helvetica,sans-Serif" font-size="10.00"> </text>
<polyline fill="none" stroke="black" points="258,-179.5 357,-179.5 "/>
<text text-anchor="start" x="266" y="-167.5" font-family="Helvetica,sans-Serif" font-size="10.00">+ nextCallback()</text>
</a>
</g>
</g>
<!-- Node2 -->
<g id="node2" class="node">
<title>Node2</title>
<g id="a_node2"><a xlink:href="classDetectCard.html" target="_top" xlink:title="Class for the detection of cards. Runs the processing pipeline.">
<polygon fill="white" stroke="black" points="0,-0.5 0,-123.5 127,-123.5 127,-0.5 0,-0.5"/>
<text text-anchor="middle" x="63.5" y="-111.5" font-family="Helvetica,sans-Serif" font-size="10.00">DetectCard</text>
<polyline fill="none" stroke="black" points="0,-104.5 127,-104.5 "/>
<text text-anchor="middle" x="63.5" y="-92.5" font-family="Helvetica,sans-Serif" font-size="10.00"> </text>
<polyline fill="none" stroke="black" points="0,-85.5 127,-85.5 "/>
<text text-anchor="start" x="8" y="-73.5" font-family="Helvetica,sans-Serif" font-size="10.00">+ DetectCard()</text>
<text text-anchor="start" x="8" y="-62.5" font-family="Helvetica,sans-Serif" font-size="10.00">+ ~DetectCard()</text>
<text text-anchor="start" x="8" y="-51.5" font-family="Helvetica,sans-Serif" font-size="10.00">+ registerCallback()</text>
<text text-anchor="start" x="8" y="-40.5" font-family="Helvetica,sans-Serif" font-size="10.00">+ unregisterCallback()</text>
<text text-anchor="start" x="8" y="-29.5" font-family="Helvetica,sans-Serif" font-size="10.00">+ nextCallback()</text>
<text text-anchor="start" x="8" y="-18.5" font-family="Helvetica,sans-Serif" font-size="10.00">+ startProcessing()</text>
<text text-anchor="start" x="8" y="-7.5" font-family="Helvetica,sans-Serif" font-size="10.00">+ stopProcessing()</text>
</a>
</g>
</g>
<!-- Node1&#45;&gt;Node2 -->
<g id="edge1" class="edge">
<title>Node1&#45;&gt;Node2</title>
<path fill="none" stroke="midnightblue" d="M248.2,-171.28C214.23,-160.38 171.53,-144.39 136.5,-124 133.36,-122.17 130.22,-120.21 127.1,-118.14"/>
<polygon fill="none" stroke="midnightblue" points="247.4,-174.69 257.99,-174.35 249.5,-168.02 247.4,-174.69"/>
</g>
<!-- Node3 -->
<g id="node3" class="node">
<title>Node3</title>
<g id="a_node3"><a xlink:href="classGamePlay.html" target="_top" xlink:title="Class to implement the gameplay logic/architecture.">
<polygon fill="white" stroke="black" points="145.5,-0.5 145.5,-123.5 313.5,-123.5 313.5,-0.5 145.5,-0.5"/>
<text text-anchor="middle" x="229.5" y="-111.5" font-family="Helvetica,sans-Serif" font-size="10.00">GamePlay</text>
<polyline fill="none" stroke="black" points="145.5,-104.5 313.5,-104.5 "/>
<text text-anchor="middle" x="229.5" y="-92.5" font-family="Helvetica,sans-Serif" font-size="10.00"> </text>
<polyline fill="none" stroke="black" points="145.5,-85.5 313.5,-85.5 "/>
<text text-anchor="start" x="153.5" y="-73.5" font-family="Helvetica,sans-Serif" font-size="10.00">+ GamePlay()</text>
<text text-anchor="start" x="153.5" y="-62.5" font-family="Helvetica,sans-Serif" font-size="10.00">+ ~GamePlay()</text>
<text text-anchor="start" x="153.5" y="-51.5" font-family="Helvetica,sans-Serif" font-size="10.00">+ nextCallback()</text>
<text text-anchor="start" x="153.5" y="-40.5" font-family="Helvetica,sans-Serif" font-size="10.00">+ registerLEDCallback()</text>
<text text-anchor="start" x="153.5" y="-29.5" font-family="Helvetica,sans-Serif" font-size="10.00">+ unregisterLEDCallback()</text>
<text text-anchor="start" x="153.5" y="-18.5" font-family="Helvetica,sans-Serif" font-size="10.00">+ registerStrategyCallback()</text>
<text text-anchor="start" x="153.5" y="-7.5" font-family="Helvetica,sans-Serif" font-size="10.00">+ unregisterStrategyCallback()</text>
</a>
</g>
</g>
<!-- Node1&#45;&gt;Node3 -->
<g id="edge2" class="edge">
<title>Node1&#45;&gt;Node3</title>
<path fill="none" stroke="midnightblue" d="M284.89,-151.76C279.39,-142.95 273.36,-133.28 267.36,-123.67"/>
<polygon fill="none" stroke="midnightblue" points="281.93,-153.63 290.19,-160.26 287.86,-149.92 281.93,-153.63"/>
</g>
<!-- Node4 -->
<g id="node4" class="node">
<title>Node4</title>
<g id="a_node4"><a xlink:href="classStrategyEngine.html" target="_top" xlink:title="Class implementing the optimum Blackjack strategy.">
<polygon fill="white" stroke="black" points="331.5,-22.5 331.5,-101.5 441.5,-101.5 441.5,-22.5 331.5,-22.5"/>
<text text-anchor="middle" x="386.5" y="-89.5" font-family="Helvetica,sans-Serif" font-size="10.00">StrategyEngine</text>
<polyline fill="none" stroke="black" points="331.5,-82.5 441.5,-82.5 "/>
<text text-anchor="middle" x="386.5" y="-70.5" font-family="Helvetica,sans-Serif" font-size="10.00"> </text>
<polyline fill="none" stroke="black" points="331.5,-63.5 441.5,-63.5 "/>
<text text-anchor="start" x="339.5" y="-51.5" font-family="Helvetica,sans-Serif" font-size="10.00">+ StrategyEngine()</text>
<text text-anchor="start" x="339.5" y="-40.5" font-family="Helvetica,sans-Serif" font-size="10.00">+ getchoice()</text>
<text text-anchor="start" x="339.5" y="-29.5" font-family="Helvetica,sans-Serif" font-size="10.00">+ nextCallback()</text>
</a>
</g>
</g>
<!-- Node1&#45;&gt;Node4 -->
<g id="edge3" class="edge">
<title>Node1&#45;&gt;Node4</title>
<path fill="none" stroke="midnightblue" d="M330.64,-151.38C340.54,-135.72 352.1,-117.43 362.13,-101.57"/>
<polygon fill="none" stroke="midnightblue" points="327.42,-149.94 325.03,-160.26 333.33,-153.68 327.42,-149.94"/>
</g>
<!-- Node5 -->
<g id="node5" class="node">
<title>Node5</title>
<g id="a_node5"><a xlink:href="classToggleLED.html" target="_top" xlink:title="Class to control the Rasp Pi pins and toggle LEDs ON/OFF.">
<polygon fill="white" stroke="black" points="460,-17 460,-107 559,-107 559,-17 460,-17"/>
<text text-anchor="middle" x="509.5" y="-95" font-family="Helvetica,sans-Serif" font-size="10.00">ToggleLED</text>
<polyline fill="none" stroke="black" points="460,-88 559,-88 "/>
<text text-anchor="middle" x="509.5" y="-76" font-family="Helvetica,sans-Serif" font-size="10.00"> </text>
<polyline fill="none" stroke="black" points="460,-69 559,-69 "/>
<text text-anchor="start" x="468" y="-57" font-family="Helvetica,sans-Serif" font-size="10.00">+ ToggleLED()</text>
<text text-anchor="start" x="468" y="-46" font-family="Helvetica,sans-Serif" font-size="10.00">+ ~ToggleLED()</text>
<text text-anchor="start" x="468" y="-35" font-family="Helvetica,sans-Serif" font-size="10.00">+ flashled()</text>
<text text-anchor="start" x="468" y="-24" font-family="Helvetica,sans-Serif" font-size="10.00">+ nextCallback()</text>
</a>
</g>
</g>
<!-- Node1&#45;&gt;Node5 -->
<g id="edge4" class="edge">
<title>Node1&#45;&gt;Node5</title>
<path fill="none" stroke="midnightblue" d="M366.94,-167.33C393.73,-156.55 425.01,-141.87 450.5,-124 457.5,-119.09 464.35,-113.28 470.77,-107.22"/>
<polygon fill="none" stroke="midnightblue" points="365.31,-164.2 357.28,-171.12 367.87,-170.72 365.31,-164.2"/>
</g>
</g>
</svg>
