<?xml version="1.0" encoding="UTF-8" standalone="no"?>
<!DOCTYPE svg PUBLIC "-//W3C//DTD SVG 1.1//EN"
 "http://www.w3.org/Graphics/SVG/1.1/DTD/svg11.dtd">
<!-- Generated by graphviz version 2.43.0 (0)
 -->
<!-- Title: lccv::PiCamera Pages: 1 -->
<svg width="575pt" height="951pt"
 viewBox="0.00 0.00 575.00 951.00" xmlns="http://www.w3.org/2000/svg" xmlns:xlink="http://www.w3.org/1999/xlink">
<g id="graph0" class="graph" transform="scale(1 1) rotate(0) translate(4 947)">
<title>lccv::PiCamera</title>
<polygon fill="white" stroke="transparent" points="-4,4 -4,-947 571,-947 571,4 -4,4"/>
<!-- Node1 -->
<g id="node1" class="node">
<title>Node1</title>
<g id="a_node1"><a xlink:title=" ">
<polygon fill="#bfbfbf" stroke="black" points="268,-0.5 268,-233.5 387,-233.5 387,-0.5 268,-0.5"/>
<text text-anchor="middle" x="327.5" y="-221.5" font-family="Helvetica,sans-Serif" font-size="10.00">lccv::PiCamera</text>
<polyline fill="none" stroke="black" points="268,-214.5 387,-214.5 "/>
<text text-anchor="start" x="276" y="-202.5" font-family="Helvetica,sans-Serif" font-size="10.00"># videothread</text>
<text text-anchor="start" x="276" y="-191.5" font-family="Helvetica,sans-Serif" font-size="10.00"># still_flags</text>
<text text-anchor="start" x="276" y="-180.5" font-family="Helvetica,sans-Serif" font-size="10.00"># vw</text>
<text text-anchor="start" x="276" y="-169.5" font-family="Helvetica,sans-Serif" font-size="10.00"># vh</text>
<text text-anchor="start" x="276" y="-158.5" font-family="Helvetica,sans-Serif" font-size="10.00"># vstr</text>
<text text-anchor="start" x="276" y="-147.5" font-family="Helvetica,sans-Serif" font-size="10.00"># framebuffer</text>
<text text-anchor="start" x="276" y="-136.5" font-family="Helvetica,sans-Serif" font-size="10.00"># camerastarted</text>
<polyline fill="none" stroke="black" points="268,-129.5 387,-129.5 "/>
<text text-anchor="start" x="276" y="-117.5" font-family="Helvetica,sans-Serif" font-size="10.00">+ PiCamera()</text>
<text text-anchor="start" x="276" y="-106.5" font-family="Helvetica,sans-Serif" font-size="10.00">+ ~PiCamera()</text>
<text text-anchor="start" x="276" y="-95.5" font-family="Helvetica,sans-Serif" font-size="10.00">+ startPhoto()</text>
<text text-anchor="start" x="276" y="-84.5" font-family="Helvetica,sans-Serif" font-size="10.00">+ capturePhoto()</text>
<text text-anchor="start" x="276" y="-73.5" font-family="Helvetica,sans-Serif" font-size="10.00">+ stopPhoto()</text>
<text text-anchor="start" x="276" y="-62.5" font-family="Helvetica,sans-Serif" font-size="10.00">+ startVideo()</text>
<text text-anchor="start" x="276" y="-51.5" font-family="Helvetica,sans-Serif" font-size="10.00">+ getVideoFrame()</text>
<text text-anchor="start" x="276" y="-40.5" font-family="Helvetica,sans-Serif" font-size="10.00">+ stopVideo()</text>
<text text-anchor="start" x="276" y="-29.5" font-family="Helvetica,sans-Serif" font-size="10.00"># run()</text>
<text text-anchor="start" x="276" y="-18.5" font-family="Helvetica,sans-Serif" font-size="10.00"># getImage()</text>
<text text-anchor="start" x="276" y="-7.5" font-family="Helvetica,sans-Serif" font-size="10.00"># videoThreadFunc()</text>
</a>
</g>
</g>
<!-- Node2 -->
<g id="node2" class="node">
<title>Node2</title>
<g id="a_node2"><a xlink:title=" ">
<polygon fill="white" stroke="#bfbfbf" points="0,-588.5 0,-645.5 115,-645.5 115,-588.5 0,-588.5"/>
<text text-anchor="middle" x="57.5" y="-633.5" font-family="Helvetica,sans-Serif" font-size="10.00">std::atomic&lt; bool &gt;</text>
<polyline fill="none" stroke="#bfbfbf" points="0,-626.5 115,-626.5 "/>
<text text-anchor="start" x="8" y="-614.5" font-family="Helvetica,sans-Serif" font-size="10.00">+ ptr</text>
<polyline fill="none" stroke="#bfbfbf" points="0,-607.5 115,-607.5 "/>
<text text-anchor="middle" x="57.5" y="-595.5" font-family="Helvetica,sans-Serif" font-size="10.00"> </text>
</a>
</g>
</g>
<!-- Node2&#45;&gt;Node1 -->
<g id="edge1" class="edge">
<title>Node2&#45;&gt;Node1</title>
<path fill="none" stroke="#404040" d="M49.86,-588.07C34.96,-527.46 8.21,-381.27 65.5,-281 106.65,-208.97 193.89,-164.44 256.4,-140.49"/>
<polygon fill="none" stroke="#404040" points="256.52,-140.45 260.75,-134.61 267.77,-136.26 263.54,-142.1 256.52,-140.45"/>
<text text-anchor="middle" x="100" y="-428.5" font-family="Helvetica,sans-Serif" font-size="10.00"> #frameready</text>
<text text-anchor="middle" x="100" y="-417.5" font-family="Helvetica,sans-Serif" font-size="10.00">#running</text>
</g>
<!-- Node3 -->
<g id="node3" class="node">
<title>Node3</title>
<g id="a_node3"><a xlink:title=" ">
<polygon fill="white" stroke="#bfbfbf" points="28.5,-775 28.5,-832 128.5,-832 128.5,-775 28.5,-775"/>
<text text-anchor="middle" x="78.5" y="-820" font-family="Helvetica,sans-Serif" font-size="10.00">std::atomic&lt; T &gt;</text>
<polyline fill="none" stroke="#bfbfbf" points="28.5,-813 128.5,-813 "/>
<text text-anchor="middle" x="78.5" y="-801" font-family="Helvetica,sans-Serif" font-size="10.00"> </text>
<polyline fill="none" stroke="#bfbfbf" points="28.5,-794 128.5,-794 "/>
<text text-anchor="middle" x="78.5" y="-782" font-family="Helvetica,sans-Serif" font-size="10.00"> </text>
</a>
</g>
</g>
<!-- Node3&#45;&gt;Node2 -->
<g id="edge2" class="edge">
<title>Node3&#45;&gt;Node2</title>
<path fill="none" stroke="orange" d="M74.22,-764.91C70.19,-729.48 64.24,-677.21 60.63,-645.51"/>
<polygon fill="orange" stroke="orange" points="70.75,-765.34 75.36,-774.88 77.7,-764.55 70.75,-765.34"/>
<text text-anchor="middle" x="96" y="-743" font-family="Helvetica,sans-Serif" font-size="10.00"> &lt; bool &gt;</text>
</g>
<!-- Node4 -->
<g id="node4" class="node">
<title>Node4</title>
<g id="a_node4"><a xlink:title=" ">
<polygon fill="white" stroke="#bfbfbf" points="127,-885.5 127,-942.5 156,-942.5 156,-885.5 127,-885.5"/>
<text text-anchor="middle" x="141.5" y="-930.5" font-family="Helvetica,sans-Serif" font-size="10.00">T</text>
<polyline fill="none" stroke="#bfbfbf" points="127,-923.5 156,-923.5 "/>
<text text-anchor="middle" x="141.5" y="-911.5" font-family="Helvetica,sans-Serif" font-size="10.00"> </text>
<polyline fill="none" stroke="#bfbfbf" points="127,-904.5 156,-904.5 "/>
<text text-anchor="middle" x="141.5" y="-892.5" font-family="Helvetica,sans-Serif" font-size="10.00"> </text>
</a>
</g>
</g>
<!-- Node4&#45;&gt;Node3 -->
<g id="edge3" class="edge">
<title>Node4&#45;&gt;Node3</title>
<path fill="none" stroke="#404040" d="M126.89,-887.84C119.11,-874.44 109.38,-857.67 100.68,-842.71"/>
<polygon fill="none" stroke="#404040" points="100.61,-842.57 94.13,-839.39 94.58,-832.2 101.05,-835.38 100.61,-842.57"/>
<text text-anchor="middle" x="127" y="-859" font-family="Helvetica,sans-Serif" font-size="10.00"> +ptr</text>
</g>
<!-- Node10 -->
<g id="node10" class="node">
<title>Node10</title>
<g id="a_node10"><a xlink:title=" ">
<polygon fill="white" stroke="#bfbfbf" points="150.5,-775 150.5,-832 268.5,-832 268.5,-775 150.5,-775"/>
<text text-anchor="middle" x="209.5" y="-820" font-family="Helvetica,sans-Serif" font-size="10.00">std::unique_ptr&lt; T &gt;</text>
<polyline fill="none" stroke="#bfbfbf" points="150.5,-813 268.5,-813 "/>
<text text-anchor="middle" x="209.5" y="-801" font-family="Helvetica,sans-Serif" font-size="10.00"> </text>
<polyline fill="none" stroke="#bfbfbf" points="150.5,-794 268.5,-794 "/>
<text text-anchor="start" x="158.5" y="-782" font-family="Helvetica,sans-Serif" font-size="10.00">+ operator&#45;&gt;()</text>
</a>
</g>
</g>
<!-- Node4&#45;&gt;Node10 -->
<g id="edge10" class="edge">
<title>Node4&#45;&gt;Node10</title>
<path fill="none" stroke="#404040" d="M156.09,-889.72C164.65,-876.06 175.68,-858.46 185.49,-842.81"/>
<polygon fill="none" stroke="#404040" points="185.67,-842.52 185.47,-835.31 192.04,-832.35 192.25,-839.56 185.67,-842.52"/>
<text text-anchor="middle" x="188" y="-859" font-family="Helvetica,sans-Serif" font-size="10.00"> +ptr</text>
</g>
<!-- Node5 -->
<g id="node5" class="node">
<title>Node5</title>
<g id="a_node5"><a xlink:href="classOptions.html" target="_top" xlink:title=" ">
<polygon fill="white" stroke="black" points="357,-281.5 357,-569.5 480,-569.5 480,-281.5 357,-281.5"/>
<text text-anchor="middle" x="418.5" y="-557.5" font-family="Helvetica,sans-Serif" font-size="10.00">Options</text>
<polyline fill="none" stroke="black" points="357,-550.5 480,-550.5 "/>
<text text-anchor="start" x="365" y="-538.5" font-family="Helvetica,sans-Serif" font-size="10.00">+ help</text>
<text text-anchor="start" x="365" y="-527.5" font-family="Helvetica,sans-Serif" font-size="10.00">+ version</text>
<text text-anchor="start" x="365" y="-516.5" font-family="Helvetica,sans-Serif" font-size="10.00">+ list_cameras</text>
<text text-anchor="start" x="365" y="-505.5" font-family="Helvetica,sans-Serif" font-size="10.00">+ verbose</text>
<text text-anchor="start" x="365" y="-494.5" font-family="Helvetica,sans-Serif" font-size="10.00">+ timeout</text>
<text text-anchor="start" x="365" y="-483.5" font-family="Helvetica,sans-Serif" font-size="10.00">+ photo_width</text>
<text text-anchor="start" x="365" y="-472.5" font-family="Helvetica,sans-Serif" font-size="10.00">+ photo_height</text>
<text text-anchor="start" x="365" y="-461.5" font-family="Helvetica,sans-Serif" font-size="10.00">+ video_width</text>
<text text-anchor="start" x="365" y="-450.5" font-family="Helvetica,sans-Serif" font-size="10.00">+ video_height</text>
<text text-anchor="start" x="365" y="-439.5" font-family="Helvetica,sans-Serif" font-size="10.00">+ rawfull</text>
<text text-anchor="start" x="365" y="-428.5" font-family="Helvetica,sans-Serif" font-size="10.00">and 16 more...</text>
<text text-anchor="start" x="365" y="-417.5" font-family="Helvetica,sans-Serif" font-size="10.00"># metering_index</text>
<text text-anchor="start" x="365" y="-406.5" font-family="Helvetica,sans-Serif" font-size="10.00"># exposure_index</text>
<text text-anchor="start" x="365" y="-395.5" font-family="Helvetica,sans-Serif" font-size="10.00"># awb_index</text>
<polyline fill="none" stroke="black" points="357,-388.5 480,-388.5 "/>
<text text-anchor="start" x="365" y="-376.5" font-family="Helvetica,sans-Serif" font-size="10.00">+ Options()</text>
<text text-anchor="start" x="365" y="-365.5" font-family="Helvetica,sans-Serif" font-size="10.00">+ ~Options()</text>
<text text-anchor="start" x="365" y="-354.5" font-family="Helvetica,sans-Serif" font-size="10.00">+ Print()</text>
<text text-anchor="start" x="365" y="-343.5" font-family="Helvetica,sans-Serif" font-size="10.00">+ setMetering()</text>
<text text-anchor="start" x="365" y="-332.5" font-family="Helvetica,sans-Serif" font-size="10.00">+ setWhiteBalance()</text>
<text text-anchor="start" x="365" y="-321.5" font-family="Helvetica,sans-Serif" font-size="10.00">+ setExposureMode()</text>
<text text-anchor="start" x="365" y="-310.5" font-family="Helvetica,sans-Serif" font-size="10.00">+ getExposureMode()</text>
<text text-anchor="start" x="365" y="-299.5" font-family="Helvetica,sans-Serif" font-size="10.00">+ getMeteringMode()</text>
<text text-anchor="start" x="365" y="-288.5" font-family="Helvetica,sans-Serif" font-size="10.00">+ getWhiteBalance()</text>
</a>
</g>
</g>
<!-- Node5&#45;&gt;Node1 -->
<g id="edge4" class="edge">
<title>Node5&#45;&gt;Node1</title>
<path fill="none" stroke="#404040" d="M375.93,-281.12C372.39,-269.2 368.83,-257.2 365.33,-245.42"/>
<polygon fill="none" stroke="#404040" points="365.27,-245.21 359.73,-240.6 361.85,-233.71 367.4,-238.32 365.27,-245.21"/>
<text text-anchor="middle" x="394.5" y="-255" font-family="Helvetica,sans-Serif" font-size="10.00"> +options</text>
</g>
<!-- Node6 -->
<g id="node6" class="node">
<title>Node6</title>
<g id="a_node6"><a xlink:title=" ">
<polygon fill="white" stroke="#bfbfbf" points="386,-664.5 386,-721.5 451,-721.5 451,-664.5 386,-664.5"/>
<text text-anchor="middle" x="418.5" y="-709.5" font-family="Helvetica,sans-Serif" font-size="10.00">std::string</text>
<polyline fill="none" stroke="#bfbfbf" points="386,-702.5 451,-702.5 "/>
<text text-anchor="middle" x="418.5" y="-690.5" font-family="Helvetica,sans-Serif" font-size="10.00"> </text>
<polyline fill="none" stroke="#bfbfbf" points="386,-683.5 451,-683.5 "/>
<text text-anchor="middle" x="418.5" y="-671.5" font-family="Helvetica,sans-Serif" font-size="10.00"> </text>
</a>
</g>
</g>
<!-- Node6&#45;&gt;Node5 -->
<g id="edge5" class="edge">
<title>Node6&#45;&gt;Node5</title>
<path fill="none" stroke="#404040" d="M418.5,-664.09C418.5,-643.43 418.5,-613.47 418.5,-581.74"/>
<polygon fill="none" stroke="#404040" points="418.5,-581.51 414.5,-575.51 418.5,-569.51 422.5,-575.51 418.5,-581.51"/>
<text text-anchor="middle" x="444.5" y="-620" font-family="Helvetica,sans-Serif" font-size="10.00"> +denoise</text>
<text text-anchor="middle" x="444.5" y="-609" font-family="Helvetica,sans-Serif" font-size="10.00">+info_text</text>
</g>
<!-- Node7 -->
<g id="node7" class="node">
<title>Node7</title>
<g id="a_node7"><a xlink:title=" ">
<polygon fill="white" stroke="#bfbfbf" points="366.5,-769.5 366.5,-837.5 470.5,-837.5 470.5,-769.5 366.5,-769.5"/>
<text text-anchor="start" x="374.5" y="-825.5" font-family="Helvetica,sans-Serif" font-size="10.00">std::basic_string&lt;</text>
<text text-anchor="middle" x="418.5" y="-814.5" font-family="Helvetica,sans-Serif" font-size="10.00"> Char &gt;</text>
<polyline fill="none" stroke="#bfbfbf" points="366.5,-807.5 470.5,-807.5 "/>
<text text-anchor="middle" x="418.5" y="-795.5" font-family="Helvetica,sans-Serif" font-size="10.00"> </text>
<polyline fill="none" stroke="#bfbfbf" points="366.5,-788.5 470.5,-788.5 "/>
<text text-anchor="middle" x="418.5" y="-776.5" font-family="Helvetica,sans-Serif" font-size="10.00"> </text>
</a>
</g>
</g>
<!-- Node7&#45;&gt;Node6 -->
<g id="edge6" class="edge">
<title>Node7&#45;&gt;Node6</title>
<path fill="none" stroke="midnightblue" d="M418.5,-759.06C418.5,-746.51 418.5,-733.15 418.5,-721.83"/>
<polygon fill="none" stroke="midnightblue" points="415,-759.36 418.5,-769.36 422,-759.36 415,-759.36"/>
</g>
<!-- Node8 -->
<g id="node8" class="node">
<title>Node8</title>
<g id="a_node8"><a xlink:href="classLibcameraApp.html" target="_top" xlink:title=" ">
<polygon fill="white" stroke="black" points="144,-292.5 144,-558.5 339,-558.5 339,-292.5 144,-292.5"/>
<text text-anchor="middle" x="241.5" y="-546.5" font-family="Helvetica,sans-Serif" font-size="10.00">LibcameraApp</text>
<polyline fill="none" stroke="black" points="144,-539.5 339,-539.5 "/>
<text text-anchor="start" x="152" y="-527.5" font-family="Helvetica,sans-Serif" font-size="10.00">+ FLAG_STILL_NONE</text>
<text text-anchor="start" x="152" y="-516.5" font-family="Helvetica,sans-Serif" font-size="10.00">+ FLAG_STILL_BGR</text>
<text text-anchor="start" x="152" y="-505.5" font-family="Helvetica,sans-Serif" font-size="10.00">+ FLAG_STILL_RGB</text>
<text text-anchor="start" x="152" y="-494.5" font-family="Helvetica,sans-Serif" font-size="10.00">+ FLAG_STILL_RAW</text>
<text text-anchor="start" x="152" y="-483.5" font-family="Helvetica,sans-Serif" font-size="10.00">+ FLAG_STILL_DOUBLE_BUFFER</text>
<text text-anchor="start" x="152" y="-472.5" font-family="Helvetica,sans-Serif" font-size="10.00">+ FLAG_STILL_TRIPLE_BUFFER</text>
<text text-anchor="start" x="152" y="-461.5" font-family="Helvetica,sans-Serif" font-size="10.00">+ FLAG_STILL_BUFFER_MASK</text>
<text text-anchor="start" x="152" y="-450.5" font-family="Helvetica,sans-Serif" font-size="10.00">+ FLAG_VIDEO_NONE</text>
<text text-anchor="start" x="152" y="-439.5" font-family="Helvetica,sans-Serif" font-size="10.00">+ FLAG_VIDEO_RAW</text>
<text text-anchor="start" x="152" y="-428.5" font-family="Helvetica,sans-Serif" font-size="10.00">+ FLAG_VIDEO_JPEG_COLOURSPACE</text>
<polyline fill="none" stroke="black" points="144,-421.5 339,-421.5 "/>
<text text-anchor="start" x="152" y="-409.5" font-family="Helvetica,sans-Serif" font-size="10.00">+ LibcameraApp()</text>
<text text-anchor="start" x="152" y="-398.5" font-family="Helvetica,sans-Serif" font-size="10.00">+ ~LibcameraApp()</text>
<text text-anchor="start" x="152" y="-387.5" font-family="Helvetica,sans-Serif" font-size="10.00">+ GetOptions()</text>
<text text-anchor="start" x="152" y="-376.5" font-family="Helvetica,sans-Serif" font-size="10.00">+ CameraId()</text>
<text text-anchor="start" x="152" y="-365.5" font-family="Helvetica,sans-Serif" font-size="10.00">+ OpenCamera()</text>
<text text-anchor="start" x="152" y="-354.5" font-family="Helvetica,sans-Serif" font-size="10.00">+ CloseCamera()</text>
<text text-anchor="start" x="152" y="-343.5" font-family="Helvetica,sans-Serif" font-size="10.00">+ ConfigureStill()</text>
<text text-anchor="start" x="152" y="-332.5" font-family="Helvetica,sans-Serif" font-size="10.00">+ ConfigureViewfinder()</text>
<text text-anchor="start" x="152" y="-321.5" font-family="Helvetica,sans-Serif" font-size="10.00">+ Teardown()</text>
<text text-anchor="start" x="152" y="-310.5" font-family="Helvetica,sans-Serif" font-size="10.00">+ StartCamera()</text>
<text text-anchor="start" x="152" y="-299.5" font-family="Helvetica,sans-Serif" font-size="10.00">and 13 more...</text>
</a>
</g>
</g>
<!-- Node8&#45;&gt;Node1 -->
<g id="edge7" class="edge">
<title>Node8&#45;&gt;Node1</title>
<path fill="none" stroke="#404040" d="M278.6,-292.29C282.94,-276.8 287.37,-261.01 291.7,-245.59"/>
<polygon fill="none" stroke="#404040" points="291.75,-245.42 289.52,-238.56 294.99,-233.87 297.22,-240.73 291.75,-245.42"/>
<text text-anchor="middle" x="305.5" y="-255" font-family="Helvetica,sans-Serif" font-size="10.00"> #app</text>
</g>
<!-- Node9 -->
<g id="node9" class="node">
<title>Node9</title>
<g id="a_node9"><a xlink:title=" ">
<polygon fill="white" stroke="#bfbfbf" points="138,-664.5 138,-721.5 287,-721.5 287,-664.5 138,-664.5"/>
<text text-anchor="middle" x="212.5" y="-709.5" font-family="Helvetica,sans-Serif" font-size="10.00">std::unique_ptr&lt; Options &gt;</text>
<polyline fill="none" stroke="#bfbfbf" points="138,-702.5 287,-702.5 "/>
<text text-anchor="start" x="146" y="-690.5" font-family="Helvetica,sans-Serif" font-size="10.00">+ ptr</text>
<polyline fill="none" stroke="#bfbfbf" points="138,-683.5 287,-683.5 "/>
<text text-anchor="start" x="146" y="-671.5" font-family="Helvetica,sans-Serif" font-size="10.00">+ operator&#45;&gt;()</text>
</a>
</g>
</g>
<!-- Node9&#45;&gt;Node8 -->
<g id="edge8" class="edge">
<title>Node9&#45;&gt;Node8</title>
<path fill="none" stroke="#404040" d="M215.55,-664.09C218.06,-641.06 221.84,-606.48 225.74,-570.78"/>
<polygon fill="none" stroke="#404040" points="225.76,-570.58 222.44,-564.18 227.07,-558.65 230.39,-565.05 225.76,-570.58"/>
<text text-anchor="middle" x="251" y="-614.5" font-family="Helvetica,sans-Serif" font-size="10.00"> #options_</text>
</g>
<!-- Node10&#45;&gt;Node9 -->
<g id="edge9" class="edge">
<title>Node10&#45;&gt;Node9</title>
<path fill="none" stroke="orange" d="M210.55,-764.44C210.94,-750.33 211.38,-734.61 211.74,-721.61"/>
<polygon fill="orange" stroke="orange" points="207.04,-764.75 210.26,-774.84 214.04,-764.94 207.04,-764.75"/>
<text text-anchor="middle" x="243.5" y="-743" font-family="Helvetica,sans-Serif" font-size="10.00"> &lt; Options &gt;</text>
</g>
<!-- Node11 -->
<g id="node11" class="node">
<title>Node11</title>
<g id="a_node11"><a xlink:title=" ">
<polygon fill="white" stroke="#bfbfbf" points="498,-397 498,-454 567,-454 567,-397 498,-397"/>
<text text-anchor="middle" x="532.5" y="-442" font-family="Helvetica,sans-Serif" font-size="10.00">std::mutex</text>
<polyline fill="none" stroke="#bfbfbf" points="498,-435 567,-435 "/>
<text text-anchor="middle" x="532.5" y="-423" font-family="Helvetica,sans-Serif" font-size="10.00"> </text>
<polyline fill="none" stroke="#bfbfbf" points="498,-416 567,-416 "/>
<text text-anchor="middle" x="532.5" y="-404" font-family="Helvetica,sans-Serif" font-size="10.00"> </text>
</a>
</g>
</g>
<!-- Node11&#45;&gt;Node1 -->
<g id="edge11" class="edge">
<title>Node11&#45;&gt;Node1</title>
<path fill="none" stroke="#404040" d="M528.38,-396.97C522.96,-366.83 511.44,-317.88 489.5,-281 465.36,-240.43 428.93,-202.54 396.73,-173.52"/>
<polygon fill="none" stroke="#404040" points="396.31,-173.16 389.17,-172.17 387.33,-165.2 394.47,-166.18 396.31,-173.16"/>
<text text-anchor="middle" x="491" y="-255" font-family="Helvetica,sans-Serif" font-size="10.00"> #mtx</text>
</g>
</g>
</svg>
