<?xml version="1.0" encoding="UTF-8" standalone="no"?>
<!DOCTYPE svg PUBLIC "-//W3C//DTD SVG 1.1//EN"
 "http://www.w3.org/Graphics/SVG/1.1/DTD/svg11.dtd">
<!-- Generated by graphviz version 2.43.0 (0)
 -->
<!-- Title: ToggleLEDTest Pages: 1 -->
<svg width="202pt" height="299pt"
 viewBox="0.00 0.00 201.50 299.00" xmlns="http://www.w3.org/2000/svg" xmlns:xlink="http://www.w3.org/1999/xlink">
<g id="graph0" class="graph" transform="scale(1 1) rotate(0) translate(4 295)">
<title>ToggleLEDTest</title>
<polygon fill="white" stroke="transparent" points="-4,4 -4,-295 197.5,-295 197.5,4 -4,4"/>
<!-- Node1 -->
<g id="node1" class="node">
<title>Node1</title>
<g id="a_node1"><a xlink:title=" ">
<polygon fill="#bfbfbf" stroke="black" points="11,-0.5 11,-57.5 97,-57.5 97,-0.5 11,-0.5"/>
<text text-anchor="middle" x="54" y="-45.5" font-family="Helvetica,sans-Serif" font-size="10.00">ToggleLEDTest</text>
<polyline fill="none" stroke="black" points="11,-38.5 97,-38.5 "/>
<text text-anchor="middle" x="54" y="-26.5" font-family="Helvetica,sans-Serif" font-size="10.00"> </text>
<polyline fill="none" stroke="black" points="11,-19.5 97,-19.5 "/>
<text text-anchor="middle" x="54" y="-7.5" font-family="Helvetica,sans-Serif" font-size="10.00"> </text>
</a>
</g>
</g>
<!-- Node2 -->
<g id="node2" class="node">
<title>Node2</title>
<g id="a_node2"><a xlink:title=" ">
<polygon fill="white" stroke="#bfbfbf" points="0,-122 0,-179 76,-179 76,-122 0,-122"/>
<text text-anchor="middle" x="38" y="-167" font-family="Helvetica,sans-Serif" font-size="10.00">testing::Test</text>
<polyline fill="none" stroke="#bfbfbf" points="0,-160 76,-160 "/>
<text text-anchor="middle" x="38" y="-148" font-family="Helvetica,sans-Serif" font-size="10.00"> </text>
<polyline fill="none" stroke="#bfbfbf" points="0,-141 76,-141 "/>
<text text-anchor="middle" x="38" y="-129" font-family="Helvetica,sans-Serif" font-size="10.00"> </text>
</a>
</g>
</g>
<!-- Node2&#45;&gt;Node1 -->
<g id="edge1" class="edge">
<title>Node2&#45;&gt;Node1</title>
<path fill="none" stroke="midnightblue" d="M43.04,-111.83C45.4,-94.24 48.15,-73.68 50.31,-57.57"/>
<polygon fill="none" stroke="midnightblue" points="39.57,-111.41 41.71,-121.78 46.51,-112.34 39.57,-111.41"/>
</g>
<!-- Node3 -->
<g id="node3" class="node">
<title>Node3</title>
<g id="a_node3"><a xlink:href="classToggleLED.html" target="_top" xlink:title="Class to control the Rasp Pi pins and toggle LEDs ON/OFF.">
<polygon fill="white" stroke="black" points="94.5,-105.5 94.5,-195.5 193.5,-195.5 193.5,-105.5 94.5,-105.5"/>
<text text-anchor="middle" x="144" y="-183.5" font-family="Helvetica,sans-Serif" font-size="10.00">ToggleLED</text>
<polyline fill="none" stroke="black" points="94.5,-176.5 193.5,-176.5 "/>
<text text-anchor="middle" x="144" y="-164.5" font-family="Helvetica,sans-Serif" font-size="10.00"> </text>
<polyline fill="none" stroke="black" points="94.5,-157.5 193.5,-157.5 "/>
<text text-anchor="start" x="102.5" y="-145.5" font-family="Helvetica,sans-Serif" font-size="10.00">+ ToggleLED()</text>
<text text-anchor="start" x="102.5" y="-134.5" font-family="Helvetica,sans-Serif" font-size="10.00">+ ~ToggleLED()</text>
<text text-anchor="start" x="102.5" y="-123.5" font-family="Helvetica,sans-Serif" font-size="10.00">+ flashled()</text>
<text text-anchor="start" x="102.5" y="-112.5" font-family="Helvetica,sans-Serif" font-size="10.00">+ nextCallback()</text>
</a>
</g>
</g>
<!-- Node3&#45;&gt;Node1 -->
<g id="edge2" class="edge">
<title>Node3&#45;&gt;Node1</title>
<path fill="none" stroke="#404040" d="M110.74,-105.34C101.35,-92.88 91.23,-79.44 82.17,-67.41"/>
<polygon fill="none" stroke="#404040" points="82.07,-67.27 75.27,-64.89 74.85,-57.69 81.66,-60.07 82.07,-67.27"/>
<text text-anchor="middle" x="109.5" y="-79" font-family="Helvetica,sans-Serif" font-size="10.00"> #led</text>
</g>
<!-- Node4 -->
<g id="node4" class="node">
<title>Node4</title>
<g id="a_node4"><a xlink:href="classCallbackLinker.html" target="_top" xlink:title="Generic abstract Callback Interface class.">
<polygon fill="white" stroke="black" points="94.5,-233.5 94.5,-290.5 193.5,-290.5 193.5,-233.5 94.5,-233.5"/>
<text text-anchor="middle" x="144" y="-278.5" font-family="Helvetica,sans-Serif" font-size="10.00">CallbackLinker</text>
<polyline fill="none" stroke="black" points="94.5,-271.5 193.5,-271.5 "/>
<text text-anchor="middle" x="144" y="-259.5" font-family="Helvetica,sans-Serif" font-size="10.00"> </text>
<polyline fill="none" stroke="black" points="94.5,-252.5 193.5,-252.5 "/>
<text text-anchor="start" x="102.5" y="-240.5" font-family="Helvetica,sans-Serif" font-size="10.00">+ nextCallback()</text>
</a>
</g>
</g>
<!-- Node4&#45;&gt;Node3 -->
<g id="edge3" class="edge">
<title>Node4&#45;&gt;Node3</title>
<path fill="none" stroke="midnightblue" d="M144,-223.31C144,-214.43 144,-204.88 144,-195.74"/>
<polygon fill="none" stroke="midnightblue" points="140.5,-223.37 144,-233.37 147.5,-223.37 140.5,-223.37"/>
</g>
</g>
</svg>
