<?xml version="1.0" encoding="UTF-8" standalone="no"?>
<!DOCTYPE svg PUBLIC "-//W3C//DTD SVG 1.1//EN"
 "http://www.w3.org/Graphics/SVG/1.1/DTD/svg11.dtd">
<!-- Generated by graphviz version 2.43.0 (0)
 -->
<!-- Title: LibcameraApp Pages: 1 -->
<svg width="203pt" height="590pt"
 viewBox="0.00 0.00 203.00 590.00" xmlns="http://www.w3.org/2000/svg" xmlns:xlink="http://www.w3.org/1999/xlink">
<g id="graph0" class="graph" transform="scale(1 1) rotate(0) translate(4 586)">
<title>LibcameraApp</title>
<polygon fill="white" stroke="transparent" points="-4,4 -4,-586 199,-586 199,4 -4,4"/>
<!-- Node1 -->
<g id="node1" class="node">
<title>Node1</title>
<g id="a_node1"><a xlink:title=" ">
<polygon fill="#bfbfbf" stroke="black" points="0,-0.5 0,-266.5 195,-266.5 195,-0.5 0,-0.5"/>
<text text-anchor="middle" x="97.5" y="-254.5" font-family="Helvetica,sans-Serif" font-size="10.00">LibcameraApp</text>
<polyline fill="none" stroke="black" points="0,-247.5 195,-247.5 "/>
<text text-anchor="start" x="8" y="-235.5" font-family="Helvetica,sans-Serif" font-size="10.00">+ FLAG_STILL_NONE</text>
<text text-anchor="start" x="8" y="-224.5" font-family="Helvetica,sans-Serif" font-size="10.00">+ FLAG_STILL_BGR</text>
<text text-anchor="start" x="8" y="-213.5" font-family="Helvetica,sans-Serif" font-size="10.00">+ FLAG_STILL_RGB</text>
<text text-anchor="start" x="8" y="-202.5" font-family="Helvetica,sans-Serif" font-size="10.00">+ FLAG_STILL_RAW</text>
<text text-anchor="start" x="8" y="-191.5" font-family="Helvetica,sans-Serif" font-size="10.00">+ FLAG_STILL_DOUBLE_BUFFER</text>
<text text-anchor="start" x="8" y="-180.5" font-family="Helvetica,sans-Serif" font-size="10.00">+ FLAG_STILL_TRIPLE_BUFFER</text>
<text text-anchor="start" x="8" y="-169.5" font-family="Helvetica,sans-Serif" font-size="10.00">+ FLAG_STILL_BUFFER_MASK</text>
<text text-anchor="start" x="8" y="-158.5" font-family="Helvetica,sans-Serif" font-size="10.00">+ FLAG_VIDEO_NONE</text>
<text text-anchor="start" x="8" y="-147.5" font-family="Helvetica,sans-Serif" font-size="10.00">+ FLAG_VIDEO_RAW</text>
<text text-anchor="start" x="8" y="-136.5" font-family="Helvetica,sans-Serif" font-size="10.00">+ FLAG_VIDEO_JPEG_COLOURSPACE</text>
<polyline fill="none" stroke="black" points="0,-129.5 195,-129.5 "/>
<text text-anchor="start" x="8" y="-117.5" font-family="Helvetica,sans-Serif" font-size="10.00">+ LibcameraApp()</text>
<text text-anchor="start" x="8" y="-106.5" font-family="Helvetica,sans-Serif" font-size="10.00">+ ~LibcameraApp()</text>
<text text-anchor="start" x="8" y="-95.5" font-family="Helvetica,sans-Serif" font-size="10.00">+ GetOptions()</text>
<text text-anchor="start" x="8" y="-84.5" font-family="Helvetica,sans-Serif" font-size="10.00">+ CameraId()</text>
<text text-anchor="start" x="8" y="-73.5" font-family="Helvetica,sans-Serif" font-size="10.00">+ OpenCamera()</text>
<text text-anchor="start" x="8" y="-62.5" font-family="Helvetica,sans-Serif" font-size="10.00">+ CloseCamera()</text>
<text text-anchor="start" x="8" y="-51.5" font-family="Helvetica,sans-Serif" font-size="10.00">+ ConfigureStill()</text>
<text text-anchor="start" x="8" y="-40.5" font-family="Helvetica,sans-Serif" font-size="10.00">+ ConfigureViewfinder()</text>
<text text-anchor="start" x="8" y="-29.5" font-family="Helvetica,sans-Serif" font-size="10.00">+ Teardown()</text>
<text text-anchor="start" x="8" y="-18.5" font-family="Helvetica,sans-Serif" font-size="10.00">+ StartCamera()</text>
<text text-anchor="start" x="8" y="-7.5" font-family="Helvetica,sans-Serif" font-size="10.00">and 13 more...</text>
</a>
</g>
</g>
<!-- Node2 -->
<g id="node2" class="node">
<title>Node2</title>
<g id="a_node2"><a xlink:title=" ">
<polygon fill="white" stroke="#bfbfbf" points="23,-314.5 23,-371.5 172,-371.5 172,-314.5 23,-314.5"/>
<text text-anchor="middle" x="97.5" y="-359.5" font-family="Helvetica,sans-Serif" font-size="10.00">std::unique_ptr&lt; Options &gt;</text>
<polyline fill="none" stroke="#bfbfbf" points="23,-352.5 172,-352.5 "/>
<text text-anchor="start" x="31" y="-340.5" font-family="Helvetica,sans-Serif" font-size="10.00">+ ptr</text>
<polyline fill="none" stroke="#bfbfbf" points="23,-333.5 172,-333.5 "/>
<text text-anchor="start" x="31" y="-321.5" font-family="Helvetica,sans-Serif" font-size="10.00">+ operator&#45;&gt;()</text>
</a>
</g>
</g>
<!-- Node2&#45;&gt;Node1 -->
<g id="edge1" class="edge">
<title>Node2&#45;&gt;Node1</title>
<path fill="none" stroke="#404040" d="M97.5,-314.45C97.5,-304.4 97.5,-292.23 97.5,-279.02"/>
<polygon fill="none" stroke="#404040" points="97.5,-278.61 93.5,-272.61 97.5,-266.61 101.5,-272.61 97.5,-278.61"/>
<text text-anchor="middle" x="124" y="-288" font-family="Helvetica,sans-Serif" font-size="10.00"> #options_</text>
</g>
<!-- Node3 -->
<g id="node3" class="node">
<title>Node3</title>
<g id="a_node3"><a xlink:title=" ">
<polygon fill="white" stroke="#bfbfbf" points="38.5,-419.5 38.5,-476.5 156.5,-476.5 156.5,-419.5 38.5,-419.5"/>
<text text-anchor="middle" x="97.5" y="-464.5" font-family="Helvetica,sans-Serif" font-size="10.00">std::unique_ptr&lt; T &gt;</text>
<polyline fill="none" stroke="#bfbfbf" points="38.5,-457.5 156.5,-457.5 "/>
<text text-anchor="middle" x="97.5" y="-445.5" font-family="Helvetica,sans-Serif" font-size="10.00"> </text>
<polyline fill="none" stroke="#bfbfbf" points="38.5,-438.5 156.5,-438.5 "/>
<text text-anchor="start" x="46.5" y="-426.5" font-family="Helvetica,sans-Serif" font-size="10.00">+ operator&#45;&gt;()</text>
</a>
</g>
</g>
<!-- Node3&#45;&gt;Node2 -->
<g id="edge2" class="edge">
<title>Node3&#45;&gt;Node2</title>
<path fill="none" stroke="orange" d="M97.5,-409.29C97.5,-396.84 97.5,-383.23 97.5,-371.68"/>
<polygon fill="orange" stroke="orange" points="94,-409.4 97.5,-419.4 101,-409.4 94,-409.4"/>
<text text-anchor="middle" x="129.5" y="-393" font-family="Helvetica,sans-Serif" font-size="10.00"> &lt; Options &gt;</text>
</g>
<!-- Node4 -->
<g id="node4" class="node">
<title>Node4</title>
<g id="a_node4"><a xlink:title=" ">
<polygon fill="white" stroke="#bfbfbf" points="83,-524.5 83,-581.5 112,-581.5 112,-524.5 83,-524.5"/>
<text text-anchor="middle" x="97.5" y="-569.5" font-family="Helvetica,sans-Serif" font-size="10.00">T</text>
<polyline fill="none" stroke="#bfbfbf" points="83,-562.5 112,-562.5 "/>
<text text-anchor="middle" x="97.5" y="-550.5" font-family="Helvetica,sans-Serif" font-size="10.00"> </text>
<polyline fill="none" stroke="#bfbfbf" points="83,-543.5 112,-543.5 "/>
<text text-anchor="middle" x="97.5" y="-531.5" font-family="Helvetica,sans-Serif" font-size="10.00"> </text>
</a>
</g>
</g>
<!-- Node4&#45;&gt;Node3 -->
<g id="edge3" class="edge">
<title>Node4&#45;&gt;Node3</title>
<path fill="none" stroke="#404040" d="M97.5,-524.4C97.5,-513.55 97.5,-500.87 97.5,-489.05"/>
<polygon fill="none" stroke="#404040" points="97.5,-488.68 93.5,-482.68 97.5,-476.68 101.5,-482.68 97.5,-488.68"/>
<text text-anchor="middle" x="110" y="-498" font-family="Helvetica,sans-Serif" font-size="10.00"> +ptr</text>
</g>
</g>
</svg>
