<?xml version="1.0" encoding="UTF-8" standalone="no"?>
<!DOCTYPE svg PUBLIC "-//W3C//DTD SVG 1.1//EN"
 "http://www.w3.org/Graphics/SVG/1.1/DTD/svg11.dtd">
<!-- Generated by graphviz version 2.43.0 (0)
 -->
<!-- Title: CardDiscriminatorTest Pages: 1 -->
<svg width="1147pt" height="541pt"
 viewBox="0.00 0.00 1147.00 541.00" xmlns="http://www.w3.org/2000/svg" xmlns:xlink="http://www.w3.org/1999/xlink">
<g id="graph0" class="graph" transform="scale(1 1) rotate(0) translate(4 537)">
<title>CardDiscriminatorTest</title>
<polygon fill="white" stroke="transparent" points="-4,4 -4,-537 1143,-537 1143,4 -4,4"/>
<!-- Node1 -->
<g id="node1" class="node">
<title>Node1</title>
<g id="a_node1"><a xlink:title=" ">
<polygon fill="#bfbfbf" stroke="black" points="426.5,-0.5 426.5,-57.5 551.5,-57.5 551.5,-0.5 426.5,-0.5"/>
<text text-anchor="middle" x="489" y="-45.5" font-family="Helvetica,sans-Serif" font-size="10.00">CardDiscriminatorTest</text>
<polyline fill="none" stroke="black" points="426.5,-38.5 551.5,-38.5 "/>
<text text-anchor="middle" x="489" y="-26.5" font-family="Helvetica,sans-Serif" font-size="10.00"> </text>
<polyline fill="none" stroke="black" points="426.5,-19.5 551.5,-19.5 "/>
<text text-anchor="start" x="434.5" y="-7.5" font-family="Helvetica,sans-Serif" font-size="10.00"># SetUp()</text>
</a>
</g>
</g>
<!-- Node2 -->
<g id="node2" class="node">
<title>Node2</title>
<g id="a_node2"><a xlink:title=" ">
<polygon fill="white" stroke="#bfbfbf" points="435,-116.5 435,-173.5 511,-173.5 511,-116.5 435,-116.5"/>
<text text-anchor="middle" x="473" y="-161.5" font-family="Helvetica,sans-Serif" font-size="10.00">testing::Test</text>
<polyline fill="none" stroke="#bfbfbf" points="435,-154.5 511,-154.5 "/>
<text text-anchor="middle" x="473" y="-142.5" font-family="Helvetica,sans-Serif" font-size="10.00"> </text>
<polyline fill="none" stroke="#bfbfbf" points="435,-135.5 511,-135.5 "/>
<text text-anchor="middle" x="473" y="-123.5" font-family="Helvetica,sans-Serif" font-size="10.00"> </text>
</a>
</g>
</g>
<!-- Node2&#45;&gt;Node1 -->
<g id="edge1" class="edge">
<title>Node2&#45;&gt;Node1</title>
<path fill="none" stroke="midnightblue" d="M478.28,-106.36C480.51,-90.5 483.06,-72.35 485.11,-57.74"/>
<polygon fill="none" stroke="midnightblue" points="474.8,-106.01 476.87,-116.4 481.73,-106.99 474.8,-106.01"/>
</g>
<!-- Node3 -->
<g id="node3" class="node">
<title>Node3</title>
<g id="a_node3"><a xlink:href="structCard__params.html" target="_top" xlink:title="Structure holding the parameters of all detected card shapes in a frame, such as their position in th...">
<polygon fill="white" stroke="black" points="529,-105.5 529,-184.5 625,-184.5 625,-105.5 529,-105.5"/>
<text text-anchor="middle" x="577" y="-172.5" font-family="Helvetica,sans-Serif" font-size="10.00">Card_params</text>
<polyline fill="none" stroke="black" points="529,-165.5 625,-165.5 "/>
<text text-anchor="start" x="537" y="-153.5" font-family="Helvetica,sans-Serif" font-size="10.00">+ err</text>
<text text-anchor="start" x="537" y="-142.5" font-family="Helvetica,sans-Serif" font-size="10.00">+ num_of_cards</text>
<text text-anchor="start" x="537" y="-131.5" font-family="Helvetica,sans-Serif" font-size="10.00">+ currentFrame</text>
<polyline fill="none" stroke="black" points="529,-124.5 625,-124.5 "/>
<text text-anchor="middle" x="577" y="-112.5" font-family="Helvetica,sans-Serif" font-size="10.00"> </text>
</a>
</g>
</g>
<!-- Node3&#45;&gt;Node1 -->
<g id="edge2" class="edge">
<title>Node3&#45;&gt;Node1</title>
<path fill="none" stroke="#404040" d="M547.21,-105.4C537.78,-93.19 527.38,-79.72 518.01,-67.58"/>
<polygon fill="none" stroke="#404040" points="517.75,-67.25 510.92,-64.94 510.42,-57.75 517.25,-60.06 517.75,-67.25"/>
<text text-anchor="middle" x="557.5" y="-79" font-family="Helvetica,sans-Serif" font-size="10.00"> #params</text>
</g>
<!-- Node4 -->
<g id="node4" class="node">
<title>Node4</title>
<g id="a_node4"><a xlink:title=" ">
<polygon fill="white" stroke="#bfbfbf" points="0,-249 0,-306 136,-306 136,-249 0,-249"/>
<text text-anchor="middle" x="68" y="-294" font-family="Helvetica,sans-Serif" font-size="10.00">std::vector&lt; cv::String &gt;</text>
<polyline fill="none" stroke="#bfbfbf" points="0,-287 136,-287 "/>
<text text-anchor="start" x="8" y="-275" font-family="Helvetica,sans-Serif" font-size="10.00">+ elements</text>
<polyline fill="none" stroke="#bfbfbf" points="0,-268 136,-268 "/>
<text text-anchor="middle" x="68" y="-256" font-family="Helvetica,sans-Serif" font-size="10.00"> </text>
</a>
</g>
</g>
<!-- Node4&#45;&gt;Node3 -->
<g id="edge3" class="edge">
<title>Node4&#45;&gt;Node3</title>
<path fill="none" stroke="#404040" d="M113.09,-248.9C142.43,-232.44 182.14,-212.88 220,-203 345.46,-170.27 390.96,-224.9 517.14,-185.28"/>
<polygon fill="none" stroke="#404040" points="517.39,-185.19 521.83,-179.51 528.79,-181.43 524.34,-187.11 517.39,-185.19"/>
<text text-anchor="middle" x="255.5" y="-211.5" font-family="Helvetica,sans-Serif" font-size="10.00"> +card_names</text>
</g>
<!-- Node5 -->
<g id="node5" class="node">
<title>Node5</title>
<g id="a_node5"><a xlink:title=" ">
<polygon fill="white" stroke="#bfbfbf" points="535.5,-370.5 535.5,-427.5 632.5,-427.5 632.5,-370.5 535.5,-370.5"/>
<text text-anchor="middle" x="584" y="-415.5" font-family="Helvetica,sans-Serif" font-size="10.00">std::vector&lt; T &gt;</text>
<polyline fill="none" stroke="#bfbfbf" points="535.5,-408.5 632.5,-408.5 "/>
<text text-anchor="middle" x="584" y="-396.5" font-family="Helvetica,sans-Serif" font-size="10.00"> </text>
<polyline fill="none" stroke="#bfbfbf" points="535.5,-389.5 632.5,-389.5 "/>
<text text-anchor="middle" x="584" y="-377.5" font-family="Helvetica,sans-Serif" font-size="10.00"> </text>
</a>
</g>
</g>
<!-- Node5&#45;&gt;Node4 -->
<g id="edge4" class="edge">
<title>Node5&#45;&gt;Node4</title>
<path fill="none" stroke="orange" d="M524.96,-397.39C449.54,-395.13 315.76,-386.11 207,-352 172.75,-341.26 137.01,-322.16 110.35,-306.12"/>
<polygon fill="orange" stroke="orange" points="525.12,-400.89 535.21,-397.66 525.31,-393.9 525.12,-400.89"/>
<text text-anchor="middle" x="242.5" y="-338.5" font-family="Helvetica,sans-Serif" font-size="10.00"> &lt; cv::String &gt;</text>
</g>
<!-- Node7 -->
<g id="node7" class="node">
<title>Node7</title>
<g id="a_node7"><a xlink:title=" ">
<polygon fill="white" stroke="#bfbfbf" points="154.5,-243.5 154.5,-311.5 285.5,-311.5 285.5,-243.5 154.5,-243.5"/>
<text text-anchor="start" x="162.5" y="-299.5" font-family="Helvetica,sans-Serif" font-size="10.00">std::vector&lt; std::vector</text>
<text text-anchor="middle" x="220" y="-288.5" font-family="Helvetica,sans-Serif" font-size="10.00">&lt; cv::Point2f &gt; &gt;</text>
<polyline fill="none" stroke="#bfbfbf" points="154.5,-281.5 285.5,-281.5 "/>
<text text-anchor="start" x="162.5" y="-269.5" font-family="Helvetica,sans-Serif" font-size="10.00">+ elements</text>
<polyline fill="none" stroke="#bfbfbf" points="154.5,-262.5 285.5,-262.5 "/>
<text text-anchor="middle" x="220" y="-250.5" font-family="Helvetica,sans-Serif" font-size="10.00"> </text>
</a>
</g>
</g>
<!-- Node5&#45;&gt;Node7 -->
<g id="edge7" class="edge">
<title>Node5&#45;&gt;Node7</title>
<path fill="none" stroke="orange" d="M525.13,-395.46C470.13,-391.32 386.74,-380.47 320,-352 297.01,-342.19 274.32,-326.18 256.38,-311.6"/>
<polygon fill="orange" stroke="orange" points="525.17,-398.97 535.39,-396.18 525.66,-391.99 525.17,-398.97"/>
<text text-anchor="start" x="320" y="-344" font-family="Helvetica,sans-Serif" font-size="10.00"> &lt; std::vector&lt; cv::</text>
<text text-anchor="middle" x="367" y="-333" font-family="Helvetica,sans-Serif" font-size="10.00">Point2f &gt; &gt;</text>
</g>
<!-- Node8 -->
<g id="node8" class="node">
<title>Node8</title>
<g id="a_node8"><a xlink:title=" ">
<polygon fill="white" stroke="#bfbfbf" points="303.5,-243.5 303.5,-311.5 434.5,-311.5 434.5,-243.5 303.5,-243.5"/>
<text text-anchor="start" x="311.5" y="-299.5" font-family="Helvetica,sans-Serif" font-size="10.00">std::vector&lt; std::vector</text>
<text text-anchor="middle" x="369" y="-288.5" font-family="Helvetica,sans-Serif" font-size="10.00">&lt; cv::Point &gt; &gt;</text>
<polyline fill="none" stroke="#bfbfbf" points="303.5,-281.5 434.5,-281.5 "/>
<text text-anchor="start" x="311.5" y="-269.5" font-family="Helvetica,sans-Serif" font-size="10.00">+ elements</text>
<polyline fill="none" stroke="#bfbfbf" points="303.5,-262.5 434.5,-262.5 "/>
<text text-anchor="middle" x="369" y="-250.5" font-family="Helvetica,sans-Serif" font-size="10.00"> </text>
</a>
</g>
</g>
<!-- Node5&#45;&gt;Node8 -->
<g id="edge9" class="edge">
<title>Node5&#45;&gt;Node8</title>
<path fill="none" stroke="orange" d="M525.69,-384.99C499.8,-377.67 469.68,-366.94 445,-352 427.25,-341.26 410.37,-325.68 397.04,-311.63"/>
<polygon fill="orange" stroke="orange" points="524.81,-388.38 535.38,-387.63 526.65,-381.63 524.81,-388.38"/>
<text text-anchor="start" x="445" y="-344" font-family="Helvetica,sans-Serif" font-size="10.00"> &lt; std::vector&lt; cv::</text>
<text text-anchor="middle" x="492" y="-333" font-family="Helvetica,sans-Serif" font-size="10.00">Point &gt; &gt;</text>
</g>
<!-- Node9 -->
<g id="node9" class="node">
<title>Node9</title>
<g id="a_node9"><a xlink:title=" ">
<polygon fill="white" stroke="#bfbfbf" points="453,-249 453,-306 581,-306 581,-249 453,-249"/>
<text text-anchor="middle" x="517" y="-294" font-family="Helvetica,sans-Serif" font-size="10.00">std::vector&lt; cv::Size &gt;</text>
<polyline fill="none" stroke="#bfbfbf" points="453,-287 581,-287 "/>
<text text-anchor="start" x="461" y="-275" font-family="Helvetica,sans-Serif" font-size="10.00">+ elements</text>
<polyline fill="none" stroke="#bfbfbf" points="453,-268 581,-268 "/>
<text text-anchor="middle" x="517" y="-256" font-family="Helvetica,sans-Serif" font-size="10.00"> </text>
</a>
</g>
</g>
<!-- Node5&#45;&gt;Node9 -->
<g id="edge11" class="edge">
<title>Node5&#45;&gt;Node9</title>
<path fill="none" stroke="orange" d="M559.58,-361.35C557.65,-358.21 555.77,-355.07 554,-352 545.45,-337.14 536.79,-320.06 529.99,-306.11"/>
<polygon fill="orange" stroke="orange" points="556.8,-363.5 565.09,-370.09 562.72,-359.76 556.8,-363.5"/>
<text text-anchor="middle" x="585.5" y="-338.5" font-family="Helvetica,sans-Serif" font-size="10.00"> &lt; cv::Size &gt;</text>
</g>
<!-- Node10 -->
<g id="node10" class="node">
<title>Node10</title>
<g id="a_node10"><a xlink:title=" ">
<polygon fill="white" stroke="#bfbfbf" points="599,-249 599,-306 703,-306 703,-249 599,-249"/>
<text text-anchor="middle" x="651" y="-294" font-family="Helvetica,sans-Serif" font-size="10.00">std::vector&lt; int &gt;</text>
<polyline fill="none" stroke="#bfbfbf" points="599,-287 703,-287 "/>
<text text-anchor="start" x="607" y="-275" font-family="Helvetica,sans-Serif" font-size="10.00">+ elements</text>
<polyline fill="none" stroke="#bfbfbf" points="599,-268 703,-268 "/>
<text text-anchor="middle" x="651" y="-256" font-family="Helvetica,sans-Serif" font-size="10.00"> </text>
</a>
</g>
</g>
<!-- Node5&#45;&gt;Node10 -->
<g id="edge13" class="edge">
<title>Node5&#45;&gt;Node10</title>
<path fill="none" stroke="orange" d="M610.9,-361.82C613.04,-358.55 615.11,-355.25 617,-352 625.57,-337.3 633.63,-320.08 639.75,-306"/>
<polygon fill="orange" stroke="orange" points="607.84,-360.11 605.11,-370.34 613.63,-364.04 607.84,-360.11"/>
<text text-anchor="middle" x="648.5" y="-338.5" font-family="Helvetica,sans-Serif" font-size="10.00"> &lt; int &gt;</text>
</g>
<!-- Node11 -->
<g id="node11" class="node">
<title>Node11</title>
<g id="a_node11"><a xlink:title=" ">
<polygon fill="white" stroke="#bfbfbf" points="721,-249 721,-306 847,-306 847,-249 721,-249"/>
<text text-anchor="middle" x="784" y="-294" font-family="Helvetica,sans-Serif" font-size="10.00">std::vector&lt; cv::Mat &gt;</text>
<polyline fill="none" stroke="#bfbfbf" points="721,-287 847,-287 "/>
<text text-anchor="start" x="729" y="-275" font-family="Helvetica,sans-Serif" font-size="10.00">+ elements</text>
<polyline fill="none" stroke="#bfbfbf" points="721,-268 847,-268 "/>
<text text-anchor="middle" x="784" y="-256" font-family="Helvetica,sans-Serif" font-size="10.00"> </text>
</a>
</g>
</g>
<!-- Node5&#45;&gt;Node11 -->
<g id="edge15" class="edge">
<title>Node5&#45;&gt;Node11</title>
<path fill="none" stroke="orange" d="M641.74,-368.86C651.92,-363.43 662.34,-357.67 672,-352 696.46,-337.63 723.05,-320.26 744.17,-306.02"/>
<polygon fill="orange" stroke="orange" points="640.09,-365.78 632.89,-373.54 643.36,-371.96 640.09,-365.78"/>
<text text-anchor="middle" x="736.5" y="-338.5" font-family="Helvetica,sans-Serif" font-size="10.00"> &lt; cv::Mat &gt;</text>
</g>
<!-- Node12 -->
<g id="node12" class="node">
<title>Node12</title>
<g id="a_node12"><a xlink:title=" ">
<polygon fill="white" stroke="#bfbfbf" points="865.5,-243.5 865.5,-311.5 986.5,-311.5 986.5,-243.5 865.5,-243.5"/>
<text text-anchor="start" x="873.5" y="-299.5" font-family="Helvetica,sans-Serif" font-size="10.00">std::vector&lt; cv::Point</text>
<text text-anchor="middle" x="926" y="-288.5" font-family="Helvetica,sans-Serif" font-size="10.00">_&lt; int &gt; &gt;</text>
<polyline fill="none" stroke="#bfbfbf" points="865.5,-281.5 986.5,-281.5 "/>
<text text-anchor="start" x="873.5" y="-269.5" font-family="Helvetica,sans-Serif" font-size="10.00">+ elements</text>
<polyline fill="none" stroke="#bfbfbf" points="865.5,-262.5 986.5,-262.5 "/>
<text text-anchor="middle" x="926" y="-250.5" font-family="Helvetica,sans-Serif" font-size="10.00"> </text>
</a>
</g>
</g>
<!-- Node5&#45;&gt;Node12 -->
<g id="edge17" class="edge">
<title>Node5&#45;&gt;Node12</title>
<path fill="none" stroke="orange" d="M643,-386.63C680.25,-378.69 729.09,-366.85 771,-352 810.35,-338.06 818.28,-329.9 856,-312 859.04,-310.56 862.16,-309.07 865.31,-307.58"/>
<polygon fill="orange" stroke="orange" points="641.88,-383.29 632.82,-388.77 643.32,-390.14 641.88,-383.29"/>
<text text-anchor="middle" x="873" y="-338.5" font-family="Helvetica,sans-Serif" font-size="10.00"> &lt; cv::Point_&lt; int &gt; &gt;</text>
</g>
<!-- Node13 -->
<g id="node13" class="node">
<title>Node13</title>
<g id="a_node13"><a xlink:title=" ">
<polygon fill="white" stroke="#bfbfbf" points="1005,-243.5 1005,-311.5 1139,-311.5 1139,-243.5 1005,-243.5"/>
<text text-anchor="start" x="1013" y="-299.5" font-family="Helvetica,sans-Serif" font-size="10.00">std::vector&lt; cv::Rotated</text>
<text text-anchor="middle" x="1072" y="-288.5" font-family="Helvetica,sans-Serif" font-size="10.00">Rect &gt;</text>
<polyline fill="none" stroke="#bfbfbf" points="1005,-281.5 1139,-281.5 "/>
<text text-anchor="start" x="1013" y="-269.5" font-family="Helvetica,sans-Serif" font-size="10.00">+ elements</text>
<polyline fill="none" stroke="#bfbfbf" points="1005,-262.5 1139,-262.5 "/>
<text text-anchor="middle" x="1072" y="-250.5" font-family="Helvetica,sans-Serif" font-size="10.00"> </text>
</a>
</g>
</g>
<!-- Node5&#45;&gt;Node13 -->
<g id="edge19" class="edge">
<title>Node5&#45;&gt;Node13</title>
<path fill="none" stroke="orange" d="M642.97,-396.4C713.12,-393.09 833.03,-382.97 931,-352 961.66,-342.31 993.62,-326.21 1019.34,-311.55"/>
<polygon fill="orange" stroke="orange" points="642.41,-392.92 632.57,-396.86 642.72,-399.92 642.41,-392.92"/>
<text text-anchor="middle" x="1034.5" y="-338.5" font-family="Helvetica,sans-Serif" font-size="10.00"> &lt; cv::RotatedRect &gt;</text>
</g>
<!-- Node6 -->
<g id="node6" class="node">
<title>Node6</title>
<g id="a_node6"><a xlink:title=" ">
<polygon fill="white" stroke="#bfbfbf" points="569.5,-475.5 569.5,-532.5 598.5,-532.5 598.5,-475.5 569.5,-475.5"/>
<text text-anchor="middle" x="584" y="-520.5" font-family="Helvetica,sans-Serif" font-size="10.00">T</text>
<polyline fill="none" stroke="#bfbfbf" points="569.5,-513.5 598.5,-513.5 "/>
<text text-anchor="middle" x="584" y="-501.5" font-family="Helvetica,sans-Serif" font-size="10.00"> </text>
<polyline fill="none" stroke="#bfbfbf" points="569.5,-494.5 598.5,-494.5 "/>
<text text-anchor="middle" x="584" y="-482.5" font-family="Helvetica,sans-Serif" font-size="10.00"> </text>
</a>
</g>
</g>
<!-- Node6&#45;&gt;Node5 -->
<g id="edge5" class="edge">
<title>Node6&#45;&gt;Node5</title>
<path fill="none" stroke="#404040" d="M584,-475.4C584,-464.55 584,-451.87 584,-440.05"/>
<polygon fill="none" stroke="#404040" points="584,-439.68 580,-433.68 584,-427.68 588,-433.68 584,-439.68"/>
<text text-anchor="middle" x="613" y="-449" font-family="Helvetica,sans-Serif" font-size="10.00"> +elements</text>
</g>
<!-- Node7&#45;&gt;Node3 -->
<g id="edge6" class="edge">
<title>Node7&#45;&gt;Node3</title>
<path fill="none" stroke="#404040" d="M263.2,-243.47C285.05,-228.53 312.68,-212.19 340,-203 412.63,-178.56 441.72,-209.39 517.25,-185.26"/>
<polygon fill="none" stroke="#404040" points="517.39,-185.21 521.76,-179.47 528.74,-181.29 524.37,-187.03 517.39,-185.21"/>
<text text-anchor="middle" x="382.5" y="-211.5" font-family="Helvetica,sans-Serif" font-size="10.00"> +rotatedbox_pts</text>
</g>
<!-- Node8&#45;&gt;Node3 -->
<g id="edge8" class="edge">
<title>Node8&#45;&gt;Node3</title>
<path fill="none" stroke="#404040" d="M403.92,-243.4C420.24,-229.36 440.56,-213.77 461,-203 482.32,-191.76 492.65,-195.55 517.57,-185.46"/>
<polygon fill="none" stroke="#404040" points="517.83,-185.34 521.66,-179.24 528.77,-180.42 524.94,-186.53 517.83,-185.34"/>
<text text-anchor="middle" x="499.5" y="-217" font-family="Helvetica,sans-Serif" font-size="10.00"> +card_approxs</text>
<text text-anchor="middle" x="499.5" y="-206" font-family="Helvetica,sans-Serif" font-size="10.00">+contours</text>
</g>
<!-- Node9&#45;&gt;Node3 -->
<g id="edge10" class="edge">
<title>Node9&#45;&gt;Node3</title>
<path fill="none" stroke="#404040" d="M529.72,-248.82C536.85,-233.33 545.94,-213.56 554.24,-195.5"/>
<polygon fill="none" stroke="#404040" points="554.27,-195.43 553.15,-188.31 559.29,-184.53 560.41,-191.65 554.27,-195.43"/>
<text text-anchor="middle" x="580" y="-211.5" font-family="Helvetica,sans-Serif" font-size="10.00"> +card_size</text>
</g>
<!-- Node10&#45;&gt;Node3 -->
<g id="edge12" class="edge">
<title>Node10&#45;&gt;Node3</title>
<path fill="none" stroke="#404040" d="M635.31,-248.82C626.44,-233.19 615.1,-213.19 604.78,-194.99"/>
<polygon fill="none" stroke="#404040" points="604.77,-194.96 598.33,-191.72 598.85,-184.53 605.29,-187.77 604.77,-194.96"/>
<text text-anchor="middle" x="675.5" y="-211.5" font-family="Helvetica,sans-Serif" font-size="10.00"> +contour_is_card_idx</text>
</g>
<!-- Node11&#45;&gt;Node3 -->
<g id="edge14" class="edge">
<title>Node11&#45;&gt;Node3</title>
<path fill="none" stroke="#404040" d="M770.7,-248.84C762.1,-233.5 749.6,-215.12 734,-203 705.68,-180.98 668.07,-166.94 636.77,-158.3"/>
<polygon fill="none" stroke="#404040" points="636.72,-158.28 629.9,-160.63 625.11,-155.24 631.93,-152.89 636.72,-158.28"/>
<text text-anchor="middle" x="782.5" y="-211.5" font-family="Helvetica,sans-Serif" font-size="10.00"> +rank_rois</text>
</g>
<!-- Node12&#45;&gt;Node3 -->
<g id="edge16" class="edge">
<title>Node12&#45;&gt;Node3</title>
<path fill="none" stroke="#404040" d="M883.74,-243.44C863.82,-229.23 839.16,-213.5 815,-203 757.16,-177.86 686.39,-162.72 637.12,-154.42"/>
<polygon fill="none" stroke="#404040" points="636.93,-154.39 630.36,-157.37 625.08,-152.46 631.65,-149.48 636.93,-154.39"/>
<text text-anchor="middle" x="884.5" y="-211.5" font-family="Helvetica,sans-Serif" font-size="10.00"> +centre_pts</text>
</g>
<!-- Node13&#45;&gt;Node3 -->
<g id="edge18" class="edge">
<title>Node13&#45;&gt;Node3</title>
<path fill="none" stroke="#404040" d="M1013.7,-243.46C986.06,-229.07 952.13,-213.2 920,-203 823.66,-172.4 706.61,-157.45 637.15,-150.76"/>
<polygon fill="none" stroke="#404040" points="637.12,-150.76 630.77,-154.18 625.17,-149.64 631.51,-146.22 637.12,-150.76"/>
<text text-anchor="middle" x="1003.5" y="-211.5" font-family="Helvetica,sans-Serif" font-size="10.00"> +rotatedbox</text>
</g>
</g>
</svg>
