<?xml version="1.0" encoding="UTF-8" standalone="no"?>
<!DOCTYPE svg PUBLIC "-//W3C//DTD SVG 1.1//EN"
 "http://www.w3.org/Graphics/SVG/1.1/DTD/svg11.dtd">
<!-- Generated by graphviz version 2.43.0 (0)
 -->
<!-- Title: ToggleLED Pages: 1 -->
<svg width="107pt" height="193pt"
 viewBox="0.00 0.00 107.00 193.00" xmlns="http://www.w3.org/2000/svg" xmlns:xlink="http://www.w3.org/1999/xlink">
<g id="graph0" class="graph" transform="scale(1 1) rotate(0) translate(4 189)">
<title>ToggleLED</title>
<polygon fill="white" stroke="transparent" points="-4,4 -4,-189 103,-189 103,4 -4,4"/>
<!-- Node1 -->
<g id="node1" class="node">
<title>Node1</title>
<g id="a_node1"><a xlink:title="Class to control the Rasp Pi pins and toggle LEDs ON/OFF.">
<polygon fill="#bfbfbf" stroke="black" points="0,-0.5 0,-90.5 99,-90.5 99,-0.5 0,-0.5"/>
<text text-anchor="middle" x="49.5" y="-78.5" font-family="Helvetica,sans-Serif" font-size="10.00">ToggleLED</text>
<polyline fill="none" stroke="black" points="0,-71.5 99,-71.5 "/>
<text text-anchor="middle" x="49.5" y="-59.5" font-family="Helvetica,sans-Serif" font-size="10.00"> </text>
<polyline fill="none" stroke="black" points="0,-52.5 99,-52.5 "/>
<text text-anchor="start" x="8" y="-40.5" font-family="Helvetica,sans-Serif" font-size="10.00">+ ToggleLED()</text>
<text text-anchor="start" x="8" y="-29.5" font-family="Helvetica,sans-Serif" font-size="10.00">+ ~ToggleLED()</text>
<text text-anchor="start" x="8" y="-18.5" font-family="Helvetica,sans-Serif" font-size="10.00">+ flashled()</text>
<text text-anchor="start" x="8" y="-7.5" font-family="Helvetica,sans-Serif" font-size="10.00">+ nextCallback()</text>
</a>
</g>
</g>
<!-- Node2 -->
<g id="node2" class="node">
<title>Node2</title>
<g id="a_node2"><a xlink:href="classCallbackLinker.html" target="_top" xlink:title="Generic abstract Callback Interface class.">
<polygon fill="white" stroke="black" points="0,-127.5 0,-184.5 99,-184.5 99,-127.5 0,-127.5"/>
<text text-anchor="middle" x="49.5" y="-172.5" font-family="Helvetica,sans-Serif" font-size="10.00">CallbackLinker</text>
<polyline fill="none" stroke="black" points="0,-165.5 99,-165.5 "/>
<text text-anchor="middle" x="49.5" y="-153.5" font-family="Helvetica,sans-Serif" font-size="10.00"> </text>
<polyline fill="none" stroke="black" points="0,-146.5 99,-146.5 "/>
<text text-anchor="start" x="8" y="-134.5" font-family="Helvetica,sans-Serif" font-size="10.00">+ nextCallback()</text>
</a>
</g>
</g>
<!-- Node2&#45;&gt;Node1 -->
<g id="edge1" class="edge">
<title>Node2&#45;&gt;Node1</title>
<path fill="none" stroke="midnightblue" d="M49.5,-117.21C49.5,-108.61 49.5,-99.39 49.5,-90.55"/>
<polygon fill="none" stroke="midnightblue" points="46,-117.34 49.5,-127.34 53,-117.34 46,-117.34"/>
</g>
</g>
</svg>
