<?xml version="1.0" encoding="UTF-8" standalone="no"?>
<!DOCTYPE svg PUBLIC "-//W3C//DTD SVG 1.1//EN"
 "http://www.w3.org/Graphics/SVG/1.1/DTD/svg11.dtd">
<!-- Generated by graphviz version 2.43.0 (0)
 -->
<!-- Title: DetectCard Pages: 1 -->
<svg width="135pt" height="226pt"
 viewBox="0.00 0.00 135.00 226.00" xmlns="http://www.w3.org/2000/svg" xmlns:xlink="http://www.w3.org/1999/xlink">
<g id="graph0" class="graph" transform="scale(1 1) rotate(0) translate(4 222)">
<title>DetectCard</title>
<polygon fill="white" stroke="transparent" points="-4,4 -4,-222 131,-222 131,4 -4,4"/>
<!-- Node1 -->
<g id="node1" class="node">
<title>Node1</title>
<g id="a_node1"><a xlink:title="Class for the detection of cards. Runs the processing pipeline.">
<polygon fill="#bfbfbf" stroke="black" points="0,-0.5 0,-123.5 127,-123.5 127,-0.5 0,-0.5"/>
<text text-anchor="middle" x="63.5" y="-111.5" font-family="Helvetica,sans-Serif" font-size="10.00">DetectCard</text>
<polyline fill="none" stroke="black" points="0,-104.5 127,-104.5 "/>
<text text-anchor="middle" x="63.5" y="-92.5" font-family="Helvetica,sans-Serif" font-size="10.00"> </text>
<polyline fill="none" stroke="black" points="0,-85.5 127,-85.5 "/>
<text text-anchor="start" x="8" y="-73.5" font-family="Helvetica,sans-Serif" font-size="10.00">+ DetectCard()</text>
<text text-anchor="start" x="8" y="-62.5" font-family="Helvetica,sans-Serif" font-size="10.00">+ ~DetectCard()</text>
<text text-anchor="start" x="8" y="-51.5" font-family="Helvetica,sans-Serif" font-size="10.00">+ registerCallback()</text>
<text text-anchor="start" x="8" y="-40.5" font-family="Helvetica,sans-Serif" font-size="10.00">+ unregisterCallback()</text>
<text text-anchor="start" x="8" y="-29.5" font-family="Helvetica,sans-Serif" font-size="10.00">+ nextCallback()</text>
<text text-anchor="start" x="8" y="-18.5" font-family="Helvetica,sans-Serif" font-size="10.00">+ startProcessing()</text>
<text text-anchor="start" x="8" y="-7.5" font-family="Helvetica,sans-Serif" font-size="10.00">+ stopProcessing()</text>
</a>
</g>
</g>
<!-- Node2 -->
<g id="node2" class="node">
<title>Node2</title>
<g id="a_node2"><a xlink:href="classCallbackLinker.html" target="_top" xlink:title="Generic abstract Callback Interface class.">
<polygon fill="white" stroke="black" points="14,-160.5 14,-217.5 113,-217.5 113,-160.5 14,-160.5"/>
<text text-anchor="middle" x="63.5" y="-205.5" font-family="Helvetica,sans-Serif" font-size="10.00">CallbackLinker</text>
<polyline fill="none" stroke="black" points="14,-198.5 113,-198.5 "/>
<text text-anchor="middle" x="63.5" y="-186.5" font-family="Helvetica,sans-Serif" font-size="10.00"> </text>
<polyline fill="none" stroke="black" points="14,-179.5 113,-179.5 "/>
<text text-anchor="start" x="22" y="-167.5" font-family="Helvetica,sans-Serif" font-size="10.00">+ nextCallback()</text>
</a>
</g>
</g>
<!-- Node2&#45;&gt;Node1 -->
<g id="edge1" class="edge">
<title>Node2&#45;&gt;Node1</title>
<path fill="none" stroke="midnightblue" d="M63.5,-150.1C63.5,-141.74 63.5,-132.68 63.5,-123.67"/>
<polygon fill="none" stroke="midnightblue" points="60,-150.26 63.5,-160.26 67,-150.26 60,-150.26"/>
</g>
</g>
</svg>
