<?xml version="1.0" encoding="UTF-8" standalone="no"?>
<!DOCTYPE svg PUBLIC "-//W3C//DTD SVG 1.1//EN"
 "http://www.w3.org/Graphics/SVG/1.1/DTD/svg11.dtd">
<!-- Generated by graphviz version 2.43.0 (0)
 -->
<!-- Title: CameraTest Pages: 1 -->
<svg width="355pt" height="354pt"
 viewBox="0.00 0.00 354.50 354.00" xmlns="http://www.w3.org/2000/svg" xmlns:xlink="http://www.w3.org/1999/xlink">
<g id="graph0" class="graph" transform="scale(1 1) rotate(0) translate(4 350)">
<title>CameraTest</title>
<polygon fill="white" stroke="transparent" points="-4,4 -4,-350 350.5,-350 350.5,4 -4,4"/>
<!-- Node1 -->
<g id="node1" class="node">
<title>Node1</title>
<g id="a_node1"><a xlink:title=" ">
<polygon fill="#bfbfbf" stroke="black" points="101.5,-0.5 101.5,-57.5 194.5,-57.5 194.5,-0.5 101.5,-0.5"/>
<text text-anchor="middle" x="148" y="-45.5" font-family="Helvetica,sans-Serif" font-size="10.00">CameraTest</text>
<polyline fill="none" stroke="black" points="101.5,-38.5 194.5,-38.5 "/>
<text text-anchor="middle" x="148" y="-26.5" font-family="Helvetica,sans-Serif" font-size="10.00"> </text>
<polyline fill="none" stroke="black" points="101.5,-19.5 194.5,-19.5 "/>
<text text-anchor="start" x="109.5" y="-7.5" font-family="Helvetica,sans-Serif" font-size="10.00"># CameraTest()</text>
</a>
</g>
</g>
<!-- Node2 -->
<g id="node2" class="node">
<title>Node2</title>
<g id="a_node2"><a xlink:title=" ">
<polygon fill="white" stroke="#bfbfbf" points="0,-149.5 0,-206.5 76,-206.5 76,-149.5 0,-149.5"/>
<text text-anchor="middle" x="38" y="-194.5" font-family="Helvetica,sans-Serif" font-size="10.00">testing::Test</text>
<polyline fill="none" stroke="#bfbfbf" points="0,-187.5 76,-187.5 "/>
<text text-anchor="middle" x="38" y="-175.5" font-family="Helvetica,sans-Serif" font-size="10.00"> </text>
<polyline fill="none" stroke="#bfbfbf" points="0,-168.5 76,-168.5 "/>
<text text-anchor="middle" x="38" y="-156.5" font-family="Helvetica,sans-Serif" font-size="10.00"> </text>
</a>
</g>
</g>
<!-- Node2&#45;&gt;Node1 -->
<g id="edge1" class="edge">
<title>Node2&#45;&gt;Node1</title>
<path fill="none" stroke="midnightblue" d="M60.4,-140.84C67.93,-129.19 76.56,-116.37 85,-105 96.96,-88.89 111.28,-71.69 123.24,-57.84"/>
<polygon fill="none" stroke="midnightblue" points="57.32,-139.15 54.88,-149.46 63.22,-142.93 57.32,-139.15"/>
</g>
<!-- Node3 -->
<g id="node3" class="node">
<title>Node3</title>
<g id="a_node3"><a xlink:href="classTestCallbackLinker.html" target="_top" xlink:title=" ">
<polygon fill="white" stroke="black" points="94.5,-149.5 94.5,-206.5 201.5,-206.5 201.5,-149.5 94.5,-149.5"/>
<text text-anchor="middle" x="148" y="-194.5" font-family="Helvetica,sans-Serif" font-size="10.00">TestCallbackLinker</text>
<polyline fill="none" stroke="black" points="94.5,-187.5 201.5,-187.5 "/>
<text text-anchor="middle" x="148" y="-175.5" font-family="Helvetica,sans-Serif" font-size="10.00"> </text>
<polyline fill="none" stroke="black" points="94.5,-168.5 201.5,-168.5 "/>
<text text-anchor="start" x="102.5" y="-156.5" font-family="Helvetica,sans-Serif" font-size="10.00">+ nextCallback()</text>
</a>
</g>
</g>
<!-- Node3&#45;&gt;Node1 -->
<g id="edge2" class="edge">
<title>Node3&#45;&gt;Node1</title>
<path fill="none" stroke="#404040" d="M148,-149.35C148,-126.87 148,-94.85 148,-69.64"/>
<polygon fill="none" stroke="#404040" points="148,-69.53 144,-63.53 148,-57.53 152,-63.53 148,-69.53"/>
<text text-anchor="middle" x="174" y="-79" font-family="Helvetica,sans-Serif" font-size="10.00"> #callback</text>
</g>
<!-- Node4 -->
<g id="node4" class="node">
<title>Node4</title>
<g id="a_node4"><a xlink:href="classCallbackLinker.html" target="_top" xlink:title="Generic abstract Callback Interface class.">
<polygon fill="white" stroke="black" points="98.5,-288.5 98.5,-345.5 197.5,-345.5 197.5,-288.5 98.5,-288.5"/>
<text text-anchor="middle" x="148" y="-333.5" font-family="Helvetica,sans-Serif" font-size="10.00">CallbackLinker</text>
<polyline fill="none" stroke="black" points="98.5,-326.5 197.5,-326.5 "/>
<text text-anchor="middle" x="148" y="-314.5" font-family="Helvetica,sans-Serif" font-size="10.00"> </text>
<polyline fill="none" stroke="black" points="98.5,-307.5 197.5,-307.5 "/>
<text text-anchor="start" x="106.5" y="-295.5" font-family="Helvetica,sans-Serif" font-size="10.00">+ nextCallback()</text>
</a>
</g>
</g>
<!-- Node4&#45;&gt;Node3 -->
<g id="edge3" class="edge">
<title>Node4&#45;&gt;Node3</title>
<path fill="none" stroke="midnightblue" d="M148,-278C148,-255.38 148,-227.19 148,-206.68"/>
<polygon fill="none" stroke="midnightblue" points="144.5,-278.28 148,-288.28 151.5,-278.28 144.5,-278.28"/>
</g>
<!-- Node5 -->
<g id="node5" class="node">
<title>Node5</title>
<g id="a_node5"><a xlink:href="classCamera.html" target="_top" xlink:title="Class for initialising a Camera object and capturing frames.">
<polygon fill="white" stroke="black" points="219.5,-105.5 219.5,-250.5 346.5,-250.5 346.5,-105.5 219.5,-105.5"/>
<text text-anchor="middle" x="283" y="-238.5" font-family="Helvetica,sans-Serif" font-size="10.00">Camera</text>
<polyline fill="none" stroke="black" points="219.5,-231.5 346.5,-231.5 "/>
<text text-anchor="start" x="227.5" y="-219.5" font-family="Helvetica,sans-Serif" font-size="10.00">+ camIdx</text>
<text text-anchor="start" x="227.5" y="-208.5" font-family="Helvetica,sans-Serif" font-size="10.00">+ camApi</text>
<text text-anchor="start" x="227.5" y="-197.5" font-family="Helvetica,sans-Serif" font-size="10.00">+ isOn</text>
<polyline fill="none" stroke="black" points="219.5,-190.5 346.5,-190.5 "/>
<text text-anchor="start" x="227.5" y="-178.5" font-family="Helvetica,sans-Serif" font-size="10.00">+ Camera()</text>
<text text-anchor="start" x="227.5" y="-167.5" font-family="Helvetica,sans-Serif" font-size="10.00">+ ~Camera()</text>
<text text-anchor="start" x="227.5" y="-156.5" font-family="Helvetica,sans-Serif" font-size="10.00">+ registerCallback()</text>
<text text-anchor="start" x="227.5" y="-145.5" font-family="Helvetica,sans-Serif" font-size="10.00">+ unregisterCallback()</text>
<text text-anchor="start" x="227.5" y="-134.5" font-family="Helvetica,sans-Serif" font-size="10.00">+ startRecording()</text>
<text text-anchor="start" x="227.5" y="-123.5" font-family="Helvetica,sans-Serif" font-size="10.00">+ stopRecording()</text>
<text text-anchor="start" x="227.5" y="-112.5" font-family="Helvetica,sans-Serif" font-size="10.00">+ getErr()</text>
</a>
</g>
</g>
<!-- Node5&#45;&gt;Node1 -->
<g id="edge4" class="edge">
<title>Node5&#45;&gt;Node1</title>
<path fill="none" stroke="#404040" d="M230.08,-105.25C221.7,-95.12 212.86,-85.08 204,-76 200.64,-72.55 197.02,-69.11 193.32,-65.74"/>
<polygon fill="none" stroke="#404040" points="193.02,-65.48 185.87,-64.54 183.98,-57.58 191.13,-58.52 193.02,-65.48"/>
<text text-anchor="middle" x="229.5" y="-79" font-family="Helvetica,sans-Serif" font-size="10.00"> #cam</text>
</g>
</g>
</svg>
