<?xml version="1.0" encoding="UTF-8" standalone="no"?>
<!DOCTYPE svg PUBLIC "-//W3C//DTD SVG 1.1//EN"
 "http://www.w3.org/Graphics/SVG/1.1/DTD/svg11.dtd">
<!-- Generated by graphviz version 2.43.0 (0)
 -->
<!-- Title: CallbackLinker Pages: 1 -->
<svg width="692pt" height="226pt"
 viewBox="0.00 0.00 692.00 226.00" xmlns="http://www.w3.org/2000/svg" xmlns:xlink="http://www.w3.org/1999/xlink">
<g id="graph0" class="graph" transform="scale(1 1) rotate(0) translate(4 222)">
<title>CallbackLinker</title>
<polygon fill="white" stroke="transparent" points="-4,4 -4,-222 688,-222 688,4 -4,4"/>
<!-- Node1 -->
<g id="node1" class="node">
<title>Node1</title>
<g id="a_node1"><a xlink:title="Generic abstract Callback Interface class.">
<polygon fill="#bfbfbf" stroke="black" points="337,-160.5 337,-217.5 436,-217.5 436,-160.5 337,-160.5"/>
<text text-anchor="middle" x="386.5" y="-205.5" font-family="Helvetica,sans-Serif" font-size="10.00">CallbackLinker</text>
<polyline fill="none" stroke="black" points="337,-198.5 436,-198.5 "/>
<text text-anchor="middle" x="386.5" y="-186.5" font-family="Helvetica,sans-Serif" font-size="10.00"> </text>
<polyline fill="none" stroke="black" points="337,-179.5 436,-179.5 "/>
<text text-anchor="start" x="345" y="-167.5" font-family="Helvetica,sans-Serif" font-size="10.00">+ nextCallback()</text>
</a>
</g>
</g>
<!-- Node2 -->
<g id="node2" class="node">
<title>Node2</title>
<g id="a_node2"><a xlink:href="classDetectCard.html" target="_top" xlink:title="Class for the detection of cards. Runs the processing pipeline.">
<polygon fill="white" stroke="black" points="0,-0.5 0,-123.5 127,-123.5 127,-0.5 0,-0.5"/>
<text text-anchor="middle" x="63.5" y="-111.5" font-family="Helvetica,sans-Serif" font-size="10.00">DetectCard</text>
<polyline fill="none" stroke="black" points="0,-104.5 127,-104.5 "/>
<text text-anchor="middle" x="63.5" y="-92.5" font-family="Helvetica,sans-Serif" font-size="10.00"> </text>
<polyline fill="none" stroke="black" points="0,-85.5 127,-85.5 "/>
<text text-anchor="start" x="8" y="-73.5" font-family="Helvetica,sans-Serif" font-size="10.00">+ DetectCard()</text>
<text text-anchor="start" x="8" y="-62.5" font-family="Helvetica,sans-Serif" font-size="10.00">+ ~DetectCard()</text>
<text text-anchor="start" x="8" y="-51.5" font-family="Helvetica,sans-Serif" font-size="10.00">+ registerCallback()</text>
<text text-anchor="start" x="8" y="-40.5" font-family="Helvetica,sans-Serif" font-size="10.00">+ unregisterCallback()</text>
<text text-anchor="start" x="8" y="-29.5" font-family="Helvetica,sans-Serif" font-size="10.00">+ nextCallback()</text>
<text text-anchor="start" x="8" y="-18.5" font-family="Helvetica,sans-Serif" font-size="10.00">+ startProcessing()</text>
<text text-anchor="start" x="8" y="-7.5" font-family="Helvetica,sans-Serif" font-size="10.00">+ stopProcessing()</text>
</a>
</g>
</g>
<!-- Node1&#45;&gt;Node2 -->
<g id="edge1" class="edge">
<title>Node1&#45;&gt;Node2</title>
<path fill="none" stroke="midnightblue" d="M326.61,-180.32C274.23,-171.86 197.25,-155.11 136.5,-124 133.41,-122.42 130.34,-120.69 127.3,-118.84"/>
<polygon fill="none" stroke="midnightblue" points="326.32,-183.82 336.75,-181.91 327.41,-176.9 326.32,-183.82"/>
</g>
<!-- Node3 -->
<g id="node3" class="node">
<title>Node3</title>
<g id="a_node3"><a xlink:href="classGamePlay.html" target="_top" xlink:title="Class to implement the gameplay logic/architecture.">
<polygon fill="white" stroke="black" points="145.5,-0.5 145.5,-123.5 313.5,-123.5 313.5,-0.5 145.5,-0.5"/>
<text text-anchor="middle" x="229.5" y="-111.5" font-family="Helvetica,sans-Serif" font-size="10.00">GamePlay</text>
<polyline fill="none" stroke="black" points="145.5,-104.5 313.5,-104.5 "/>
<text text-anchor="middle" x="229.5" y="-92.5" font-family="Helvetica,sans-Serif" font-size="10.00"> </text>
<polyline fill="none" stroke="black" points="145.5,-85.5 313.5,-85.5 "/>
<text text-anchor="start" x="153.5" y="-73.5" font-family="Helvetica,sans-Serif" font-size="10.00">+ GamePlay()</text>
<text text-anchor="start" x="153.5" y="-62.5" font-family="Helvetica,sans-Serif" font-size="10.00">+ ~GamePlay()</text>
<text text-anchor="start" x="153.5" y="-51.5" font-family="Helvetica,sans-Serif" font-size="10.00">+ nextCallback()</text>
<text text-anchor="start" x="153.5" y="-40.5" font-family="Helvetica,sans-Serif" font-size="10.00">+ registerLEDCallback()</text>
<text text-anchor="start" x="153.5" y="-29.5" font-family="Helvetica,sans-Serif" font-size="10.00">+ unregisterLEDCallback()</text>
<text text-anchor="start" x="153.5" y="-18.5" font-family="Helvetica,sans-Serif" font-size="10.00">+ registerStrategyCallback()</text>
<text text-anchor="start" x="153.5" y="-7.5" font-family="Helvetica,sans-Serif" font-size="10.00">+ unregisterStrategyCallback()</text>
</a>
</g>
</g>
<!-- Node1&#45;&gt;Node3 -->
<g id="edge2" class="edge">
<title>Node1&#45;&gt;Node3</title>
<path fill="none" stroke="midnightblue" d="M343.73,-153.95C331.94,-144.56 318.78,-134.08 305.7,-123.67"/>
<polygon fill="none" stroke="midnightblue" points="341.65,-156.77 351.66,-160.26 346.01,-151.29 341.65,-156.77"/>
</g>
<!-- Node4 -->
<g id="node4" class="node">
<title>Node4</title>
<g id="a_node4"><a xlink:href="classStrategyEngine.html" target="_top" xlink:title="Class implementing the optimum Blackjack strategy.">
<polygon fill="white" stroke="black" points="331.5,-22.5 331.5,-101.5 441.5,-101.5 441.5,-22.5 331.5,-22.5"/>
<text text-anchor="middle" x="386.5" y="-89.5" font-family="Helvetica,sans-Serif" font-size="10.00">StrategyEngine</text>
<polyline fill="none" stroke="black" points="331.5,-82.5 441.5,-82.5 "/>
<text text-anchor="middle" x="386.5" y="-70.5" font-family="Helvetica,sans-Serif" font-size="10.00"> </text>
<polyline fill="none" stroke="black" points="331.5,-63.5 441.5,-63.5 "/>
<text text-anchor="start" x="339.5" y="-51.5" font-family="Helvetica,sans-Serif" font-size="10.00">+ StrategyEngine()</text>
<text text-anchor="start" x="339.5" y="-40.5" font-family="Helvetica,sans-Serif" font-size="10.00">+ getchoice()</text>
<text text-anchor="start" x="339.5" y="-29.5" font-family="Helvetica,sans-Serif" font-size="10.00">+ nextCallback()</text>
</a>
</g>
</g>
<!-- Node1&#45;&gt;Node4 -->
<g id="edge3" class="edge">
<title>Node1&#45;&gt;Node4</title>
<path fill="none" stroke="midnightblue" d="M386.5,-150.06C386.5,-134.7 386.5,-116.99 386.5,-101.57"/>
<polygon fill="none" stroke="midnightblue" points="383,-150.26 386.5,-160.26 390,-150.26 383,-150.26"/>
</g>
<!-- Node5 -->
<g id="node5" class="node">
<title>Node5</title>
<g id="a_node5"><a xlink:href="classTestCallbackLinker.html" target="_top" xlink:title=" ">
<polygon fill="white" stroke="black" points="460,-33.5 460,-90.5 567,-90.5 567,-33.5 460,-33.5"/>
<text text-anchor="middle" x="513.5" y="-78.5" font-family="Helvetica,sans-Serif" font-size="10.00">TestCallbackLinker</text>
<polyline fill="none" stroke="black" points="460,-71.5 567,-71.5 "/>
<text text-anchor="middle" x="513.5" y="-59.5" font-family="Helvetica,sans-Serif" font-size="10.00"> </text>
<polyline fill="none" stroke="black" points="460,-52.5 567,-52.5 "/>
<text text-anchor="start" x="468" y="-40.5" font-family="Helvetica,sans-Serif" font-size="10.00">+ nextCallback()</text>
</a>
</g>
</g>
<!-- Node1&#45;&gt;Node5 -->
<g id="edge4" class="edge">
<title>Node1&#45;&gt;Node5</title>
<path fill="none" stroke="midnightblue" d="M421.84,-153.21C441.9,-133.47 466.67,-109.1 485.39,-90.66"/>
<polygon fill="none" stroke="midnightblue" points="419.36,-150.75 414.69,-160.26 424.27,-155.74 419.36,-150.75"/>
</g>
<!-- Node6 -->
<g id="node6" class="node">
<title>Node6</title>
<g id="a_node6"><a xlink:href="classToggleLED.html" target="_top" xlink:title="Class to control the Rasp Pi pins and toggle LEDs ON/OFF.">
<polygon fill="white" stroke="black" points="585,-17 585,-107 684,-107 684,-17 585,-17"/>
<text text-anchor="middle" x="634.5" y="-95" font-family="Helvetica,sans-Serif" font-size="10.00">ToggleLED</text>
<polyline fill="none" stroke="black" points="585,-88 684,-88 "/>
<text text-anchor="middle" x="634.5" y="-76" font-family="Helvetica,sans-Serif" font-size="10.00"> </text>
<polyline fill="none" stroke="black" points="585,-69 684,-69 "/>
<text text-anchor="start" x="593" y="-57" font-family="Helvetica,sans-Serif" font-size="10.00">+ ToggleLED()</text>
<text text-anchor="start" x="593" y="-46" font-family="Helvetica,sans-Serif" font-size="10.00">+ ~ToggleLED()</text>
<text text-anchor="start" x="593" y="-35" font-family="Helvetica,sans-Serif" font-size="10.00">+ flashled()</text>
<text text-anchor="start" x="593" y="-24" font-family="Helvetica,sans-Serif" font-size="10.00">+ nextCallback()</text>
</a>
</g>
</g>
<!-- Node1&#45;&gt;Node6 -->
<g id="edge5" class="edge">
<title>Node1&#45;&gt;Node6</title>
<path fill="none" stroke="midnightblue" d="M446.17,-175.81C485.35,-165.96 536.55,-149.48 576.5,-124 583.89,-119.29 591.01,-113.43 597.56,-107.23"/>
<polygon fill="none" stroke="midnightblue" points="445.11,-172.46 436.23,-178.23 446.77,-179.26 445.11,-172.46"/>
</g>
</g>
</svg>
