<?xml version="1.0" encoding="UTF-8" standalone="no"?>
<!DOCTYPE svg PUBLIC "-//W3C//DTD SVG 1.1//EN"
 "http://www.w3.org/Graphics/SVG/1.1/DTD/svg11.dtd">
<!-- Generated by graphviz version 2.43.0 (0)
 -->
<!-- Title: include/DetectCard.h Pages: 1 -->
<svg width="478pt" height="84pt"
 viewBox="0.00 0.00 478.00 84.00" xmlns="http://www.w3.org/2000/svg" xmlns:xlink="http://www.w3.org/1999/xlink">
<g id="graph0" class="graph" transform="scale(1 1) rotate(0) translate(4 80)">
<title>include/DetectCard.h</title>
<polygon fill="white" stroke="transparent" points="-4,4 -4,-80 474,-80 474,4 -4,4"/>
<!-- Node1 -->
<g id="node1" class="node">
<title>Node1</title>
<g id="a_node1"><a xlink:title=" ">
<polygon fill="#bfbfbf" stroke="black" points="170,-56.5 170,-75.5 289,-75.5 289,-56.5 170,-56.5"/>
<text text-anchor="middle" x="229.5" y="-63.5" font-family="Helvetica,sans-Serif" font-size="10.00">include/DetectCard.h</text>
</a>
</g>
</g>
<!-- Node2 -->
<g id="node2" class="node">
<title>Node2</title>
<g id="a_node2"><a xlink:href="DetectCard_8cpp.html" target="_top" xlink:title=" ">
<polygon fill="white" stroke="black" points="0,-0.5 0,-19.5 109,-19.5 109,-0.5 0,-0.5"/>
<text text-anchor="middle" x="54.5" y="-7.5" font-family="Helvetica,sans-Serif" font-size="10.00">src/DetectCard.cpp</text>
</a>
</g>
</g>
<!-- Node1&#45;&gt;Node2 -->
<g id="edge1" class="edge">
<title>Node1&#45;&gt;Node2</title>
<path fill="none" stroke="midnightblue" d="M192.03,-53.44C159.03,-43.26 111.74,-28.66 82.1,-19.52"/>
<polygon fill="midnightblue" stroke="midnightblue" points="191.18,-56.84 201.77,-56.44 193.25,-50.15 191.18,-56.84"/>
</g>
<!-- Node3 -->
<g id="node3" class="node">
<title>Node3</title>
<g id="a_node3"><a xlink:href="src_2main_8cpp.html" target="_top" xlink:title=" ">
<polygon fill="white" stroke="black" points="127,-0.5 127,-19.5 206,-19.5 206,-0.5 127,-0.5"/>
<text text-anchor="middle" x="166.5" y="-7.5" font-family="Helvetica,sans-Serif" font-size="10.00">src/main.cpp</text>
</a>
</g>
</g>
<!-- Node1&#45;&gt;Node3 -->
<g id="edge2" class="edge">
<title>Node1&#45;&gt;Node3</title>
<path fill="none" stroke="midnightblue" d="M211.46,-49.54C200.23,-39.91 186.18,-27.87 176.81,-19.83"/>
<polygon fill="midnightblue" stroke="midnightblue" points="209.51,-52.47 219.38,-56.32 214.06,-47.16 209.51,-52.47"/>
</g>
<!-- Node4 -->
<g id="node4" class="node">
<title>Node4</title>
<g id="a_node4"><a xlink:href="DetectCardTest_8cpp.html" target="_top" xlink:title=" ">
<polygon fill="white" stroke="black" points="224.5,-0.5 224.5,-19.5 362.5,-19.5 362.5,-0.5 224.5,-0.5"/>
<text text-anchor="middle" x="293.5" y="-7.5" font-family="Helvetica,sans-Serif" font-size="10.00">tests/DetectCardTest.cpp</text>
</a>
</g>
</g>
<!-- Node1&#45;&gt;Node4 -->
<g id="edge3" class="edge">
<title>Node1&#45;&gt;Node4</title>
<path fill="none" stroke="midnightblue" d="M247.49,-49.82C258.96,-40.15 273.41,-27.95 283.03,-19.83"/>
<polygon fill="midnightblue" stroke="midnightblue" points="245.17,-47.2 239.78,-56.32 249.68,-52.55 245.17,-47.2"/>
</g>
<!-- Node5 -->
<g id="node5" class="node">
<title>Node5</title>
<g id="a_node5"><a xlink:href="tests_2main_8cpp.html" target="_top" xlink:title=" ">
<polygon fill="white" stroke="black" points="381,-0.5 381,-19.5 470,-19.5 470,-0.5 381,-0.5"/>
<text text-anchor="middle" x="425.5" y="-7.5" font-family="Helvetica,sans-Serif" font-size="10.00">tests/main.cpp</text>
</a>
</g>
</g>
<!-- Node1&#45;&gt;Node5 -->
<g id="edge4" class="edge">
<title>Node1&#45;&gt;Node5</title>
<path fill="none" stroke="midnightblue" d="M270.52,-53.7C307.51,-43.51 361.1,-28.74 394.59,-19.52"/>
<polygon fill="midnightblue" stroke="midnightblue" points="269.27,-50.41 260.56,-56.44 271.13,-57.16 269.27,-50.41"/>
</g>
</g>
</svg>
