<?xml version="1.0" encoding="UTF-8" standalone="no"?>
<!DOCTYPE svg PUBLIC "-//W3C//DTD SVG 1.1//EN"
 "http://www.w3.org/Graphics/SVG/1.1/DTD/svg11.dtd">
<!-- Generated by graphviz version 2.43.0 (0)
 -->
<!-- Title: Graphical Class Hierarchy Pages: 1 -->
<svg width="245pt" height="142pt"
 viewBox="0.00 0.00 245.00 142.00" xmlns="http://www.w3.org/2000/svg" xmlns:xlink="http://www.w3.org/1999/xlink">
<g id="graph0" class="graph" transform="scale(1 1) rotate(0) translate(4 138)">
<title>Graphical Class Hierarchy</title>
<polygon fill="white" stroke="transparent" points="-4,4 -4,-138 241,-138 241,4 -4,4"/>
<!-- Node21 -->
<g id="node1" class="node">
<title>Node21</title>
<g id="a_node1"><a xlink:title=" ">
<polygon fill="white" stroke="#bfbfbf" points="0,-57.5 0,-76.5 76,-76.5 76,-57.5 0,-57.5"/>
<text text-anchor="middle" x="38" y="-64.5" font-family="Helvetica,sans-Serif" font-size="10.00">testing::Test</text>
</a>
</g>
</g>
<!-- Node0 -->
<g id="node2" class="node">
<title>Node0</title>
<g id="a_node2"><a xlink:href="classCameraTest.html" target="_top" xlink:title=" ">
<polygon fill="white" stroke="black" points="137.5,-114.5 137.5,-133.5 211.5,-133.5 211.5,-114.5 137.5,-114.5"/>
<text text-anchor="middle" x="174.5" y="-121.5" font-family="Helvetica,sans-Serif" font-size="10.00">CameraTest</text>
</a>
</g>
</g>
<!-- Node21&#45;&gt;Node0 -->
<g id="edge1" class="edge">
<title>Node21&#45;&gt;Node0</title>
<path fill="none" stroke="midnightblue" d="M64.31,-81.61C78.11,-89.22 95.68,-98.29 112,-105 120.48,-108.48 129.83,-111.68 138.63,-114.43"/>
<polygon fill="midnightblue" stroke="midnightblue" points="65.84,-78.46 55.41,-76.63 62.43,-84.57 65.84,-78.46"/>
</g>
<!-- Node23 -->
<g id="node3" class="node">
<title>Node23</title>
<g id="a_node3"><a xlink:href="classCardDiscriminatorTest.html" target="_top" xlink:title=" ">
<polygon fill="white" stroke="black" points="112,-76.5 112,-95.5 237,-95.5 237,-76.5 112,-76.5"/>
<text text-anchor="middle" x="174.5" y="-83.5" font-family="Helvetica,sans-Serif" font-size="10.00">CardDiscriminatorTest</text>
</a>
</g>
</g>
<!-- Node21&#45;&gt;Node23 -->
<g id="edge2" class="edge">
<title>Node21&#45;&gt;Node23</title>
<path fill="none" stroke="midnightblue" d="M86.06,-73.65C94.44,-74.83 103.27,-76.08 111.98,-77.31"/>
<polygon fill="midnightblue" stroke="midnightblue" points="86.5,-70.18 76.11,-72.24 85.52,-77.11 86.5,-70.18"/>
</g>
<!-- Node24 -->
<g id="node4" class="node">
<title>Node24</title>
<g id="a_node4"><a xlink:href="classGamePlayTest.html" target="_top" xlink:title=" ">
<polygon fill="white" stroke="black" points="131.5,-38.5 131.5,-57.5 217.5,-57.5 217.5,-38.5 131.5,-38.5"/>
<text text-anchor="middle" x="174.5" y="-45.5" font-family="Helvetica,sans-Serif" font-size="10.00">GamePlayTest</text>
</a>
</g>
</g>
<!-- Node21&#45;&gt;Node24 -->
<g id="edge3" class="edge">
<title>Node21&#45;&gt;Node24</title>
<path fill="none" stroke="midnightblue" d="M86.04,-60.36C100.77,-58.27 116.92,-55.99 131.29,-53.96"/>
<polygon fill="midnightblue" stroke="midnightblue" points="85.52,-56.89 76.11,-61.76 86.5,-63.82 85.52,-56.89"/>
</g>
<!-- Node25 -->
<g id="node5" class="node">
<title>Node25</title>
<g id="a_node5"><a xlink:href="classToggleLEDTest.html" target="_top" xlink:title=" ">
<polygon fill="white" stroke="black" points="131.5,-0.5 131.5,-19.5 217.5,-19.5 217.5,-0.5 131.5,-0.5"/>
<text text-anchor="middle" x="174.5" y="-7.5" font-family="Helvetica,sans-Serif" font-size="10.00">ToggleLEDTest</text>
</a>
</g>
</g>
<!-- Node21&#45;&gt;Node25 -->
<g id="edge4" class="edge">
<title>Node21&#45;&gt;Node25</title>
<path fill="none" stroke="midnightblue" d="M64.31,-52.39C78.11,-44.78 95.68,-35.71 112,-29 120.48,-25.52 129.83,-22.32 138.63,-19.57"/>
<polygon fill="midnightblue" stroke="midnightblue" points="62.43,-49.43 55.41,-57.37 65.84,-55.54 62.43,-49.43"/>
</g>
</g>
</svg>
