<?xml version="1.0" encoding="UTF-8" standalone="no"?>
<!DOCTYPE svg PUBLIC "-//W3C//DTD SVG 1.1//EN"
 "http://www.w3.org/Graphics/SVG/1.1/DTD/svg11.dtd">
<!-- Generated by graphviz version 2.43.0 (0)
 -->
<!-- Title: Graphical Class Hierarchy Pages: 1 -->
<svg width="223pt" height="142pt"
 viewBox="0.00 0.00 223.00 142.00" xmlns="http://www.w3.org/2000/svg" xmlns:xlink="http://www.w3.org/1999/xlink">
<g id="graph0" class="graph" transform="scale(1 1) rotate(0) translate(4 138)">
<title>Graphical Class Hierarchy</title>
<polygon fill="white" stroke="transparent" points="-4,4 -4,-138 219,-138 219,4 -4,4"/>
<!-- Node0 -->
<g id="node1" class="node">
<title>Node0</title>
<g id="a_node1"><a xlink:href="classCallbackLinker.html" target="_top" xlink:title="Generic abstract Callback Interface class.">
<polygon fill="white" stroke="black" points="0,-57.5 0,-76.5 88,-76.5 88,-57.5 0,-57.5"/>
<text text-anchor="middle" x="44" y="-64.5" font-family="Helvetica,sans-Serif" font-size="10.00">CallbackLinker</text>
</a>
</g>
</g>
<!-- Node1 -->
<g id="node2" class="node">
<title>Node1</title>
<g id="a_node2"><a xlink:href="classDetectCard.html" target="_top" xlink:title="Class for the detection of cards. Runs the processing pipeline.">
<polygon fill="white" stroke="black" points="134,-114.5 134,-133.5 205,-133.5 205,-114.5 134,-114.5"/>
<text text-anchor="middle" x="169.5" y="-121.5" font-family="Helvetica,sans-Serif" font-size="10.00">DetectCard</text>
</a>
</g>
</g>
<!-- Node0&#45;&gt;Node1 -->
<g id="edge1" class="edge">
<title>Node0&#45;&gt;Node1</title>
<path fill="none" stroke="midnightblue" d="M73.6,-81.14C88.54,-88.43 107.17,-97.37 124,-105 130.88,-108.12 138.43,-111.4 145.32,-114.33"/>
<polygon fill="midnightblue" stroke="midnightblue" points="74.89,-77.87 64.37,-76.61 71.81,-84.16 74.89,-77.87"/>
</g>
<!-- Node2 -->
<g id="node3" class="node">
<title>Node2</title>
<g id="a_node3"><a xlink:href="classGamePlay.html" target="_top" xlink:title="Class to implement the gameplay logic/architecture.">
<polygon fill="white" stroke="black" points="136,-76.5 136,-95.5 203,-95.5 203,-76.5 136,-76.5"/>
<text text-anchor="middle" x="169.5" y="-83.5" font-family="Helvetica,sans-Serif" font-size="10.00">GamePlay</text>
</a>
</g>
</g>
<!-- Node0&#45;&gt;Node2 -->
<g id="edge2" class="edge">
<title>Node0&#45;&gt;Node2</title>
<path fill="none" stroke="midnightblue" d="M98.24,-75.19C110.96,-77.15 124.16,-79.18 135.65,-80.95"/>
<polygon fill="midnightblue" stroke="midnightblue" points="98.61,-71.71 88.19,-73.65 97.55,-78.63 98.61,-71.71"/>
</g>
<!-- Node3 -->
<g id="node4" class="node">
<title>Node3</title>
<g id="a_node4"><a xlink:href="classStrategyEngine.html" target="_top" xlink:title="Class implementing the optimum Blackjack strategy.">
<polygon fill="white" stroke="black" points="124,-38.5 124,-57.5 215,-57.5 215,-38.5 124,-38.5"/>
<text text-anchor="middle" x="169.5" y="-45.5" font-family="Helvetica,sans-Serif" font-size="10.00">StrategyEngine</text>
</a>
</g>
</g>
<!-- Node0&#45;&gt;Node3 -->
<g id="edge3" class="edge">
<title>Node0&#45;&gt;Node3</title>
<path fill="none" stroke="midnightblue" d="M98.12,-58.83C106.7,-57.51 115.51,-56.15 123.86,-54.87"/>
<polygon fill="midnightblue" stroke="midnightblue" points="97.55,-55.37 88.19,-60.35 98.61,-62.29 97.55,-55.37"/>
</g>
<!-- Node4 -->
<g id="node5" class="node">
<title>Node4</title>
<g id="a_node5"><a xlink:href="classToggleLED.html" target="_top" xlink:title="Class to control the Rasp Pi pins and toggle LEDs ON/OFF.">
<polygon fill="white" stroke="black" points="136,-0.5 136,-19.5 203,-19.5 203,-0.5 136,-0.5"/>
<text text-anchor="middle" x="169.5" y="-7.5" font-family="Helvetica,sans-Serif" font-size="10.00">ToggleLED</text>
</a>
</g>
</g>
<!-- Node0&#45;&gt;Node4 -->
<g id="edge4" class="edge">
<title>Node0&#45;&gt;Node4</title>
<path fill="none" stroke="midnightblue" d="M73.6,-52.86C88.54,-45.57 107.17,-36.63 124,-29 130.88,-25.88 138.43,-22.6 145.32,-19.67"/>
<polygon fill="midnightblue" stroke="midnightblue" points="71.81,-49.84 64.37,-57.39 74.89,-56.13 71.81,-49.84"/>
</g>
</g>
</svg>
