<?xml version="1.0" encoding="UTF-8" standalone="no"?>
<!DOCTYPE svg PUBLIC "-//W3C//DTD SVG 1.1//EN"
 "http://www.w3.org/Graphics/SVG/1.1/DTD/svg11.dtd">
<!-- Generated by graphviz version 2.43.0 (0)
 -->
<!-- Title: Graphical Class Hierarchy Pages: 1 -->
<svg width="239pt" height="180pt"
 viewBox="0.00 0.00 239.00 180.00" xmlns="http://www.w3.org/2000/svg" xmlns:xlink="http://www.w3.org/1999/xlink">
<g id="graph0" class="graph" transform="scale(1 1) rotate(0) translate(4 176)">
<title>Graphical Class Hierarchy</title>
<polygon fill="white" stroke="transparent" points="-4,4 -4,-176 235,-176 235,4 -4,4"/>
<!-- Node0 -->
<g id="node1" class="node">
<title>Node0</title>
<g id="a_node1"><a xlink:href="classCallbackLinker.html" target="_top" xlink:title="Generic abstract Callback Interface class.">
<polygon fill="white" stroke="black" points="0,-76.5 0,-95.5 88,-95.5 88,-76.5 0,-76.5"/>
<text text-anchor="middle" x="44" y="-83.5" font-family="Helvetica,sans-Serif" font-size="10.00">CallbackLinker</text>
</a>
</g>
</g>
<!-- Node1 -->
<g id="node2" class="node">
<title>Node1</title>
<g id="a_node2"><a xlink:href="classDetectCard.html" target="_top" xlink:title="Class for the detection of cards. Runs the processing pipeline.">
<polygon fill="white" stroke="black" points="142,-152.5 142,-171.5 213,-171.5 213,-152.5 142,-152.5"/>
<text text-anchor="middle" x="177.5" y="-159.5" font-family="Helvetica,sans-Serif" font-size="10.00">DetectCard</text>
</a>
</g>
</g>
<!-- Node0&#45;&gt;Node1 -->
<g id="edge1" class="edge">
<title>Node0&#45;&gt;Node1</title>
<path fill="none" stroke="midnightblue" d="M63.87,-101.93C79.29,-114.36 102.05,-131.4 124,-143 130.77,-146.58 138.36,-149.76 145.62,-152.44"/>
<polygon fill="midnightblue" stroke="midnightblue" points="66.07,-99.2 56.12,-95.57 61.63,-104.61 66.07,-99.2"/>
</g>
<!-- Node2 -->
<g id="node3" class="node">
<title>Node2</title>
<g id="a_node3"><a xlink:href="classGamePlay.html" target="_top" xlink:title="Class to implement the gameplay logic/architecture.">
<polygon fill="white" stroke="black" points="144,-114.5 144,-133.5 211,-133.5 211,-114.5 144,-114.5"/>
<text text-anchor="middle" x="177.5" y="-121.5" font-family="Helvetica,sans-Serif" font-size="10.00">GamePlay</text>
</a>
</g>
</g>
<!-- Node0&#45;&gt;Node2 -->
<g id="edge2" class="edge">
<title>Node0&#45;&gt;Node2</title>
<path fill="none" stroke="midnightblue" d="M87.95,-98.41C106.11,-103.66 126.91,-109.67 143.78,-114.55"/>
<polygon fill="midnightblue" stroke="midnightblue" points="88.76,-95 78.18,-95.59 86.82,-101.73 88.76,-95"/>
</g>
<!-- Node3 -->
<g id="node4" class="node">
<title>Node3</title>
<g id="a_node4"><a xlink:href="classStrategyEngine.html" target="_top" xlink:title="Class implementing the optimum Blackjack strategy.">
<polygon fill="white" stroke="black" points="132,-76.5 132,-95.5 223,-95.5 223,-76.5 132,-76.5"/>
<text text-anchor="middle" x="177.5" y="-83.5" font-family="Helvetica,sans-Serif" font-size="10.00">StrategyEngine</text>
</a>
</g>
</g>
<!-- Node0&#45;&gt;Node3 -->
<g id="edge3" class="edge">
<title>Node0&#45;&gt;Node3</title>
<path fill="none" stroke="midnightblue" d="M98.18,-86C109.4,-86 121.13,-86 131.99,-86"/>
<polygon fill="midnightblue" stroke="midnightblue" points="98.06,-82.5 88.06,-86 98.06,-89.5 98.06,-82.5"/>
</g>
<!-- Node4 -->
<g id="node5" class="node">
<title>Node4</title>
<g id="a_node5"><a xlink:href="classTestCallbackLinker.html" target="_top" xlink:title=" ">
<polygon fill="white" stroke="black" points="124,-38.5 124,-57.5 231,-57.5 231,-38.5 124,-38.5"/>
<text text-anchor="middle" x="177.5" y="-45.5" font-family="Helvetica,sans-Serif" font-size="10.00">TestCallbackLinker</text>
</a>
</g>
</g>
<!-- Node0&#45;&gt;Node4 -->
<g id="edge4" class="edge">
<title>Node0&#45;&gt;Node4</title>
<path fill="none" stroke="midnightblue" d="M87.88,-73.61C105.89,-68.41 126.51,-62.45 143.33,-57.59"/>
<polygon fill="midnightblue" stroke="midnightblue" points="86.82,-70.27 78.18,-76.41 88.76,-77 86.82,-70.27"/>
</g>
<!-- Node5 -->
<g id="node6" class="node">
<title>Node5</title>
<g id="a_node6"><a xlink:href="classToggleLED.html" target="_top" xlink:title="Class to control the Rasp Pi pins and toggle LEDs ON/OFF.">
<polygon fill="white" stroke="black" points="144,-0.5 144,-19.5 211,-19.5 211,-0.5 144,-0.5"/>
<text text-anchor="middle" x="177.5" y="-7.5" font-family="Helvetica,sans-Serif" font-size="10.00">ToggleLED</text>
</a>
</g>
</g>
<!-- Node0&#45;&gt;Node5 -->
<g id="edge5" class="edge">
<title>Node0&#45;&gt;Node5</title>
<path fill="none" stroke="midnightblue" d="M63.87,-70.07C79.29,-57.64 102.05,-40.6 124,-29 130.77,-25.42 138.36,-22.24 145.62,-19.56"/>
<polygon fill="midnightblue" stroke="midnightblue" points="61.63,-67.39 56.12,-76.43 66.07,-72.8 61.63,-67.39"/>
</g>
</g>
</svg>
