<?xml version="1.0" encoding="UTF-8" standalone="no"?>
<!DOCTYPE svg PUBLIC "-//W3C//DTD SVG 1.1//EN"
 "http://www.w3.org/Graphics/SVG/1.1/DTD/svg11.dtd">
<!-- Generated by graphviz version 2.43.0 (0)
 -->
<!-- Title: LCCV/include/lccv.hpp Pages: 1 -->
<!--zoomable 151 -->
<svg id="main" version="1.1" xmlns="http://www.w3.org/2000/svg" xmlns:xlink="http://www.w3.org/1999/xlink" xml:space="preserve" onload="init(evt)">
<style type="text/css"><![CDATA[
.edge:hover path { stroke: red; }
.edge:hover polygon { stroke: red; fill: red; }
]]></style>
<script type="text/javascript"><![CDATA[
var edges = document.getElementsByTagName('g');
if (edges && edges.length) {
  for (var i=0;i<edges.length;i++) {
    if (edges[i].id.substr(0,4)=='edge') {
      edges[i].setAttribute('class','edge');
    }
  }
}
]]></script>
        <defs>
                <circle id="rim" cx="0" cy="0" r="7"/>
                <circle id="rim2" cx="0" cy="0" r="3.5"/>
                <g id="zoomPlus">
                        <use xlink:href="#rim" fill="#404040">
                                <set attributeName="fill" to="#808080" begin="zoomplus.mouseover" end="zoomplus.mouseout"/>
                        </use>
                        <path d="M-4,0h8M0,-4v8" fill="none" stroke="white" stroke-width="1.5" pointer-events="none"/>
                </g>
                <g id="zoomMin">
                        <use xlink:href="#rim" fill="#404040">
                                <set attributeName="fill" to="#808080" begin="zoomminus.mouseover" end="zoomminus.mouseout"/>
                        </use>
                        <path d="M-4,0h8" fill="none" stroke="white" stroke-width="1.5" pointer-events="none"/>
                </g>
                <g id="dirArrow">
                        <path fill="none" stroke="white" stroke-width="1.5" d="M0,-3.0v7 M-2.5,-0.5L0,-3.0L2.5,-0.5"/>
                </g>
               <g id="resetDef">
                       <use xlink:href="#rim2" fill="#404040">
                               <set attributeName="fill" to="#808080" begin="reset.mouseover" end="reset.mouseout"/>
                       </use>
               </g>
        </defs>

<script type="text/javascript">
var viewWidth = 2293;
var viewHeight = 151;
var sectionId = 'dynsection-0';
</script>
<script xlink:href="svgpan.js"/>
<svg id="graph" class="graph">
<g id="viewport">
<title>LCCV/include/lccv.hpp</title>
<polygon fill="white" stroke="transparent" points="-4,4 -4,-147 2288.5,-147 2288.5,4 -4,4"/>
<!-- Node1 -->
<g id="node1" class="node">
<title>Node1</title>
<g id="a_node1"><a xlink:title=" ">
<polygon fill="#bfbfbf" stroke="black" points="828.5,-123.5 828.5,-142.5 951.5,-142.5 951.5,-123.5 828.5,-123.5"/>
<text text-anchor="middle" x="890" y="-130.5" font-family="Helvetica,sans-Serif" font-size="10.00">LCCV/include/lccv.hpp</text>
</a>
</g>
</g>
<!-- Node2 -->
<g id="node2" class="node">
<title>Node2</title>
<g id="a_node2"><a xlink:title=" ">
<polygon fill="white" stroke="#bfbfbf" points="0,-6 0,-25 48,-25 48,-6 0,-6"/>
<text text-anchor="middle" x="24" y="-13" font-family="Helvetica,sans-Serif" font-size="10.00">mutex</text>
</a>
</g>
</g>
<!-- Node1&#45;&gt;Node2 -->
<g id="edge1" class="edge">
<title>Node1&#45;&gt;Node2</title>
<path fill="none" stroke="midnightblue" d="M828.46,-130.67C688.8,-126.34 338.18,-108.01 57,-31 54.71,-30.37 52.37,-29.61 50.05,-28.77"/>
<polygon fill="midnightblue" stroke="midnightblue" points="51.36,-25.53 40.78,-25.01 48.73,-32.01 51.36,-25.53"/>
</g>
<!-- Node3 -->
<g id="node3" class="node">
<title>Node3</title>
<g id="a_node3"><a xlink:title=" ">
<polygon fill="white" stroke="#bfbfbf" points="736,-67.5 736,-86.5 786,-86.5 786,-67.5 736,-67.5"/>
<text text-anchor="middle" x="761" y="-74.5" font-family="Helvetica,sans-Serif" font-size="10.00">atomic</text>
</a>
</g>
</g>
<!-- Node1&#45;&gt;Node3 -->
<g id="edge2" class="edge">
<title>Node1&#45;&gt;Node3</title>
<path fill="none" stroke="midnightblue" d="M869.56,-123.44C848.33,-114.56 814.9,-100.56 790.75,-90.45"/>
<polygon fill="midnightblue" stroke="midnightblue" points="791.92,-87.15 781.34,-86.52 789.22,-93.61 791.92,-87.15"/>
</g>
<!-- Node4 -->
<g id="node4" class="node">
<title>Node4</title>
<g id="a_node4"><a xlink:title=" ">
<polygon fill="white" stroke="#bfbfbf" points="804.5,-67.5 804.5,-86.5 867.5,-86.5 867.5,-67.5 804.5,-67.5"/>
<text text-anchor="middle" x="836" y="-74.5" font-family="Helvetica,sans-Serif" font-size="10.00">pthread.h</text>
</a>
</g>
</g>
<!-- Node1&#45;&gt;Node4 -->
<g id="edge3" class="edge">
<title>Node1&#45;&gt;Node4</title>
<path fill="none" stroke="midnightblue" d="M881.08,-123.08C873.22,-115.22 861.57,-103.57 852.08,-94.08"/>
<polygon fill="midnightblue" stroke="midnightblue" points="854.3,-91.35 844.75,-86.75 849.35,-96.3 854.3,-91.35"/>
</g>
<!-- Node5 -->
<g id="node5" class="node">
<title>Node5</title>
<g id="a_node5"><a xlink:title=" ">
<polygon fill="white" stroke="#bfbfbf" points="886,-67.5 886,-86.5 1002,-86.5 1002,-67.5 886,-67.5"/>
<text text-anchor="middle" x="944" y="-74.5" font-family="Helvetica,sans-Serif" font-size="10.00">opencv2/opencv.hpp</text>
</a>
</g>
</g>
<!-- Node1&#45;&gt;Node5 -->
<g id="edge4" class="edge">
<title>Node1&#45;&gt;Node5</title>
<path fill="none" stroke="midnightblue" d="M898.92,-123.08C906.78,-115.22 918.43,-103.57 927.92,-94.08"/>
<polygon fill="midnightblue" stroke="midnightblue" points="930.65,-96.3 935.25,-86.75 925.7,-91.35 930.65,-96.3"/>
</g>
<!-- Node6 -->
<g id="node6" class="node">
<title>Node6</title>
<g id="a_node6"><a xlink:href="libcamera__app_8hpp.html" target="_top" xlink:title=" ">
<polygon fill="white" stroke="black" points="1020,-67.5 1020,-86.5 1130,-86.5 1130,-67.5 1020,-67.5"/>
<text text-anchor="middle" x="1075" y="-74.5" font-family="Helvetica,sans-Serif" font-size="10.00">libcamera_app.hpp</text>
</a>
</g>
</g>
<!-- Node1&#45;&gt;Node6 -->
<g id="edge5" class="edge">
<title>Node1&#45;&gt;Node6</title>
<path fill="none" stroke="midnightblue" d="M919.31,-123.44C950.84,-114.24 1001.13,-99.56 1035.99,-89.39"/>
<polygon fill="midnightblue" stroke="midnightblue" points="1037.2,-92.68 1045.82,-86.52 1035.24,-85.96 1037.2,-92.68"/>
</g>
<!-- Node27 -->
<g id="node27" class="node">
<title>Node27</title>
<g id="a_node27"><a xlink:href="libcamera__app__options_8hpp.html" target="_top" xlink:title=" ">
<polygon fill="white" stroke="black" points="1715.5,-67.5 1715.5,-86.5 1866.5,-86.5 1866.5,-67.5 1715.5,-67.5"/>
<text text-anchor="middle" x="1791" y="-74.5" font-family="Helvetica,sans-Serif" font-size="10.00">libcamera_app_options.hpp</text>
</a>
</g>
</g>
<!-- Node1&#45;&gt;Node27 -->
<g id="edge27" class="edge">
<title>Node1&#45;&gt;Node27</title>
<path fill="none" stroke="midnightblue" d="M951.57,-128.31C1108.72,-118.89 1524.96,-93.94 1705.48,-83.13"/>
<polygon fill="midnightblue" stroke="midnightblue" points="1705.69,-86.62 1715.46,-82.53 1705.27,-79.63 1705.69,-86.62"/>
</g>
<!-- Node6&#45;&gt;Node2 -->
<g id="edge10" class="edge">
<title>Node6&#45;&gt;Node2</title>
<path fill="none" stroke="midnightblue" d="M1019.88,-67.89C1016.88,-67.56 1013.91,-67.26 1011,-67 799.68,-48.2 263.76,-78.51 57,-31 54.63,-30.46 52.22,-29.74 49.84,-28.93"/>
<polygon fill="midnightblue" stroke="midnightblue" points="50.95,-25.6 40.37,-25.14 48.36,-32.1 50.95,-25.6"/>
</g>
<!-- Node7 -->
<g id="node7" class="node">
<title>Node7</title>
<g id="a_node7"><a xlink:title=" ">
<polygon fill="white" stroke="#bfbfbf" points="754.5,-6 754.5,-25 831.5,-25 831.5,-6 754.5,-6"/>
<text text-anchor="middle" x="793" y="-13" font-family="Helvetica,sans-Serif" font-size="10.00">sys/mman.h</text>
</a>
</g>
</g>
<!-- Node6&#45;&gt;Node7 -->
<g id="edge6" class="edge">
<title>Node6&#45;&gt;Node7</title>
<path fill="none" stroke="midnightblue" d="M1021.44,-67.47C973.57,-59.44 901.67,-46.37 840,-31 836.39,-30.1 832.65,-29.09 828.92,-28.03"/>
<polygon fill="midnightblue" stroke="midnightblue" points="829.79,-24.63 819.21,-25.14 827.8,-31.34 829.79,-24.63"/>
</g>
<!-- Node8 -->
<g id="node8" class="node">
<title>Node8</title>
<g id="a_node8"><a xlink:title=" ">
<polygon fill="white" stroke="#bfbfbf" points="849.5,-6 849.5,-25 956.5,-25 956.5,-6 849.5,-6"/>
<text text-anchor="middle" x="903" y="-13" font-family="Helvetica,sans-Serif" font-size="10.00">condition_variable</text>
</a>
</g>
</g>
<!-- Node6&#45;&gt;Node8 -->
<g id="edge7" class="edge">
<title>Node6&#45;&gt;Node8</title>
<path fill="none" stroke="midnightblue" d="M1050.36,-67.48C1020.72,-57.22 970.82,-39.96 937.4,-28.4"/>
<polygon fill="midnightblue" stroke="midnightblue" points="938.19,-24.97 927.6,-25.01 935.9,-31.59 938.19,-24.97"/>
</g>
<!-- Node9 -->
<g id="node9" class="node">
<title>Node9</title>
<g id="a_node9"><a xlink:title=" ">
<polygon fill="white" stroke="#bfbfbf" points="1418,-6 1418,-25 1478,-25 1478,-6 1418,-6"/>
<text text-anchor="middle" x="1448" y="-13" font-family="Helvetica,sans-Serif" font-size="10.00">iostream</text>
</a>
</g>
</g>
<!-- Node6&#45;&gt;Node9 -->
<g id="edge8" class="edge">
<title>Node6&#45;&gt;Node9</title>
<path fill="none" stroke="midnightblue" d="M1130.18,-72.17C1196.79,-66.71 1311.83,-54.64 1408,-31 1411.06,-30.25 1414.21,-29.35 1417.33,-28.36"/>
<polygon fill="midnightblue" stroke="midnightblue" points="1418.75,-31.57 1427.09,-25.03 1416.49,-24.95 1418.75,-31.57"/>
</g>
<!-- Node10 -->
<g id="node10" class="node">
<title>Node10</title>
<g id="a_node10"><a xlink:title=" ">
<polygon fill="white" stroke="#bfbfbf" points="975,-6 975,-25 1033,-25 1033,-6 975,-6"/>
<text text-anchor="middle" x="1004" y="-13" font-family="Helvetica,sans-Serif" font-size="10.00">memory</text>
</a>
</g>
</g>
<!-- Node6&#45;&gt;Node10 -->
<g id="edge9" class="edge">
<title>Node6&#45;&gt;Node10</title>
<path fill="none" stroke="midnightblue" d="M1064.83,-67.48C1053.65,-58.11 1035.48,-42.88 1021.91,-31.51"/>
<polygon fill="midnightblue" stroke="midnightblue" points="1024.07,-28.75 1014.15,-25.01 1019.57,-34.11 1024.07,-28.75"/>
</g>
<!-- Node11 -->
<g id="node11" class="node">
<title>Node11</title>
<g id="a_node11"><a xlink:title=" ">
<polygon fill="white" stroke="#bfbfbf" points="1051.5,-6 1051.5,-25 1098.5,-25 1098.5,-6 1051.5,-6"/>
<text text-anchor="middle" x="1075" y="-13" font-family="Helvetica,sans-Serif" font-size="10.00">queue</text>
</a>
</g>
</g>
<!-- Node6&#45;&gt;Node11 -->
<g id="edge11" class="edge">
<title>Node6&#45;&gt;Node11</title>
<path fill="none" stroke="midnightblue" d="M1075,-67.48C1075,-59.08 1075,-45.98 1075,-35.16"/>
<polygon fill="midnightblue" stroke="midnightblue" points="1078.5,-35.01 1075,-25.01 1071.5,-35.01 1078.5,-35.01"/>
</g>
<!-- Node12 -->
<g id="node12" class="node">
<title>Node12</title>
<g id="a_node12"><a xlink:title=" ">
<polygon fill="white" stroke="#bfbfbf" points="1117,-6 1117,-25 1149,-25 1149,-6 1117,-6"/>
<text text-anchor="middle" x="1133" y="-13" font-family="Helvetica,sans-Serif" font-size="10.00">set</text>
</a>
</g>
</g>
<!-- Node6&#45;&gt;Node12 -->
<g id="edge12" class="edge">
<title>Node6&#45;&gt;Node12</title>
<path fill="none" stroke="midnightblue" d="M1083.31,-67.48C1092.18,-58.37 1106.45,-43.74 1117.42,-32.48"/>
<polygon fill="midnightblue" stroke="midnightblue" points="1120.23,-34.61 1124.71,-25.01 1115.22,-29.73 1120.23,-34.61"/>
</g>
<!-- Node13 -->
<g id="node13" class="node">
<title>Node13</title>
<g id="a_node13"><a xlink:title=" ">
<polygon fill="white" stroke="#bfbfbf" points="1167,-6 1167,-25 1211,-25 1211,-6 1167,-6"/>
<text text-anchor="middle" x="1189" y="-13" font-family="Helvetica,sans-Serif" font-size="10.00">string</text>
</a>
</g>
</g>
<!-- Node6&#45;&gt;Node13 -->
<g id="edge13" class="edge">
<title>Node6&#45;&gt;Node13</title>
<path fill="none" stroke="midnightblue" d="M1091.33,-67.48C1110.21,-57.62 1141.51,-41.29 1163.58,-29.77"/>
<polygon fill="midnightblue" stroke="midnightblue" points="1165.45,-32.74 1172.7,-25.01 1162.21,-26.53 1165.45,-32.74"/>
</g>
<!-- Node14 -->
<g id="node14" class="node">
<title>Node14</title>
<g id="a_node14"><a xlink:title=" ">
<polygon fill="white" stroke="#bfbfbf" points="1229,-6 1229,-25 1277,-25 1277,-6 1229,-6"/>
<text text-anchor="middle" x="1253" y="-13" font-family="Helvetica,sans-Serif" font-size="10.00">thread</text>
</a>
</g>
</g>
<!-- Node6&#45;&gt;Node14 -->
<g id="edge14" class="edge">
<title>Node6&#45;&gt;Node14</title>
<path fill="none" stroke="midnightblue" d="M1106.17,-67.43C1135.77,-59.04 1181.36,-45.43 1220,-31 1221.65,-30.38 1223.34,-29.73 1225.04,-29.05"/>
<polygon fill="midnightblue" stroke="midnightblue" points="1226.79,-32.11 1234.65,-25 1224.08,-25.65 1226.79,-32.11"/>
</g>
<!-- Node15 -->
<g id="node15" class="node">
<title>Node15</title>
<g id="a_node15"><a xlink:title=" ">
<polygon fill="white" stroke="#bfbfbf" points="1295.5,-6 1295.5,-25 1346.5,-25 1346.5,-6 1295.5,-6"/>
<text text-anchor="middle" x="1321" y="-13" font-family="Helvetica,sans-Serif" font-size="10.00">variant</text>
</a>
</g>
</g>
<!-- Node6&#45;&gt;Node15 -->
<g id="edge15" class="edge">
<title>Node6&#45;&gt;Node15</title>
<path fill="none" stroke="midnightblue" d="M1128.15,-67.44C1171.23,-59.84 1233.24,-47.4 1286,-31 1288.14,-30.33 1290.34,-29.59 1292.53,-28.79"/>
<polygon fill="midnightblue" stroke="midnightblue" points="1293.93,-32.01 1301.98,-25.12 1291.39,-25.48 1293.93,-32.01"/>
</g>
<!-- Node16 -->
<g id="node16" class="node">
<title>Node16</title>
<g id="a_node16"><a xlink:title=" ">
<polygon fill="white" stroke="#bfbfbf" points="1364.5,-6 1364.5,-25 1399.5,-25 1399.5,-6 1364.5,-6"/>
<text text-anchor="middle" x="1382" y="-13" font-family="Helvetica,sans-Serif" font-size="10.00">any</text>
</a>
</g>
</g>
<!-- Node6&#45;&gt;Node16 -->
<g id="edge16" class="edge">
<title>Node6&#45;&gt;Node16</title>
<path fill="none" stroke="midnightblue" d="M1130.24,-72.57C1187.67,-67.75 1279.56,-56.51 1355,-31 1356.25,-30.58 1357.51,-30.1 1358.76,-29.59"/>
<polygon fill="midnightblue" stroke="midnightblue" points="1360.61,-32.58 1368.11,-25.1 1357.58,-26.27 1360.61,-32.58"/>
</g>
<!-- Node17 -->
<g id="node17" class="node">
<title>Node17</title>
<g id="a_node17"><a xlink:title=" ">
<polygon fill="white" stroke="#bfbfbf" points="66,-6 66,-25 104,-25 104,-6 66,-6"/>
<text text-anchor="middle" x="85" y="-13" font-family="Helvetica,sans-Serif" font-size="10.00">map</text>
</a>
</g>
</g>
<!-- Node6&#45;&gt;Node17 -->
<g id="edge17" class="edge">
<title>Node6&#45;&gt;Node17</title>
<path fill="none" stroke="midnightblue" d="M1019.88,-67.89C1016.88,-67.56 1013.91,-67.26 1011,-67 812.09,-49.07 306.06,-82.14 113,-31 111.33,-30.56 109.64,-30 107.97,-29.37"/>
<polygon fill="midnightblue" stroke="midnightblue" points="109.3,-26.13 98.76,-25.14 106.38,-32.49 109.3,-26.13"/>
</g>
<!-- Node18 -->
<g id="node18" class="node">
<title>Node18</title>
<g id="a_node18"><a xlink:title=" ">
<polygon fill="white" stroke="#bfbfbf" points="122,-6 122,-25 178,-25 178,-6 122,-6"/>
<text text-anchor="middle" x="150" y="-13" font-family="Helvetica,sans-Serif" font-size="10.00">iomanip</text>
</a>
</g>
</g>
<!-- Node6&#45;&gt;Node18 -->
<g id="edge18" class="edge">
<title>Node6&#45;&gt;Node18</title>
<path fill="none" stroke="midnightblue" d="M1019.88,-67.91C1016.88,-67.57 1013.91,-67.27 1011,-67 645.97,-33.44 545.63,-106.91 187,-31 183.99,-30.36 180.91,-29.51 177.87,-28.53"/>
<polygon fill="midnightblue" stroke="midnightblue" points="179.05,-25.24 168.45,-25.11 176.66,-31.81 179.05,-25.24"/>
</g>
<!-- Node19 -->
<g id="node19" class="node">
<title>Node19</title>
<g id="a_node19"><a xlink:title=" ">
<polygon fill="white" stroke="#bfbfbf" points="196.5,-6 196.5,-25 323.5,-25 323.5,-6 196.5,-6"/>
<text text-anchor="middle" x="260" y="-13" font-family="Helvetica,sans-Serif" font-size="10.00">libcamera/base/span.h</text>
</a>
</g>
</g>
<!-- Node6&#45;&gt;Node19 -->
<g id="edge19" class="edge">
<title>Node6&#45;&gt;Node19</title>
<path fill="none" stroke="midnightblue" d="M1019.88,-67.94C1016.88,-67.6 1013.9,-67.28 1011,-67 710.64,-37.96 632.42,-68.49 333,-31 324.8,-29.97 316.13,-28.55 307.75,-27"/>
<polygon fill="midnightblue" stroke="midnightblue" points="308.2,-23.52 297.72,-25.06 306.87,-30.4 308.2,-23.52"/>
</g>
<!-- Node20 -->
<g id="node20" class="node">
<title>Node20</title>
<g id="a_node20"><a xlink:title=" ">
<polygon fill="white" stroke="#bfbfbf" points="1496,-6 1496,-25 1610,-25 1610,-6 1496,-6"/>
<text text-anchor="middle" x="1553" y="-13" font-family="Helvetica,sans-Serif" font-size="10.00">libcamera/camera.h</text>
</a>
</g>
</g>
<!-- Node6&#45;&gt;Node20 -->
<g id="edge20" class="edge">
<title>Node6&#45;&gt;Node20</title>
<path fill="none" stroke="midnightblue" d="M1130.23,-71.87C1209.53,-65.5 1360.08,-51.81 1487,-31 1493.69,-29.9 1500.72,-28.56 1507.6,-27.14"/>
<polygon fill="midnightblue" stroke="midnightblue" points="1508.46,-30.54 1517.51,-25.03 1507,-23.69 1508.46,-30.54"/>
</g>
<!-- Node21 -->
<g id="node21" class="node">
<title>Node21</title>
<g id="a_node21"><a xlink:title=" ">
<polygon fill="white" stroke="#bfbfbf" points="1628,-6 1628,-25 1790,-25 1790,-6 1628,-6"/>
<text text-anchor="middle" x="1709" y="-13" font-family="Helvetica,sans-Serif" font-size="10.00">libcamera/camera_manager.h</text>
</a>
</g>
</g>
<!-- Node6&#45;&gt;Node21 -->
<g id="edge21" class="edge">
<title>Node6&#45;&gt;Node21</title>
<path fill="none" stroke="midnightblue" d="M1130.36,-72.84C1228.86,-66.89 1440.97,-52.67 1619,-31 1629.24,-29.75 1640.1,-28.2 1650.6,-26.58"/>
<polygon fill="midnightblue" stroke="midnightblue" points="1651.19,-30.03 1660.52,-25.01 1650.1,-23.12 1651.19,-30.03"/>
</g>
<!-- Node22 -->
<g id="node22" class="node">
<title>Node22</title>
<g id="a_node22"><a xlink:title=" ">
<polygon fill="white" stroke="#bfbfbf" points="1808.5,-6 1808.5,-25 1939.5,-25 1939.5,-6 1808.5,-6"/>
<text text-anchor="middle" x="1874" y="-13" font-family="Helvetica,sans-Serif" font-size="10.00">libcamera/control_ids.h</text>
</a>
</g>
</g>
<!-- Node6&#45;&gt;Node22 -->
<g id="edge22" class="edge">
<title>Node6&#45;&gt;Node22</title>
<path fill="none" stroke="midnightblue" d="M1130.18,-74.99C1251.56,-72.25 1550.7,-62.59 1799,-31 1807.42,-29.93 1816.31,-28.49 1824.91,-26.93"/>
<polygon fill="midnightblue" stroke="midnightblue" points="1825.66,-30.35 1834.84,-25.06 1824.36,-23.47 1825.66,-30.35"/>
</g>
<!-- Node23 -->
<g id="node23" class="node">
<title>Node23</title>
<g id="a_node23"><a xlink:title=" ">
<polygon fill="white" stroke="#bfbfbf" points="342,-6 342,-25 458,-25 458,-6 342,-6"/>
<text text-anchor="middle" x="400" y="-13" font-family="Helvetica,sans-Serif" font-size="10.00">libcamera/controls.h</text>
</a>
</g>
</g>
<!-- Node6&#45;&gt;Node23 -->
<g id="edge23" class="edge">
<title>Node6&#45;&gt;Node23</title>
<path fill="none" stroke="midnightblue" d="M1019.87,-67.99C1016.87,-67.63 1013.9,-67.3 1011,-67 769.97,-42.11 706.95,-64.72 467,-31 459.71,-29.98 452.03,-28.6 444.57,-27.1"/>
<polygon fill="midnightblue" stroke="midnightblue" points="445.11,-23.64 434.6,-25 443.67,-30.49 445.11,-23.64"/>
</g>
<!-- Node24 -->
<g id="node24" class="node">
<title>Node24</title>
<g id="a_node24"><a xlink:title=" ">
<polygon fill="white" stroke="#bfbfbf" points="476,-6 476,-25 592,-25 592,-6 476,-6"/>
<text text-anchor="middle" x="534" y="-13" font-family="Helvetica,sans-Serif" font-size="10.00">libcamera/formats.h</text>
</a>
</g>
</g>
<!-- Node6&#45;&gt;Node24 -->
<g id="edge24" class="edge">
<title>Node6&#45;&gt;Node24</title>
<path fill="none" stroke="midnightblue" d="M1019.87,-68.06C1016.87,-67.69 1013.9,-67.33 1011,-67 829.26,-46.26 781.86,-58.4 601,-31 594.04,-29.95 586.73,-28.61 579.59,-27.17"/>
<polygon fill="midnightblue" stroke="midnightblue" points="579.82,-23.64 569.31,-25.01 578.38,-30.49 579.82,-23.64"/>
</g>
<!-- Node25 -->
<g id="node25" class="node">
<title>Node25</title>
<g id="a_node25"><a xlink:title=" ">
<polygon fill="white" stroke="#bfbfbf" points="610,-0.5 610,-30.5 736,-30.5 736,-0.5 610,-0.5"/>
<text text-anchor="start" x="618" y="-18.5" font-family="Helvetica,sans-Serif" font-size="10.00">libcamera/framebuffer</text>
<text text-anchor="middle" x="673" y="-7.5" font-family="Helvetica,sans-Serif" font-size="10.00">_allocator.h</text>
</a>
</g>
</g>
<!-- Node6&#45;&gt;Node25 -->
<g id="edge25" class="edge">
<title>Node6&#45;&gt;Node25</title>
<path fill="none" stroke="midnightblue" d="M1019.84,-68.23C1016.85,-67.81 1013.89,-67.4 1011,-67 896.05,-51.14 864.36,-50.79 746.34,-31.16"/>
<polygon fill="midnightblue" stroke="midnightblue" points="746.61,-27.66 736.17,-29.46 745.46,-34.56 746.61,-27.66"/>
</g>
<!-- Node26 -->
<g id="node26" class="node">
<title>Node26</title>
<g id="a_node26"><a xlink:title=" ">
<polygon fill="white" stroke="#bfbfbf" points="1958,-0.5 1958,-30.5 2068,-30.5 2068,-0.5 1958,-0.5"/>
<text text-anchor="start" x="1966" y="-18.5" font-family="Helvetica,sans-Serif" font-size="10.00">libcamera/property</text>
<text text-anchor="middle" x="2013" y="-7.5" font-family="Helvetica,sans-Serif" font-size="10.00">_ids.h</text>
</a>
</g>
</g>
<!-- Node6&#45;&gt;Node26 -->
<g id="edge26" class="edge">
<title>Node6&#45;&gt;Node26</title>
<path fill="none" stroke="midnightblue" d="M1130.02,-76.43C1266.87,-76.79 1633.59,-73.49 1947.74,-31"/>
<polygon fill="midnightblue" stroke="midnightblue" points="1948.52,-34.43 1957.95,-29.6 1947.57,-27.49 1948.52,-34.43"/>
</g>
<!-- Node27&#45;&gt;Node9 -->
<g id="edge29" class="edge">
<title>Node27&#45;&gt;Node9</title>
<path fill="none" stroke="midnightblue" d="M1715.48,-69.25C1653.44,-62.66 1563.61,-50.68 1487,-31 1484.18,-30.28 1481.28,-29.42 1478.4,-28.49"/>
<polygon fill="midnightblue" stroke="midnightblue" points="1479.39,-25.13 1468.79,-25.15 1477.08,-31.74 1479.39,-25.13"/>
</g>
<!-- Node27&#45;&gt;Node20 -->
<g id="edge30" class="edge">
<title>Node27&#45;&gt;Node20</title>
<path fill="none" stroke="midnightblue" d="M1756.9,-67.48C1714.75,-56.94 1642.95,-38.99 1596.77,-27.44"/>
<polygon fill="midnightblue" stroke="midnightblue" points="1597.59,-24.04 1587.04,-25.01 1595.89,-30.83 1597.59,-24.04"/>
</g>
<!-- Node27&#45;&gt;Node21 -->
<g id="edge31" class="edge">
<title>Node27&#45;&gt;Node21</title>
<path fill="none" stroke="midnightblue" d="M1779.25,-67.48C1766.22,-58.02 1744.96,-42.6 1729.24,-31.19"/>
<polygon fill="midnightblue" stroke="midnightblue" points="1730.88,-28.05 1720.73,-25.01 1726.77,-33.71 1730.88,-28.05"/>
</g>
<!-- Node27&#45;&gt;Node22 -->
<g id="edge32" class="edge">
<title>Node27&#45;&gt;Node22</title>
<path fill="none" stroke="midnightblue" d="M1802.89,-67.48C1816.2,-57.93 1838,-42.31 1853.96,-30.87"/>
<polygon fill="midnightblue" stroke="midnightblue" points="1856.04,-33.68 1862.13,-25.01 1851.96,-27.99 1856.04,-33.68"/>
</g>
<!-- Node27&#45;&gt;Node26 -->
<g id="edge33" class="edge">
<title>Node27&#45;&gt;Node26</title>
<path fill="none" stroke="midnightblue" d="M1822.81,-67.48C1856.11,-58.55 1909.24,-44.31 1950.9,-33.14"/>
<polygon fill="midnightblue" stroke="midnightblue" points="1951.93,-36.49 1960.68,-30.52 1950.11,-29.73 1951.93,-36.49"/>
</g>
<!-- Node28 -->
<g id="node28" class="node">
<title>Node28</title>
<g id="a_node28"><a xlink:title=" ">
<polygon fill="white" stroke="#bfbfbf" points="2229.5,-6 2229.5,-25 2284.5,-25 2284.5,-6 2229.5,-6"/>
<text text-anchor="middle" x="2257" y="-13" font-family="Helvetica,sans-Serif" font-size="10.00">fstream</text>
</a>
</g>
</g>
<!-- Node27&#45;&gt;Node28 -->
<g id="edge28" class="edge">
<title>Node27&#45;&gt;Node28</title>
<path fill="none" stroke="midnightblue" d="M1866.67,-74.43C1953.43,-71.17 2099.35,-61.23 2221,-31 2223.67,-30.34 2226.4,-29.52 2229.1,-28.61"/>
<polygon fill="midnightblue" stroke="midnightblue" points="2230.5,-31.82 2238.64,-25.04 2228.05,-25.27 2230.5,-31.82"/>
</g>
<!-- Node29 -->
<g id="node29" class="node">
<title>Node29</title>
<g id="a_node29"><a xlink:title=" ">
<polygon fill="white" stroke="#bfbfbf" points="2086.5,-6 2086.5,-25 2211.5,-25 2211.5,-6 2086.5,-6"/>
<text text-anchor="middle" x="2149" y="-13" font-family="Helvetica,sans-Serif" font-size="10.00">libcamera/transform.h</text>
</a>
</g>
</g>
<!-- Node27&#45;&gt;Node29 -->
<g id="edge34" class="edge">
<title>Node27&#45;&gt;Node29</title>
<path fill="none" stroke="midnightblue" d="M1850.01,-67.47C1907.92,-58.92 1998.71,-45.04 2077,-31 2083.83,-29.78 2091.01,-28.42 2098.08,-27.03"/>
<polygon fill="midnightblue" stroke="midnightblue" points="2099.19,-30.38 2108.31,-25.01 2097.83,-23.52 2099.19,-30.38"/>
</g>
</g>
</svg>
        <g id="navigator" transform="translate(0 0)" fill="#404254">
                <rect fill="#f2f5e9" fill-opacity="0.5" stroke="#606060" stroke-width=".5" x="0" y="0" width="60" height="60"/>
                <use id="zoomplus" xlink:href="#zoomPlus" x="17" y="9" onmousedown="handleZoom(evt,'in')"/>
                <use id="zoomminus" xlink:href="#zoomMin" x="42" y="9" onmousedown="handleZoom(evt,'out')"/>
                <use id="reset" xlink:href="#resetDef" x="30" y="36" onmousedown="handleReset()"/>
                <g id="arrowUp" xlink:href="#dirArrow" transform="translate(30 24)" onmousedown="handlePan(0,-1)">
                  <use xlink:href="#rim" fill="#404040">
                        <set attributeName="fill" to="#808080" begin="arrowUp.mouseover" end="arrowUp.mouseout"/>
                  </use>
                  <path fill="none" stroke="white" stroke-width="1.5" d="M0,-3.0v7 M-2.5,-0.5L0,-3.0L2.5,-0.5"/>
                </g>
                <g id="arrowRight" xlink:href="#dirArrow" transform="rotate(90) translate(36 -43)" onmousedown="handlePan(1,0)">
                  <use xlink:href="#rim" fill="#404040">
                        <set attributeName="fill" to="#808080" begin="arrowRight.mouseover" end="arrowRight.mouseout"/>
                  </use>
                  <path fill="none" stroke="white" stroke-width="1.5" d="M0,-3.0v7 M-2.5,-0.5L0,-3.0L2.5,-0.5"/>
                </g>
                <g id="arrowDown" xlink:href="#dirArrow" transform="rotate(180) translate(-30 -48)" onmousedown="handlePan(0,1)">
                  <use xlink:href="#rim" fill="#404040">
                        <set attributeName="fill" to="#808080" begin="arrowDown.mouseover" end="arrowDown.mouseout"/>
                  </use>
                  <path fill="none" stroke="white" stroke-width="1.5" d="M0,-3.0v7 M-2.5,-0.5L0,-3.0L2.5,-0.5"/>
                </g>
                <g id="arrowLeft" xlink:href="#dirArrow" transform="rotate(270) translate(-36 17)" onmousedown="handlePan(-1,0)">
                  <use xlink:href="#rim" fill="#404040">
                        <set attributeName="fill" to="#808080" begin="arrowLeft.mouseover" end="arrowLeft.mouseout"/>
                  </use>
                  <path fill="none" stroke="white" stroke-width="1.5" d="M0,-3.0v7 M-2.5,-0.5L0,-3.0L2.5,-0.5"/>
                </g>
        </g>
        <svg viewBox="0 0 15 15" width="100%" height="30px" preserveAspectRatio="xMaxYMin meet">
         <g id="arrow_out" transform="scale(0.3 0.3)">
          <a xlink:href="lccv_8hpp__incl_org.svg" target="_base">
           <rect id="button" ry="5" rx="5" y="6" x="6" height="38" width="38"
                fill="#f2f5e9" fill-opacity="0.5" stroke="#606060" stroke-width="1.0"/>
           <path id="arrow"
             d="M 11.500037,31.436501 C 11.940474,20.09759 22.043105,11.32322 32.158766,21.979434 L 37.068811,17.246167 C 37.068811,17.246167 37.088388,32 37.088388,32 L 22.160133,31.978069 C 22.160133,31.978069 26.997745,27.140456 26.997745,27.140456 C 18.528582,18.264221 13.291696,25.230495 11.500037,31.436501 z"
             style="fill:#404040;"/>
          </a>
         </g>
        </svg>
</svg>
