<?xml version="1.0" encoding="UTF-8" standalone="no"?>
<!DOCTYPE svg PUBLIC "-//W3C//DTD SVG 1.1//EN"
 "http://www.w3.org/Graphics/SVG/1.1/DTD/svg11.dtd">
<!-- Generated by graphviz version 2.43.0 (0)
 -->
<!-- Title: LCCV/include/libcamera_app_options.hpp Pages: 1 -->
<svg width="875pt" height="106pt"
 viewBox="0.00 0.00 875.00 106.00" xmlns="http://www.w3.org/2000/svg" xmlns:xlink="http://www.w3.org/1999/xlink">
<g id="graph0" class="graph" transform="scale(1 1) rotate(0) translate(4 102)">
<title>LCCV/include/libcamera_app_options.hpp</title>
<polygon fill="white" stroke="transparent" points="-4,4 -4,-102 871,-102 871,4 -4,4"/>
<!-- Node1 -->
<g id="node1" class="node">
<title>Node1</title>
<g id="a_node1"><a xlink:title=" ">
<polygon fill="#bfbfbf" stroke="black" points="298.5,-67.5 298.5,-97.5 430.5,-97.5 430.5,-67.5 298.5,-67.5"/>
<text text-anchor="start" x="306.5" y="-85.5" font-family="Helvetica,sans-Serif" font-size="10.00">LCCV/include/libcamera</text>
<text text-anchor="middle" x="364.5" y="-74.5" font-family="Helvetica,sans-Serif" font-size="10.00">_app_options.hpp</text>
</a>
</g>
</g>
<!-- Node2 -->
<g id="node2" class="node">
<title>Node2</title>
<g id="a_node2"><a xlink:title=" ">
<polygon fill="white" stroke="#bfbfbf" points="0,-6 0,-25 55,-25 55,-6 0,-6"/>
<text text-anchor="middle" x="27.5" y="-13" font-family="Helvetica,sans-Serif" font-size="10.00">fstream</text>
</a>
</g>
</g>
<!-- Node1&#45;&gt;Node2 -->
<g id="edge1" class="edge">
<title>Node1&#45;&gt;Node2</title>
<path fill="none" stroke="midnightblue" d="M298.4,-74.36C237.03,-66.8 143.52,-52.88 64.5,-31 61.91,-30.28 59.25,-29.45 56.6,-28.55"/>
<polygon fill="midnightblue" stroke="midnightblue" points="57.81,-25.26 47.21,-25.1 55.39,-31.83 57.81,-25.26"/>
</g>
<!-- Node3 -->
<g id="node3" class="node">
<title>Node3</title>
<g id="a_node3"><a xlink:title=" ">
<polygon fill="white" stroke="#bfbfbf" points="73.5,-6 73.5,-25 133.5,-25 133.5,-6 73.5,-6"/>
<text text-anchor="middle" x="103.5" y="-13" font-family="Helvetica,sans-Serif" font-size="10.00">iostream</text>
</a>
</g>
</g>
<!-- Node1&#45;&gt;Node3 -->
<g id="edge2" class="edge">
<title>Node1&#45;&gt;Node3</title>
<path fill="none" stroke="midnightblue" d="M298.34,-68.84C253.89,-59.75 194.2,-46.42 142.5,-31 139.93,-30.23 137.28,-29.38 134.63,-28.49"/>
<polygon fill="midnightblue" stroke="midnightblue" points="135.79,-25.19 125.19,-25.14 133.45,-31.78 135.79,-25.19"/>
</g>
<!-- Node4 -->
<g id="node4" class="node">
<title>Node4</title>
<g id="a_node4"><a xlink:title=" ">
<polygon fill="white" stroke="#bfbfbf" points="151.5,-6 151.5,-25 265.5,-25 265.5,-6 151.5,-6"/>
<text text-anchor="middle" x="208.5" y="-13" font-family="Helvetica,sans-Serif" font-size="10.00">libcamera/camera.h</text>
</a>
</g>
</g>
<!-- Node1&#45;&gt;Node4 -->
<g id="edge3" class="edge">
<title>Node1&#45;&gt;Node4</title>
<path fill="none" stroke="midnightblue" d="M330.65,-67.4C303.16,-55.94 264.75,-39.94 238.39,-28.95"/>
<polygon fill="midnightblue" stroke="midnightblue" points="239.49,-25.62 228.92,-25.01 236.8,-32.08 239.49,-25.62"/>
</g>
<!-- Node5 -->
<g id="node5" class="node">
<title>Node5</title>
<g id="a_node5"><a xlink:title=" ">
<polygon fill="white" stroke="#bfbfbf" points="283.5,-6 283.5,-25 445.5,-25 445.5,-6 283.5,-6"/>
<text text-anchor="middle" x="364.5" y="-13" font-family="Helvetica,sans-Serif" font-size="10.00">libcamera/camera_manager.h</text>
</a>
</g>
</g>
<!-- Node1&#45;&gt;Node5 -->
<g id="edge4" class="edge">
<title>Node1&#45;&gt;Node5</title>
<path fill="none" stroke="midnightblue" d="M364.5,-67.4C364.5,-58.06 364.5,-45.71 364.5,-35.52"/>
<polygon fill="midnightblue" stroke="midnightblue" points="368,-35.19 364.5,-25.19 361,-35.19 368,-35.19"/>
</g>
<!-- Node6 -->
<g id="node6" class="node">
<title>Node6</title>
<g id="a_node6"><a xlink:title=" ">
<polygon fill="white" stroke="#bfbfbf" points="464,-6 464,-25 595,-25 595,-6 464,-6"/>
<text text-anchor="middle" x="529.5" y="-13" font-family="Helvetica,sans-Serif" font-size="10.00">libcamera/control_ids.h</text>
</a>
</g>
</g>
<!-- Node1&#45;&gt;Node6 -->
<g id="edge5" class="edge">
<title>Node1&#45;&gt;Node6</title>
<path fill="none" stroke="midnightblue" d="M400.3,-67.4C429.51,-55.89 470.36,-39.8 498.26,-28.81"/>
<polygon fill="midnightblue" stroke="midnightblue" points="499.88,-31.93 507.91,-25.01 497.32,-25.42 499.88,-31.93"/>
</g>
<!-- Node7 -->
<g id="node7" class="node">
<title>Node7</title>
<g id="a_node7"><a xlink:title=" ">
<polygon fill="white" stroke="#bfbfbf" points="613.5,-0.5 613.5,-30.5 723.5,-30.5 723.5,-0.5 613.5,-0.5"/>
<text text-anchor="start" x="621.5" y="-18.5" font-family="Helvetica,sans-Serif" font-size="10.00">libcamera/property</text>
<text text-anchor="middle" x="668.5" y="-7.5" font-family="Helvetica,sans-Serif" font-size="10.00">_ids.h</text>
</a>
</g>
</g>
<!-- Node1&#45;&gt;Node7 -->
<g id="edge6" class="edge">
<title>Node1&#45;&gt;Node7</title>
<path fill="none" stroke="midnightblue" d="M430.52,-67.89C476.4,-58.37 539.25,-45.2 603.46,-31.21"/>
<polygon fill="midnightblue" stroke="midnightblue" points="604.33,-34.6 613.35,-29.05 602.84,-27.76 604.33,-34.6"/>
</g>
<!-- Node8 -->
<g id="node8" class="node">
<title>Node8</title>
<g id="a_node8"><a xlink:title=" ">
<polygon fill="white" stroke="#bfbfbf" points="742,-6 742,-25 867,-25 867,-6 742,-6"/>
<text text-anchor="middle" x="804.5" y="-13" font-family="Helvetica,sans-Serif" font-size="10.00">libcamera/transform.h</text>
</a>
</g>
</g>
<!-- Node1&#45;&gt;Node8 -->
<g id="edge7" class="edge">
<title>Node1&#45;&gt;Node8</title>
<path fill="none" stroke="midnightblue" d="M430.5,-73.7C504.29,-64.69 627.27,-48.8 732.5,-31 739.59,-29.8 747.05,-28.43 754.37,-27.01"/>
<polygon fill="midnightblue" stroke="midnightblue" points="755.08,-30.44 764.22,-25.07 753.73,-23.57 755.08,-30.44"/>
</g>
</g>
</svg>
