<?xml version="1.0" encoding="UTF-8" standalone="no"?>
<!DOCTYPE svg PUBLIC "-//W3C//DTD SVG 1.1//EN"
 "http://www.w3.org/Graphics/SVG/1.1/DTD/svg11.dtd">
<!-- Generated by graphviz version 2.43.0 (0)
 -->
<!-- Title: LCCV/src/libcamera_app_options.cpp Pages: 1 -->
<svg width="875pt" height="162pt"
 viewBox="0.00 0.00 875.00 162.00" xmlns="http://www.w3.org/2000/svg" xmlns:xlink="http://www.w3.org/1999/xlink">
<g id="graph0" class="graph" transform="scale(1 1) rotate(0) translate(4 158)">
<title>LCCV/src/libcamera_app_options.cpp</title>
<polygon fill="white" stroke="transparent" points="-4,4 -4,-158 871,-158 871,4 -4,4"/>
<!-- Node1 -->
<g id="node1" class="node">
<title>Node1</title>
<g id="a_node1"><a xlink:title=" ">
<polygon fill="#bfbfbf" stroke="black" points="309,-123.5 309,-153.5 420,-153.5 420,-123.5 309,-123.5"/>
<text text-anchor="start" x="317" y="-141.5" font-family="Helvetica,sans-Serif" font-size="10.00">LCCV/src/libcamera</text>
<text text-anchor="middle" x="364.5" y="-130.5" font-family="Helvetica,sans-Serif" font-size="10.00">_app_options.cpp</text>
</a>
</g>
</g>
<!-- Node2 -->
<g id="node2" class="node">
<title>Node2</title>
<g id="a_node2"><a xlink:href="libcamera__app__options_8hpp.html" target="_top" xlink:title=" ">
<polygon fill="white" stroke="black" points="289,-67.5 289,-86.5 440,-86.5 440,-67.5 289,-67.5"/>
<text text-anchor="middle" x="364.5" y="-74.5" font-family="Helvetica,sans-Serif" font-size="10.00">libcamera_app_options.hpp</text>
</a>
</g>
</g>
<!-- Node1&#45;&gt;Node2 -->
<g id="edge1" class="edge">
<title>Node1&#45;&gt;Node2</title>
<path fill="none" stroke="midnightblue" d="M364.5,-123.4C364.5,-115.47 364.5,-105.46 364.5,-96.86"/>
<polygon fill="midnightblue" stroke="midnightblue" points="368,-96.66 364.5,-86.66 361,-96.66 368,-96.66"/>
</g>
<!-- Node3 -->
<g id="node3" class="node">
<title>Node3</title>
<g id="a_node3"><a xlink:title=" ">
<polygon fill="white" stroke="#bfbfbf" points="0,-6 0,-25 55,-25 55,-6 0,-6"/>
<text text-anchor="middle" x="27.5" y="-13" font-family="Helvetica,sans-Serif" font-size="10.00">fstream</text>
</a>
</g>
</g>
<!-- Node2&#45;&gt;Node3 -->
<g id="edge2" class="edge">
<title>Node2&#45;&gt;Node3</title>
<path fill="none" stroke="midnightblue" d="M288.95,-69.41C227.71,-62.94 139.55,-51.06 64.5,-31 61.84,-30.29 59.11,-29.45 56.4,-28.54"/>
<polygon fill="midnightblue" stroke="midnightblue" points="57.41,-25.17 46.81,-25.01 54.99,-31.75 57.41,-25.17"/>
</g>
<!-- Node4 -->
<g id="node4" class="node">
<title>Node4</title>
<g id="a_node4"><a xlink:title=" ">
<polygon fill="white" stroke="#bfbfbf" points="73.5,-6 73.5,-25 133.5,-25 133.5,-6 73.5,-6"/>
<text text-anchor="middle" x="103.5" y="-13" font-family="Helvetica,sans-Serif" font-size="10.00">iostream</text>
</a>
</g>
</g>
<!-- Node2&#45;&gt;Node4 -->
<g id="edge3" class="edge">
<title>Node2&#45;&gt;Node4</title>
<path fill="none" stroke="midnightblue" d="M310.56,-67.49C265.25,-59.77 199.03,-47.13 142.5,-31 139.86,-30.25 137.14,-29.39 134.42,-28.49"/>
<polygon fill="midnightblue" stroke="midnightblue" points="135.35,-25.11 124.76,-25.09 133.02,-31.71 135.35,-25.11"/>
</g>
<!-- Node5 -->
<g id="node5" class="node">
<title>Node5</title>
<g id="a_node5"><a xlink:title=" ">
<polygon fill="white" stroke="#bfbfbf" points="151.5,-6 151.5,-25 265.5,-25 265.5,-6 151.5,-6"/>
<text text-anchor="middle" x="208.5" y="-13" font-family="Helvetica,sans-Serif" font-size="10.00">libcamera/camera.h</text>
</a>
</g>
</g>
<!-- Node2&#45;&gt;Node5 -->
<g id="edge4" class="edge">
<title>Node2&#45;&gt;Node5</title>
<path fill="none" stroke="midnightblue" d="M342.15,-67.48C315.51,-57.31 270.79,-40.26 240.49,-28.7"/>
<polygon fill="midnightblue" stroke="midnightblue" points="241.4,-25.3 230.81,-25.01 238.91,-31.84 241.4,-25.3"/>
</g>
<!-- Node6 -->
<g id="node6" class="node">
<title>Node6</title>
<g id="a_node6"><a xlink:title=" ">
<polygon fill="white" stroke="#bfbfbf" points="283.5,-6 283.5,-25 445.5,-25 445.5,-6 283.5,-6"/>
<text text-anchor="middle" x="364.5" y="-13" font-family="Helvetica,sans-Serif" font-size="10.00">libcamera/camera_manager.h</text>
</a>
</g>
</g>
<!-- Node2&#45;&gt;Node6 -->
<g id="edge5" class="edge">
<title>Node2&#45;&gt;Node6</title>
<path fill="none" stroke="midnightblue" d="M364.5,-67.48C364.5,-59.08 364.5,-45.98 364.5,-35.16"/>
<polygon fill="midnightblue" stroke="midnightblue" points="368,-35.01 364.5,-25.01 361,-35.01 368,-35.01"/>
</g>
<!-- Node7 -->
<g id="node7" class="node">
<title>Node7</title>
<g id="a_node7"><a xlink:title=" ">
<polygon fill="white" stroke="#bfbfbf" points="464,-6 464,-25 595,-25 595,-6 464,-6"/>
<text text-anchor="middle" x="529.5" y="-13" font-family="Helvetica,sans-Serif" font-size="10.00">libcamera/control_ids.h</text>
</a>
</g>
</g>
<!-- Node2&#45;&gt;Node7 -->
<g id="edge6" class="edge">
<title>Node2&#45;&gt;Node7</title>
<path fill="none" stroke="midnightblue" d="M388.14,-67.48C416.44,-57.27 464.03,-40.11 496.09,-28.55"/>
<polygon fill="midnightblue" stroke="midnightblue" points="497.68,-31.69 505.9,-25.01 495.31,-25.11 497.68,-31.69"/>
</g>
<!-- Node8 -->
<g id="node8" class="node">
<title>Node8</title>
<g id="a_node8"><a xlink:title=" ">
<polygon fill="white" stroke="#bfbfbf" points="613.5,-0.5 613.5,-30.5 723.5,-30.5 723.5,-0.5 613.5,-0.5"/>
<text text-anchor="start" x="621.5" y="-18.5" font-family="Helvetica,sans-Serif" font-size="10.00">libcamera/property</text>
<text text-anchor="middle" x="668.5" y="-7.5" font-family="Helvetica,sans-Serif" font-size="10.00">_ids.h</text>
</a>
</g>
</g>
<!-- Node2&#45;&gt;Node8 -->
<g id="edge7" class="edge">
<title>Node2&#45;&gt;Node8</title>
<path fill="none" stroke="midnightblue" d="M412.87,-67.48C459.24,-59.19 531.44,-45.96 603.24,-31.22"/>
<polygon fill="midnightblue" stroke="midnightblue" points="604.28,-34.58 613.37,-29.13 602.87,-27.72 604.28,-34.58"/>
</g>
<!-- Node9 -->
<g id="node9" class="node">
<title>Node9</title>
<g id="a_node9"><a xlink:title=" ">
<polygon fill="white" stroke="#bfbfbf" points="742,-6 742,-25 867,-25 867,-6 742,-6"/>
<text text-anchor="middle" x="804.5" y="-13" font-family="Helvetica,sans-Serif" font-size="10.00">libcamera/transform.h</text>
</a>
</g>
</g>
<!-- Node2&#45;&gt;Node9 -->
<g id="edge8" class="edge">
<title>Node2&#45;&gt;Node9</title>
<path fill="none" stroke="midnightblue" d="M440.15,-68.47C514.72,-60.65 631.79,-47.27 732.5,-31 739.85,-29.81 747.6,-28.41 755.17,-26.96"/>
<polygon fill="midnightblue" stroke="midnightblue" points="755.85,-30.39 764.99,-25.03 754.5,-23.52 755.85,-30.39"/>
</g>
</g>
</svg>
