<?xml version="1.0" encoding="UTF-8" standalone="no"?>
<!DOCTYPE svg PUBLIC "-//W3C//DTD SVG 1.1//EN"
 "http://www.w3.org/Graphics/SVG/1.1/DTD/svg11.dtd">
<!-- Generated by graphviz version 2.43.0 (0)
 -->
<!-- Title: LCCV/include/libcamera_app.hpp Pages: 1 -->
<!--zoomable 106 -->
<svg id="main" version="1.1" xmlns="http://www.w3.org/2000/svg" xmlns:xlink="http://www.w3.org/1999/xlink" xml:space="preserve" onload="init(evt)">
<style type="text/css"><![CDATA[
.edge:hover path { stroke: red; }
.edge:hover polygon { stroke: red; fill: red; }
]]></style>
<script type="text/javascript"><![CDATA[
var edges = document.getElementsByTagName('g');
if (edges && edges.length) {
  for (var i=0;i<edges.length;i++) {
    if (edges[i].id.substr(0,4)=='edge') {
      edges[i].setAttribute('class','edge');
    }
  }
}
]]></script>
        <defs>
                <circle id="rim" cx="0" cy="0" r="7"/>
                <circle id="rim2" cx="0" cy="0" r="3.5"/>
                <g id="zoomPlus">
                        <use xlink:href="#rim" fill="#404040">
                                <set attributeName="fill" to="#808080" begin="zoomplus.mouseover" end="zoomplus.mouseout"/>
                        </use>
                        <path d="M-4,0h8M0,-4v8" fill="none" stroke="white" stroke-width="1.5" pointer-events="none"/>
                </g>
                <g id="zoomMin">
                        <use xlink:href="#rim" fill="#404040">
                                <set attributeName="fill" to="#808080" begin="zoomminus.mouseover" end="zoomminus.mouseout"/>
                        </use>
                        <path d="M-4,0h8" fill="none" stroke="white" stroke-width="1.5" pointer-events="none"/>
                </g>
                <g id="dirArrow">
                        <path fill="none" stroke="white" stroke-width="1.5" d="M0,-3.0v7 M-2.5,-0.5L0,-3.0L2.5,-0.5"/>
                </g>
               <g id="resetDef">
                       <use xlink:href="#rim2" fill="#404040">
                               <set attributeName="fill" to="#808080" begin="reset.mouseover" end="reset.mouseout"/>
                       </use>
               </g>
        </defs>

<script type="text/javascript">
var viewWidth = 2076;
var viewHeight = 106;
var sectionId = 'dynsection-0';
</script>
<script xlink:href="svgpan.js"/>
<svg id="graph" class="graph">
<g id="viewport">
<title>LCCV/include/libcamera_app.hpp</title>
<polygon fill="white" stroke="transparent" points="-4,4 -4,-102 2071.5,-102 2071.5,4 -4,4"/>
<!-- Node1 -->
<g id="node1" class="node">
<title>Node1</title>
<g id="a_node1"><a xlink:title=" ">
<polygon fill="#bfbfbf" stroke="black" points="705.5,-67.5 705.5,-97.5 837.5,-97.5 837.5,-67.5 705.5,-67.5"/>
<text text-anchor="start" x="713.5" y="-85.5" font-family="Helvetica,sans-Serif" font-size="10.00">LCCV/include/libcamera</text>
<text text-anchor="middle" x="771.5" y="-74.5" font-family="Helvetica,sans-Serif" font-size="10.00">_app.hpp</text>
</a>
</g>
</g>
<!-- Node2 -->
<g id="node2" class="node">
<title>Node2</title>
<g id="a_node2"><a xlink:title=" ">
<polygon fill="white" stroke="#bfbfbf" points="0,-6 0,-25 77,-25 77,-6 0,-6"/>
<text text-anchor="middle" x="38.5" y="-13" font-family="Helvetica,sans-Serif" font-size="10.00">sys/mman.h</text>
</a>
</g>
</g>
<!-- Node1&#45;&gt;Node2 -->
<g id="edge1" class="edge">
<title>Node1&#45;&gt;Node2</title>
<path fill="none" stroke="midnightblue" d="M705.12,-81.56C581.9,-80.59 309.94,-73.32 85.5,-31 81.25,-30.2 76.85,-29.15 72.51,-27.98"/>
<polygon fill="midnightblue" stroke="midnightblue" points="73.21,-24.53 62.63,-25.09 71.25,-31.25 73.21,-24.53"/>
</g>
<!-- Node3 -->
<g id="node3" class="node">
<title>Node3</title>
<g id="a_node3"><a xlink:title=" ">
<polygon fill="white" stroke="#bfbfbf" points="95,-6 95,-25 202,-25 202,-6 95,-6"/>
<text text-anchor="middle" x="148.5" y="-13" font-family="Helvetica,sans-Serif" font-size="10.00">condition_variable</text>
</a>
</g>
</g>
<!-- Node1&#45;&gt;Node3 -->
<g id="edge2" class="edge">
<title>Node1&#45;&gt;Node3</title>
<path fill="none" stroke="midnightblue" d="M705.19,-78.45C600,-72.96 388.63,-59.24 211.5,-31 205.1,-29.98 198.38,-28.68 191.81,-27.28"/>
<polygon fill="midnightblue" stroke="midnightblue" points="192.21,-23.79 181.68,-25.03 190.68,-30.62 192.21,-23.79"/>
</g>
<!-- Node4 -->
<g id="node4" class="node">
<title>Node4</title>
<g id="a_node4"><a xlink:title=" ">
<polygon fill="white" stroke="#bfbfbf" points="220.5,-6 220.5,-25 280.5,-25 280.5,-6 220.5,-6"/>
<text text-anchor="middle" x="250.5" y="-13" font-family="Helvetica,sans-Serif" font-size="10.00">iostream</text>
</a>
</g>
</g>
<!-- Node1&#45;&gt;Node4 -->
<g id="edge3" class="edge">
<title>Node1&#45;&gt;Node4</title>
<path fill="none" stroke="midnightblue" d="M705.14,-79.81C611.38,-76.24 435.32,-65.17 289.5,-31 286.43,-30.28 283.28,-29.39 280.16,-28.4"/>
<polygon fill="midnightblue" stroke="midnightblue" points="281.04,-25 270.44,-25.01 278.74,-31.61 281.04,-25"/>
</g>
<!-- Node5 -->
<g id="node5" class="node">
<title>Node5</title>
<g id="a_node5"><a xlink:title=" ">
<polygon fill="white" stroke="#bfbfbf" points="298.5,-6 298.5,-25 356.5,-25 356.5,-6 298.5,-6"/>
<text text-anchor="middle" x="327.5" y="-13" font-family="Helvetica,sans-Serif" font-size="10.00">memory</text>
</a>
</g>
</g>
<!-- Node1&#45;&gt;Node5 -->
<g id="edge4" class="edge">
<title>Node1&#45;&gt;Node5</title>
<path fill="none" stroke="midnightblue" d="M705.21,-78.16C624.09,-72.95 483.01,-60.27 365.5,-31 362.67,-30.3 359.77,-29.44 356.89,-28.51"/>
<polygon fill="midnightblue" stroke="midnightblue" points="357.92,-25.16 347.33,-25.1 355.57,-31.75 357.92,-25.16"/>
</g>
<!-- Node6 -->
<g id="node6" class="node">
<title>Node6</title>
<g id="a_node6"><a xlink:title=" ">
<polygon fill="white" stroke="#bfbfbf" points="374.5,-6 374.5,-25 422.5,-25 422.5,-6 374.5,-6"/>
<text text-anchor="middle" x="398.5" y="-13" font-family="Helvetica,sans-Serif" font-size="10.00">mutex</text>
</a>
</g>
</g>
<!-- Node1&#45;&gt;Node6 -->
<g id="edge5" class="edge">
<title>Node1&#45;&gt;Node6</title>
<path fill="none" stroke="midnightblue" d="M705.21,-76.91C635.87,-70.89 524.39,-57.78 431.5,-31 429.35,-30.38 427.16,-29.65 424.98,-28.85"/>
<polygon fill="midnightblue" stroke="midnightblue" points="426.23,-25.59 415.65,-25.07 423.6,-32.07 426.23,-25.59"/>
</g>
<!-- Node7 -->
<g id="node7" class="node">
<title>Node7</title>
<g id="a_node7"><a xlink:title=" ">
<polygon fill="white" stroke="#bfbfbf" points="441,-6 441,-25 488,-25 488,-6 441,-6"/>
<text text-anchor="middle" x="464.5" y="-13" font-family="Helvetica,sans-Serif" font-size="10.00">queue</text>
</a>
</g>
</g>
<!-- Node1&#45;&gt;Node7 -->
<g id="edge6" class="edge">
<title>Node1&#45;&gt;Node7</title>
<path fill="none" stroke="midnightblue" d="M705.43,-73.7C649.28,-66.03 566.97,-52.35 497.5,-31 495.57,-30.41 493.6,-29.73 491.64,-29.01"/>
<polygon fill="midnightblue" stroke="midnightblue" points="492.61,-25.62 482.02,-25.1 489.97,-32.11 492.61,-25.62"/>
</g>
<!-- Node8 -->
<g id="node8" class="node">
<title>Node8</title>
<g id="a_node8"><a xlink:title=" ">
<polygon fill="white" stroke="#bfbfbf" points="506.5,-6 506.5,-25 538.5,-25 538.5,-6 506.5,-6"/>
<text text-anchor="middle" x="522.5" y="-13" font-family="Helvetica,sans-Serif" font-size="10.00">set</text>
</a>
</g>
</g>
<!-- Node1&#45;&gt;Node8 -->
<g id="edge7" class="edge">
<title>Node1&#45;&gt;Node8</title>
<path fill="none" stroke="midnightblue" d="M705.24,-72C659.81,-64.19 598.72,-51.08 547.5,-31 546.62,-30.66 545.74,-30.28 544.85,-29.89"/>
<polygon fill="midnightblue" stroke="midnightblue" points="546.11,-26.6 535.62,-25.11 542.89,-32.81 546.11,-26.6"/>
</g>
<!-- Node9 -->
<g id="node9" class="node">
<title>Node9</title>
<g id="a_node9"><a xlink:title=" ">
<polygon fill="white" stroke="#bfbfbf" points="556.5,-6 556.5,-25 600.5,-25 600.5,-6 556.5,-6"/>
<text text-anchor="middle" x="578.5" y="-13" font-family="Helvetica,sans-Serif" font-size="10.00">string</text>
</a>
</g>
</g>
<!-- Node1&#45;&gt;Node9 -->
<g id="edge8" class="edge">
<title>Node1&#45;&gt;Node9</title>
<path fill="none" stroke="midnightblue" d="M720.18,-67.43C688.01,-58.14 645.89,-45.11 609.5,-31 608.08,-30.45 606.63,-29.86 605.18,-29.26"/>
<polygon fill="midnightblue" stroke="midnightblue" points="606.26,-25.91 595.7,-25.05 603.42,-32.3 606.26,-25.91"/>
</g>
<!-- Node10 -->
<g id="node10" class="node">
<title>Node10</title>
<g id="a_node10"><a xlink:title=" ">
<polygon fill="white" stroke="#bfbfbf" points="618.5,-6 618.5,-25 666.5,-25 666.5,-6 618.5,-6"/>
<text text-anchor="middle" x="642.5" y="-13" font-family="Helvetica,sans-Serif" font-size="10.00">thread</text>
</a>
</g>
</g>
<!-- Node1&#45;&gt;Node10 -->
<g id="edge9" class="edge">
<title>Node1&#45;&gt;Node10</title>
<path fill="none" stroke="midnightblue" d="M743.51,-67.4C721.17,-56.14 690.13,-40.5 668.37,-29.54"/>
<polygon fill="midnightblue" stroke="midnightblue" points="669.89,-26.38 659.38,-25.01 666.74,-32.63 669.89,-26.38"/>
</g>
<!-- Node11 -->
<g id="node11" class="node">
<title>Node11</title>
<g id="a_node11"><a xlink:title=" ">
<polygon fill="white" stroke="#bfbfbf" points="685,-6 685,-25 736,-25 736,-6 685,-6"/>
<text text-anchor="middle" x="710.5" y="-13" font-family="Helvetica,sans-Serif" font-size="10.00">variant</text>
</a>
</g>
</g>
<!-- Node1&#45;&gt;Node11 -->
<g id="edge10" class="edge">
<title>Node1&#45;&gt;Node11</title>
<path fill="none" stroke="midnightblue" d="M758.26,-67.4C748.66,-57.16 735.65,-43.3 725.63,-32.62"/>
<polygon fill="midnightblue" stroke="midnightblue" points="728.05,-30.09 718.66,-25.19 722.95,-34.88 728.05,-30.09"/>
</g>
<!-- Node12 -->
<g id="node12" class="node">
<title>Node12</title>
<g id="a_node12"><a xlink:title=" ">
<polygon fill="white" stroke="#bfbfbf" points="754,-6 754,-25 789,-25 789,-6 754,-6"/>
<text text-anchor="middle" x="771.5" y="-13" font-family="Helvetica,sans-Serif" font-size="10.00">any</text>
</a>
</g>
</g>
<!-- Node1&#45;&gt;Node12 -->
<g id="edge11" class="edge">
<title>Node1&#45;&gt;Node12</title>
<path fill="none" stroke="midnightblue" d="M771.5,-67.4C771.5,-58.06 771.5,-45.71 771.5,-35.52"/>
<polygon fill="midnightblue" stroke="midnightblue" points="775,-35.19 771.5,-25.19 768,-35.19 775,-35.19"/>
</g>
<!-- Node13 -->
<g id="node13" class="node">
<title>Node13</title>
<g id="a_node13"><a xlink:title=" ">
<polygon fill="white" stroke="#bfbfbf" points="807.5,-6 807.5,-25 845.5,-25 845.5,-6 807.5,-6"/>
<text text-anchor="middle" x="826.5" y="-13" font-family="Helvetica,sans-Serif" font-size="10.00">map</text>
</a>
</g>
</g>
<!-- Node1&#45;&gt;Node13 -->
<g id="edge12" class="edge">
<title>Node1&#45;&gt;Node13</title>
<path fill="none" stroke="midnightblue" d="M783.43,-67.4C792.01,-57.26 803.6,-43.57 812.59,-32.94"/>
<polygon fill="midnightblue" stroke="midnightblue" points="815.36,-35.09 819.14,-25.19 810.01,-30.57 815.36,-35.09"/>
</g>
<!-- Node14 -->
<g id="node14" class="node">
<title>Node14</title>
<g id="a_node14"><a xlink:title=" ">
<polygon fill="white" stroke="#bfbfbf" points="863.5,-6 863.5,-25 919.5,-25 919.5,-6 863.5,-6"/>
<text text-anchor="middle" x="891.5" y="-13" font-family="Helvetica,sans-Serif" font-size="10.00">iomanip</text>
</a>
</g>
</g>
<!-- Node1&#45;&gt;Node14 -->
<g id="edge13" class="edge">
<title>Node1&#45;&gt;Node14</title>
<path fill="none" stroke="midnightblue" d="M797.54,-67.4C818.13,-56.24 846.67,-40.78 866.88,-29.83"/>
<polygon fill="midnightblue" stroke="midnightblue" points="868.67,-32.85 875.79,-25.01 865.33,-26.69 868.67,-32.85"/>
</g>
<!-- Node15 -->
<g id="node15" class="node">
<title>Node15</title>
<g id="a_node15"><a xlink:title=" ">
<polygon fill="white" stroke="#bfbfbf" points="938,-6 938,-25 1065,-25 1065,-6 938,-6"/>
<text text-anchor="middle" x="1001.5" y="-13" font-family="Helvetica,sans-Serif" font-size="10.00">libcamera/base/span.h</text>
</a>
</g>
</g>
<!-- Node1&#45;&gt;Node15 -->
<g id="edge14" class="edge">
<title>Node1&#45;&gt;Node15</title>
<path fill="none" stroke="midnightblue" d="M821.12,-67.48C863.07,-55.62 922.39,-38.86 961.38,-27.84"/>
<polygon fill="midnightblue" stroke="midnightblue" points="962.65,-31.12 971.32,-25.03 960.75,-24.38 962.65,-31.12"/>
</g>
<!-- Node16 -->
<g id="node16" class="node">
<title>Node16</title>
<g id="a_node16"><a xlink:title=" ">
<polygon fill="white" stroke="#bfbfbf" points="1083.5,-6 1083.5,-25 1197.5,-25 1197.5,-6 1083.5,-6"/>
<text text-anchor="middle" x="1140.5" y="-13" font-family="Helvetica,sans-Serif" font-size="10.00">libcamera/camera.h</text>
</a>
</g>
</g>
<!-- Node1&#45;&gt;Node16 -->
<g id="edge15" class="edge">
<title>Node1&#45;&gt;Node16</title>
<path fill="none" stroke="midnightblue" d="M837.58,-71.48C899.08,-61.93 993.21,-46.69 1074.5,-31 1080.62,-29.82 1087.05,-28.5 1093.39,-27.16"/>
<polygon fill="midnightblue" stroke="midnightblue" points="1094.18,-30.57 1103.22,-25.04 1092.71,-23.72 1094.18,-30.57"/>
</g>
<!-- Node17 -->
<g id="node17" class="node">
<title>Node17</title>
<g id="a_node17"><a xlink:title=" ">
<polygon fill="white" stroke="#bfbfbf" points="1215.5,-6 1215.5,-25 1377.5,-25 1377.5,-6 1215.5,-6"/>
<text text-anchor="middle" x="1296.5" y="-13" font-family="Helvetica,sans-Serif" font-size="10.00">libcamera/camera_manager.h</text>
</a>
</g>
</g>
<!-- Node1&#45;&gt;Node17 -->
<g id="edge16" class="edge">
<title>Node1&#45;&gt;Node17</title>
<path fill="none" stroke="midnightblue" d="M837.57,-74.75C922.92,-65.81 1076.03,-49.07 1206.5,-31 1216.04,-29.68 1226.13,-28.17 1235.97,-26.63"/>
<polygon fill="midnightblue" stroke="midnightblue" points="1236.77,-30.04 1246.1,-25.02 1235.68,-23.13 1236.77,-30.04"/>
</g>
<!-- Node18 -->
<g id="node18" class="node">
<title>Node18</title>
<g id="a_node18"><a xlink:title=" ">
<polygon fill="white" stroke="#bfbfbf" points="1396,-6 1396,-25 1527,-25 1527,-6 1396,-6"/>
<text text-anchor="middle" x="1461.5" y="-13" font-family="Helvetica,sans-Serif" font-size="10.00">libcamera/control_ids.h</text>
</a>
</g>
</g>
<!-- Node1&#45;&gt;Node18 -->
<g id="edge17" class="edge">
<title>Node1&#45;&gt;Node18</title>
<path fill="none" stroke="midnightblue" d="M837.74,-78.43C950.72,-72.67 1187.76,-58.29 1386.5,-31 1394.63,-29.88 1403.2,-28.46 1411.54,-26.94"/>
<polygon fill="midnightblue" stroke="midnightblue" points="1412.36,-30.35 1421.54,-25.06 1411.07,-23.47 1412.36,-30.35"/>
</g>
<!-- Node19 -->
<g id="node19" class="node">
<title>Node19</title>
<g id="a_node19"><a xlink:title=" ">
<polygon fill="white" stroke="#bfbfbf" points="1545.5,-6 1545.5,-25 1661.5,-25 1661.5,-6 1545.5,-6"/>
<text text-anchor="middle" x="1603.5" y="-13" font-family="Helvetica,sans-Serif" font-size="10.00">libcamera/controls.h</text>
</a>
</g>
</g>
<!-- Node1&#45;&gt;Node19 -->
<g id="edge18" class="edge">
<title>Node1&#45;&gt;Node19</title>
<path fill="none" stroke="midnightblue" d="M837.58,-80.41C970.54,-77.49 1279.64,-67.07 1536.5,-31 1543.79,-29.98 1551.47,-28.6 1558.93,-27.1"/>
<polygon fill="midnightblue" stroke="midnightblue" points="1559.83,-30.49 1568.9,-25 1558.39,-23.64 1559.83,-30.49"/>
</g>
<!-- Node20 -->
<g id="node20" class="node">
<title>Node20</title>
<g id="a_node20"><a xlink:title=" ">
<polygon fill="white" stroke="#bfbfbf" points="1679.5,-6 1679.5,-25 1795.5,-25 1795.5,-6 1679.5,-6"/>
<text text-anchor="middle" x="1737.5" y="-13" font-family="Helvetica,sans-Serif" font-size="10.00">libcamera/formats.h</text>
</a>
</g>
</g>
<!-- Node1&#45;&gt;Node20 -->
<g id="edge19" class="edge">
<title>Node1&#45;&gt;Node20</title>
<path fill="none" stroke="midnightblue" d="M837.54,-81.33C986.72,-80.17 1360.88,-72.94 1670.5,-31 1677.8,-30.01 1685.48,-28.65 1692.94,-27.16"/>
<polygon fill="midnightblue" stroke="midnightblue" points="1693.84,-30.55 1702.91,-25.07 1692.4,-23.7 1693.84,-30.55"/>
</g>
<!-- Node21 -->
<g id="node21" class="node">
<title>Node21</title>
<g id="a_node21"><a xlink:title=" ">
<polygon fill="white" stroke="#bfbfbf" points="1813.5,-0.5 1813.5,-30.5 1939.5,-30.5 1939.5,-0.5 1813.5,-0.5"/>
<text text-anchor="start" x="1821.5" y="-18.5" font-family="Helvetica,sans-Serif" font-size="10.00">libcamera/framebuffer</text>
<text text-anchor="middle" x="1876.5" y="-7.5" font-family="Helvetica,sans-Serif" font-size="10.00">_allocator.h</text>
</a>
</g>
</g>
<!-- Node1&#45;&gt;Node21 -->
<g id="edge20" class="edge">
<title>Node1&#45;&gt;Node21</title>
<path fill="none" stroke="midnightblue" d="M837.66,-81.69C1000.46,-81.43 1433.54,-76.27 1803.28,-31.02"/>
<polygon fill="midnightblue" stroke="midnightblue" points="1803.88,-34.47 1813.37,-29.77 1803.02,-27.52 1803.88,-34.47"/>
</g>
<!-- Node22 -->
<g id="node22" class="node">
<title>Node22</title>
<g id="a_node22"><a xlink:title=" ">
<polygon fill="white" stroke="#bfbfbf" points="1957.5,-0.5 1957.5,-30.5 2067.5,-30.5 2067.5,-0.5 1957.5,-0.5"/>
<text text-anchor="start" x="1965.5" y="-18.5" font-family="Helvetica,sans-Serif" font-size="10.00">libcamera/property</text>
<text text-anchor="middle" x="2012.5" y="-7.5" font-family="Helvetica,sans-Serif" font-size="10.00">_ids.h</text>
</a>
</g>
</g>
<!-- Node1&#45;&gt;Node22 -->
<g id="edge21" class="edge">
<title>Node1&#45;&gt;Node22</title>
<path fill="none" stroke="midnightblue" d="M837.88,-80.22C1050.11,-75.9 1711.56,-60.48 1947.23,-30.96"/>
<polygon fill="midnightblue" stroke="midnightblue" points="1947.99,-34.39 1957.46,-29.63 1947.09,-27.45 1947.99,-34.39"/>
</g>
</g>
</svg>
        <g id="navigator" transform="translate(0 0)" fill="#404254">
                <rect fill="#f2f5e9" fill-opacity="0.5" stroke="#606060" stroke-width=".5" x="0" y="0" width="60" height="60"/>
                <use id="zoomplus" xlink:href="#zoomPlus" x="17" y="9" onmousedown="handleZoom(evt,'in')"/>
                <use id="zoomminus" xlink:href="#zoomMin" x="42" y="9" onmousedown="handleZoom(evt,'out')"/>
                <use id="reset" xlink:href="#resetDef" x="30" y="36" onmousedown="handleReset()"/>
                <g id="arrowUp" xlink:href="#dirArrow" transform="translate(30 24)" onmousedown="handlePan(0,-1)">
                  <use xlink:href="#rim" fill="#404040">
                        <set attributeName="fill" to="#808080" begin="arrowUp.mouseover" end="arrowUp.mouseout"/>
                  </use>
                  <path fill="none" stroke="white" stroke-width="1.5" d="M0,-3.0v7 M-2.5,-0.5L0,-3.0L2.5,-0.5"/>
                </g>
                <g id="arrowRight" xlink:href="#dirArrow" transform="rotate(90) translate(36 -43)" onmousedown="handlePan(1,0)">
                  <use xlink:href="#rim" fill="#404040">
                        <set attributeName="fill" to="#808080" begin="arrowRight.mouseover" end="arrowRight.mouseout"/>
                  </use>
                  <path fill="none" stroke="white" stroke-width="1.5" d="M0,-3.0v7 M-2.5,-0.5L0,-3.0L2.5,-0.5"/>
                </g>
                <g id="arrowDown" xlink:href="#dirArrow" transform="rotate(180) translate(-30 -48)" onmousedown="handlePan(0,1)">
                  <use xlink:href="#rim" fill="#404040">
                        <set attributeName="fill" to="#808080" begin="arrowDown.mouseover" end="arrowDown.mouseout"/>
                  </use>
                  <path fill="none" stroke="white" stroke-width="1.5" d="M0,-3.0v7 M-2.5,-0.5L0,-3.0L2.5,-0.5"/>
                </g>
                <g id="arrowLeft" xlink:href="#dirArrow" transform="rotate(270) translate(-36 17)" onmousedown="handlePan(-1,0)">
                  <use xlink:href="#rim" fill="#404040">
                        <set attributeName="fill" to="#808080" begin="arrowLeft.mouseover" end="arrowLeft.mouseout"/>
                  </use>
                  <path fill="none" stroke="white" stroke-width="1.5" d="M0,-3.0v7 M-2.5,-0.5L0,-3.0L2.5,-0.5"/>
                </g>
        </g>
        <svg viewBox="0 0 15 15" width="100%" height="30px" preserveAspectRatio="xMaxYMin meet">
         <g id="arrow_out" transform="scale(0.3 0.3)">
          <a xlink:href="libcamera__app_8hpp__incl_org.svg" target="_base">
           <rect id="button" ry="5" rx="5" y="6" x="6" height="38" width="38"
                fill="#f2f5e9" fill-opacity="0.5" stroke="#606060" stroke-width="1.0"/>
           <path id="arrow"
             d="M 11.500037,31.436501 C 11.940474,20.09759 22.043105,11.32322 32.158766,21.979434 L 37.068811,17.246167 C 37.068811,17.246167 37.088388,32 37.088388,32 L 22.160133,31.978069 C 22.160133,31.978069 26.997745,27.140456 26.997745,27.140456 C 18.528582,18.264221 13.291696,25.230495 11.500037,31.436501 z"
             style="fill:#404040;"/>
          </a>
         </g>
        </svg>
</svg>
