<?xml version="1.0" encoding="UTF-8" standalone="no"?>
<!DOCTYPE svg PUBLIC "-//W3C//DTD SVG 1.1//EN"
 "http://www.w3.org/Graphics/SVG/1.1/DTD/svg11.dtd">
<!-- Generated by graphviz version 2.43.0 (0)
 -->
<!-- Title: LCCV/src/libcamera_app.cpp Pages: 1 -->
<svg width="2292pt" height="162pt"
 viewBox="0.00 0.00 2292.00 162.00" xmlns="http://www.w3.org/2000/svg" xmlns:xlink="http://www.w3.org/1999/xlink">
<g id="graph0" class="graph" transform="scale(1 1) rotate(0) translate(4 158)">
<title>LCCV/src/libcamera_app.cpp</title>
<polygon fill="white" stroke="transparent" points="-4,4 -4,-158 2288,-158 2288,4 -4,4"/>
<!-- Node1 -->
<g id="node1" class="node">
<title>Node1</title>
<g id="a_node1"><a xlink:title=" ">
<polygon fill="#bfbfbf" stroke="black" points="695,-123.5 695,-153.5 806,-153.5 806,-123.5 695,-123.5"/>
<text text-anchor="start" x="703" y="-141.5" font-family="Helvetica,sans-Serif" font-size="10.00">LCCV/src/libcamera</text>
<text text-anchor="middle" x="750.5" y="-130.5" font-family="Helvetica,sans-Serif" font-size="10.00">_app.cpp</text>
</a>
</g>
</g>
<!-- Node2 -->
<g id="node2" class="node">
<title>Node2</title>
<g id="a_node2"><a xlink:href="libcamera__app_8hpp.html" target="_top" xlink:title=" ">
<polygon fill="white" stroke="black" points="1121.5,-67.5 1121.5,-86.5 1231.5,-86.5 1231.5,-67.5 1121.5,-67.5"/>
<text text-anchor="middle" x="1176.5" y="-74.5" font-family="Helvetica,sans-Serif" font-size="10.00">libcamera_app.hpp</text>
</a>
</g>
</g>
<!-- Node1&#45;&gt;Node2 -->
<g id="edge1" class="edge">
<title>Node1&#45;&gt;Node2</title>
<path fill="none" stroke="midnightblue" d="M806.19,-129.72C884.78,-118.74 1027.93,-98.75 1111.35,-87.1"/>
<polygon fill="midnightblue" stroke="midnightblue" points="1112.05,-90.54 1121.47,-85.69 1111.08,-83.6 1112.05,-90.54"/>
</g>
<!-- Node24 -->
<g id="node24" class="node">
<title>Node24</title>
<g id="a_node24"><a xlink:href="libcamera__app__options_8hpp.html" target="_top" xlink:title=" ">
<polygon fill="white" stroke="black" points="354,-67.5 354,-86.5 505,-86.5 505,-67.5 354,-67.5"/>
<text text-anchor="middle" x="429.5" y="-74.5" font-family="Helvetica,sans-Serif" font-size="10.00">libcamera_app_options.hpp</text>
</a>
</g>
</g>
<!-- Node1&#45;&gt;Node24 -->
<g id="edge23" class="edge">
<title>Node1&#45;&gt;Node24</title>
<path fill="none" stroke="midnightblue" d="M694.95,-127.2C636.26,-116.32 544.23,-99.27 485.4,-88.36"/>
<polygon fill="midnightblue" stroke="midnightblue" points="486.01,-84.91 475.54,-86.53 484.73,-91.8 486.01,-84.91"/>
</g>
<!-- Node3 -->
<g id="node3" class="node">
<title>Node3</title>
<g id="a_node3"><a xlink:title=" ">
<polygon fill="white" stroke="#bfbfbf" points="1874,-6 1874,-25 1951,-25 1951,-6 1874,-6"/>
<text text-anchor="middle" x="1912.5" y="-13" font-family="Helvetica,sans-Serif" font-size="10.00">sys/mman.h</text>
</a>
</g>
</g>
<!-- Node2&#45;&gt;Node3 -->
<g id="edge2" class="edge">
<title>Node2&#45;&gt;Node3</title>
<path fill="none" stroke="midnightblue" d="M1231.87,-76.63C1349.41,-77.05 1632.18,-73.12 1864.5,-31 1868.96,-30.19 1873.58,-29.11 1878.13,-27.91"/>
<polygon fill="midnightblue" stroke="midnightblue" points="1879.2,-31.24 1887.85,-25.12 1877.27,-24.51 1879.2,-31.24"/>
</g>
<!-- Node4 -->
<g id="node4" class="node">
<title>Node4</title>
<g id="a_node4"><a xlink:title=" ">
<polygon fill="white" stroke="#bfbfbf" points="1969,-6 1969,-25 2076,-25 2076,-6 1969,-6"/>
<text text-anchor="middle" x="2022.5" y="-13" font-family="Helvetica,sans-Serif" font-size="10.00">condition_variable</text>
</a>
</g>
</g>
<!-- Node2&#45;&gt;Node4 -->
<g id="edge3" class="edge">
<title>Node2&#45;&gt;Node4</title>
<path fill="none" stroke="midnightblue" d="M1231.96,-76.09C1360.65,-75.58 1689.28,-70.2 1960.5,-31 1967.19,-30.03 1974.22,-28.7 1981.05,-27.23"/>
<polygon fill="midnightblue" stroke="midnightblue" points="1981.86,-30.64 1990.84,-25.01 1980.31,-23.81 1981.86,-30.64"/>
</g>
<!-- Node5 -->
<g id="node5" class="node">
<title>Node5</title>
<g id="a_node5"><a xlink:title=" ">
<polygon fill="white" stroke="#bfbfbf" points="216.5,-6 216.5,-25 276.5,-25 276.5,-6 216.5,-6"/>
<text text-anchor="middle" x="246.5" y="-13" font-family="Helvetica,sans-Serif" font-size="10.00">iostream</text>
</a>
</g>
</g>
<!-- Node2&#45;&gt;Node5 -->
<g id="edge4" class="edge">
<title>Node2&#45;&gt;Node5</title>
<path fill="none" stroke="midnightblue" d="M1121.43,-75.41C953.01,-73.27 446.49,-64.17 285.5,-31 282.25,-30.33 278.9,-29.43 275.6,-28.41"/>
<polygon fill="midnightblue" stroke="midnightblue" points="276.59,-25.05 266,-25.08 274.3,-31.66 276.59,-25.05"/>
</g>
<!-- Node6 -->
<g id="node6" class="node">
<title>Node6</title>
<g id="a_node6"><a xlink:title=" ">
<polygon fill="white" stroke="#bfbfbf" points="2094.5,-6 2094.5,-25 2152.5,-25 2152.5,-6 2094.5,-6"/>
<text text-anchor="middle" x="2123.5" y="-13" font-family="Helvetica,sans-Serif" font-size="10.00">memory</text>
</a>
</g>
</g>
<!-- Node2&#45;&gt;Node6 -->
<g id="edge5" class="edge">
<title>Node2&#45;&gt;Node6</title>
<path fill="none" stroke="midnightblue" d="M1231.79,-75.54C1402.73,-73.74 1921.11,-65.52 2085.5,-31 2088.58,-30.35 2091.74,-29.49 2094.86,-28.51"/>
<polygon fill="midnightblue" stroke="midnightblue" points="2096.27,-31.72 2104.52,-25.08 2093.93,-25.13 2096.27,-31.72"/>
</g>
<!-- Node7 -->
<g id="node7" class="node">
<title>Node7</title>
<g id="a_node7"><a xlink:title=" ">
<polygon fill="white" stroke="#bfbfbf" points="2170.5,-6 2170.5,-25 2218.5,-25 2218.5,-6 2170.5,-6"/>
<text text-anchor="middle" x="2194.5" y="-13" font-family="Helvetica,sans-Serif" font-size="10.00">mutex</text>
</a>
</g>
</g>
<!-- Node2&#45;&gt;Node7 -->
<g id="edge6" class="edge">
<title>Node2&#45;&gt;Node7</title>
<path fill="none" stroke="midnightblue" d="M1231.67,-76.13C1412.01,-76.15 1982.73,-72.82 2161.5,-31 2163.86,-30.45 2166.27,-29.73 2168.65,-28.91"/>
<polygon fill="midnightblue" stroke="midnightblue" points="2170.14,-32.08 2178.12,-25.11 2167.54,-25.58 2170.14,-32.08"/>
</g>
<!-- Node8 -->
<g id="node8" class="node">
<title>Node8</title>
<g id="a_node8"><a xlink:title=" ">
<polygon fill="white" stroke="#bfbfbf" points="2237,-6 2237,-25 2284,-25 2284,-6 2237,-6"/>
<text text-anchor="middle" x="2260.5" y="-13" font-family="Helvetica,sans-Serif" font-size="10.00">queue</text>
</a>
</g>
</g>
<!-- Node2&#45;&gt;Node8 -->
<g id="edge7" class="edge">
<title>Node2&#45;&gt;Node8</title>
<path fill="none" stroke="midnightblue" d="M1231.71,-76.32C1419.95,-76.99 2035.49,-75.63 2227.5,-31 2229.87,-30.45 2232.27,-29.73 2234.65,-28.91"/>
<polygon fill="midnightblue" stroke="midnightblue" points="2236.14,-32.09 2244.13,-25.12 2233.54,-25.59 2236.14,-32.09"/>
</g>
<!-- Node9 -->
<g id="node9" class="node">
<title>Node9</title>
<g id="a_node9"><a xlink:title=" ">
<polygon fill="white" stroke="#bfbfbf" points="884.5,-6 884.5,-25 916.5,-25 916.5,-6 884.5,-6"/>
<text text-anchor="middle" x="900.5" y="-13" font-family="Helvetica,sans-Serif" font-size="10.00">set</text>
</a>
</g>
</g>
<!-- Node2&#45;&gt;Node9 -->
<g id="edge8" class="edge">
<title>Node2&#45;&gt;Node9</title>
<path fill="none" stroke="midnightblue" d="M1121.2,-71.65C1069.36,-66.29 990.34,-54.78 925.5,-31 924.46,-30.62 923.42,-30.2 922.38,-29.74"/>
<polygon fill="midnightblue" stroke="midnightblue" points="923.81,-26.54 913.31,-25.07 920.6,-32.76 923.81,-26.54"/>
</g>
<!-- Node10 -->
<g id="node10" class="node">
<title>Node10</title>
<g id="a_node10"><a xlink:title=" ">
<polygon fill="white" stroke="#bfbfbf" points="934.5,-6 934.5,-25 978.5,-25 978.5,-6 934.5,-6"/>
<text text-anchor="middle" x="956.5" y="-13" font-family="Helvetica,sans-Serif" font-size="10.00">string</text>
</a>
</g>
</g>
<!-- Node2&#45;&gt;Node10 -->
<g id="edge9" class="edge">
<title>Node2&#45;&gt;Node10</title>
<path fill="none" stroke="midnightblue" d="M1128.74,-67.43C1090.06,-59.83 1034.48,-47.39 987.5,-31 985.88,-30.43 984.23,-29.81 982.58,-29.15"/>
<polygon fill="midnightblue" stroke="midnightblue" points="983.86,-25.89 973.3,-25.11 981.07,-32.31 983.86,-25.89"/>
</g>
<!-- Node11 -->
<g id="node11" class="node">
<title>Node11</title>
<g id="a_node11"><a xlink:title=" ">
<polygon fill="white" stroke="#bfbfbf" points="996.5,-6 996.5,-25 1044.5,-25 1044.5,-6 996.5,-6"/>
<text text-anchor="middle" x="1020.5" y="-13" font-family="Helvetica,sans-Serif" font-size="10.00">thread</text>
</a>
</g>
</g>
<!-- Node2&#45;&gt;Node11 -->
<g id="edge10" class="edge">
<title>Node2&#45;&gt;Node11</title>
<path fill="none" stroke="midnightblue" d="M1152.06,-67.39C1127.33,-58.58 1088.07,-44.34 1054.5,-31 1052.9,-30.36 1051.26,-29.7 1049.61,-29.03"/>
<polygon fill="midnightblue" stroke="midnightblue" points="1050.78,-25.72 1040.21,-25.1 1048.09,-32.18 1050.78,-25.72"/>
</g>
<!-- Node12 -->
<g id="node12" class="node">
<title>Node12</title>
<g id="a_node12"><a xlink:title=" ">
<polygon fill="white" stroke="#bfbfbf" points="1063,-6 1063,-25 1114,-25 1114,-6 1063,-6"/>
<text text-anchor="middle" x="1088.5" y="-13" font-family="Helvetica,sans-Serif" font-size="10.00">variant</text>
</a>
</g>
</g>
<!-- Node2&#45;&gt;Node12 -->
<g id="edge11" class="edge">
<title>Node2&#45;&gt;Node12</title>
<path fill="none" stroke="midnightblue" d="M1163.89,-67.48C1149.78,-57.93 1126.67,-42.31 1109.75,-30.87"/>
<polygon fill="midnightblue" stroke="midnightblue" points="1111.33,-27.71 1101.08,-25.01 1107.41,-33.51 1111.33,-27.71"/>
</g>
<!-- Node13 -->
<g id="node13" class="node">
<title>Node13</title>
<g id="a_node13"><a xlink:title=" ">
<polygon fill="white" stroke="#bfbfbf" points="1132,-6 1132,-25 1167,-25 1167,-6 1132,-6"/>
<text text-anchor="middle" x="1149.5" y="-13" font-family="Helvetica,sans-Serif" font-size="10.00">any</text>
</a>
</g>
</g>
<!-- Node2&#45;&gt;Node13 -->
<g id="edge12" class="edge">
<title>Node2&#45;&gt;Node13</title>
<path fill="none" stroke="midnightblue" d="M1172.63,-67.48C1168.7,-58.82 1162.5,-45.15 1157.51,-34.15"/>
<polygon fill="midnightblue" stroke="midnightblue" points="1160.68,-32.67 1153.36,-25.01 1154.31,-35.56 1160.68,-32.67"/>
</g>
<!-- Node14 -->
<g id="node14" class="node">
<title>Node14</title>
<g id="a_node14"><a xlink:title=" ">
<polygon fill="white" stroke="#bfbfbf" points="1185.5,-6 1185.5,-25 1223.5,-25 1223.5,-6 1185.5,-6"/>
<text text-anchor="middle" x="1204.5" y="-13" font-family="Helvetica,sans-Serif" font-size="10.00">map</text>
</a>
</g>
</g>
<!-- Node2&#45;&gt;Node14 -->
<g id="edge13" class="edge">
<title>Node2&#45;&gt;Node14</title>
<path fill="none" stroke="midnightblue" d="M1180.51,-67.48C1184.59,-58.82 1191.02,-45.15 1196.2,-34.15"/>
<polygon fill="midnightblue" stroke="midnightblue" points="1199.4,-35.55 1200.5,-25.01 1193.07,-32.57 1199.4,-35.55"/>
</g>
<!-- Node15 -->
<g id="node15" class="node">
<title>Node15</title>
<g id="a_node15"><a xlink:title=" ">
<polygon fill="white" stroke="#bfbfbf" points="1241.5,-6 1241.5,-25 1297.5,-25 1297.5,-6 1241.5,-6"/>
<text text-anchor="middle" x="1269.5" y="-13" font-family="Helvetica,sans-Serif" font-size="10.00">iomanip</text>
</a>
</g>
</g>
<!-- Node2&#45;&gt;Node15 -->
<g id="edge14" class="edge">
<title>Node2&#45;&gt;Node15</title>
<path fill="none" stroke="midnightblue" d="M1189.82,-67.48C1204.88,-57.84 1229.62,-42.02 1247.54,-30.55"/>
<polygon fill="midnightblue" stroke="midnightblue" points="1249.66,-33.35 1256.2,-25.01 1245.89,-27.45 1249.66,-33.35"/>
</g>
<!-- Node16 -->
<g id="node16" class="node">
<title>Node16</title>
<g id="a_node16"><a xlink:title=" ">
<polygon fill="white" stroke="#bfbfbf" points="1316,-6 1316,-25 1443,-25 1443,-6 1316,-6"/>
<text text-anchor="middle" x="1379.5" y="-13" font-family="Helvetica,sans-Serif" font-size="10.00">libcamera/base/span.h</text>
</a>
</g>
</g>
<!-- Node2&#45;&gt;Node16 -->
<g id="edge15" class="edge">
<title>Node2&#45;&gt;Node16</title>
<path fill="none" stroke="midnightblue" d="M1205.58,-67.48C1241.08,-57.07 1301.25,-39.44 1340.67,-27.88"/>
<polygon fill="midnightblue" stroke="midnightblue" points="1341.86,-31.18 1350.47,-25.01 1339.89,-24.46 1341.86,-31.18"/>
</g>
<!-- Node17 -->
<g id="node17" class="node">
<title>Node17</title>
<g id="a_node17"><a xlink:title=" ">
<polygon fill="white" stroke="#bfbfbf" points="294.5,-6 294.5,-25 408.5,-25 408.5,-6 294.5,-6"/>
<text text-anchor="middle" x="351.5" y="-13" font-family="Helvetica,sans-Serif" font-size="10.00">libcamera/camera.h</text>
</a>
</g>
</g>
<!-- Node2&#45;&gt;Node17 -->
<g id="edge16" class="edge">
<title>Node2&#45;&gt;Node17</title>
<path fill="none" stroke="midnightblue" d="M1121.44,-75.69C995.96,-74.34 679.33,-67.29 417.5,-31 410.31,-30 402.74,-28.64 395.39,-27.15"/>
<polygon fill="midnightblue" stroke="midnightblue" points="396.08,-23.72 385.57,-25.05 394.62,-30.56 396.08,-23.72"/>
</g>
<!-- Node18 -->
<g id="node18" class="node">
<title>Node18</title>
<g id="a_node18"><a xlink:title=" ">
<polygon fill="white" stroke="#bfbfbf" points="426.5,-6 426.5,-25 588.5,-25 588.5,-6 426.5,-6"/>
<text text-anchor="middle" x="507.5" y="-13" font-family="Helvetica,sans-Serif" font-size="10.00">libcamera/camera_manager.h</text>
</a>
</g>
</g>
<!-- Node2&#45;&gt;Node18 -->
<g id="edge17" class="edge">
<title>Node2&#45;&gt;Node18</title>
<path fill="none" stroke="midnightblue" d="M1121.37,-73.19C1018.39,-67.6 789.91,-53.66 598.5,-31 588.15,-29.77 577.17,-28.23 566.55,-26.62"/>
<polygon fill="midnightblue" stroke="midnightblue" points="566.94,-23.13 556.52,-25.05 565.86,-30.05 566.94,-23.13"/>
</g>
<!-- Node19 -->
<g id="node19" class="node">
<title>Node19</title>
<g id="a_node19"><a xlink:title=" ">
<polygon fill="white" stroke="#bfbfbf" points="607,-6 607,-25 738,-25 738,-6 607,-6"/>
<text text-anchor="middle" x="672.5" y="-13" font-family="Helvetica,sans-Serif" font-size="10.00">libcamera/control_ids.h</text>
</a>
</g>
</g>
<!-- Node2&#45;&gt;Node19 -->
<g id="edge18" class="edge">
<title>Node2&#45;&gt;Node19</title>
<path fill="none" stroke="midnightblue" d="M1121.45,-71.76C1039.63,-65.11 881.2,-50.9 747.5,-31 739.66,-29.83 731.39,-28.42 723.33,-26.94"/>
<polygon fill="midnightblue" stroke="midnightblue" points="723.74,-23.46 713.26,-25.04 722.44,-30.34 723.74,-23.46"/>
</g>
<!-- Node20 -->
<g id="node20" class="node">
<title>Node20</title>
<g id="a_node20"><a xlink:title=" ">
<polygon fill="white" stroke="#bfbfbf" points="1461.5,-6 1461.5,-25 1577.5,-25 1577.5,-6 1461.5,-6"/>
<text text-anchor="middle" x="1519.5" y="-13" font-family="Helvetica,sans-Serif" font-size="10.00">libcamera/controls.h</text>
</a>
</g>
</g>
<!-- Node2&#45;&gt;Node20 -->
<g id="edge19" class="edge">
<title>Node2&#45;&gt;Node20</title>
<path fill="none" stroke="midnightblue" d="M1231.63,-67.87C1287.45,-59.43 1376.18,-45.47 1452.5,-31 1458.72,-29.82 1465.24,-28.51 1471.67,-27.16"/>
<polygon fill="midnightblue" stroke="midnightblue" points="1472.6,-30.55 1481.66,-25.05 1471.15,-23.7 1472.6,-30.55"/>
</g>
<!-- Node21 -->
<g id="node21" class="node">
<title>Node21</title>
<g id="a_node21"><a xlink:title=" ">
<polygon fill="white" stroke="#bfbfbf" points="1595.5,-6 1595.5,-25 1711.5,-25 1711.5,-6 1595.5,-6"/>
<text text-anchor="middle" x="1653.5" y="-13" font-family="Helvetica,sans-Serif" font-size="10.00">libcamera/formats.h</text>
</a>
</g>
</g>
<!-- Node2&#45;&gt;Node21 -->
<g id="edge20" class="edge">
<title>Node2&#45;&gt;Node21</title>
<path fill="none" stroke="midnightblue" d="M1231.79,-71.77C1310.78,-65.3 1460.34,-51.52 1586.5,-31 1593.29,-29.9 1600.42,-28.55 1607.41,-27.13"/>
<polygon fill="midnightblue" stroke="midnightblue" points="1608.4,-30.5 1617.47,-25.02 1606.96,-23.65 1608.4,-30.5"/>
</g>
<!-- Node22 -->
<g id="node22" class="node">
<title>Node22</title>
<g id="a_node22"><a xlink:title=" ">
<polygon fill="white" stroke="#bfbfbf" points="1729.5,-0.5 1729.5,-30.5 1855.5,-30.5 1855.5,-0.5 1729.5,-0.5"/>
<text text-anchor="start" x="1737.5" y="-18.5" font-family="Helvetica,sans-Serif" font-size="10.00">libcamera/framebuffer</text>
<text text-anchor="middle" x="1792.5" y="-7.5" font-family="Helvetica,sans-Serif" font-size="10.00">_allocator.h</text>
</a>
</g>
</g>
<!-- Node2&#45;&gt;Node22 -->
<g id="edge21" class="edge">
<title>Node2&#45;&gt;Node22</title>
<path fill="none" stroke="midnightblue" d="M1231.56,-73.56C1328.26,-68.82 1535.04,-56.62 1719.21,-31.07"/>
<polygon fill="midnightblue" stroke="midnightblue" points="1719.94,-34.5 1729.36,-29.65 1718.97,-27.57 1719.94,-34.5"/>
</g>
<!-- Node23 -->
<g id="node23" class="node">
<title>Node23</title>
<g id="a_node23"><a xlink:title=" ">
<polygon fill="white" stroke="#bfbfbf" points="756.5,-0.5 756.5,-30.5 866.5,-30.5 866.5,-0.5 756.5,-0.5"/>
<text text-anchor="start" x="764.5" y="-18.5" font-family="Helvetica,sans-Serif" font-size="10.00">libcamera/property</text>
<text text-anchor="middle" x="811.5" y="-7.5" font-family="Helvetica,sans-Serif" font-size="10.00">_ids.h</text>
</a>
</g>
</g>
<!-- Node2&#45;&gt;Node23 -->
<g id="edge22" class="edge">
<title>Node2&#45;&gt;Node23</title>
<path fill="none" stroke="midnightblue" d="M1121.37,-69.01C1062.98,-61.33 967.9,-48.02 876.57,-31.12"/>
<polygon fill="midnightblue" stroke="midnightblue" points="877.08,-27.65 866.6,-29.26 875.79,-34.53 877.08,-27.65"/>
</g>
<!-- Node24&#45;&gt;Node5 -->
<g id="edge25" class="edge">
<title>Node24&#45;&gt;Node5</title>
<path fill="none" stroke="midnightblue" d="M400.67,-67.48C371.49,-58.75 325.15,-44.56 285.5,-31 283.25,-30.23 280.94,-29.42 278.61,-28.59"/>
<polygon fill="midnightblue" stroke="midnightblue" points="279.71,-25.27 269.11,-25.14 277.31,-31.84 279.71,-25.27"/>
</g>
<!-- Node24&#45;&gt;Node17 -->
<g id="edge26" class="edge">
<title>Node24&#45;&gt;Node17</title>
<path fill="none" stroke="midnightblue" d="M418.32,-67.48C405.93,-58.02 385.71,-42.6 370.75,-31.19"/>
<polygon fill="midnightblue" stroke="midnightblue" points="372.73,-28.29 362.65,-25.01 368.48,-33.86 372.73,-28.29"/>
</g>
<!-- Node24&#45;&gt;Node18 -->
<g id="edge27" class="edge">
<title>Node24&#45;&gt;Node18</title>
<path fill="none" stroke="midnightblue" d="M440.68,-67.48C453.07,-58.02 473.29,-42.6 488.25,-31.19"/>
<polygon fill="midnightblue" stroke="midnightblue" points="490.52,-33.86 496.35,-25.01 486.27,-28.29 490.52,-33.86"/>
</g>
<!-- Node24&#45;&gt;Node19 -->
<g id="edge28" class="edge">
<title>Node24&#45;&gt;Node19</title>
<path fill="none" stroke="midnightblue" d="M464.32,-67.48C507.35,-56.94 580.67,-38.99 627.81,-27.44"/>
<polygon fill="midnightblue" stroke="midnightblue" points="628.87,-30.79 637.75,-25.01 627.2,-23.99 628.87,-30.79"/>
</g>
<!-- Node24&#45;&gt;Node23 -->
<g id="edge29" class="edge">
<title>Node24&#45;&gt;Node23</title>
<path fill="none" stroke="midnightblue" d="M501.76,-67.49C564.06,-59.77 656.61,-47.35 746.33,-31.13"/>
<polygon fill="midnightblue" stroke="midnightblue" points="747.19,-34.53 756.4,-29.29 745.94,-27.64 747.19,-34.53"/>
</g>
<!-- Node25 -->
<g id="node25" class="node">
<title>Node25</title>
<g id="a_node25"><a xlink:title=" ">
<polygon fill="white" stroke="#bfbfbf" points="143,-6 143,-25 198,-25 198,-6 143,-6"/>
<text text-anchor="middle" x="170.5" y="-13" font-family="Helvetica,sans-Serif" font-size="10.00">fstream</text>
</a>
</g>
</g>
<!-- Node24&#45;&gt;Node25 -->
<g id="edge24" class="edge">
<title>Node24&#45;&gt;Node25</title>
<path fill="none" stroke="midnightblue" d="M373.65,-67.44C328.36,-59.85 263.14,-47.41 207.5,-31 205.07,-30.28 202.57,-29.47 200.08,-28.61"/>
<polygon fill="midnightblue" stroke="midnightblue" points="201.23,-25.3 190.64,-25.12 198.8,-31.87 201.23,-25.3"/>
</g>
<!-- Node26 -->
<g id="node26" class="node">
<title>Node26</title>
<g id="a_node26"><a xlink:title=" ">
<polygon fill="white" stroke="#bfbfbf" points="0,-6 0,-25 125,-25 125,-6 0,-6"/>
<text text-anchor="middle" x="62.5" y="-13" font-family="Helvetica,sans-Serif" font-size="10.00">libcamera/transform.h</text>
</a>
</g>
</g>
<!-- Node24&#45;&gt;Node26 -->
<g id="edge30" class="edge">
<title>Node24&#45;&gt;Node26</title>
<path fill="none" stroke="midnightblue" d="M367.27,-67.47C307.27,-59.03 213.97,-45.32 133.5,-31 126.76,-29.8 119.68,-28.46 112.7,-27.08"/>
<polygon fill="midnightblue" stroke="midnightblue" points="113.1,-23.59 102.61,-25.06 111.73,-30.46 113.1,-23.59"/>
</g>
</g>
</svg>
