<?xml version="1.0" encoding="UTF-8" standalone="no"?>
<!DOCTYPE svg PUBLIC "-//W3C//DTD SVG 1.1//EN"
 "http://www.w3.org/Graphics/SVG/1.1/DTD/svg11.dtd">
<!-- Generated by graphviz version 2.43.0 (0)
 -->
<!-- Title: LCCV/include/libcamera_app.hpp Pages: 1 -->
<svg width="260pt" height="162pt"
 viewBox="0.00 0.00 260.00 162.00" xmlns="http://www.w3.org/2000/svg" xmlns:xlink="http://www.w3.org/1999/xlink">
<g id="graph0" class="graph" transform="scale(1 1) rotate(0) translate(4 158)">
<title>LCCV/include/libcamera_app.hpp</title>
<polygon fill="white" stroke="transparent" points="-4,4 -4,-158 256,-158 256,4 -4,4"/>
<!-- Node1 -->
<g id="node1" class="node">
<title>Node1</title>
<g id="a_node1"><a xlink:title=" ">
<polygon fill="#bfbfbf" stroke="black" points="62.5,-123.5 62.5,-153.5 194.5,-153.5 194.5,-123.5 62.5,-123.5"/>
<text text-anchor="start" x="70.5" y="-141.5" font-family="Helvetica,sans-Serif" font-size="10.00">LCCV/include/libcamera</text>
<text text-anchor="middle" x="128.5" y="-130.5" font-family="Helvetica,sans-Serif" font-size="10.00">_app.hpp</text>
</a>
</g>
</g>
<!-- Node2 -->
<g id="node2" class="node">
<title>Node2</title>
<g id="a_node2"><a xlink:href="lccv_8hpp.html" target="_top" xlink:title=" ">
<polygon fill="white" stroke="black" points="0,-62 0,-81 123,-81 123,-62 0,-62"/>
<text text-anchor="middle" x="61.5" y="-69" font-family="Helvetica,sans-Serif" font-size="10.00">LCCV/include/lccv.hpp</text>
</a>
</g>
</g>
<!-- Node1&#45;&gt;Node2 -->
<g id="edge1" class="edge">
<title>Node1&#45;&gt;Node2</title>
<path fill="none" stroke="midnightblue" d="M106.68,-116.34C94.38,-104.4 79.68,-90.14 70.46,-81.19"/>
<polygon fill="midnightblue" stroke="midnightblue" points="104.35,-118.94 113.96,-123.4 109.22,-113.92 104.35,-118.94"/>
</g>
<!-- Node4 -->
<g id="node4" class="node">
<title>Node4</title>
<g id="a_node4"><a xlink:href="libcamera__app_8cpp.html" target="_top" xlink:title=" ">
<polygon fill="white" stroke="black" points="141,-56.5 141,-86.5 252,-86.5 252,-56.5 141,-56.5"/>
<text text-anchor="start" x="149" y="-74.5" font-family="Helvetica,sans-Serif" font-size="10.00">LCCV/src/libcamera</text>
<text text-anchor="middle" x="196.5" y="-63.5" font-family="Helvetica,sans-Serif" font-size="10.00">_app.cpp</text>
</a>
</g>
</g>
<!-- Node1&#45;&gt;Node4 -->
<g id="edge3" class="edge">
<title>Node1&#45;&gt;Node4</title>
<path fill="none" stroke="midnightblue" d="M150.67,-116.31C160.87,-106.56 172.69,-95.26 181.77,-86.58"/>
<polygon fill="midnightblue" stroke="midnightblue" points="148.07,-113.96 143.25,-123.4 152.9,-119.02 148.07,-113.96"/>
</g>
<!-- Node3 -->
<g id="node3" class="node">
<title>Node3</title>
<g id="a_node3"><a xlink:href="lccv_8cpp.html" target="_top" xlink:title=" ">
<polygon fill="white" stroke="black" points="11,-0.5 11,-19.5 112,-19.5 112,-0.5 11,-0.5"/>
<text text-anchor="middle" x="61.5" y="-7.5" font-family="Helvetica,sans-Serif" font-size="10.00">LCCV/src/lccv.cpp</text>
</a>
</g>
</g>
<!-- Node2&#45;&gt;Node3 -->
<g id="edge2" class="edge">
<title>Node2&#45;&gt;Node3</title>
<path fill="none" stroke="midnightblue" d="M61.5,-51.82C61.5,-41 61.5,-27.9 61.5,-19.51"/>
<polygon fill="midnightblue" stroke="midnightblue" points="58,-51.98 61.5,-61.98 65,-51.98 58,-51.98"/>
</g>
</g>
</svg>
