<?xml version="1.0" encoding="UTF-8" standalone="no"?>
<!DOCTYPE svg PUBLIC "-//W3C//DTD SVG 1.1//EN"
 "http://www.w3.org/Graphics/SVG/1.1/DTD/svg11.dtd">
<!-- Generated by graphviz version 2.43.0 (0)
 -->
<!-- Title: LCCV/include/libcamera_app_options.hpp Pages: 1 -->
<svg width="389pt" height="162pt"
 viewBox="0.00 0.00 389.00 162.00" xmlns="http://www.w3.org/2000/svg" xmlns:xlink="http://www.w3.org/1999/xlink">
<g id="graph0" class="graph" transform="scale(1 1) rotate(0) translate(4 158)">
<title>LCCV/include/libcamera_app_options.hpp</title>
<polygon fill="white" stroke="transparent" points="-4,4 -4,-158 385,-158 385,4 -4,4"/>
<!-- Node1 -->
<g id="node1" class="node">
<title>Node1</title>
<g id="a_node1"><a xlink:title=" ">
<polygon fill="#bfbfbf" stroke="black" points="130.5,-123.5 130.5,-153.5 262.5,-153.5 262.5,-123.5 130.5,-123.5"/>
<text text-anchor="start" x="138.5" y="-141.5" font-family="Helvetica,sans-Serif" font-size="10.00">LCCV/include/libcamera</text>
<text text-anchor="middle" x="196.5" y="-130.5" font-family="Helvetica,sans-Serif" font-size="10.00">_app_options.hpp</text>
</a>
</g>
</g>
<!-- Node2 -->
<g id="node2" class="node">
<title>Node2</title>
<g id="a_node2"><a xlink:href="lccv_8hpp.html" target="_top" xlink:title=" ">
<polygon fill="white" stroke="black" points="0,-62 0,-81 123,-81 123,-62 0,-62"/>
<text text-anchor="middle" x="61.5" y="-69" font-family="Helvetica,sans-Serif" font-size="10.00">LCCV/include/lccv.hpp</text>
</a>
</g>
</g>
<!-- Node1&#45;&gt;Node2 -->
<g id="edge1" class="edge">
<title>Node1&#45;&gt;Node2</title>
<path fill="none" stroke="midnightblue" d="M158.01,-118.97C132.08,-106.48 99.09,-90.6 79.17,-81.01"/>
<polygon fill="midnightblue" stroke="midnightblue" points="156.68,-122.21 167.21,-123.4 159.72,-115.9 156.68,-122.21"/>
</g>
<!-- Node4 -->
<g id="node4" class="node">
<title>Node4</title>
<g id="a_node4"><a xlink:href="libcamera__app_8cpp.html" target="_top" xlink:title=" ">
<polygon fill="white" stroke="black" points="141,-56.5 141,-86.5 252,-86.5 252,-56.5 141,-56.5"/>
<text text-anchor="start" x="149" y="-74.5" font-family="Helvetica,sans-Serif" font-size="10.00">LCCV/src/libcamera</text>
<text text-anchor="middle" x="196.5" y="-63.5" font-family="Helvetica,sans-Serif" font-size="10.00">_app.cpp</text>
</a>
</g>
</g>
<!-- Node1&#45;&gt;Node4 -->
<g id="edge3" class="edge">
<title>Node1&#45;&gt;Node4</title>
<path fill="none" stroke="midnightblue" d="M196.5,-113.11C196.5,-104.15 196.5,-94.32 196.5,-86.58"/>
<polygon fill="midnightblue" stroke="midnightblue" points="193,-113.4 196.5,-123.4 200,-113.4 193,-113.4"/>
</g>
<!-- Node5 -->
<g id="node5" class="node">
<title>Node5</title>
<g id="a_node5"><a xlink:href="libcamera__app__options_8cpp.html" target="_top" xlink:title=" ">
<polygon fill="white" stroke="black" points="270,-56.5 270,-86.5 381,-86.5 381,-56.5 270,-56.5"/>
<text text-anchor="start" x="278" y="-74.5" font-family="Helvetica,sans-Serif" font-size="10.00">LCCV/src/libcamera</text>
<text text-anchor="middle" x="325.5" y="-63.5" font-family="Helvetica,sans-Serif" font-size="10.00">_app_options.cpp</text>
</a>
</g>
</g>
<!-- Node1&#45;&gt;Node5 -->
<g id="edge4" class="edge">
<title>Node1&#45;&gt;Node5</title>
<path fill="none" stroke="midnightblue" d="M233.51,-118.85C253.9,-108.58 278.81,-96.03 297.56,-86.58"/>
<polygon fill="midnightblue" stroke="midnightblue" points="231.85,-115.77 224.49,-123.4 235,-122.02 231.85,-115.77"/>
</g>
<!-- Node3 -->
<g id="node3" class="node">
<title>Node3</title>
<g id="a_node3"><a xlink:href="lccv_8cpp.html" target="_top" xlink:title=" ">
<polygon fill="white" stroke="black" points="11,-0.5 11,-19.5 112,-19.5 112,-0.5 11,-0.5"/>
<text text-anchor="middle" x="61.5" y="-7.5" font-family="Helvetica,sans-Serif" font-size="10.00">LCCV/src/lccv.cpp</text>
</a>
</g>
</g>
<!-- Node2&#45;&gt;Node3 -->
<g id="edge2" class="edge">
<title>Node2&#45;&gt;Node3</title>
<path fill="none" stroke="midnightblue" d="M61.5,-51.82C61.5,-41 61.5,-27.9 61.5,-19.51"/>
<polygon fill="midnightblue" stroke="midnightblue" points="58,-51.98 61.5,-61.98 65,-51.98 58,-51.98"/>
</g>
</g>
</svg>
