<?xml version="1.0" encoding="UTF-8" standalone="no"?>
<!DOCTYPE svg PUBLIC "-//W3C//DTD SVG 1.1//EN"
 "http://www.w3.org/Graphics/SVG/1.1/DTD/svg11.dtd">
<!-- Generated by graphviz version 2.43.0 (0)
 -->
<!-- Title: src/main.cpp Pages: 1 -->
<!--zoomable 308 -->
<svg id="main" version="1.1" xmlns="http://www.w3.org/2000/svg" xmlns:xlink="http://www.w3.org/1999/xlink" xml:space="preserve" onload="init(evt)">
<style type="text/css"><![CDATA[
.edge:hover path { stroke: red; }
.edge:hover polygon { stroke: red; fill: red; }
]]></style>
<script type="text/javascript"><![CDATA[
var edges = document.getElementsByTagName('g');
if (edges && edges.length) {
  for (var i=0;i<edges.length;i++) {
    if (edges[i].id.substr(0,4)=='edge') {
      edges[i].setAttribute('class','edge');
    }
  }
}
]]></script>
        <defs>
                <circle id="rim" cx="0" cy="0" r="7"/>
                <circle id="rim2" cx="0" cy="0" r="3.5"/>
                <g id="zoomPlus">
                        <use xlink:href="#rim" fill="#404040">
                                <set attributeName="fill" to="#808080" begin="zoomplus.mouseover" end="zoomplus.mouseout"/>
                        </use>
                        <path d="M-4,0h8M0,-4v8" fill="none" stroke="white" stroke-width="1.5" pointer-events="none"/>
                </g>
                <g id="zoomMin">
                        <use xlink:href="#rim" fill="#404040">
                                <set attributeName="fill" to="#808080" begin="zoomminus.mouseover" end="zoomminus.mouseout"/>
                        </use>
                        <path d="M-4,0h8" fill="none" stroke="white" stroke-width="1.5" pointer-events="none"/>
                </g>
                <g id="dirArrow">
                        <path fill="none" stroke="white" stroke-width="1.5" d="M0,-3.0v7 M-2.5,-0.5L0,-3.0L2.5,-0.5"/>
                </g>
               <g id="resetDef">
                       <use xlink:href="#rim2" fill="#404040">
                               <set attributeName="fill" to="#808080" begin="reset.mouseover" end="reset.mouseout"/>
                       </use>
               </g>
        </defs>

<script type="text/javascript">
var viewWidth = 797;
var viewHeight = 308;
var sectionId = 'dynsection-0';
</script>
<script xlink:href="svgpan.js"/>
<svg id="graph" class="graph">
<g id="viewport">
<title>src/main.cpp</title>
<polygon fill="white" stroke="transparent" points="-4,4 -4,-304 793,-304 793,4 -4,4"/>
<!-- Node1 -->
<g id="node1" class="node">
<title>Node1</title>
<g id="a_node1"><a xlink:title=" ">
<polygon fill="#bfbfbf" stroke="black" points="338.5,-280.5 338.5,-299.5 417.5,-299.5 417.5,-280.5 338.5,-280.5"/>
<text text-anchor="middle" x="378" y="-287.5" font-family="Helvetica,sans-Serif" font-size="10.00">src/main.cpp</text>
</a>
</g>
</g>
<!-- Node2 -->
<g id="node2" class="node">
<title>Node2</title>
<g id="a_node2"><a xlink:title=" ">
<polygon fill="white" stroke="#bfbfbf" points="28.5,-112.5 28.5,-131.5 131.5,-131.5 131.5,-112.5 28.5,-112.5"/>
<text text-anchor="middle" x="80" y="-119.5" font-family="Helvetica,sans-Serif" font-size="10.00">opencv2/core.hpp</text>
</a>
</g>
</g>
<!-- Node1&#45;&gt;Node2 -->
<g id="edge1" class="edge">
<title>Node1&#45;&gt;Node2</title>
<path fill="none" stroke="midnightblue" d="M360.88,-280.42C343.25,-271.52 315.04,-257.1 291,-244 222.12,-206.46 142.11,-159.69 103.38,-136.85"/>
<polygon fill="midnightblue" stroke="midnightblue" points="104.85,-133.65 94.46,-131.58 101.29,-139.68 104.85,-133.65"/>
</g>
<!-- Node3 -->
<g id="node3" class="node">
<title>Node3</title>
<g id="a_node3"><a xlink:title=" ">
<polygon fill="white" stroke="#bfbfbf" points="131,-0.5 131,-19.5 191,-19.5 191,-0.5 131,-0.5"/>
<text text-anchor="middle" x="161" y="-7.5" font-family="Helvetica,sans-Serif" font-size="10.00">iostream</text>
</a>
</g>
</g>
<!-- Node1&#45;&gt;Node3 -->
<g id="edge2" class="edge">
<title>Node1&#45;&gt;Node3</title>
<path fill="none" stroke="midnightblue" d="M338.26,-285.92C241.21,-277.31 0,-248.89 0,-179 0,-179 0,-179 0,-121 0,-62.53 73.28,-32.89 120.97,-19.79"/>
<polygon fill="midnightblue" stroke="midnightblue" points="121.93,-23.15 130.72,-17.24 120.16,-16.38 121.93,-23.15"/>
</g>
<!-- Node4 -->
<g id="node4" class="node">
<title>Node4</title>
<g id="a_node4"><a xlink:href="ToggleLED_8h.html" target="_top" xlink:title=" ">
<polygon fill="white" stroke="black" points="557,-168.5 557,-187.5 633,-187.5 633,-168.5 557,-168.5"/>
<text text-anchor="middle" x="595" y="-175.5" font-family="Helvetica,sans-Serif" font-size="10.00">ToggleLED.h</text>
</a>
</g>
</g>
<!-- Node1&#45;&gt;Node4 -->
<g id="edge3" class="edge">
<title>Node1&#45;&gt;Node4</title>
<path fill="none" stroke="midnightblue" d="M395.03,-280.37C432.82,-261.21 523.91,-215.04 568.93,-192.22"/>
<polygon fill="midnightblue" stroke="midnightblue" points="570.71,-195.23 578.05,-187.59 567.55,-188.99 570.71,-195.23"/>
</g>
<!-- Node11 -->
<g id="node11" class="node">
<title>Node11</title>
<g id="a_node11"><a xlink:href="Camera_8h.html" target="_top" xlink:title=" ">
<polygon fill="white" stroke="black" points="204,-168.5 204,-187.5 268,-187.5 268,-168.5 204,-168.5"/>
<text text-anchor="middle" x="236" y="-175.5" font-family="Helvetica,sans-Serif" font-size="10.00">Camera.h</text>
</a>
</g>
</g>
<!-- Node1&#45;&gt;Node11 -->
<g id="edge12" class="edge">
<title>Node1&#45;&gt;Node11</title>
<path fill="none" stroke="midnightblue" d="M366.86,-280.37C342.7,-261.65 285.25,-217.15 255.15,-193.83"/>
<polygon fill="midnightblue" stroke="midnightblue" points="257.14,-190.95 247.09,-187.59 252.85,-196.48 257.14,-190.95"/>
</g>
<!-- Node13 -->
<g id="node13" class="node">
<title>Node13</title>
<g id="a_node13"><a xlink:href="DetectCard_8h.html" target="_top" xlink:title=" ">
<polygon fill="white" stroke="black" points="338,-168.5 338,-187.5 418,-187.5 418,-168.5 338,-168.5"/>
<text text-anchor="middle" x="378" y="-175.5" font-family="Helvetica,sans-Serif" font-size="10.00">DetectCard.h</text>
</a>
</g>
</g>
<!-- Node1&#45;&gt;Node13 -->
<g id="edge19" class="edge">
<title>Node1&#45;&gt;Node13</title>
<path fill="none" stroke="midnightblue" d="M378,-280.37C378,-262.62 378,-221.67 378,-197.6"/>
<polygon fill="midnightblue" stroke="midnightblue" points="381.5,-197.59 378,-187.59 374.5,-197.59 381.5,-197.59"/>
</g>
<!-- Node15 -->
<g id="node15" class="node">
<title>Node15</title>
<g id="a_node15"><a xlink:href="StrategyEngine_8h.html" target="_top" xlink:title=" ">
<polygon fill="white" stroke="black" points="689,-168.5 689,-187.5 789,-187.5 789,-168.5 689,-168.5"/>
<text text-anchor="middle" x="739" y="-175.5" font-family="Helvetica,sans-Serif" font-size="10.00">StrategyEngine.h</text>
</a>
</g>
</g>
<!-- Node1&#45;&gt;Node15 -->
<g id="edge25" class="edge">
<title>Node1&#45;&gt;Node15</title>
<path fill="none" stroke="midnightblue" d="M417.69,-287.31C470.41,-283.94 565.64,-273.88 641,-244 671.64,-231.85 702.61,-209.18 721.3,-194.08"/>
<polygon fill="midnightblue" stroke="midnightblue" points="723.73,-196.62 729.21,-187.55 719.27,-191.22 723.73,-196.62"/>
</g>
<!-- Node16 -->
<g id="node16" class="node">
<title>Node16</title>
<g id="a_node16"><a xlink:href="GamePlay_8h.html" target="_top" xlink:title=" ">
<polygon fill="white" stroke="black" points="558,-224.5 558,-243.5 632,-243.5 632,-224.5 558,-224.5"/>
<text text-anchor="middle" x="595" y="-231.5" font-family="Helvetica,sans-Serif" font-size="10.00">GamePlay.h</text>
</a>
</g>
</g>
<!-- Node1&#45;&gt;Node16 -->
<g id="edge30" class="edge">
<title>Node1&#45;&gt;Node16</title>
<path fill="none" stroke="midnightblue" d="M412.38,-280.44C449.92,-271.1 510.13,-256.12 551.07,-245.93"/>
<polygon fill="midnightblue" stroke="midnightblue" points="551.92,-249.33 560.78,-243.52 550.23,-242.53 551.92,-249.33"/>
</g>
<!-- Node5 -->
<g id="node5" class="node">
<title>Node5</title>
<g id="a_node5"><a xlink:href="Card_8h.html" target="_top" xlink:title=" ">
<polygon fill="white" stroke="black" points="521,-56.5 521,-75.5 569,-75.5 569,-56.5 521,-56.5"/>
<text text-anchor="middle" x="545" y="-63.5" font-family="Helvetica,sans-Serif" font-size="10.00">Card.h</text>
</a>
</g>
</g>
<!-- Node4&#45;&gt;Node5 -->
<g id="edge4" class="edge">
<title>Node4&#45;&gt;Node5</title>
<path fill="none" stroke="midnightblue" d="M599.55,-168.08C605.51,-155.05 614.19,-130.38 605,-112 598.27,-98.54 585.39,-88.07 573.29,-80.62"/>
<polygon fill="midnightblue" stroke="midnightblue" points="574.72,-77.41 564.3,-75.52 571.27,-83.5 574.72,-77.41"/>
</g>
<!-- Node10 -->
<g id="node10" class="node">
<title>Node10</title>
<g id="a_node10"><a xlink:href="CallbackLinker_8h.html" target="_top" xlink:title=" ">
<polygon fill="white" stroke="black" points="500,-112.5 500,-131.5 596,-131.5 596,-112.5 500,-112.5"/>
<text text-anchor="middle" x="548" y="-119.5" font-family="Helvetica,sans-Serif" font-size="10.00">CallbackLinker.h</text>
</a>
</g>
</g>
<!-- Node4&#45;&gt;Node10 -->
<g id="edge10" class="edge">
<title>Node4&#45;&gt;Node10</title>
<path fill="none" stroke="midnightblue" d="M587.24,-168.08C580.46,-160.3 570.46,-148.8 562.24,-139.37"/>
<polygon fill="midnightblue" stroke="midnightblue" points="564.82,-137 555.62,-131.75 559.54,-141.59 564.82,-137"/>
</g>
<!-- Node5&#45;&gt;Node3 -->
<g id="edge9" class="edge">
<title>Node5&#45;&gt;Node3</title>
<path fill="none" stroke="midnightblue" d="M520.77,-62.54C464.54,-56.68 320.91,-40.81 202,-20 201.78,-19.96 201.57,-19.92 201.35,-19.89"/>
<polygon fill="midnightblue" stroke="midnightblue" points="201.87,-16.42 191.39,-17.98 200.55,-23.3 201.87,-16.42"/>
</g>
<!-- Node6 -->
<g id="node6" class="node">
<title>Node6</title>
<g id="a_node6"><a xlink:title=" ">
<polygon fill="white" stroke="#bfbfbf" points="211,-0.5 211,-19.5 329,-19.5 329,-0.5 211,-0.5"/>
<text text-anchor="middle" x="270" y="-7.5" font-family="Helvetica,sans-Serif" font-size="10.00">opencv2/videoio.hpp</text>
</a>
</g>
</g>
<!-- Node5&#45;&gt;Node6 -->
<g id="edge5" class="edge">
<title>Node5&#45;&gt;Node6</title>
<path fill="none" stroke="midnightblue" d="M520.6,-60.21C476.61,-51.57 383.07,-33.2 323.54,-21.51"/>
<polygon fill="midnightblue" stroke="midnightblue" points="324.06,-18.05 313.57,-19.56 322.71,-24.92 324.06,-18.05"/>
</g>
<!-- Node7 -->
<g id="node7" class="node">
<title>Node7</title>
<g id="a_node7"><a xlink:title=" ">
<polygon fill="white" stroke="#bfbfbf" points="348,-0.5 348,-19.5 466,-19.5 466,-0.5 348,-0.5"/>
<text text-anchor="middle" x="407" y="-7.5" font-family="Helvetica,sans-Serif" font-size="10.00">opencv2/highgui.hpp</text>
</a>
</g>
</g>
<!-- Node5&#45;&gt;Node7 -->
<g id="edge6" class="edge">
<title>Node5&#45;&gt;Node7</title>
<path fill="none" stroke="midnightblue" d="M523.13,-56.44C500.22,-47.48 464.02,-33.31 438.13,-23.18"/>
<polygon fill="midnightblue" stroke="midnightblue" points="439.35,-19.9 428.76,-19.52 436.8,-26.42 439.35,-19.9"/>
</g>
<!-- Node8 -->
<g id="node8" class="node">
<title>Node8</title>
<g id="a_node8"><a xlink:title=" ">
<polygon fill="white" stroke="#bfbfbf" points="484,-0.5 484,-19.5 606,-19.5 606,-0.5 484,-0.5"/>
<text text-anchor="middle" x="545" y="-7.5" font-family="Helvetica,sans-Serif" font-size="10.00">opencv2/imgproc.hpp</text>
</a>
</g>
</g>
<!-- Node5&#45;&gt;Node8 -->
<g id="edge7" class="edge">
<title>Node5&#45;&gt;Node8</title>
<path fill="none" stroke="midnightblue" d="M545,-56.08C545,-49.01 545,-38.86 545,-29.99"/>
<polygon fill="midnightblue" stroke="midnightblue" points="548.5,-29.75 545,-19.75 541.5,-29.75 548.5,-29.75"/>
</g>
<!-- Node9 -->
<g id="node9" class="node">
<title>Node9</title>
<g id="a_node9"><a xlink:title=" ">
<polygon fill="white" stroke="#bfbfbf" points="688.5,-0.5 688.5,-19.5 735.5,-19.5 735.5,-0.5 688.5,-0.5"/>
<text text-anchor="middle" x="712" y="-7.5" font-family="Helvetica,sans-Serif" font-size="10.00">vector</text>
</a>
</g>
</g>
<!-- Node5&#45;&gt;Node9 -->
<g id="edge8" class="edge">
<title>Node5&#45;&gt;Node9</title>
<path fill="none" stroke="midnightblue" d="M569.28,-57.15C598.1,-47.83 646.3,-32.25 678.61,-21.8"/>
<polygon fill="midnightblue" stroke="midnightblue" points="680.06,-25.01 688.5,-18.6 677.91,-18.35 680.06,-25.01"/>
</g>
<!-- Node10&#45;&gt;Node5 -->
<g id="edge11" class="edge">
<title>Node10&#45;&gt;Node5</title>
<path fill="none" stroke="midnightblue" d="M547.5,-112.08C547.11,-105.01 546.55,-94.86 546.05,-85.99"/>
<polygon fill="midnightblue" stroke="midnightblue" points="549.54,-85.54 545.49,-75.75 542.55,-85.93 549.54,-85.54"/>
</g>
<!-- Node11&#45;&gt;Node2 -->
<g id="edge13" class="edge">
<title>Node11&#45;&gt;Node2</title>
<path fill="none" stroke="midnightblue" d="M211.28,-168.44C185.15,-159.4 143.74,-145.06 114.42,-134.92"/>
<polygon fill="midnightblue" stroke="midnightblue" points="115.2,-131.48 104.6,-131.52 112.91,-138.1 115.2,-131.48"/>
</g>
<!-- Node11&#45;&gt;Node3 -->
<g id="edge16" class="edge">
<title>Node11&#45;&gt;Node3</title>
<path fill="none" stroke="midnightblue" d="M231.42,-168.46C226.65,-159.47 219.04,-144.86 213,-132 196.05,-95.93 178.08,-52.88 168.33,-29.08"/>
<polygon fill="midnightblue" stroke="midnightblue" points="171.48,-27.53 164.46,-19.6 165,-30.18 171.48,-27.53"/>
</g>
<!-- Node11&#45;&gt;Node6 -->
<g id="edge14" class="edge">
<title>Node11&#45;&gt;Node6</title>
<path fill="none" stroke="midnightblue" d="M232.13,-168.35C223.55,-147.87 205.02,-95.2 222,-56 227.27,-43.84 237.62,-33.46 247.36,-25.74"/>
<polygon fill="midnightblue" stroke="midnightblue" points="249.64,-28.41 255.63,-19.67 245.5,-22.77 249.64,-28.41"/>
</g>
<!-- Node11&#45;&gt;Node7 -->
<g id="edge15" class="edge">
<title>Node11&#45;&gt;Node7</title>
<path fill="none" stroke="midnightblue" d="M236.67,-168.17C238.07,-154.82 242.32,-129.23 255,-112 286.41,-69.31 341.67,-39.29 376.2,-23.6"/>
<polygon fill="midnightblue" stroke="midnightblue" points="377.62,-26.8 385.35,-19.56 374.79,-20.4 377.62,-26.8"/>
</g>
<!-- Node11&#45;&gt;Node10 -->
<g id="edge18" class="edge">
<title>Node11&#45;&gt;Node10</title>
<path fill="none" stroke="midnightblue" d="M268.21,-171.42C320.46,-162.38 424.39,-144.39 489.83,-133.07"/>
<polygon fill="midnightblue" stroke="midnightblue" points="490.73,-136.46 499.99,-131.31 489.54,-129.57 490.73,-136.46"/>
</g>
<!-- Node12 -->
<g id="node12" class="node">
<title>Node12</title>
<g id="a_node12"><a xlink:title=" ">
<polygon fill="white" stroke="#bfbfbf" points="264,-112.5 264,-131.5 312,-131.5 312,-112.5 264,-112.5"/>
<text text-anchor="middle" x="288" y="-119.5" font-family="Helvetica,sans-Serif" font-size="10.00">thread</text>
</a>
</g>
</g>
<!-- Node11&#45;&gt;Node12 -->
<g id="edge17" class="edge">
<title>Node11&#45;&gt;Node12</title>
<path fill="none" stroke="midnightblue" d="M244.59,-168.08C252.16,-160.22 263.38,-148.57 272.51,-139.08"/>
<polygon fill="midnightblue" stroke="midnightblue" points="275.16,-141.38 279.57,-131.75 270.12,-136.53 275.16,-141.38"/>
</g>
<!-- Node13&#45;&gt;Node5 -->
<g id="edge21" class="edge">
<title>Node13&#45;&gt;Node5</title>
<path fill="none" stroke="midnightblue" d="M370.84,-168.06C360.95,-154.57 345.77,-128.82 359,-112 377.52,-88.47 462.19,-75.76 510.66,-70.31"/>
<polygon fill="midnightblue" stroke="midnightblue" points="511.14,-73.77 520.71,-69.22 510.39,-66.81 511.14,-73.77"/>
</g>
<!-- Node13&#45;&gt;Node10 -->
<g id="edge22" class="edge">
<title>Node13&#45;&gt;Node10</title>
<path fill="none" stroke="midnightblue" d="M404.94,-168.44C433.66,-159.32 479.33,-144.81 511.32,-134.65"/>
<polygon fill="midnightblue" stroke="midnightblue" points="512.72,-137.88 521.19,-131.52 510.6,-131.21 512.72,-137.88"/>
</g>
<!-- Node13&#45;&gt;Node12 -->
<g id="edge20" class="edge">
<title>Node13&#45;&gt;Node12</title>
<path fill="none" stroke="midnightblue" d="M363.54,-168.32C349.5,-159.9 327.95,-146.97 311.46,-137.07"/>
<polygon fill="midnightblue" stroke="midnightblue" points="312.8,-133.8 302.42,-131.65 309.2,-139.8 312.8,-133.8"/>
</g>
<!-- Node14 -->
<g id="node14" class="node">
<title>Node14</title>
<g id="a_node14"><a xlink:href="CardDiscriminator_8h.html" target="_top" xlink:title=" ">
<polygon fill="white" stroke="black" points="368.5,-112.5 368.5,-131.5 481.5,-131.5 481.5,-112.5 368.5,-112.5"/>
<text text-anchor="middle" x="425" y="-119.5" font-family="Helvetica,sans-Serif" font-size="10.00">CardDiscriminator.h</text>
</a>
</g>
</g>
<!-- Node13&#45;&gt;Node14 -->
<g id="edge23" class="edge">
<title>Node13&#45;&gt;Node14</title>
<path fill="none" stroke="midnightblue" d="M385.76,-168.08C392.54,-160.3 402.54,-148.8 410.76,-139.37"/>
<polygon fill="midnightblue" stroke="midnightblue" points="413.46,-141.59 417.38,-131.75 408.18,-137 413.46,-141.59"/>
</g>
<!-- Node14&#45;&gt;Node5 -->
<g id="edge24" class="edge">
<title>Node14&#45;&gt;Node5</title>
<path fill="none" stroke="midnightblue" d="M444.01,-112.44C463.59,-103.64 494.31,-89.81 516.73,-79.72"/>
<polygon fill="midnightblue" stroke="midnightblue" points="518.39,-82.81 526.07,-75.52 515.52,-76.43 518.39,-82.81"/>
</g>
<!-- Node15&#45;&gt;Node3 -->
<g id="edge26" class="edge">
<title>Node15&#45;&gt;Node3</title>
<path fill="none" stroke="midnightblue" d="M735.91,-168.29C730.67,-154.65 718.85,-128.12 701,-112 656.42,-71.74 636.03,-71.52 578,-56 415.83,-12.62 367.84,-46.04 202,-20 201.78,-19.97 201.57,-19.93 201.35,-19.9"/>
<polygon fill="midnightblue" stroke="midnightblue" points="201.84,-16.43 191.37,-18.09 200.59,-23.32 201.84,-16.43"/>
</g>
<!-- Node15&#45;&gt;Node5 -->
<g id="edge28" class="edge">
<title>Node15&#45;&gt;Node5</title>
<path fill="none" stroke="midnightblue" d="M732.65,-168.15C722.28,-154.3 700.41,-127.51 676,-112 645.94,-92.91 606.83,-80.84 579.19,-74.07"/>
<polygon fill="midnightblue" stroke="midnightblue" points="579.73,-70.6 569.2,-71.73 578.14,-77.42 579.73,-70.6"/>
</g>
<!-- Node15&#45;&gt;Node9 -->
<g id="edge27" class="edge">
<title>Node15&#45;&gt;Node9</title>
<path fill="none" stroke="midnightblue" d="M742.52,-168.44C750.3,-148.17 767.17,-95.89 752,-56 747.66,-44.6 738.97,-34.24 730.79,-26.34"/>
<polygon fill="midnightblue" stroke="midnightblue" points="733.04,-23.66 723.27,-19.57 728.36,-28.86 733.04,-23.66"/>
</g>
<!-- Node15&#45;&gt;Node10 -->
<g id="edge29" class="edge">
<title>Node15&#45;&gt;Node10</title>
<path fill="none" stroke="midnightblue" d="M708.74,-168.44C676.04,-159.2 623.82,-144.44 587.82,-134.26"/>
<polygon fill="midnightblue" stroke="midnightblue" points="588.7,-130.87 578.12,-131.52 586.79,-137.61 588.7,-130.87"/>
</g>
<!-- Node16&#45;&gt;Node4 -->
<g id="edge31" class="edge">
<title>Node16&#45;&gt;Node4</title>
<path fill="none" stroke="midnightblue" d="M595,-224.08C595,-217.01 595,-206.86 595,-197.99"/>
<polygon fill="midnightblue" stroke="midnightblue" points="598.5,-197.75 595,-187.75 591.5,-197.75 598.5,-197.75"/>
</g>
<!-- Node16&#45;&gt;Node5 -->
<g id="edge33" class="edge">
<title>Node16&#45;&gt;Node5</title>
<path fill="none" stroke="midnightblue" d="M609.08,-224.26C620.35,-216.35 635.35,-203.58 642,-188 645.49,-179.83 643.59,-176.75 642,-168 637.26,-141.85 638.07,-132.37 621,-112 609.26,-97.98 591.96,-87.26 576.84,-79.81"/>
<polygon fill="midnightblue" stroke="midnightblue" points="578.31,-76.63 567.77,-75.59 575.36,-82.98 578.31,-76.63"/>
</g>
<!-- Node16&#45;&gt;Node10 -->
<g id="edge34" class="edge">
<title>Node16&#45;&gt;Node10</title>
<path fill="none" stroke="midnightblue" d="M580.92,-224.26C569.65,-216.35 554.65,-203.58 548,-188 541.77,-173.41 542.38,-155.23 544.2,-141.81"/>
<polygon fill="midnightblue" stroke="midnightblue" points="547.67,-142.29 545.89,-131.85 540.77,-141.12 547.67,-142.29"/>
</g>
<!-- Node16&#45;&gt;Node15 -->
<g id="edge32" class="edge">
<title>Node16&#45;&gt;Node15</title>
<path fill="none" stroke="midnightblue" d="M617.82,-224.44C641.83,-215.44 679.83,-201.19 706.87,-191.05"/>
<polygon fill="midnightblue" stroke="midnightblue" points="708.16,-194.3 716.29,-187.52 705.7,-187.75 708.16,-194.3"/>
</g>
</g>
</svg>
        <g id="navigator" transform="translate(0 0)" fill="#404254">
                <rect fill="#f2f5e9" fill-opacity="0.5" stroke="#606060" stroke-width=".5" x="0" y="0" width="60" height="60"/>
                <use id="zoomplus" xlink:href="#zoomPlus" x="17" y="9" onmousedown="handleZoom(evt,'in')"/>
                <use id="zoomminus" xlink:href="#zoomMin" x="42" y="9" onmousedown="handleZoom(evt,'out')"/>
                <use id="reset" xlink:href="#resetDef" x="30" y="36" onmousedown="handleReset()"/>
                <g id="arrowUp" xlink:href="#dirArrow" transform="translate(30 24)" onmousedown="handlePan(0,-1)">
                  <use xlink:href="#rim" fill="#404040">
                        <set attributeName="fill" to="#808080" begin="arrowUp.mouseover" end="arrowUp.mouseout"/>
                  </use>
                  <path fill="none" stroke="white" stroke-width="1.5" d="M0,-3.0v7 M-2.5,-0.5L0,-3.0L2.5,-0.5"/>
                </g>
                <g id="arrowRight" xlink:href="#dirArrow" transform="rotate(90) translate(36 -43)" onmousedown="handlePan(1,0)">
                  <use xlink:href="#rim" fill="#404040">
                        <set attributeName="fill" to="#808080" begin="arrowRight.mouseover" end="arrowRight.mouseout"/>
                  </use>
                  <path fill="none" stroke="white" stroke-width="1.5" d="M0,-3.0v7 M-2.5,-0.5L0,-3.0L2.5,-0.5"/>
                </g>
                <g id="arrowDown" xlink:href="#dirArrow" transform="rotate(180) translate(-30 -48)" onmousedown="handlePan(0,1)">
                  <use xlink:href="#rim" fill="#404040">
                        <set attributeName="fill" to="#808080" begin="arrowDown.mouseover" end="arrowDown.mouseout"/>
                  </use>
                  <path fill="none" stroke="white" stroke-width="1.5" d="M0,-3.0v7 M-2.5,-0.5L0,-3.0L2.5,-0.5"/>
                </g>
                <g id="arrowLeft" xlink:href="#dirArrow" transform="rotate(270) translate(-36 17)" onmousedown="handlePan(-1,0)">
                  <use xlink:href="#rim" fill="#404040">
                        <set attributeName="fill" to="#808080" begin="arrowLeft.mouseover" end="arrowLeft.mouseout"/>
                  </use>
                  <path fill="none" stroke="white" stroke-width="1.5" d="M0,-3.0v7 M-2.5,-0.5L0,-3.0L2.5,-0.5"/>
                </g>
        </g>
        <svg viewBox="0 0 15 15" width="100%" height="30px" preserveAspectRatio="xMaxYMin meet">
         <g id="arrow_out" transform="scale(0.3 0.3)">
          <a xlink:href="src_2main_8cpp__incl_org.svg" target="_base">
           <rect id="button" ry="5" rx="5" y="6" x="6" height="38" width="38"
                fill="#f2f5e9" fill-opacity="0.5" stroke="#606060" stroke-width="1.0"/>
           <path id="arrow"
             d="M 11.500037,31.436501 C 11.940474,20.09759 22.043105,11.32322 32.158766,21.979434 L 37.068811,17.246167 C 37.068811,17.246167 37.088388,32 37.088388,32 L 22.160133,31.978069 C 22.160133,31.978069 26.997745,27.140456 26.997745,27.140456 C 18.528582,18.264221 13.291696,25.230495 11.500037,31.436501 z"
             style="fill:#404040;"/>
          </a>
         </g>
        </svg>
</svg>
