<?xml version="1.0" encoding="UTF-8" standalone="no"?>
<!DOCTYPE svg PUBLIC "-//W3C//DTD SVG 1.1//EN"
 "http://www.w3.org/Graphics/SVG/1.1/DTD/svg11.dtd">
<!-- Generated by graphviz version 2.43.0 (0)
 -->
<!-- Title: include/StrategyEngine.h Pages: 1 -->
<svg width="546pt" height="196pt"
 viewBox="0.00 0.00 545.50 196.00" xmlns="http://www.w3.org/2000/svg" xmlns:xlink="http://www.w3.org/1999/xlink">
<g id="graph0" class="graph" transform="scale(1 1) rotate(0) translate(4 192)">
<title>include/StrategyEngine.h</title>
<polygon fill="white" stroke="transparent" points="-4,4 -4,-192 541.5,-192 541.5,4 -4,4"/>
<!-- Node1 -->
<g id="node1" class="node">
<title>Node1</title>
<g id="a_node1"><a xlink:title=" ">
<polygon fill="#bfbfbf" stroke="black" points="204,-168.5 204,-187.5 342,-187.5 342,-168.5 204,-168.5"/>
<text text-anchor="middle" x="273" y="-175.5" font-family="Helvetica,sans-Serif" font-size="10.00">include/StrategyEngine.h</text>
</a>
</g>
</g>
<!-- Node2 -->
<g id="node2" class="node">
<title>Node2</title>
<g id="a_node2"><a xlink:title=" ">
<polygon fill="white" stroke="#bfbfbf" points="0,-0.5 0,-19.5 60,-19.5 60,-0.5 0,-0.5"/>
<text text-anchor="middle" x="30" y="-7.5" font-family="Helvetica,sans-Serif" font-size="10.00">iostream</text>
</a>
</g>
</g>
<!-- Node1&#45;&gt;Node2 -->
<g id="edge1" class="edge">
<title>Node1&#45;&gt;Node2</title>
<path fill="none" stroke="midnightblue" d="M260.28,-168.31C220.75,-141.3 99.78,-58.67 50.86,-25.25"/>
<polygon fill="midnightblue" stroke="midnightblue" points="52.83,-22.36 42.6,-19.61 48.88,-28.14 52.83,-22.36"/>
</g>
<!-- Node3 -->
<g id="node3" class="node">
<title>Node3</title>
<g id="a_node3"><a xlink:title=" ">
<polygon fill="white" stroke="#bfbfbf" points="490.5,-0.5 490.5,-19.5 537.5,-19.5 537.5,-0.5 490.5,-0.5"/>
<text text-anchor="middle" x="514" y="-7.5" font-family="Helvetica,sans-Serif" font-size="10.00">vector</text>
</a>
</g>
</g>
<!-- Node1&#45;&gt;Node3 -->
<g id="edge2" class="edge">
<title>Node1&#45;&gt;Node3</title>
<path fill="none" stroke="midnightblue" d="M294.94,-168.45C314.73,-160.32 344.3,-147.1 368,-132 418.86,-99.6 471.69,-51.62 497.62,-26.94"/>
<polygon fill="midnightblue" stroke="midnightblue" points="500.28,-29.25 505.07,-19.79 495.43,-24.2 500.28,-29.25"/>
</g>
<!-- Node4 -->
<g id="node4" class="node">
<title>Node4</title>
<g id="a_node4"><a xlink:href="Card_8h.html" target="_top" xlink:title=" ">
<polygon fill="white" stroke="black" points="249,-56.5 249,-75.5 297,-75.5 297,-56.5 249,-56.5"/>
<text text-anchor="middle" x="273" y="-63.5" font-family="Helvetica,sans-Serif" font-size="10.00">Card.h</text>
</a>
</g>
</g>
<!-- Node1&#45;&gt;Node4 -->
<g id="edge3" class="edge">
<title>Node1&#45;&gt;Node4</title>
<path fill="none" stroke="midnightblue" d="M268.12,-168.37C263.44,-159.55 256.69,-145.3 254,-132 250.72,-115.82 256.76,-97.82 262.88,-84.88"/>
<polygon fill="midnightblue" stroke="midnightblue" points="266.14,-86.2 267.63,-75.71 259.92,-82.98 266.14,-86.2"/>
</g>
<!-- Node8 -->
<g id="node8" class="node">
<title>Node8</title>
<g id="a_node8"><a xlink:href="CallbackLinker_8h.html" target="_top" xlink:title=" ">
<polygon fill="white" stroke="black" points="263,-112.5 263,-131.5 359,-131.5 359,-112.5 263,-112.5"/>
<text text-anchor="middle" x="311" y="-119.5" font-family="Helvetica,sans-Serif" font-size="10.00">CallbackLinker.h</text>
</a>
</g>
</g>
<!-- Node1&#45;&gt;Node8 -->
<g id="edge9" class="edge">
<title>Node1&#45;&gt;Node8</title>
<path fill="none" stroke="midnightblue" d="M279.27,-168.08C284.64,-160.46 292.52,-149.26 299.08,-139.94"/>
<polygon fill="midnightblue" stroke="midnightblue" points="301.95,-141.94 304.84,-131.75 296.22,-137.91 301.95,-141.94"/>
</g>
<!-- Node4&#45;&gt;Node2 -->
<g id="edge8" class="edge">
<title>Node4&#45;&gt;Node2</title>
<path fill="none" stroke="midnightblue" d="M248.8,-59.74C212.3,-51.79 140.73,-36.14 70.17,-20.25"/>
<polygon fill="midnightblue" stroke="midnightblue" points="70.75,-16.79 60.23,-18.01 69.21,-23.62 70.75,-16.79"/>
</g>
<!-- Node4&#45;&gt;Node3 -->
<g id="edge7" class="edge">
<title>Node4&#45;&gt;Node3</title>
<path fill="none" stroke="midnightblue" d="M297.12,-60.22C334.3,-52.75 408.08,-37.56 480.5,-20.02"/>
<polygon fill="midnightblue" stroke="midnightblue" points="481.36,-23.41 490.25,-17.64 479.7,-16.61 481.36,-23.41"/>
</g>
<!-- Node5 -->
<g id="node5" class="node">
<title>Node5</title>
<g id="a_node5"><a xlink:title=" ">
<polygon fill="white" stroke="#bfbfbf" points="78,-0.5 78,-19.5 196,-19.5 196,-0.5 78,-0.5"/>
<text text-anchor="middle" x="137" y="-7.5" font-family="Helvetica,sans-Serif" font-size="10.00">opencv2/videoio.hpp</text>
</a>
</g>
</g>
<!-- Node4&#45;&gt;Node5 -->
<g id="edge4" class="edge">
<title>Node4&#45;&gt;Node5</title>
<path fill="none" stroke="midnightblue" d="M251.45,-56.44C228.97,-47.52 193.51,-33.44 168.02,-23.32"/>
<polygon fill="midnightblue" stroke="midnightblue" points="169.03,-19.95 158.45,-19.52 166.45,-26.46 169.03,-19.95"/>
</g>
<!-- Node6 -->
<g id="node6" class="node">
<title>Node6</title>
<g id="a_node6"><a xlink:title=" ">
<polygon fill="white" stroke="#bfbfbf" points="214,-0.5 214,-19.5 332,-19.5 332,-0.5 214,-0.5"/>
<text text-anchor="middle" x="273" y="-7.5" font-family="Helvetica,sans-Serif" font-size="10.00">opencv2/highgui.hpp</text>
</a>
</g>
</g>
<!-- Node4&#45;&gt;Node6 -->
<g id="edge5" class="edge">
<title>Node4&#45;&gt;Node6</title>
<path fill="none" stroke="midnightblue" d="M273,-56.08C273,-49.01 273,-38.86 273,-29.99"/>
<polygon fill="midnightblue" stroke="midnightblue" points="276.5,-29.75 273,-19.75 269.5,-29.75 276.5,-29.75"/>
</g>
<!-- Node7 -->
<g id="node7" class="node">
<title>Node7</title>
<g id="a_node7"><a xlink:title=" ">
<polygon fill="white" stroke="#bfbfbf" points="350,-0.5 350,-19.5 472,-19.5 472,-0.5 350,-0.5"/>
<text text-anchor="middle" x="411" y="-7.5" font-family="Helvetica,sans-Serif" font-size="10.00">opencv2/imgproc.hpp</text>
</a>
</g>
</g>
<!-- Node4&#45;&gt;Node7 -->
<g id="edge6" class="edge">
<title>Node4&#45;&gt;Node7</title>
<path fill="none" stroke="midnightblue" d="M294.87,-56.44C317.78,-47.48 353.98,-33.31 379.87,-23.18"/>
<polygon fill="midnightblue" stroke="midnightblue" points="381.2,-26.42 389.24,-19.52 378.65,-19.9 381.2,-26.42"/>
</g>
<!-- Node8&#45;&gt;Node4 -->
<g id="edge10" class="edge">
<title>Node8&#45;&gt;Node4</title>
<path fill="none" stroke="midnightblue" d="M304.73,-112.08C299.36,-104.46 291.48,-93.26 284.92,-83.94"/>
<polygon fill="midnightblue" stroke="midnightblue" points="287.78,-81.91 279.16,-75.75 282.05,-85.94 287.78,-81.91"/>
</g>
</g>
</svg>
