<?xml version="1.0" encoding="UTF-8" standalone="no"?>
<!DOCTYPE svg PUBLIC "-//W3C//DTD SVG 1.1//EN"
 "http://www.w3.org/Graphics/SVG/1.1/DTD/svg11.dtd">
<!-- Generated by graphviz version 2.43.0 (0)
 -->
<!-- Title: src/StrategyEngine.cpp Pages: 1 -->
<svg width="546pt" height="252pt"
 viewBox="0.00 0.00 545.50 252.00" xmlns="http://www.w3.org/2000/svg" xmlns:xlink="http://www.w3.org/1999/xlink">
<g id="graph0" class="graph" transform="scale(1 1) rotate(0) translate(4 248)">
<title>src/StrategyEngine.cpp</title>
<polygon fill="white" stroke="transparent" points="-4,4 -4,-248 541.5,-248 541.5,4 -4,4"/>
<!-- Node1 -->
<g id="node1" class="node">
<title>Node1</title>
<g id="a_node1"><a xlink:title=" ">
<polygon fill="#bfbfbf" stroke="black" points="336.5,-224.5 336.5,-243.5 464.5,-243.5 464.5,-224.5 336.5,-224.5"/>
<text text-anchor="middle" x="400.5" y="-231.5" font-family="Helvetica,sans-Serif" font-size="10.00">src/StrategyEngine.cpp</text>
</a>
</g>
</g>
<!-- Node2 -->
<g id="node2" class="node">
<title>Node2</title>
<g id="a_node2"><a xlink:title=" ">
<polygon fill="white" stroke="#bfbfbf" points="477.5,-0.5 477.5,-19.5 537.5,-19.5 537.5,-0.5 477.5,-0.5"/>
<text text-anchor="middle" x="507.5" y="-7.5" font-family="Helvetica,sans-Serif" font-size="10.00">iostream</text>
</a>
</g>
</g>
<!-- Node1&#45;&gt;Node2 -->
<g id="edge1" class="edge">
<title>Node1&#45;&gt;Node2</title>
<path fill="none" stroke="midnightblue" d="M404.69,-224.3C420.54,-191.42 476.95,-74.39 498.78,-29.09"/>
<polygon fill="midnightblue" stroke="midnightblue" points="502.03,-30.41 503.22,-19.88 495.72,-27.37 502.03,-30.41"/>
</g>
<!-- Node3 -->
<g id="node3" class="node">
<title>Node3</title>
<g id="a_node3"><a xlink:href="StrategyEngine_8h.html" target="_top" xlink:title=" ">
<polygon fill="white" stroke="black" points="293.5,-168.5 293.5,-187.5 393.5,-187.5 393.5,-168.5 293.5,-168.5"/>
<text text-anchor="middle" x="343.5" y="-175.5" font-family="Helvetica,sans-Serif" font-size="10.00">StrategyEngine.h</text>
</a>
</g>
</g>
<!-- Node1&#45;&gt;Node3 -->
<g id="edge2" class="edge">
<title>Node1&#45;&gt;Node3</title>
<path fill="none" stroke="midnightblue" d="M391.34,-224.32C383,-216.42 370.47,-204.55 360.32,-194.94"/>
<polygon fill="midnightblue" stroke="midnightblue" points="362.49,-192.17 352.82,-187.83 357.68,-197.25 362.49,-192.17"/>
</g>
<!-- Node3&#45;&gt;Node2 -->
<g id="edge3" class="edge">
<title>Node3&#45;&gt;Node2</title>
<path fill="none" stroke="midnightblue" d="M355.8,-168.28C367.71,-159.62 386.03,-145.69 400.5,-132 437.15,-97.34 475.13,-51.63 494.47,-27.53"/>
<polygon fill="midnightblue" stroke="midnightblue" points="497.23,-29.69 500.72,-19.68 491.75,-25.33 497.23,-29.69"/>
</g>
<!-- Node4 -->
<g id="node4" class="node">
<title>Node4</title>
<g id="a_node4"><a xlink:title=" ">
<polygon fill="white" stroke="#bfbfbf" points="0,-0.5 0,-19.5 47,-19.5 47,-0.5 0,-0.5"/>
<text text-anchor="middle" x="23.5" y="-7.5" font-family="Helvetica,sans-Serif" font-size="10.00">vector</text>
</a>
</g>
</g>
<!-- Node3&#45;&gt;Node4 -->
<g id="edge4" class="edge">
<title>Node3&#45;&gt;Node4</title>
<path fill="none" stroke="midnightblue" d="M326.75,-168.31C274.15,-141.02 112.07,-56.95 48.99,-24.22"/>
<polygon fill="midnightblue" stroke="midnightblue" points="50.58,-21.1 40.09,-19.61 47.35,-27.32 50.58,-21.1"/>
</g>
<!-- Node5 -->
<g id="node5" class="node">
<title>Node5</title>
<g id="a_node5"><a xlink:href="Card_8h.html" target="_top" xlink:title=" ">
<polygon fill="white" stroke="black" points="243.5,-56.5 243.5,-75.5 291.5,-75.5 291.5,-56.5 243.5,-56.5"/>
<text text-anchor="middle" x="267.5" y="-63.5" font-family="Helvetica,sans-Serif" font-size="10.00">Card.h</text>
</a>
</g>
</g>
<!-- Node3&#45;&gt;Node5 -->
<g id="edge5" class="edge">
<title>Node3&#45;&gt;Node5</title>
<path fill="none" stroke="midnightblue" d="M327.97,-168.46C315.06,-160.6 297.15,-147.78 286.5,-132 277.15,-118.14 272.33,-99.63 269.88,-85.9"/>
<polygon fill="midnightblue" stroke="midnightblue" points="273.3,-85.07 268.35,-75.71 266.38,-86.12 273.3,-85.07"/>
</g>
<!-- Node9 -->
<g id="node9" class="node">
<title>Node9</title>
<g id="a_node9"><a xlink:href="CallbackLinker_8h.html" target="_top" xlink:title=" ">
<polygon fill="white" stroke="black" points="295.5,-112.5 295.5,-131.5 391.5,-131.5 391.5,-112.5 295.5,-112.5"/>
<text text-anchor="middle" x="343.5" y="-119.5" font-family="Helvetica,sans-Serif" font-size="10.00">CallbackLinker.h</text>
</a>
</g>
</g>
<!-- Node3&#45;&gt;Node9 -->
<g id="edge11" class="edge">
<title>Node3&#45;&gt;Node9</title>
<path fill="none" stroke="midnightblue" d="M343.5,-168.08C343.5,-161.01 343.5,-150.86 343.5,-141.99"/>
<polygon fill="midnightblue" stroke="midnightblue" points="347,-141.75 343.5,-131.75 340,-141.75 347,-141.75"/>
</g>
<!-- Node5&#45;&gt;Node2 -->
<g id="edge10" class="edge">
<title>Node5&#45;&gt;Node2</title>
<path fill="none" stroke="midnightblue" d="M291.64,-59.65C327.7,-51.64 398,-35.99 467.48,-20.22"/>
<polygon fill="midnightblue" stroke="midnightblue" points="468.29,-23.63 477.27,-18 466.74,-16.8 468.29,-23.63"/>
</g>
<!-- Node5&#45;&gt;Node4 -->
<g id="edge9" class="edge">
<title>Node5&#45;&gt;Node4</title>
<path fill="none" stroke="midnightblue" d="M243.35,-60.31C205.73,-52.9 130.65,-37.73 57.14,-20.05"/>
<polygon fill="midnightblue" stroke="midnightblue" points="57.79,-16.6 47.25,-17.65 56.15,-23.41 57.79,-16.6"/>
</g>
<!-- Node6 -->
<g id="node6" class="node">
<title>Node6</title>
<g id="a_node6"><a xlink:title=" ">
<polygon fill="white" stroke="#bfbfbf" points="65.5,-0.5 65.5,-19.5 183.5,-19.5 183.5,-0.5 65.5,-0.5"/>
<text text-anchor="middle" x="124.5" y="-7.5" font-family="Helvetica,sans-Serif" font-size="10.00">opencv2/videoio.hpp</text>
</a>
</g>
</g>
<!-- Node5&#45;&gt;Node6 -->
<g id="edge6" class="edge">
<title>Node5&#45;&gt;Node6</title>
<path fill="none" stroke="midnightblue" d="M244.84,-56.44C221.1,-47.48 183.59,-33.31 156.76,-23.18"/>
<polygon fill="midnightblue" stroke="midnightblue" points="157.64,-19.77 147.05,-19.52 155.17,-26.32 157.64,-19.77"/>
</g>
<!-- Node7 -->
<g id="node7" class="node">
<title>Node7</title>
<g id="a_node7"><a xlink:title=" ">
<polygon fill="white" stroke="#bfbfbf" points="201.5,-0.5 201.5,-19.5 319.5,-19.5 319.5,-0.5 201.5,-0.5"/>
<text text-anchor="middle" x="260.5" y="-7.5" font-family="Helvetica,sans-Serif" font-size="10.00">opencv2/highgui.hpp</text>
</a>
</g>
</g>
<!-- Node5&#45;&gt;Node7 -->
<g id="edge7" class="edge">
<title>Node5&#45;&gt;Node7</title>
<path fill="none" stroke="midnightblue" d="M266.34,-56.08C265.42,-48.93 264.08,-38.64 262.92,-29.69"/>
<polygon fill="midnightblue" stroke="midnightblue" points="266.39,-29.22 261.63,-19.75 259.45,-30.12 266.39,-29.22"/>
</g>
<!-- Node8 -->
<g id="node8" class="node">
<title>Node8</title>
<g id="a_node8"><a xlink:title=" ">
<polygon fill="white" stroke="#bfbfbf" points="337.5,-0.5 337.5,-19.5 459.5,-19.5 459.5,-0.5 337.5,-0.5"/>
<text text-anchor="middle" x="398.5" y="-7.5" font-family="Helvetica,sans-Serif" font-size="10.00">opencv2/imgproc.hpp</text>
</a>
</g>
</g>
<!-- Node5&#45;&gt;Node8 -->
<g id="edge8" class="edge">
<title>Node5&#45;&gt;Node8</title>
<path fill="none" stroke="midnightblue" d="M288.26,-56.44C309.82,-47.56 343.76,-33.56 368.29,-23.45"/>
<polygon fill="midnightblue" stroke="midnightblue" points="369.93,-26.56 377.84,-19.52 367.26,-20.09 369.93,-26.56"/>
</g>
<!-- Node9&#45;&gt;Node5 -->
<g id="edge12" class="edge">
<title>Node9&#45;&gt;Node5</title>
<path fill="none" stroke="midnightblue" d="M331.29,-112.32C319.72,-104.11 302.12,-91.6 288.34,-81.81"/>
<polygon fill="midnightblue" stroke="midnightblue" points="290.11,-78.77 279.93,-75.83 286.06,-84.48 290.11,-78.77"/>
</g>
</g>
</svg>
