<?xml version="1.0" encoding="UTF-8" standalone="no"?>
<!DOCTYPE svg PUBLIC "-//W3C//DTD SVG 1.1//EN"
 "http://www.w3.org/Graphics/SVG/1.1/DTD/svg11.dtd">
<!-- Generated by graphviz version 2.43.0 (0)
 -->
<!-- Title: include/StrategyEngine.h Pages: 1 -->
<svg width="642pt" height="140pt"
 viewBox="0.00 0.00 641.50 140.00" xmlns="http://www.w3.org/2000/svg" xmlns:xlink="http://www.w3.org/1999/xlink">
<g id="graph0" class="graph" transform="scale(1 1) rotate(0) translate(4 136)">
<title>include/StrategyEngine.h</title>
<polygon fill="white" stroke="transparent" points="-4,4 -4,-136 637.5,-136 637.5,4 -4,4"/>
<!-- Node1 -->
<g id="node1" class="node">
<title>Node1</title>
<g id="a_node1"><a xlink:title=" ">
<polygon fill="#bfbfbf" stroke="black" points="232.5,-112.5 232.5,-131.5 370.5,-131.5 370.5,-112.5 232.5,-112.5"/>
<text text-anchor="middle" x="301.5" y="-119.5" font-family="Helvetica,sans-Serif" font-size="10.00">include/StrategyEngine.h</text>
</a>
</g>
</g>
<!-- Node2 -->
<g id="node2" class="node">
<title>Node2</title>
<g id="a_node2"><a xlink:href="GamePlay_8h.html" target="_top" xlink:title=" ">
<polygon fill="white" stroke="black" points="160,-56.5 160,-75.5 273,-75.5 273,-56.5 160,-56.5"/>
<text text-anchor="middle" x="216.5" y="-63.5" font-family="Helvetica,sans-Serif" font-size="10.00">include/GamePlay.h</text>
</a>
</g>
</g>
<!-- Node1&#45;&gt;Node2 -->
<g id="edge1" class="edge">
<title>Node1&#45;&gt;Node2</title>
<path fill="none" stroke="midnightblue" d="M279.31,-106.9C263.72,-97 243.37,-84.07 230.12,-75.65"/>
<polygon fill="midnightblue" stroke="midnightblue" points="277.53,-109.92 287.84,-112.32 281.28,-104.01 277.53,-109.92"/>
</g>
<!-- Node4 -->
<g id="node4" class="node">
<title>Node4</title>
<g id="a_node4"><a xlink:href="src_2main_8cpp.html" target="_top" xlink:title=" ">
<polygon fill="white" stroke="black" points="0,-0.5 0,-19.5 79,-19.5 79,-0.5 0,-0.5"/>
<text text-anchor="middle" x="39.5" y="-7.5" font-family="Helvetica,sans-Serif" font-size="10.00">src/main.cpp</text>
</a>
</g>
</g>
<!-- Node1&#45;&gt;Node4 -->
<g id="edge6" class="edge">
<title>Node1&#45;&gt;Node4</title>
<path fill="none" stroke="midnightblue" d="M254.46,-109.92C224.38,-102.1 184.9,-90.46 151.5,-76 113.54,-59.56 72.29,-33.17 52.09,-19.63"/>
<polygon fill="midnightblue" stroke="midnightblue" points="253.72,-113.34 264.27,-112.42 255.45,-106.56 253.72,-113.34"/>
</g>
<!-- Node6 -->
<g id="node6" class="node">
<title>Node6</title>
<g id="a_node6"><a xlink:href="tests_2main_8cpp.html" target="_top" xlink:title=" ">
<polygon fill="white" stroke="black" points="371,-0.5 371,-19.5 460,-19.5 460,-0.5 371,-0.5"/>
<text text-anchor="middle" x="415.5" y="-7.5" font-family="Helvetica,sans-Serif" font-size="10.00">tests/main.cpp</text>
</a>
</g>
</g>
<!-- Node1&#45;&gt;Node6 -->
<g id="edge8" class="edge">
<title>Node1&#45;&gt;Node6</title>
<path fill="none" stroke="midnightblue" d="M302.87,-102.31C304.8,-88.15 309.42,-68.98 320.5,-56 336.14,-37.67 360.91,-26.28 381.23,-19.55"/>
<polygon fill="midnightblue" stroke="midnightblue" points="299.38,-102.07 301.83,-112.37 306.34,-102.78 299.38,-102.07"/>
</g>
<!-- Node7 -->
<g id="node7" class="node">
<title>Node7</title>
<g id="a_node7"><a xlink:href="StrategyEngine_8cpp.html" target="_top" xlink:title=" ">
<polygon fill="white" stroke="black" points="329.5,-56.5 329.5,-75.5 457.5,-75.5 457.5,-56.5 329.5,-56.5"/>
<text text-anchor="middle" x="393.5" y="-63.5" font-family="Helvetica,sans-Serif" font-size="10.00">src/StrategyEngine.cpp</text>
</a>
</g>
</g>
<!-- Node1&#45;&gt;Node7 -->
<g id="edge7" class="edge">
<title>Node1&#45;&gt;Node7</title>
<path fill="none" stroke="midnightblue" d="M325.05,-107.18C341.98,-97.24 364.28,-84.15 378.76,-75.65"/>
<polygon fill="midnightblue" stroke="midnightblue" points="323.13,-104.24 316.28,-112.32 326.68,-110.28 323.13,-104.24"/>
</g>
<!-- Node8 -->
<g id="node8" class="node">
<title>Node8</title>
<g id="a_node8"><a xlink:href="StrategyEngineTest_8cpp.html" target="_top" xlink:title=" ">
<polygon fill="white" stroke="black" points="475.5,-56.5 475.5,-75.5 633.5,-75.5 633.5,-56.5 475.5,-56.5"/>
<text text-anchor="middle" x="554.5" y="-63.5" font-family="Helvetica,sans-Serif" font-size="10.00">tests/StrategyEngineTest.cpp</text>
</a>
</g>
</g>
<!-- Node1&#45;&gt;Node8 -->
<g id="edge9" class="edge">
<title>Node1&#45;&gt;Node8</title>
<path fill="none" stroke="midnightblue" d="M351.42,-110.35C399.23,-100.14 470.45,-84.94 514.6,-75.52"/>
<polygon fill="midnightblue" stroke="midnightblue" points="350.64,-106.93 341.59,-112.44 352.1,-113.78 350.64,-106.93"/>
</g>
<!-- Node3 -->
<g id="node3" class="node">
<title>Node3</title>
<g id="a_node3"><a xlink:href="GamePlay_8cpp.html" target="_top" xlink:title=" ">
<polygon fill="white" stroke="black" points="97,-0.5 97,-19.5 200,-19.5 200,-0.5 97,-0.5"/>
<text text-anchor="middle" x="148.5" y="-7.5" font-family="Helvetica,sans-Serif" font-size="10.00">src/GamePlay.cpp</text>
</a>
</g>
</g>
<!-- Node2&#45;&gt;Node3 -->
<g id="edge2" class="edge">
<title>Node2&#45;&gt;Node3</title>
<path fill="none" stroke="midnightblue" d="M197.74,-50.1C185.5,-40.38 169.94,-28.03 159.62,-19.83"/>
<polygon fill="midnightblue" stroke="midnightblue" points="195.57,-52.85 205.57,-56.32 199.92,-47.36 195.57,-52.85"/>
</g>
<!-- Node2&#45;&gt;Node4 -->
<g id="edge3" class="edge">
<title>Node2&#45;&gt;Node4</title>
<path fill="none" stroke="midnightblue" d="M178.6,-53.44C145.22,-43.26 97.4,-28.66 67.41,-19.52"/>
<polygon fill="midnightblue" stroke="midnightblue" points="177.87,-56.87 188.45,-56.44 179.91,-50.18 177.87,-56.87"/>
</g>
<!-- Node5 -->
<g id="node5" class="node">
<title>Node5</title>
<g id="a_node5"><a xlink:href="GamePlayTest_8cpp.html" target="_top" xlink:title=" ">
<polygon fill="white" stroke="black" points="218.5,-0.5 218.5,-19.5 352.5,-19.5 352.5,-0.5 218.5,-0.5"/>
<text text-anchor="middle" x="285.5" y="-7.5" font-family="Helvetica,sans-Serif" font-size="10.00">tests/GamePlayTest.cpp</text>
</a>
</g>
</g>
<!-- Node2&#45;&gt;Node5 -->
<g id="edge4" class="edge">
<title>Node2&#45;&gt;Node5</title>
<path fill="none" stroke="midnightblue" d="M235.54,-50.1C247.96,-40.38 263.74,-28.03 274.21,-19.83"/>
<polygon fill="midnightblue" stroke="midnightblue" points="233.3,-47.4 227.59,-56.32 237.62,-52.92 233.3,-47.4"/>
</g>
<!-- Node2&#45;&gt;Node6 -->
<g id="edge5" class="edge">
<title>Node2&#45;&gt;Node6</title>
<path fill="none" stroke="midnightblue" d="M258.15,-53.7C295.71,-43.51 350.11,-28.74 384.12,-19.52"/>
<polygon fill="midnightblue" stroke="midnightblue" points="256.77,-50.45 248.03,-56.44 258.6,-57.2 256.77,-50.45"/>
</g>
</g>
</svg>
