<?xml version="1.0" encoding="UTF-8" standalone="no"?>
<!DOCTYPE svg PUBLIC "-//W3C//DTD SVG 1.1//EN"
 "http://www.w3.org/Graphics/SVG/1.1/DTD/svg11.dtd">
<!-- Generated by graphviz version 2.43.0 (0)
 -->
<!-- Title: TemplateImages Pages: 1 -->
<svg width="288pt" height="381pt"
 viewBox="0.00 0.00 288.00 381.00" xmlns="http://www.w3.org/2000/svg" xmlns:xlink="http://www.w3.org/1999/xlink">
<g id="graph0" class="graph" transform="scale(1 1) rotate(0) translate(4 377)">
<title>TemplateImages</title>
<polygon fill="white" stroke="transparent" points="-4,4 -4,-377 284,-377 284,4 -4,4"/>
<!-- Node1 -->
<g id="node1" class="node">
<title>Node1</title>
<g id="a_node1"><a xlink:title="Simple structure to hold loaded images and their respective names.">
<polygon fill="#bfbfbf" stroke="black" points="93,-0.5 93,-57.5 191,-57.5 191,-0.5 93,-0.5"/>
<text text-anchor="middle" x="142" y="-45.5" font-family="Helvetica,sans-Serif" font-size="10.00">TemplateImages</text>
<polyline fill="none" stroke="black" points="93,-38.5 191,-38.5 "/>
<text text-anchor="middle" x="142" y="-26.5" font-family="Helvetica,sans-Serif" font-size="10.00"> </text>
<polyline fill="none" stroke="black" points="93,-19.5 191,-19.5 "/>
<text text-anchor="middle" x="142" y="-7.5" font-family="Helvetica,sans-Serif" font-size="10.00"> </text>
</a>
</g>
</g>
<!-- Node2 -->
<g id="node2" class="node">
<title>Node2</title>
<g id="a_node2"><a xlink:title=" ">
<polygon fill="white" stroke="#bfbfbf" points="0,-105.5 0,-162.5 136,-162.5 136,-105.5 0,-105.5"/>
<text text-anchor="middle" x="68" y="-150.5" font-family="Helvetica,sans-Serif" font-size="10.00">std::vector&lt; cv::String &gt;</text>
<polyline fill="none" stroke="#bfbfbf" points="0,-143.5 136,-143.5 "/>
<text text-anchor="start" x="8" y="-131.5" font-family="Helvetica,sans-Serif" font-size="10.00">+ elements</text>
<polyline fill="none" stroke="#bfbfbf" points="0,-124.5 136,-124.5 "/>
<text text-anchor="middle" x="68" y="-112.5" font-family="Helvetica,sans-Serif" font-size="10.00"> </text>
</a>
</g>
</g>
<!-- Node2&#45;&gt;Node1 -->
<g id="edge1" class="edge">
<title>Node2&#45;&gt;Node1</title>
<path fill="none" stroke="#404040" d="M87.83,-105.4C96.13,-93.85 105.9,-80.25 114.85,-67.8"/>
<polygon fill="none" stroke="#404040" points="115.11,-67.42 115.37,-60.22 122.11,-57.68 121.86,-64.89 115.11,-67.42"/>
<text text-anchor="middle" x="130.5" y="-79" font-family="Helvetica,sans-Serif" font-size="10.00"> +names</text>
</g>
<!-- Node3 -->
<g id="node3" class="node">
<title>Node3</title>
<g id="a_node3"><a xlink:title=" ">
<polygon fill="white" stroke="#bfbfbf" points="93.5,-210.5 93.5,-267.5 190.5,-267.5 190.5,-210.5 93.5,-210.5"/>
<text text-anchor="middle" x="142" y="-255.5" font-family="Helvetica,sans-Serif" font-size="10.00">std::vector&lt; T &gt;</text>
<polyline fill="none" stroke="#bfbfbf" points="93.5,-248.5 190.5,-248.5 "/>
<text text-anchor="middle" x="142" y="-236.5" font-family="Helvetica,sans-Serif" font-size="10.00"> </text>
<polyline fill="none" stroke="#bfbfbf" points="93.5,-229.5 190.5,-229.5 "/>
<text text-anchor="middle" x="142" y="-217.5" font-family="Helvetica,sans-Serif" font-size="10.00"> </text>
</a>
</g>
</g>
<!-- Node3&#45;&gt;Node2 -->
<g id="edge2" class="edge">
<title>Node3&#45;&gt;Node2</title>
<path fill="none" stroke="orange" d="M116.24,-202.14C106.94,-189.2 96.6,-174.81 87.89,-162.68"/>
<polygon fill="orange" stroke="orange" points="113.49,-204.32 122.17,-210.4 119.18,-200.23 113.49,-204.32"/>
<text text-anchor="middle" x="143.5" y="-184" font-family="Helvetica,sans-Serif" font-size="10.00"> &lt; cv::String &gt;</text>
</g>
<!-- Node5 -->
<g id="node5" class="node">
<title>Node5</title>
<g id="a_node5"><a xlink:title=" ">
<polygon fill="white" stroke="#bfbfbf" points="154,-105.5 154,-162.5 280,-162.5 280,-105.5 154,-105.5"/>
<text text-anchor="middle" x="217" y="-150.5" font-family="Helvetica,sans-Serif" font-size="10.00">std::vector&lt; cv::Mat &gt;</text>
<polyline fill="none" stroke="#bfbfbf" points="154,-143.5 280,-143.5 "/>
<text text-anchor="start" x="162" y="-131.5" font-family="Helvetica,sans-Serif" font-size="10.00">+ elements</text>
<polyline fill="none" stroke="#bfbfbf" points="154,-124.5 280,-124.5 "/>
<text text-anchor="middle" x="217" y="-112.5" font-family="Helvetica,sans-Serif" font-size="10.00"> </text>
</a>
</g>
</g>
<!-- Node3&#45;&gt;Node5 -->
<g id="edge5" class="edge">
<title>Node3&#45;&gt;Node5</title>
<path fill="none" stroke="orange" d="M173.05,-202.36C175.8,-198.91 178.49,-195.42 181,-192 187.79,-182.75 194.65,-172.23 200.54,-162.77"/>
<polygon fill="orange" stroke="orange" points="170.18,-200.33 166.57,-210.29 175.6,-204.76 170.18,-200.33"/>
<text text-anchor="middle" x="218.5" y="-184" font-family="Helvetica,sans-Serif" font-size="10.00"> &lt; cv::Mat &gt;</text>
</g>
<!-- Node4 -->
<g id="node4" class="node">
<title>Node4</title>
<g id="a_node4"><a xlink:title=" ">
<polygon fill="white" stroke="#bfbfbf" points="127.5,-315.5 127.5,-372.5 156.5,-372.5 156.5,-315.5 127.5,-315.5"/>
<text text-anchor="middle" x="142" y="-360.5" font-family="Helvetica,sans-Serif" font-size="10.00">T</text>
<polyline fill="none" stroke="#bfbfbf" points="127.5,-353.5 156.5,-353.5 "/>
<text text-anchor="middle" x="142" y="-341.5" font-family="Helvetica,sans-Serif" font-size="10.00"> </text>
<polyline fill="none" stroke="#bfbfbf" points="127.5,-334.5 156.5,-334.5 "/>
<text text-anchor="middle" x="142" y="-322.5" font-family="Helvetica,sans-Serif" font-size="10.00"> </text>
</a>
</g>
</g>
<!-- Node4&#45;&gt;Node3 -->
<g id="edge3" class="edge">
<title>Node4&#45;&gt;Node3</title>
<path fill="none" stroke="#404040" d="M142,-315.4C142,-304.55 142,-291.87 142,-280.05"/>
<polygon fill="none" stroke="#404040" points="142,-279.68 138,-273.68 142,-267.68 146,-273.68 142,-279.68"/>
<text text-anchor="middle" x="171" y="-289" font-family="Helvetica,sans-Serif" font-size="10.00"> +elements</text>
</g>
<!-- Node5&#45;&gt;Node1 -->
<g id="edge4" class="edge">
<title>Node5&#45;&gt;Node1</title>
<path fill="none" stroke="#404040" d="M196.9,-105.4C188.41,-93.74 178.39,-79.98 169.25,-67.42"/>
<polygon fill="none" stroke="#404040" points="169.22,-67.38 162.45,-64.88 162.15,-57.68 168.92,-60.17 169.22,-67.38"/>
<text text-anchor="middle" x="225" y="-79" font-family="Helvetica,sans-Serif" font-size="10.00"> +template_cards</text>
</g>
</g>
</svg>
