<?xml version="1.0" encoding="UTF-8" standalone="no"?>
<!DOCTYPE svg PUBLIC "-//W3C//DTD SVG 1.1//EN"
 "http://www.w3.org/Graphics/SVG/1.1/DTD/svg11.dtd">
<!-- Generated by graphviz version 2.43.0 (0)
 -->
<!-- Title: CompletedRequest Pages: 1 -->
<svg width="200pt" height="347pt"
 viewBox="0.00 0.00 200.00 347.00" xmlns="http://www.w3.org/2000/svg" xmlns:xlink="http://www.w3.org/1999/xlink">
<g id="graph0" class="graph" transform="scale(1 1) rotate(0) translate(4 343)">
<title>CompletedRequest</title>
<polygon fill="white" stroke="transparent" points="-4,4 -4,-343 196,-343 196,4 -4,4"/>
<!-- Node1 -->
<g id="node1" class="node">
<title>Node1</title>
<g id="a_node1"><a xlink:title=" ">
<polygon fill="#bfbfbf" stroke="black" points="0,-0.5 0,-101.5 128,-101.5 128,-0.5 0,-0.5"/>
<text text-anchor="middle" x="64" y="-89.5" font-family="Helvetica,sans-Serif" font-size="10.00">CompletedRequest</text>
<polyline fill="none" stroke="black" points="0,-82.5 128,-82.5 "/>
<text text-anchor="start" x="8" y="-70.5" font-family="Helvetica,sans-Serif" font-size="10.00">+ sequence</text>
<text text-anchor="start" x="8" y="-59.5" font-family="Helvetica,sans-Serif" font-size="10.00">+ buffers</text>
<text text-anchor="start" x="8" y="-48.5" font-family="Helvetica,sans-Serif" font-size="10.00">+ metadata</text>
<text text-anchor="start" x="8" y="-37.5" font-family="Helvetica,sans-Serif" font-size="10.00">+ request</text>
<text text-anchor="start" x="8" y="-26.5" font-family="Helvetica,sans-Serif" font-size="10.00">+ framerate</text>
<polyline fill="none" stroke="black" points="0,-19.5 128,-19.5 "/>
<text text-anchor="start" x="8" y="-7.5" font-family="Helvetica,sans-Serif" font-size="10.00">+ CompletedRequest()</text>
</a>
</g>
</g>
<!-- Node2 -->
<g id="node2" class="node">
<title>Node2</title>
<g id="a_node2"><a xlink:href="classMetadata.html" target="_top" xlink:title=" ">
<polygon fill="white" stroke="black" points="21,-149.5 21,-338.5 107,-338.5 107,-149.5 21,-149.5"/>
<text text-anchor="middle" x="64" y="-326.5" font-family="Helvetica,sans-Serif" font-size="10.00">Metadata</text>
<polyline fill="none" stroke="black" points="21,-319.5 107,-319.5 "/>
<text text-anchor="middle" x="64" y="-307.5" font-family="Helvetica,sans-Serif" font-size="10.00"> </text>
<polyline fill="none" stroke="black" points="21,-300.5 107,-300.5 "/>
<text text-anchor="start" x="29" y="-288.5" font-family="Helvetica,sans-Serif" font-size="10.00">+ Metadata()</text>
<text text-anchor="start" x="29" y="-277.5" font-family="Helvetica,sans-Serif" font-size="10.00">+ Metadata()</text>
<text text-anchor="start" x="29" y="-266.5" font-family="Helvetica,sans-Serif" font-size="10.00">+ Metadata()</text>
<text text-anchor="start" x="29" y="-255.5" font-family="Helvetica,sans-Serif" font-size="10.00">+ Set()</text>
<text text-anchor="start" x="29" y="-244.5" font-family="Helvetica,sans-Serif" font-size="10.00">+ Get()</text>
<text text-anchor="start" x="29" y="-233.5" font-family="Helvetica,sans-Serif" font-size="10.00">+ Clear()</text>
<text text-anchor="start" x="29" y="-222.5" font-family="Helvetica,sans-Serif" font-size="10.00">+ operator=()</text>
<text text-anchor="start" x="29" y="-211.5" font-family="Helvetica,sans-Serif" font-size="10.00">+ operator=()</text>
<text text-anchor="start" x="29" y="-200.5" font-family="Helvetica,sans-Serif" font-size="10.00">+ Merge()</text>
<text text-anchor="start" x="29" y="-189.5" font-family="Helvetica,sans-Serif" font-size="10.00">+ GetLocked()</text>
<text text-anchor="start" x="29" y="-178.5" font-family="Helvetica,sans-Serif" font-size="10.00">+ SetLocked()</text>
<text text-anchor="start" x="29" y="-167.5" font-family="Helvetica,sans-Serif" font-size="10.00">+ lock()</text>
<text text-anchor="start" x="29" y="-156.5" font-family="Helvetica,sans-Serif" font-size="10.00">+ unlock()</text>
</a>
</g>
</g>
<!-- Node2&#45;&gt;Node1 -->
<g id="edge1" class="edge">
<title>Node2&#45;&gt;Node1</title>
<path fill="none" stroke="#404040" d="M64,-149.46C64,-137.31 64,-125.12 64,-113.68"/>
<polygon fill="none" stroke="#404040" points="64,-113.59 60,-107.59 64,-101.59 68,-107.59 64,-113.59"/>
<text text-anchor="middle" x="128" y="-123" font-family="Helvetica,sans-Serif" font-size="10.00"> +post_process_metadata</text>
</g>
</g>
</svg>
