<?xml version="1.0" encoding="UTF-8" standalone="no"?>
<!DOCTYPE svg PUBLIC "-//W3C//DTD SVG 1.1//EN"
 "http://www.w3.org/Graphics/SVG/1.1/DTD/svg11.dtd">
<!-- Generated by graphviz version 2.43.0 (0)
 -->
<!-- Title: FrameInfo Pages: 1 -->
<svg width="141pt" height="458pt"
 viewBox="0.00 0.00 140.50 458.00" xmlns="http://www.w3.org/2000/svg" xmlns:xlink="http://www.w3.org/1999/xlink">
<g id="graph0" class="graph" transform="scale(1 1) rotate(0) translate(4 454)">
<title>FrameInfo</title>
<polygon fill="white" stroke="transparent" points="-4,4 -4,-454 136.5,-454 136.5,4 -4,4"/>
<!-- Node1 -->
<g id="node1" class="node">
<title>Node1</title>
<g id="a_node1"><a xlink:title=" ">
<polygon fill="#bfbfbf" stroke="black" points="9,-0.5 9,-134.5 110,-134.5 110,-0.5 9,-0.5"/>
<text text-anchor="middle" x="59.5" y="-122.5" font-family="Helvetica,sans-Serif" font-size="10.00">FrameInfo</text>
<polyline fill="none" stroke="black" points="9,-115.5 110,-115.5 "/>
<text text-anchor="start" x="17" y="-103.5" font-family="Helvetica,sans-Serif" font-size="10.00">+ sequence</text>
<text text-anchor="start" x="17" y="-92.5" font-family="Helvetica,sans-Serif" font-size="10.00">+ exposure_time</text>
<text text-anchor="start" x="17" y="-81.5" font-family="Helvetica,sans-Serif" font-size="10.00">+ analogue_gain</text>
<text text-anchor="start" x="17" y="-70.5" font-family="Helvetica,sans-Serif" font-size="10.00">+ digital_gain</text>
<text text-anchor="start" x="17" y="-59.5" font-family="Helvetica,sans-Serif" font-size="10.00">+ focus</text>
<text text-anchor="start" x="17" y="-48.5" font-family="Helvetica,sans-Serif" font-size="10.00">+ fps</text>
<text text-anchor="start" x="17" y="-37.5" font-family="Helvetica,sans-Serif" font-size="10.00">+ aelock</text>
<polyline fill="none" stroke="black" points="9,-30.5 110,-30.5 "/>
<text text-anchor="start" x="17" y="-18.5" font-family="Helvetica,sans-Serif" font-size="10.00">+ FrameInfo()</text>
<text text-anchor="start" x="17" y="-7.5" font-family="Helvetica,sans-Serif" font-size="10.00">+ ToString()</text>
</a>
</g>
</g>
<!-- Node2 -->
<g id="node2" class="node">
<title>Node2</title>
<g id="a_node2"><a xlink:title=" ">
<polygon fill="white" stroke="#bfbfbf" points="0,-182.5 0,-239.5 119,-239.5 119,-182.5 0,-182.5"/>
<text text-anchor="middle" x="59.5" y="-227.5" font-family="Helvetica,sans-Serif" font-size="10.00">std::array&lt; float, 2 &gt;</text>
<polyline fill="none" stroke="#bfbfbf" points="0,-220.5 119,-220.5 "/>
<text text-anchor="start" x="8" y="-208.5" font-family="Helvetica,sans-Serif" font-size="10.00">+ elements</text>
<polyline fill="none" stroke="#bfbfbf" points="0,-201.5 119,-201.5 "/>
<text text-anchor="middle" x="59.5" y="-189.5" font-family="Helvetica,sans-Serif" font-size="10.00"> </text>
</a>
</g>
</g>
<!-- Node2&#45;&gt;Node1 -->
<g id="edge1" class="edge">
<title>Node2&#45;&gt;Node1</title>
<path fill="none" stroke="#404040" d="M59.5,-182.38C59.5,-172.02 59.5,-159.66 59.5,-146.97"/>
<polygon fill="none" stroke="#404040" points="59.5,-146.75 55.5,-140.75 59.5,-134.75 63.5,-140.75 59.5,-146.75"/>
<text text-anchor="middle" x="96" y="-156" font-family="Helvetica,sans-Serif" font-size="10.00"> +colour_gains</text>
</g>
<!-- Node3 -->
<g id="node3" class="node">
<title>Node3</title>
<g id="a_node3"><a xlink:title=" ">
<polygon fill="white" stroke="#bfbfbf" points="13.5,-287.5 13.5,-344.5 105.5,-344.5 105.5,-287.5 13.5,-287.5"/>
<text text-anchor="middle" x="59.5" y="-332.5" font-family="Helvetica,sans-Serif" font-size="10.00">std::array&lt; T &gt;</text>
<polyline fill="none" stroke="#bfbfbf" points="13.5,-325.5 105.5,-325.5 "/>
<text text-anchor="middle" x="59.5" y="-313.5" font-family="Helvetica,sans-Serif" font-size="10.00"> </text>
<polyline fill="none" stroke="#bfbfbf" points="13.5,-306.5 105.5,-306.5 "/>
<text text-anchor="middle" x="59.5" y="-294.5" font-family="Helvetica,sans-Serif" font-size="10.00"> </text>
</a>
</g>
</g>
<!-- Node3&#45;&gt;Node2 -->
<g id="edge2" class="edge">
<title>Node3&#45;&gt;Node2</title>
<path fill="none" stroke="orange" d="M59.5,-277.29C59.5,-264.84 59.5,-251.23 59.5,-239.68"/>
<polygon fill="orange" stroke="orange" points="56,-277.4 59.5,-287.4 63,-277.4 56,-277.4"/>
<text text-anchor="middle" x="89.5" y="-261" font-family="Helvetica,sans-Serif" font-size="10.00"> &lt; float, 2 &gt;</text>
</g>
<!-- Node4 -->
<g id="node4" class="node">
<title>Node4</title>
<g id="a_node4"><a xlink:title=" ">
<polygon fill="white" stroke="#bfbfbf" points="45,-392.5 45,-449.5 74,-449.5 74,-392.5 45,-392.5"/>
<text text-anchor="middle" x="59.5" y="-437.5" font-family="Helvetica,sans-Serif" font-size="10.00">T</text>
<polyline fill="none" stroke="#bfbfbf" points="45,-430.5 74,-430.5 "/>
<text text-anchor="middle" x="59.5" y="-418.5" font-family="Helvetica,sans-Serif" font-size="10.00"> </text>
<polyline fill="none" stroke="#bfbfbf" points="45,-411.5 74,-411.5 "/>
<text text-anchor="middle" x="59.5" y="-399.5" font-family="Helvetica,sans-Serif" font-size="10.00"> </text>
</a>
</g>
</g>
<!-- Node4&#45;&gt;Node3 -->
<g id="edge3" class="edge">
<title>Node4&#45;&gt;Node3</title>
<path fill="none" stroke="#404040" d="M59.5,-392.4C59.5,-381.55 59.5,-368.87 59.5,-357.05"/>
<polygon fill="none" stroke="#404040" points="59.5,-356.68 55.5,-350.68 59.5,-344.68 63.5,-350.68 59.5,-356.68"/>
<text text-anchor="middle" x="88.5" y="-366" font-family="Helvetica,sans-Serif" font-size="10.00"> +elements</text>
</g>
</g>
</svg>
