<?xml version="1.0" encoding="UTF-8" standalone="no"?>
<!DOCTYPE svg PUBLIC "-//W3C//DTD SVG 1.1//EN"
 "http://www.w3.org/Graphics/SVG/1.1/DTD/svg11.dtd">
<!-- Generated by graphviz version 2.43.0 (0)
 -->
<!-- Title: Card_params Pages: 1 -->
<!--zoomable 436 -->
<svg id="main" version="1.1" xmlns="http://www.w3.org/2000/svg" xmlns:xlink="http://www.w3.org/1999/xlink" xml:space="preserve" onload="init(evt)">
<style type="text/css"><![CDATA[
.edge:hover path { stroke: red; }
.edge:hover polygon { stroke: red; fill: red; }
]]></style>
<script type="text/javascript"><![CDATA[
var edges = document.getElementsByTagName('g');
if (edges && edges.length) {
  for (var i=0;i<edges.length;i++) {
    if (edges[i].id.substr(0,4)=='edge') {
      edges[i].setAttribute('class','edge');
    }
  }
}
]]></script>
        <defs>
                <circle id="rim" cx="0" cy="0" r="7"/>
                <circle id="rim2" cx="0" cy="0" r="3.5"/>
                <g id="zoomPlus">
                        <use xlink:href="#rim" fill="#404040">
                                <set attributeName="fill" to="#808080" begin="zoomplus.mouseover" end="zoomplus.mouseout"/>
                        </use>
                        <path d="M-4,0h8M0,-4v8" fill="none" stroke="white" stroke-width="1.5" pointer-events="none"/>
                </g>
                <g id="zoomMin">
                        <use xlink:href="#rim" fill="#404040">
                                <set attributeName="fill" to="#808080" begin="zoomminus.mouseover" end="zoomminus.mouseout"/>
                        </use>
                        <path d="M-4,0h8" fill="none" stroke="white" stroke-width="1.5" pointer-events="none"/>
                </g>
                <g id="dirArrow">
                        <path fill="none" stroke="white" stroke-width="1.5" d="M0,-3.0v7 M-2.5,-0.5L0,-3.0L2.5,-0.5"/>
                </g>
               <g id="resetDef">
                       <use xlink:href="#rim2" fill="#404040">
                               <set attributeName="fill" to="#808080" begin="reset.mouseover" end="reset.mouseout"/>
                       </use>
               </g>
        </defs>

<script type="text/javascript">
var viewWidth = 1147;
var viewHeight = 436;
var sectionId = 'dynsection-0';
</script>
<script xlink:href="svgpan.js"/>
<svg id="graph" class="graph">
<g id="viewport">
<title>Card_params</title>
<polygon fill="white" stroke="transparent" points="-4,4 -4,-432 1143,-432 1143,4 -4,4"/>
<!-- Node1 -->
<g id="node1" class="node">
<title>Node1</title>
<g id="a_node1"><a xlink:title="Structure holding the parameters of all detected card shapes in a frame, such as their position in th...">
<polygon fill="#bfbfbf" stroke="black" points="516,-0.5 516,-79.5 612,-79.5 612,-0.5 516,-0.5"/>
<text text-anchor="middle" x="564" y="-67.5" font-family="Helvetica,sans-Serif" font-size="10.00">Card_params</text>
<polyline fill="none" stroke="black" points="516,-60.5 612,-60.5 "/>
<text text-anchor="start" x="524" y="-48.5" font-family="Helvetica,sans-Serif" font-size="10.00">+ err</text>
<text text-anchor="start" x="524" y="-37.5" font-family="Helvetica,sans-Serif" font-size="10.00">+ num_of_cards</text>
<text text-anchor="start" x="524" y="-26.5" font-family="Helvetica,sans-Serif" font-size="10.00">+ currentFrame</text>
<polyline fill="none" stroke="black" points="516,-19.5 612,-19.5 "/>
<text text-anchor="middle" x="564" y="-7.5" font-family="Helvetica,sans-Serif" font-size="10.00"> </text>
</a>
</g>
</g>
<!-- Node2 -->
<g id="node2" class="node">
<title>Node2</title>
<g id="a_node2"><a xlink:title=" ">
<polygon fill="white" stroke="#bfbfbf" points="0,-144 0,-201 136,-201 136,-144 0,-144"/>
<text text-anchor="middle" x="68" y="-189" font-family="Helvetica,sans-Serif" font-size="10.00">std::vector&lt; cv::String &gt;</text>
<polyline fill="none" stroke="#bfbfbf" points="0,-182 136,-182 "/>
<text text-anchor="start" x="8" y="-170" font-family="Helvetica,sans-Serif" font-size="10.00">+ elements</text>
<polyline fill="none" stroke="#bfbfbf" points="0,-163 136,-163 "/>
<text text-anchor="middle" x="68" y="-151" font-family="Helvetica,sans-Serif" font-size="10.00"> </text>
</a>
</g>
</g>
<!-- Node2&#45;&gt;Node1 -->
<g id="edge1" class="edge">
<title>Node2&#45;&gt;Node1</title>
<path fill="none" stroke="#404040" d="M117.52,-143.88C147.51,-128.25 187,-109.58 224,-98 319.18,-68.22 434.5,-53.06 503.42,-46.1"/>
<polygon fill="none" stroke="#404040" points="503.79,-46.07 509.37,-41.5 515.73,-44.9 510.15,-49.46 503.79,-46.07"/>
<text text-anchor="middle" x="259.5" y="-106.5" font-family="Helvetica,sans-Serif" font-size="10.00"> +card_names</text>
</g>
<!-- Node3 -->
<g id="node3" class="node">
<title>Node3</title>
<g id="a_node3"><a xlink:title=" ">
<polygon fill="white" stroke="#bfbfbf" points="535.5,-265.5 535.5,-322.5 632.5,-322.5 632.5,-265.5 535.5,-265.5"/>
<text text-anchor="middle" x="584" y="-310.5" font-family="Helvetica,sans-Serif" font-size="10.00">std::vector&lt; T &gt;</text>
<polyline fill="none" stroke="#bfbfbf" points="535.5,-303.5 632.5,-303.5 "/>
<text text-anchor="middle" x="584" y="-291.5" font-family="Helvetica,sans-Serif" font-size="10.00"> </text>
<polyline fill="none" stroke="#bfbfbf" points="535.5,-284.5 632.5,-284.5 "/>
<text text-anchor="middle" x="584" y="-272.5" font-family="Helvetica,sans-Serif" font-size="10.00"> </text>
</a>
</g>
</g>
<!-- Node3&#45;&gt;Node2 -->
<g id="edge2" class="edge">
<title>Node3&#45;&gt;Node2</title>
<path fill="none" stroke="orange" d="M524.96,-292.39C449.54,-290.13 315.76,-281.11 207,-247 172.75,-236.26 137.01,-217.16 110.35,-201.12"/>
<polygon fill="orange" stroke="orange" points="525.12,-295.89 535.21,-292.66 525.31,-288.9 525.12,-295.89"/>
<text text-anchor="middle" x="242.5" y="-233.5" font-family="Helvetica,sans-Serif" font-size="10.00"> &lt; cv::String &gt;</text>
</g>
<!-- Node5 -->
<g id="node5" class="node">
<title>Node5</title>
<g id="a_node5"><a xlink:title=" ">
<polygon fill="white" stroke="#bfbfbf" points="154.5,-138.5 154.5,-206.5 285.5,-206.5 285.5,-138.5 154.5,-138.5"/>
<text text-anchor="start" x="162.5" y="-194.5" font-family="Helvetica,sans-Serif" font-size="10.00">std::vector&lt; std::vector</text>
<text text-anchor="middle" x="220" y="-183.5" font-family="Helvetica,sans-Serif" font-size="10.00">&lt; cv::Point2f &gt; &gt;</text>
<polyline fill="none" stroke="#bfbfbf" points="154.5,-176.5 285.5,-176.5 "/>
<text text-anchor="start" x="162.5" y="-164.5" font-family="Helvetica,sans-Serif" font-size="10.00">+ elements</text>
<polyline fill="none" stroke="#bfbfbf" points="154.5,-157.5 285.5,-157.5 "/>
<text text-anchor="middle" x="220" y="-145.5" font-family="Helvetica,sans-Serif" font-size="10.00"> </text>
</a>
</g>
</g>
<!-- Node3&#45;&gt;Node5 -->
<g id="edge5" class="edge">
<title>Node3&#45;&gt;Node5</title>
<path fill="none" stroke="orange" d="M525.13,-290.46C470.13,-286.32 386.74,-275.47 320,-247 297.01,-237.19 274.32,-221.18 256.38,-206.6"/>
<polygon fill="orange" stroke="orange" points="525.17,-293.97 535.39,-291.18 525.66,-286.99 525.17,-293.97"/>
<text text-anchor="start" x="320" y="-239" font-family="Helvetica,sans-Serif" font-size="10.00"> &lt; std::vector&lt; cv::</text>
<text text-anchor="middle" x="367" y="-228" font-family="Helvetica,sans-Serif" font-size="10.00">Point2f &gt; &gt;</text>
</g>
<!-- Node6 -->
<g id="node6" class="node">
<title>Node6</title>
<g id="a_node6"><a xlink:title=" ">
<polygon fill="white" stroke="#bfbfbf" points="303.5,-138.5 303.5,-206.5 434.5,-206.5 434.5,-138.5 303.5,-138.5"/>
<text text-anchor="start" x="311.5" y="-194.5" font-family="Helvetica,sans-Serif" font-size="10.00">std::vector&lt; std::vector</text>
<text text-anchor="middle" x="369" y="-183.5" font-family="Helvetica,sans-Serif" font-size="10.00">&lt; cv::Point &gt; &gt;</text>
<polyline fill="none" stroke="#bfbfbf" points="303.5,-176.5 434.5,-176.5 "/>
<text text-anchor="start" x="311.5" y="-164.5" font-family="Helvetica,sans-Serif" font-size="10.00">+ elements</text>
<polyline fill="none" stroke="#bfbfbf" points="303.5,-157.5 434.5,-157.5 "/>
<text text-anchor="middle" x="369" y="-145.5" font-family="Helvetica,sans-Serif" font-size="10.00"> </text>
</a>
</g>
</g>
<!-- Node3&#45;&gt;Node6 -->
<g id="edge7" class="edge">
<title>Node3&#45;&gt;Node6</title>
<path fill="none" stroke="orange" d="M525.69,-279.99C499.8,-272.67 469.68,-261.94 445,-247 427.25,-236.26 410.37,-220.68 397.04,-206.63"/>
<polygon fill="orange" stroke="orange" points="524.81,-283.38 535.38,-282.63 526.65,-276.63 524.81,-283.38"/>
<text text-anchor="start" x="445" y="-239" font-family="Helvetica,sans-Serif" font-size="10.00"> &lt; std::vector&lt; cv::</text>
<text text-anchor="middle" x="492" y="-228" font-family="Helvetica,sans-Serif" font-size="10.00">Point &gt; &gt;</text>
</g>
<!-- Node7 -->
<g id="node7" class="node">
<title>Node7</title>
<g id="a_node7"><a xlink:title=" ">
<polygon fill="white" stroke="#bfbfbf" points="453,-144 453,-201 581,-201 581,-144 453,-144"/>
<text text-anchor="middle" x="517" y="-189" font-family="Helvetica,sans-Serif" font-size="10.00">std::vector&lt; cv::Size &gt;</text>
<polyline fill="none" stroke="#bfbfbf" points="453,-182 581,-182 "/>
<text text-anchor="start" x="461" y="-170" font-family="Helvetica,sans-Serif" font-size="10.00">+ elements</text>
<polyline fill="none" stroke="#bfbfbf" points="453,-163 581,-163 "/>
<text text-anchor="middle" x="517" y="-151" font-family="Helvetica,sans-Serif" font-size="10.00"> </text>
</a>
</g>
</g>
<!-- Node3&#45;&gt;Node7 -->
<g id="edge9" class="edge">
<title>Node3&#45;&gt;Node7</title>
<path fill="none" stroke="orange" d="M559.58,-256.35C557.65,-253.21 555.77,-250.07 554,-247 545.45,-232.14 536.79,-215.06 529.99,-201.11"/>
<polygon fill="orange" stroke="orange" points="556.8,-258.5 565.09,-265.09 562.72,-254.76 556.8,-258.5"/>
<text text-anchor="middle" x="585.5" y="-233.5" font-family="Helvetica,sans-Serif" font-size="10.00"> &lt; cv::Size &gt;</text>
</g>
<!-- Node8 -->
<g id="node8" class="node">
<title>Node8</title>
<g id="a_node8"><a xlink:title=" ">
<polygon fill="white" stroke="#bfbfbf" points="599,-144 599,-201 703,-201 703,-144 599,-144"/>
<text text-anchor="middle" x="651" y="-189" font-family="Helvetica,sans-Serif" font-size="10.00">std::vector&lt; int &gt;</text>
<polyline fill="none" stroke="#bfbfbf" points="599,-182 703,-182 "/>
<text text-anchor="start" x="607" y="-170" font-family="Helvetica,sans-Serif" font-size="10.00">+ elements</text>
<polyline fill="none" stroke="#bfbfbf" points="599,-163 703,-163 "/>
<text text-anchor="middle" x="651" y="-151" font-family="Helvetica,sans-Serif" font-size="10.00"> </text>
</a>
</g>
</g>
<!-- Node3&#45;&gt;Node8 -->
<g id="edge11" class="edge">
<title>Node3&#45;&gt;Node8</title>
<path fill="none" stroke="orange" d="M610.9,-256.82C613.04,-253.55 615.11,-250.25 617,-247 625.57,-232.3 633.63,-215.08 639.75,-201"/>
<polygon fill="orange" stroke="orange" points="607.84,-255.11 605.11,-265.34 613.63,-259.04 607.84,-255.11"/>
<text text-anchor="middle" x="648.5" y="-233.5" font-family="Helvetica,sans-Serif" font-size="10.00"> &lt; int &gt;</text>
</g>
<!-- Node9 -->
<g id="node9" class="node">
<title>Node9</title>
<g id="a_node9"><a xlink:title=" ">
<polygon fill="white" stroke="#bfbfbf" points="721,-144 721,-201 847,-201 847,-144 721,-144"/>
<text text-anchor="middle" x="784" y="-189" font-family="Helvetica,sans-Serif" font-size="10.00">std::vector&lt; cv::Mat &gt;</text>
<polyline fill="none" stroke="#bfbfbf" points="721,-182 847,-182 "/>
<text text-anchor="start" x="729" y="-170" font-family="Helvetica,sans-Serif" font-size="10.00">+ elements</text>
<polyline fill="none" stroke="#bfbfbf" points="721,-163 847,-163 "/>
<text text-anchor="middle" x="784" y="-151" font-family="Helvetica,sans-Serif" font-size="10.00"> </text>
</a>
</g>
</g>
<!-- Node3&#45;&gt;Node9 -->
<g id="edge13" class="edge">
<title>Node3&#45;&gt;Node9</title>
<path fill="none" stroke="orange" d="M641.74,-263.86C651.92,-258.43 662.34,-252.67 672,-247 696.46,-232.63 723.05,-215.26 744.17,-201.02"/>
<polygon fill="orange" stroke="orange" points="640.09,-260.78 632.89,-268.54 643.36,-266.96 640.09,-260.78"/>
<text text-anchor="middle" x="737.5" y="-233.5" font-family="Helvetica,sans-Serif" font-size="10.00"> &lt; cv::Mat &gt;</text>
</g>
<!-- Node10 -->
<g id="node10" class="node">
<title>Node10</title>
<g id="a_node10"><a xlink:title=" ">
<polygon fill="white" stroke="#bfbfbf" points="865.5,-138.5 865.5,-206.5 986.5,-206.5 986.5,-138.5 865.5,-138.5"/>
<text text-anchor="start" x="873.5" y="-194.5" font-family="Helvetica,sans-Serif" font-size="10.00">std::vector&lt; cv::Point</text>
<text text-anchor="middle" x="926" y="-183.5" font-family="Helvetica,sans-Serif" font-size="10.00">_&lt; int &gt; &gt;</text>
<polyline fill="none" stroke="#bfbfbf" points="865.5,-176.5 986.5,-176.5 "/>
<text text-anchor="start" x="873.5" y="-164.5" font-family="Helvetica,sans-Serif" font-size="10.00">+ elements</text>
<polyline fill="none" stroke="#bfbfbf" points="865.5,-157.5 986.5,-157.5 "/>
<text text-anchor="middle" x="926" y="-145.5" font-family="Helvetica,sans-Serif" font-size="10.00"> </text>
</a>
</g>
</g>
<!-- Node3&#45;&gt;Node10 -->
<g id="edge15" class="edge">
<title>Node3&#45;&gt;Node10</title>
<path fill="none" stroke="orange" d="M642.96,-281.81C680.47,-273.91 729.76,-262.05 772,-247 810.95,-233.12 818.68,-224.81 856,-207 859.04,-205.55 862.15,-204.06 865.3,-202.56"/>
<polygon fill="orange" stroke="orange" points="641.79,-278.48 632.7,-283.94 643.21,-285.34 641.79,-278.48"/>
<text text-anchor="middle" x="875" y="-233.5" font-family="Helvetica,sans-Serif" font-size="10.00"> &lt; cv::Point_&lt; int &gt; &gt;</text>
</g>
<!-- Node11 -->
<g id="node11" class="node">
<title>Node11</title>
<g id="a_node11"><a xlink:title=" ">
<polygon fill="white" stroke="#bfbfbf" points="1005,-138.5 1005,-206.5 1139,-206.5 1139,-138.5 1005,-138.5"/>
<text text-anchor="start" x="1013" y="-194.5" font-family="Helvetica,sans-Serif" font-size="10.00">std::vector&lt; cv::Rotated</text>
<text text-anchor="middle" x="1072" y="-183.5" font-family="Helvetica,sans-Serif" font-size="10.00">Rect &gt;</text>
<polyline fill="none" stroke="#bfbfbf" points="1005,-176.5 1139,-176.5 "/>
<text text-anchor="start" x="1013" y="-164.5" font-family="Helvetica,sans-Serif" font-size="10.00">+ elements</text>
<polyline fill="none" stroke="#bfbfbf" points="1005,-157.5 1139,-157.5 "/>
<text text-anchor="middle" x="1072" y="-145.5" font-family="Helvetica,sans-Serif" font-size="10.00"> </text>
</a>
</g>
</g>
<!-- Node3&#45;&gt;Node11 -->
<g id="edge17" class="edge">
<title>Node3&#45;&gt;Node11</title>
<path fill="none" stroke="orange" d="M642.61,-291.58C713.09,-288.45 834.22,-278.5 933,-247 963.3,-237.34 994.81,-221.25 1020.15,-206.58"/>
<polygon fill="orange" stroke="orange" points="642.44,-288.09 632.59,-292 642.73,-295.08 642.44,-288.09"/>
<text text-anchor="middle" x="1036.5" y="-233.5" font-family="Helvetica,sans-Serif" font-size="10.00"> &lt; cv::RotatedRect &gt;</text>
</g>
<!-- Node4 -->
<g id="node4" class="node">
<title>Node4</title>
<g id="a_node4"><a xlink:title=" ">
<polygon fill="white" stroke="#bfbfbf" points="569.5,-370.5 569.5,-427.5 598.5,-427.5 598.5,-370.5 569.5,-370.5"/>
<text text-anchor="middle" x="584" y="-415.5" font-family="Helvetica,sans-Serif" font-size="10.00">T</text>
<polyline fill="none" stroke="#bfbfbf" points="569.5,-408.5 598.5,-408.5 "/>
<text text-anchor="middle" x="584" y="-396.5" font-family="Helvetica,sans-Serif" font-size="10.00"> </text>
<polyline fill="none" stroke="#bfbfbf" points="569.5,-389.5 598.5,-389.5 "/>
<text text-anchor="middle" x="584" y="-377.5" font-family="Helvetica,sans-Serif" font-size="10.00"> </text>
</a>
</g>
</g>
<!-- Node4&#45;&gt;Node3 -->
<g id="edge3" class="edge">
<title>Node4&#45;&gt;Node3</title>
<path fill="none" stroke="#404040" d="M584,-370.4C584,-359.55 584,-346.87 584,-335.05"/>
<polygon fill="none" stroke="#404040" points="584,-334.68 580,-328.68 584,-322.68 588,-328.68 584,-334.68"/>
<text text-anchor="middle" x="613" y="-344" font-family="Helvetica,sans-Serif" font-size="10.00"> +elements</text>
</g>
<!-- Node5&#45;&gt;Node1 -->
<g id="edge4" class="edge">
<title>Node5&#45;&gt;Node1</title>
<path fill="none" stroke="#404040" d="M266.69,-138.37C288.2,-124.31 314.57,-108.73 340,-98 393.45,-75.44 457.98,-60.18 504.02,-51.17"/>
<polygon fill="none" stroke="#404040" points="504.11,-51.16 509.25,-46.1 515.89,-48.91 510.75,-53.96 504.11,-51.16"/>
<text text-anchor="middle" x="382.5" y="-106.5" font-family="Helvetica,sans-Serif" font-size="10.00"> +rotatedbox_pts</text>
</g>
<!-- Node6&#45;&gt;Node1 -->
<g id="edge6" class="edge">
<title>Node6&#45;&gt;Node1</title>
<path fill="none" stroke="#404040" d="M404.86,-138.18C420.05,-124.89 438.3,-109.94 456,-98 471.28,-87.69 488.64,-77.81 504.9,-69.26"/>
<polygon fill="none" stroke="#404040" points="505.28,-69.06 508.78,-62.75 515.94,-63.56 512.44,-69.86 505.28,-69.06"/>
<text text-anchor="middle" x="494.5" y="-112" font-family="Helvetica,sans-Serif" font-size="10.00"> +card_approxs</text>
<text text-anchor="middle" x="494.5" y="-101" font-family="Helvetica,sans-Serif" font-size="10.00">+contours</text>
</g>
<!-- Node7&#45;&gt;Node1 -->
<g id="edge8" class="edge">
<title>Node7&#45;&gt;Node1</title>
<path fill="none" stroke="#404040" d="M526.97,-143.82C532.49,-128.48 539.53,-108.93 545.99,-91.01"/>
<polygon fill="none" stroke="#404040" points="546.06,-90.82 544.33,-83.82 550.12,-79.53 551.86,-86.53 546.06,-90.82"/>
<text text-anchor="middle" x="573" y="-106.5" font-family="Helvetica,sans-Serif" font-size="10.00"> +card_size</text>
</g>
<!-- Node8&#45;&gt;Node1 -->
<g id="edge10" class="edge">
<title>Node8&#45;&gt;Node1</title>
<path fill="none" stroke="#404040" d="M634.88,-143.92C626.54,-129.98 616.02,-112.9 606,-98 604.1,-95.18 602.12,-92.3 600.11,-89.42"/>
<polygon fill="none" stroke="#404040" points="600.1,-89.4 593.36,-86.83 593.14,-79.62 599.88,-82.2 600.1,-89.4"/>
<text text-anchor="middle" x="675.5" y="-106.5" font-family="Helvetica,sans-Serif" font-size="10.00"> +contour_is_card_idx</text>
</g>
<!-- Node9&#45;&gt;Node1 -->
<g id="edge12" class="edge">
<title>Node9&#45;&gt;Node1</title>
<path fill="none" stroke="#404040" d="M770.81,-143.7C762.24,-128.31 749.74,-109.93 734,-98 701.93,-73.7 658.91,-59.41 624.16,-51.21"/>
<polygon fill="none" stroke="#404040" points="623.97,-51.17 617.24,-53.77 612.25,-48.56 618.98,-45.96 623.97,-51.17"/>
<text text-anchor="middle" x="783.5" y="-106.5" font-family="Helvetica,sans-Serif" font-size="10.00"> +rank_rois</text>
</g>
<!-- Node10&#45;&gt;Node1 -->
<g id="edge14" class="edge">
<title>Node10&#45;&gt;Node1</title>
<path fill="none" stroke="#404040" d="M884.48,-138.47C864.72,-124.18 840.16,-108.38 816,-98 753.43,-71.12 676.44,-56.07 624.14,-48.28"/>
<polygon fill="none" stroke="#404040" points="623.94,-48.25 617.43,-51.36 612.06,-46.54 618.57,-43.44 623.94,-48.25"/>
<text text-anchor="middle" x="886.5" y="-106.5" font-family="Helvetica,sans-Serif" font-size="10.00"> +centre_pts</text>
</g>
<!-- Node11&#45;&gt;Node1 -->
<g id="edge16" class="edge">
<title>Node11&#45;&gt;Node1</title>
<path fill="none" stroke="#404040" d="M1014.55,-138.34C987.29,-123.93 953.79,-108.07 922,-98 820.34,-65.8 696.41,-51.25 624.23,-45.1"/>
<polygon fill="none" stroke="#404040" points="624.2,-45.1 617.89,-48.59 612.24,-44.11 618.55,-40.62 624.2,-45.1"/>
<text text-anchor="middle" x="1010.5" y="-106.5" font-family="Helvetica,sans-Serif" font-size="10.00"> +rotatedbox</text>
</g>
</g>
</svg>
        <g id="navigator" transform="translate(0 0)" fill="#404254">
                <rect fill="#f2f5e9" fill-opacity="0.5" stroke="#606060" stroke-width=".5" x="0" y="0" width="60" height="60"/>
                <use id="zoomplus" xlink:href="#zoomPlus" x="17" y="9" onmousedown="handleZoom(evt,'in')"/>
                <use id="zoomminus" xlink:href="#zoomMin" x="42" y="9" onmousedown="handleZoom(evt,'out')"/>
                <use id="reset" xlink:href="#resetDef" x="30" y="36" onmousedown="handleReset()"/>
                <g id="arrowUp" xlink:href="#dirArrow" transform="translate(30 24)" onmousedown="handlePan(0,-1)">
                  <use xlink:href="#rim" fill="#404040">
                        <set attributeName="fill" to="#808080" begin="arrowUp.mouseover" end="arrowUp.mouseout"/>
                  </use>
                  <path fill="none" stroke="white" stroke-width="1.5" d="M0,-3.0v7 M-2.5,-0.5L0,-3.0L2.5,-0.5"/>
                </g>
                <g id="arrowRight" xlink:href="#dirArrow" transform="rotate(90) translate(36 -43)" onmousedown="handlePan(1,0)">
                  <use xlink:href="#rim" fill="#404040">
                        <set attributeName="fill" to="#808080" begin="arrowRight.mouseover" end="arrowRight.mouseout"/>
                  </use>
                  <path fill="none" stroke="white" stroke-width="1.5" d="M0,-3.0v7 M-2.5,-0.5L0,-3.0L2.5,-0.5"/>
                </g>
                <g id="arrowDown" xlink:href="#dirArrow" transform="rotate(180) translate(-30 -48)" onmousedown="handlePan(0,1)">
                  <use xlink:href="#rim" fill="#404040">
                        <set attributeName="fill" to="#808080" begin="arrowDown.mouseover" end="arrowDown.mouseout"/>
                  </use>
                  <path fill="none" stroke="white" stroke-width="1.5" d="M0,-3.0v7 M-2.5,-0.5L0,-3.0L2.5,-0.5"/>
                </g>
                <g id="arrowLeft" xlink:href="#dirArrow" transform="rotate(270) translate(-36 17)" onmousedown="handlePan(-1,0)">
                  <use xlink:href="#rim" fill="#404040">
                        <set attributeName="fill" to="#808080" begin="arrowLeft.mouseover" end="arrowLeft.mouseout"/>
                  </use>
                  <path fill="none" stroke="white" stroke-width="1.5" d="M0,-3.0v7 M-2.5,-0.5L0,-3.0L2.5,-0.5"/>
                </g>
        </g>
        <svg viewBox="0 0 15 15" width="100%" height="30px" preserveAspectRatio="xMaxYMin meet">
         <g id="arrow_out" transform="scale(0.3 0.3)">
          <a xlink:href="structCard__params__coll__graph_org.svg" target="_base">
           <rect id="button" ry="5" rx="5" y="6" x="6" height="38" width="38"
                fill="#f2f5e9" fill-opacity="0.5" stroke="#606060" stroke-width="1.0"/>
           <path id="arrow"
             d="M 11.500037,31.436501 C 11.940474,20.09759 22.043105,11.32322 32.158766,21.979434 L 37.068811,17.246167 C 37.068811,17.246167 37.088388,32 37.088388,32 L 22.160133,31.978069 C 22.160133,31.978069 26.997745,27.140456 26.997745,27.140456 C 18.528582,18.264221 13.291696,25.230495 11.500037,31.436501 z"
             style="fill:#404040;"/>
          </a>
         </g>
        </svg>
</svg>
