<?xml version="1.0" encoding="UTF-8" standalone="no"?>
<!DOCTYPE svg PUBLIC "-//W3C//DTD SVG 1.1//EN"
 "http://www.w3.org/Graphics/SVG/1.1/DTD/svg11.dtd">
<!-- Generated by graphviz version 2.43.0 (0)
 -->
<!-- Title: AcePlaysUtils Pages: 1 -->
<!--zoomable 563 -->
<svg id="main" version="1.1" xmlns="http://www.w3.org/2000/svg" xmlns:xlink="http://www.w3.org/1999/xlink" xml:space="preserve" onload="init(evt)">
<style type="text/css"><![CDATA[
.edge:hover path { stroke: red; }
.edge:hover polygon { stroke: red; fill: red; }
]]></style>
<script type="text/javascript"><![CDATA[
var edges = document.getElementsByTagName('g');
if (edges && edges.length) {
  for (var i=0;i<edges.length;i++) {
    if (edges[i].id.substr(0,4)=='edge') {
      edges[i].setAttribute('class','edge');
    }
  }
}
]]></script>
        <defs>
                <circle id="rim" cx="0" cy="0" r="7"/>
                <circle id="rim2" cx="0" cy="0" r="3.5"/>
                <g id="zoomPlus">
                        <use xlink:href="#rim" fill="#404040">
                                <set attributeName="fill" to="#808080" begin="zoomplus.mouseover" end="zoomplus.mouseout"/>
                        </use>
                        <path d="M-4,0h8M0,-4v8" fill="none" stroke="white" stroke-width="1.5" pointer-events="none"/>
                </g>
                <g id="zoomMin">
                        <use xlink:href="#rim" fill="#404040">
                                <set attributeName="fill" to="#808080" begin="zoomminus.mouseover" end="zoomminus.mouseout"/>
                        </use>
                        <path d="M-4,0h8" fill="none" stroke="white" stroke-width="1.5" pointer-events="none"/>
                </g>
                <g id="dirArrow">
                        <path fill="none" stroke="white" stroke-width="1.5" d="M0,-3.0v7 M-2.5,-0.5L0,-3.0L2.5,-0.5"/>
                </g>
               <g id="resetDef">
                       <use xlink:href="#rim2" fill="#404040">
                               <set attributeName="fill" to="#808080" begin="reset.mouseover" end="reset.mouseout"/>
                       </use>
               </g>
        </defs>

<script type="text/javascript">
var viewWidth = 1146;
var viewHeight = 563;
var sectionId = 'dynsection-0';
</script>
<script xlink:href="svgpan.js"/>
<svg id="graph" class="graph">
<g id="viewport">
<title>AcePlaysUtils</title>
<polygon fill="white" stroke="transparent" points="-4,4 -4,-559 1142,-559 1142,4 -4,4"/>
<!-- Node1 -->
<g id="node1" class="node">
<title>Node1</title>
<g id="a_node1"><a xlink:title="Utility structure used by the AcePlays repo for passing necessary information down the processing pip...">
<polygon fill="#bfbfbf" stroke="black" points="710,-0.5 710,-79.5 826,-79.5 826,-0.5 710,-0.5"/>
<text text-anchor="middle" x="768" y="-67.5" font-family="Helvetica,sans-Serif" font-size="10.00">AcePlaysUtils</text>
<polyline fill="none" stroke="black" points="710,-60.5 826,-60.5 "/>
<text text-anchor="start" x="718" y="-48.5" font-family="Helvetica,sans-Serif" font-size="10.00">+ nextFrame</text>
<text text-anchor="start" x="718" y="-37.5" font-family="Helvetica,sans-Serif" font-size="10.00">+ blackjackDecision</text>
<text text-anchor="start" x="718" y="-26.5" font-family="Helvetica,sans-Serif" font-size="10.00">+ dealercard</text>
<polyline fill="none" stroke="black" points="710,-19.5 826,-19.5 "/>
<text text-anchor="middle" x="768" y="-7.5" font-family="Helvetica,sans-Serif" font-size="10.00"> </text>
</a>
</g>
</g>
<!-- Node2 -->
<g id="node2" class="node">
<title>Node2</title>
<g id="a_node2"><a xlink:href="structCard__params.html" target="_top" xlink:title="Structure holding the parameters of all detected card shapes in a frame, such as their position in th...">
<polygon fill="white" stroke="black" points="554,-127.5 554,-206.5 650,-206.5 650,-127.5 554,-127.5"/>
<text text-anchor="middle" x="602" y="-194.5" font-family="Helvetica,sans-Serif" font-size="10.00">Card_params</text>
<polyline fill="none" stroke="black" points="554,-187.5 650,-187.5 "/>
<text text-anchor="start" x="562" y="-175.5" font-family="Helvetica,sans-Serif" font-size="10.00">+ err</text>
<text text-anchor="start" x="562" y="-164.5" font-family="Helvetica,sans-Serif" font-size="10.00">+ num_of_cards</text>
<text text-anchor="start" x="562" y="-153.5" font-family="Helvetica,sans-Serif" font-size="10.00">+ currentFrame</text>
<polyline fill="none" stroke="black" points="554,-146.5 650,-146.5 "/>
<text text-anchor="middle" x="602" y="-134.5" font-family="Helvetica,sans-Serif" font-size="10.00"> </text>
</a>
</g>
</g>
<!-- Node2&#45;&gt;Node1 -->
<g id="edge1" class="edge">
<title>Node2&#45;&gt;Node1</title>
<path fill="none" stroke="#404040" d="M650.01,-129.84C667.79,-116.46 688.19,-101.1 706.97,-86.96"/>
<polygon fill="none" stroke="#404040" points="707.03,-86.91 709.42,-80.11 716.62,-79.69 714.23,-86.5 707.03,-86.91"/>
<text text-anchor="middle" x="724.5" y="-101" font-family="Helvetica,sans-Serif" font-size="10.00"> +cardParams</text>
</g>
<!-- Node3 -->
<g id="node3" class="node">
<title>Node3</title>
<g id="a_node3"><a xlink:title=" ">
<polygon fill="white" stroke="#bfbfbf" points="146,-271 146,-328 282,-328 282,-271 146,-271"/>
<text text-anchor="middle" x="214" y="-316" font-family="Helvetica,sans-Serif" font-size="10.00">std::vector&lt; cv::String &gt;</text>
<polyline fill="none" stroke="#bfbfbf" points="146,-309 282,-309 "/>
<text text-anchor="start" x="154" y="-297" font-family="Helvetica,sans-Serif" font-size="10.00">+ elements</text>
<polyline fill="none" stroke="#bfbfbf" points="146,-290 282,-290 "/>
<text text-anchor="middle" x="214" y="-278" font-family="Helvetica,sans-Serif" font-size="10.00"> </text>
</a>
</g>
</g>
<!-- Node3&#45;&gt;Node2 -->
<g id="edge2" class="edge">
<title>Node3&#45;&gt;Node2</title>
<path fill="none" stroke="#404040" d="M258.58,-270.85C284.94,-255.51 319.44,-237.14 352,-225 414.95,-201.54 490.55,-185.93 542.02,-177.07"/>
<polygon fill="none" stroke="#404040" points="542.08,-177.06 547.33,-172.12 553.91,-175.07 548.66,-180.01 542.08,-177.06"/>
<text text-anchor="middle" x="387.5" y="-233.5" font-family="Helvetica,sans-Serif" font-size="10.00"> +card_names</text>
</g>
<!-- Node4 -->
<g id="node4" class="node">
<title>Node4</title>
<g id="a_node4"><a xlink:title=" ">
<polygon fill="white" stroke="#bfbfbf" points="527.5,-392.5 527.5,-449.5 624.5,-449.5 624.5,-392.5 527.5,-392.5"/>
<text text-anchor="middle" x="576" y="-437.5" font-family="Helvetica,sans-Serif" font-size="10.00">std::vector&lt; T &gt;</text>
<polyline fill="none" stroke="#bfbfbf" points="527.5,-430.5 624.5,-430.5 "/>
<text text-anchor="middle" x="576" y="-418.5" font-family="Helvetica,sans-Serif" font-size="10.00"> </text>
<polyline fill="none" stroke="#bfbfbf" points="527.5,-411.5 624.5,-411.5 "/>
<text text-anchor="middle" x="576" y="-399.5" font-family="Helvetica,sans-Serif" font-size="10.00"> </text>
</a>
</g>
</g>
<!-- Node4&#45;&gt;Node3 -->
<g id="edge3" class="edge">
<title>Node4&#45;&gt;Node3</title>
<path fill="none" stroke="orange" d="M517.19,-414.09C468.52,-407.9 398.17,-395.91 340,-374 309.31,-362.44 277.43,-343.77 253.41,-328.13"/>
<polygon fill="orange" stroke="orange" points="516.89,-417.58 527.24,-415.32 517.74,-410.63 516.89,-417.58"/>
<text text-anchor="middle" x="375.5" y="-360.5" font-family="Helvetica,sans-Serif" font-size="10.00"> &lt; cv::String &gt;</text>
</g>
<!-- Node6 -->
<g id="node6" class="node">
<title>Node6</title>
<g id="a_node6"><a xlink:title=" ">
<polygon fill="white" stroke="#bfbfbf" points="583.5,-265.5 583.5,-333.5 714.5,-333.5 714.5,-265.5 583.5,-265.5"/>
<text text-anchor="start" x="591.5" y="-321.5" font-family="Helvetica,sans-Serif" font-size="10.00">std::vector&lt; std::vector</text>
<text text-anchor="middle" x="649" y="-310.5" font-family="Helvetica,sans-Serif" font-size="10.00">&lt; cv::Point2f &gt; &gt;</text>
<polyline fill="none" stroke="#bfbfbf" points="583.5,-303.5 714.5,-303.5 "/>
<text text-anchor="start" x="591.5" y="-291.5" font-family="Helvetica,sans-Serif" font-size="10.00">+ elements</text>
<polyline fill="none" stroke="#bfbfbf" points="583.5,-284.5 714.5,-284.5 "/>
<text text-anchor="middle" x="649" y="-272.5" font-family="Helvetica,sans-Serif" font-size="10.00"> </text>
</a>
</g>
</g>
<!-- Node4&#45;&gt;Node6 -->
<g id="edge6" class="edge">
<title>Node4&#45;&gt;Node6</title>
<path fill="none" stroke="orange" d="M615.19,-384.61C618.03,-381.18 620.68,-377.63 623,-374 630.79,-361.79 636.61,-346.95 640.75,-333.81"/>
<polygon fill="orange" stroke="orange" points="612.34,-382.55 608.3,-392.35 617.56,-387.21 612.34,-382.55"/>
<text text-anchor="start" x="634" y="-366" font-family="Helvetica,sans-Serif" font-size="10.00"> &lt; std::vector&lt; cv::</text>
<text text-anchor="middle" x="681" y="-355" font-family="Helvetica,sans-Serif" font-size="10.00">Point2f &gt; &gt;</text>
</g>
<!-- Node7 -->
<g id="node7" class="node">
<title>Node7</title>
<g id="a_node7"><a xlink:title=" ">
<polygon fill="white" stroke="#bfbfbf" points="732.5,-265.5 732.5,-333.5 863.5,-333.5 863.5,-265.5 732.5,-265.5"/>
<text text-anchor="start" x="740.5" y="-321.5" font-family="Helvetica,sans-Serif" font-size="10.00">std::vector&lt; std::vector</text>
<text text-anchor="middle" x="798" y="-310.5" font-family="Helvetica,sans-Serif" font-size="10.00">&lt; cv::Point &gt; &gt;</text>
<polyline fill="none" stroke="#bfbfbf" points="732.5,-303.5 863.5,-303.5 "/>
<text text-anchor="start" x="740.5" y="-291.5" font-family="Helvetica,sans-Serif" font-size="10.00">+ elements</text>
<polyline fill="none" stroke="#bfbfbf" points="732.5,-284.5 863.5,-284.5 "/>
<text text-anchor="middle" x="798" y="-272.5" font-family="Helvetica,sans-Serif" font-size="10.00"> </text>
</a>
</g>
</g>
<!-- Node4&#45;&gt;Node7 -->
<g id="edge8" class="edge">
<title>Node4&#45;&gt;Node7</title>
<path fill="none" stroke="orange" d="M634.72,-410.68C665.42,-403.89 702.61,-392.55 732,-374 748.53,-363.57 763.43,-347.85 774.87,-333.62"/>
<polygon fill="orange" stroke="orange" points="633.65,-407.32 624.58,-412.8 635.09,-414.17 633.65,-407.32"/>
<text text-anchor="start" x="758" y="-366" font-family="Helvetica,sans-Serif" font-size="10.00"> &lt; std::vector&lt; cv::</text>
<text text-anchor="middle" x="805" y="-355" font-family="Helvetica,sans-Serif" font-size="10.00">Point &gt; &gt;</text>
</g>
<!-- Node8 -->
<g id="node8" class="node">
<title>Node8</title>
<g id="a_node8"><a xlink:title=" ">
<polygon fill="white" stroke="#bfbfbf" points="0,-271 0,-328 128,-328 128,-271 0,-271"/>
<text text-anchor="middle" x="64" y="-316" font-family="Helvetica,sans-Serif" font-size="10.00">std::vector&lt; cv::Size &gt;</text>
<polyline fill="none" stroke="#bfbfbf" points="0,-309 128,-309 "/>
<text text-anchor="start" x="8" y="-297" font-family="Helvetica,sans-Serif" font-size="10.00">+ elements</text>
<polyline fill="none" stroke="#bfbfbf" points="0,-290 128,-290 "/>
<text text-anchor="middle" x="64" y="-278" font-family="Helvetica,sans-Serif" font-size="10.00"> </text>
</a>
</g>
</g>
<!-- Node4&#45;&gt;Node8 -->
<g id="edge10" class="edge">
<title>Node4&#45;&gt;Node8</title>
<path fill="none" stroke="orange" d="M516.98,-417.08C447.32,-412.5 328.49,-401.17 230,-374 190.2,-363.02 147.66,-344.03 115.61,-328.1"/>
<polygon fill="orange" stroke="orange" points="517.11,-420.59 527.31,-417.73 517.55,-413.61 517.11,-420.59"/>
<text text-anchor="middle" x="261.5" y="-360.5" font-family="Helvetica,sans-Serif" font-size="10.00"> &lt; cv::Size &gt;</text>
</g>
<!-- Node9 -->
<g id="node9" class="node">
<title>Node9</title>
<g id="a_node9"><a xlink:title=" ">
<polygon fill="white" stroke="#bfbfbf" points="882,-271 882,-328 986,-328 986,-271 882,-271"/>
<text text-anchor="middle" x="934" y="-316" font-family="Helvetica,sans-Serif" font-size="10.00">std::vector&lt; int &gt;</text>
<polyline fill="none" stroke="#bfbfbf" points="882,-309 986,-309 "/>
<text text-anchor="start" x="890" y="-297" font-family="Helvetica,sans-Serif" font-size="10.00">+ elements</text>
<polyline fill="none" stroke="#bfbfbf" points="882,-290 986,-290 "/>
<text text-anchor="middle" x="934" y="-278" font-family="Helvetica,sans-Serif" font-size="10.00"> </text>
</a>
</g>
</g>
<!-- Node4&#45;&gt;Node9 -->
<g id="edge12" class="edge">
<title>Node4&#45;&gt;Node9</title>
<path fill="none" stroke="orange" d="M634.9,-420.18C693.75,-418.16 785.39,-408.92 856,-374 877.85,-363.19 897.76,-344.2 912,-328.23"/>
<polygon fill="orange" stroke="orange" points="634.56,-416.69 624.66,-420.47 634.76,-423.69 634.56,-416.69"/>
<text text-anchor="middle" x="907.5" y="-360.5" font-family="Helvetica,sans-Serif" font-size="10.00"> &lt; int &gt;</text>
</g>
<!-- Node10 -->
<g id="node10" class="node">
<title>Node10</title>
<g id="a_node10"><a xlink:title=" ">
<polygon fill="white" stroke="#bfbfbf" points="300,-271 300,-328 426,-328 426,-271 300,-271"/>
<text text-anchor="middle" x="363" y="-316" font-family="Helvetica,sans-Serif" font-size="10.00">std::vector&lt; cv::Mat &gt;</text>
<polyline fill="none" stroke="#bfbfbf" points="300,-309 426,-309 "/>
<text text-anchor="start" x="308" y="-297" font-family="Helvetica,sans-Serif" font-size="10.00">+ elements</text>
<polyline fill="none" stroke="#bfbfbf" points="300,-290 426,-290 "/>
<text text-anchor="middle" x="363" y="-278" font-family="Helvetica,sans-Serif" font-size="10.00"> </text>
</a>
</g>
</g>
<!-- Node4&#45;&gt;Node10 -->
<g id="edge14" class="edge">
<title>Node4&#45;&gt;Node10</title>
<path fill="none" stroke="orange" d="M517.7,-405.5C493.59,-398.09 465.96,-387.7 443,-374 422.43,-361.73 402.58,-343.54 387.8,-328.33"/>
<polygon fill="orange" stroke="orange" points="516.87,-408.9 527.45,-408.4 518.86,-402.19 516.87,-408.9"/>
<text text-anchor="middle" x="473.5" y="-360.5" font-family="Helvetica,sans-Serif" font-size="10.00"> &lt; cv::Mat &gt;</text>
</g>
<!-- Node11 -->
<g id="node11" class="node">
<title>Node11</title>
<g id="a_node11"><a xlink:title=" ">
<polygon fill="white" stroke="#bfbfbf" points="444.5,-265.5 444.5,-333.5 565.5,-333.5 565.5,-265.5 444.5,-265.5"/>
<text text-anchor="start" x="452.5" y="-321.5" font-family="Helvetica,sans-Serif" font-size="10.00">std::vector&lt; cv::Point</text>
<text text-anchor="middle" x="505" y="-310.5" font-family="Helvetica,sans-Serif" font-size="10.00">_&lt; int &gt; &gt;</text>
<polyline fill="none" stroke="#bfbfbf" points="444.5,-303.5 565.5,-303.5 "/>
<text text-anchor="start" x="452.5" y="-291.5" font-family="Helvetica,sans-Serif" font-size="10.00">+ elements</text>
<polyline fill="none" stroke="#bfbfbf" points="444.5,-284.5 565.5,-284.5 "/>
<text text-anchor="middle" x="505" y="-272.5" font-family="Helvetica,sans-Serif" font-size="10.00"> </text>
</a>
</g>
</g>
<!-- Node4&#45;&gt;Node11 -->
<g id="edge16" class="edge">
<title>Node4&#45;&gt;Node11</title>
<path fill="none" stroke="orange" d="M523.27,-385.21C520.14,-381.71 517.33,-377.97 515,-374 507.97,-362 505.09,-347.04 504.11,-333.76"/>
<polygon fill="orange" stroke="orange" points="521,-387.89 530.56,-392.47 525.95,-382.93 521,-387.89"/>
<text text-anchor="middle" x="569" y="-360.5" font-family="Helvetica,sans-Serif" font-size="10.00"> &lt; cv::Point_&lt; int &gt; &gt;</text>
</g>
<!-- Node12 -->
<g id="node12" class="node">
<title>Node12</title>
<g id="a_node12"><a xlink:title=" ">
<polygon fill="white" stroke="#bfbfbf" points="1004,-265.5 1004,-333.5 1138,-333.5 1138,-265.5 1004,-265.5"/>
<text text-anchor="start" x="1012" y="-321.5" font-family="Helvetica,sans-Serif" font-size="10.00">std::vector&lt; cv::Rotated</text>
<text text-anchor="middle" x="1071" y="-310.5" font-family="Helvetica,sans-Serif" font-size="10.00">Rect &gt;</text>
<polyline fill="none" stroke="#bfbfbf" points="1004,-303.5 1138,-303.5 "/>
<text text-anchor="start" x="1012" y="-291.5" font-family="Helvetica,sans-Serif" font-size="10.00">+ elements</text>
<polyline fill="none" stroke="#bfbfbf" points="1004,-284.5 1138,-284.5 "/>
<text text-anchor="middle" x="1071" y="-272.5" font-family="Helvetica,sans-Serif" font-size="10.00"> </text>
</a>
</g>
</g>
<!-- Node4&#45;&gt;Node12 -->
<g id="edge18" class="edge">
<title>Node4&#45;&gt;Node12</title>
<path fill="none" stroke="orange" d="M634.7,-418.71C706.23,-415.72 830.04,-405.91 931,-374 961.49,-364.36 993.23,-348.27 1018.76,-333.6"/>
<polygon fill="orange" stroke="orange" points="634.39,-415.22 624.53,-419.11 634.66,-422.22 634.39,-415.22"/>
<text text-anchor="middle" x="1035.5" y="-360.5" font-family="Helvetica,sans-Serif" font-size="10.00"> &lt; cv::RotatedRect &gt;</text>
</g>
<!-- Node5 -->
<g id="node5" class="node">
<title>Node5</title>
<g id="a_node5"><a xlink:title=" ">
<polygon fill="white" stroke="#bfbfbf" points="561.5,-497.5 561.5,-554.5 590.5,-554.5 590.5,-497.5 561.5,-497.5"/>
<text text-anchor="middle" x="576" y="-542.5" font-family="Helvetica,sans-Serif" font-size="10.00">T</text>
<polyline fill="none" stroke="#bfbfbf" points="561.5,-535.5 590.5,-535.5 "/>
<text text-anchor="middle" x="576" y="-523.5" font-family="Helvetica,sans-Serif" font-size="10.00"> </text>
<polyline fill="none" stroke="#bfbfbf" points="561.5,-516.5 590.5,-516.5 "/>
<text text-anchor="middle" x="576" y="-504.5" font-family="Helvetica,sans-Serif" font-size="10.00"> </text>
</a>
</g>
</g>
<!-- Node5&#45;&gt;Node4 -->
<g id="edge4" class="edge">
<title>Node5&#45;&gt;Node4</title>
<path fill="none" stroke="#404040" d="M576,-497.4C576,-486.55 576,-473.87 576,-462.05"/>
<polygon fill="none" stroke="#404040" points="576,-461.68 572,-455.68 576,-449.68 580,-455.68 576,-461.68"/>
<text text-anchor="middle" x="605" y="-471" font-family="Helvetica,sans-Serif" font-size="10.00"> +elements</text>
</g>
<!-- Node6&#45;&gt;Node2 -->
<g id="edge5" class="edge">
<title>Node6&#45;&gt;Node2</title>
<path fill="none" stroke="#404040" d="M613.54,-265.36C609.26,-259.67 605.52,-253.48 603,-247 599.61,-238.29 597.96,-228.62 597.35,-219.12"/>
<polygon fill="none" stroke="#404040" points="597.35,-218.81 593.23,-212.89 597.11,-206.82 601.23,-212.73 597.35,-218.81"/>
<text text-anchor="middle" x="645.5" y="-233.5" font-family="Helvetica,sans-Serif" font-size="10.00"> +rotatedbox_pts</text>
</g>
<!-- Node7&#45;&gt;Node2 -->
<g id="edge7" class="edge">
<title>Node7&#45;&gt;Node2</title>
<path fill="none" stroke="#404040" d="M737.85,-265.35C728.63,-259.57 719.39,-253.36 711,-247 699.73,-238.45 699.05,-233.83 688,-225 679.37,-218.1 669.9,-211.22 660.51,-204.74"/>
<polygon fill="none" stroke="#404040" points="660.32,-204.62 653.11,-204.57 650.38,-197.9 657.59,-197.94 660.32,-204.62"/>
<text text-anchor="middle" x="749.5" y="-239" font-family="Helvetica,sans-Serif" font-size="10.00"> +card_approxs</text>
<text text-anchor="middle" x="749.5" y="-228" font-family="Helvetica,sans-Serif" font-size="10.00">+contours</text>
</g>
<!-- Node8&#45;&gt;Node2 -->
<g id="edge9" class="edge">
<title>Node8&#45;&gt;Node2</title>
<path fill="none" stroke="#404040" d="M123.21,-270.91C127.86,-268.87 132.5,-266.88 137,-265 183.47,-245.6 194.33,-237.9 243,-225 346.22,-197.64 469.83,-181.54 541.78,-173.78"/>
<polygon fill="none" stroke="#404040" points="541.8,-173.77 547.35,-169.17 553.74,-172.51 548.19,-177.12 541.8,-173.77"/>
<text text-anchor="middle" x="272" y="-233.5" font-family="Helvetica,sans-Serif" font-size="10.00"> +card_size</text>
</g>
<!-- Node9&#45;&gt;Node1 -->
<g id="edge19" class="edge">
<title>Node9&#45;&gt;Node1</title>
<path fill="none" stroke="#404040" d="M932.05,-270.96C930.24,-256.71 926.74,-239.34 920,-225 895.49,-172.85 852.75,-123.06 818.82,-88.45"/>
<polygon fill="none" stroke="#404040" points="818.43,-88.05 811.36,-86.62 809.96,-79.55 817.03,-80.98 818.43,-88.05"/>
<text text-anchor="middle" x="945.5" y="-164.5" font-family="Helvetica,sans-Serif" font-size="10.00"> +playercards</text>
</g>
<!-- Node9&#45;&gt;Node2 -->
<g id="edge11" class="edge">
<title>Node9&#45;&gt;Node2</title>
<path fill="none" stroke="#404040" d="M885.04,-270.85C880.69,-268.76 876.3,-266.77 872,-265 845.87,-254.22 835.46,-261.17 811,-247 798.76,-239.91 800.2,-232.15 788,-225 749.09,-202.19 700.16,-187.66 662.25,-178.99"/>
<polygon fill="none" stroke="#404040" points="662.08,-178.95 655.36,-181.57 650.36,-176.38 657.08,-173.76 662.08,-178.95"/>
<text text-anchor="middle" x="865.5" y="-233.5" font-family="Helvetica,sans-Serif" font-size="10.00"> +contour_is_card_idx</text>
</g>
<!-- Node10&#45;&gt;Node2 -->
<g id="edge13" class="edge">
<title>Node10&#45;&gt;Node2</title>
<path fill="none" stroke="#404040" d="M395.15,-270.68C413.35,-255.84 437.02,-238.01 460,-225 485.86,-210.36 516.24,-197.63 542.24,-187.94"/>
<polygon fill="none" stroke="#404040" points="542.58,-187.82 546.84,-182 553.85,-183.7 549.59,-189.52 542.58,-187.82"/>
<text text-anchor="middle" x="488.5" y="-233.5" font-family="Helvetica,sans-Serif" font-size="10.00"> +rank_rois</text>
</g>
<!-- Node11&#45;&gt;Node2 -->
<g id="edge15" class="edge">
<title>Node11&#45;&gt;Node2</title>
<path fill="none" stroke="#404040" d="M513.09,-265.19C517.33,-251.9 523.47,-236.95 532,-225 535.81,-219.66 540.25,-214.54 545.01,-209.71"/>
<polygon fill="none" stroke="#404040" points="545.13,-209.6 546.74,-202.57 553.85,-201.35 552.23,-208.38 545.13,-209.6"/>
<text text-anchor="middle" x="563.5" y="-233.5" font-family="Helvetica,sans-Serif" font-size="10.00"> +centre_pts</text>
</g>
<!-- Node12&#45;&gt;Node2 -->
<g id="edge17" class="edge">
<title>Node12&#45;&gt;Node2</title>
<path fill="none" stroke="#404040" d="M1014.34,-265.36C987.7,-251.04 955.02,-235.26 924,-225 835.51,-195.73 728.09,-180.56 662.42,-173.44"/>
<polygon fill="none" stroke="#404040" points="662.19,-173.42 655.8,-176.77 650.25,-172.17 656.64,-168.81 662.19,-173.42"/>
<text text-anchor="middle" x="1007.5" y="-233.5" font-family="Helvetica,sans-Serif" font-size="10.00"> +rotatedbox</text>
</g>
</g>
</svg>
        <g id="navigator" transform="translate(0 0)" fill="#404254">
                <rect fill="#f2f5e9" fill-opacity="0.5" stroke="#606060" stroke-width=".5" x="0" y="0" width="60" height="60"/>
                <use id="zoomplus" xlink:href="#zoomPlus" x="17" y="9" onmousedown="handleZoom(evt,'in')"/>
                <use id="zoomminus" xlink:href="#zoomMin" x="42" y="9" onmousedown="handleZoom(evt,'out')"/>
                <use id="reset" xlink:href="#resetDef" x="30" y="36" onmousedown="handleReset()"/>
                <g id="arrowUp" xlink:href="#dirArrow" transform="translate(30 24)" onmousedown="handlePan(0,-1)">
                  <use xlink:href="#rim" fill="#404040">
                        <set attributeName="fill" to="#808080" begin="arrowUp.mouseover" end="arrowUp.mouseout"/>
                  </use>
                  <path fill="none" stroke="white" stroke-width="1.5" d="M0,-3.0v7 M-2.5,-0.5L0,-3.0L2.5,-0.5"/>
                </g>
                <g id="arrowRight" xlink:href="#dirArrow" transform="rotate(90) translate(36 -43)" onmousedown="handlePan(1,0)">
                  <use xlink:href="#rim" fill="#404040">
                        <set attributeName="fill" to="#808080" begin="arrowRight.mouseover" end="arrowRight.mouseout"/>
                  </use>
                  <path fill="none" stroke="white" stroke-width="1.5" d="M0,-3.0v7 M-2.5,-0.5L0,-3.0L2.5,-0.5"/>
                </g>
                <g id="arrowDown" xlink:href="#dirArrow" transform="rotate(180) translate(-30 -48)" onmousedown="handlePan(0,1)">
                  <use xlink:href="#rim" fill="#404040">
                        <set attributeName="fill" to="#808080" begin="arrowDown.mouseover" end="arrowDown.mouseout"/>
                  </use>
                  <path fill="none" stroke="white" stroke-width="1.5" d="M0,-3.0v7 M-2.5,-0.5L0,-3.0L2.5,-0.5"/>
                </g>
                <g id="arrowLeft" xlink:href="#dirArrow" transform="rotate(270) translate(-36 17)" onmousedown="handlePan(-1,0)">
                  <use xlink:href="#rim" fill="#404040">
                        <set attributeName="fill" to="#808080" begin="arrowLeft.mouseover" end="arrowLeft.mouseout"/>
                  </use>
                  <path fill="none" stroke="white" stroke-width="1.5" d="M0,-3.0v7 M-2.5,-0.5L0,-3.0L2.5,-0.5"/>
                </g>
        </g>
        <svg viewBox="0 0 15 15" width="100%" height="30px" preserveAspectRatio="xMaxYMin meet">
         <g id="arrow_out" transform="scale(0.3 0.3)">
          <a xlink:href="structAcePlaysUtils__coll__graph_org.svg" target="_base">
           <rect id="button" ry="5" rx="5" y="6" x="6" height="38" width="38"
                fill="#f2f5e9" fill-opacity="0.5" stroke="#606060" stroke-width="1.0"/>
           <path id="arrow"
             d="M 11.500037,31.436501 C 11.940474,20.09759 22.043105,11.32322 32.158766,21.979434 L 37.068811,17.246167 C 37.068811,17.246167 37.088388,32 37.088388,32 L 22.160133,31.978069 C 22.160133,31.978069 26.997745,27.140456 26.997745,27.140456 C 18.528582,18.264221 13.291696,25.230495 11.500037,31.436501 z"
             style="fill:#404040;"/>
          </a>
         </g>
        </svg>
</svg>
