<?xml version="1.0" encoding="UTF-8" standalone="no"?>
<!DOCTYPE svg PUBLIC "-//W3C//DTD SVG 1.1//EN"
 "http://www.w3.org/Graphics/SVG/1.1/DTD/svg11.dtd">
<!-- Generated by graphviz version 2.43.0 (0)
 -->
<!-- Title: include/ToggleLED.h Pages: 1 -->
<svg width="488pt" height="140pt"
 viewBox="0.00 0.00 487.50 140.00" xmlns="http://www.w3.org/2000/svg" xmlns:xlink="http://www.w3.org/1999/xlink">
<g id="graph0" class="graph" transform="scale(1 1) rotate(0) translate(4 136)">
<title>include/ToggleLED.h</title>
<polygon fill="white" stroke="transparent" points="-4,4 -4,-136 483.5,-136 483.5,4 -4,4"/>
<!-- Node1 -->
<g id="node1" class="node">
<title>Node1</title>
<g id="a_node1"><a xlink:title=" ">
<polygon fill="#bfbfbf" stroke="black" points="154.5,-112.5 154.5,-131.5 268.5,-131.5 268.5,-112.5 154.5,-112.5"/>
<text text-anchor="middle" x="211.5" y="-119.5" font-family="Helvetica,sans-Serif" font-size="10.00">include/ToggleLED.h</text>
</a>
</g>
</g>
<!-- Node2 -->
<g id="node2" class="node">
<title>Node2</title>
<g id="a_node2"><a xlink:href="GamePlay_8h.html" target="_top" xlink:title=" ">
<polygon fill="white" stroke="black" points="92,-56.5 92,-75.5 205,-75.5 205,-56.5 92,-56.5"/>
<text text-anchor="middle" x="148.5" y="-63.5" font-family="Helvetica,sans-Serif" font-size="10.00">include/GamePlay.h</text>
</a>
</g>
</g>
<!-- Node1&#45;&gt;Node2 -->
<g id="edge1" class="edge">
<title>Node1&#45;&gt;Node2</title>
<path fill="none" stroke="midnightblue" d="M193.46,-105.54C182.23,-95.91 168.18,-83.87 158.81,-75.83"/>
<polygon fill="midnightblue" stroke="midnightblue" points="191.51,-108.47 201.38,-112.32 196.06,-103.16 191.51,-108.47"/>
</g>
<!-- Node4 -->
<g id="node4" class="node">
<title>Node4</title>
<g id="a_node4"><a xlink:href="src_2main_8cpp.html" target="_top" xlink:title=" ">
<polygon fill="white" stroke="black" points="0,-0.5 0,-19.5 79,-19.5 79,-0.5 0,-0.5"/>
<text text-anchor="middle" x="39.5" y="-7.5" font-family="Helvetica,sans-Serif" font-size="10.00">src/main.cpp</text>
</a>
</g>
</g>
<!-- Node1&#45;&gt;Node4 -->
<g id="edge6" class="edge">
<title>Node1&#45;&gt;Node4</title>
<path fill="none" stroke="midnightblue" d="M155.2,-109.87C131.03,-103.06 103.56,-92.38 82.5,-76 62.85,-60.72 49.23,-33.82 43.13,-19.91"/>
<polygon fill="midnightblue" stroke="midnightblue" points="154.41,-113.29 164.97,-112.48 156.21,-106.52 154.41,-113.29"/>
</g>
<!-- Node7 -->
<g id="node7" class="node">
<title>Node7</title>
<g id="a_node7"><a xlink:href="ToggleLED_8cpp.html" target="_top" xlink:title=" ">
<polygon fill="white" stroke="black" points="223.5,-56.5 223.5,-75.5 327.5,-75.5 327.5,-56.5 223.5,-56.5"/>
<text text-anchor="middle" x="275.5" y="-63.5" font-family="Helvetica,sans-Serif" font-size="10.00">src/ToggleLED.cpp</text>
</a>
</g>
</g>
<!-- Node1&#45;&gt;Node7 -->
<g id="edge7" class="edge">
<title>Node1&#45;&gt;Node7</title>
<path fill="none" stroke="midnightblue" d="M229.49,-105.82C240.96,-96.15 255.41,-83.95 265.03,-75.83"/>
<polygon fill="midnightblue" stroke="midnightblue" points="227.17,-103.2 221.78,-112.32 231.68,-108.55 227.17,-103.2"/>
</g>
<!-- Node8 -->
<g id="node8" class="node">
<title>Node8</title>
<g id="a_node8"><a xlink:href="ToggleLEDTest_8cpp.html" target="_top" xlink:title=" ">
<polygon fill="white" stroke="black" points="345.5,-56.5 345.5,-75.5 479.5,-75.5 479.5,-56.5 345.5,-56.5"/>
<text text-anchor="middle" x="412.5" y="-63.5" font-family="Helvetica,sans-Serif" font-size="10.00">tests/ToggleLEDTest.cpp</text>
</a>
</g>
</g>
<!-- Node1&#45;&gt;Node8 -->
<g id="edge8" class="edge">
<title>Node1&#45;&gt;Node8</title>
<path fill="none" stroke="midnightblue" d="M253.08,-109.83C291.03,-99.63 346.31,-84.78 380.8,-75.52"/>
<polygon fill="midnightblue" stroke="midnightblue" points="252.1,-106.47 243.35,-112.44 253.91,-113.23 252.1,-106.47"/>
</g>
<!-- Node3 -->
<g id="node3" class="node">
<title>Node3</title>
<g id="a_node3"><a xlink:href="GamePlay_8cpp.html" target="_top" xlink:title=" ">
<polygon fill="white" stroke="black" points="97,-0.5 97,-19.5 200,-19.5 200,-0.5 97,-0.5"/>
<text text-anchor="middle" x="148.5" y="-7.5" font-family="Helvetica,sans-Serif" font-size="10.00">src/GamePlay.cpp</text>
</a>
</g>
</g>
<!-- Node2&#45;&gt;Node3 -->
<g id="edge2" class="edge">
<title>Node2&#45;&gt;Node3</title>
<path fill="none" stroke="midnightblue" d="M148.5,-45.8C148.5,-36.91 148.5,-26.78 148.5,-19.75"/>
<polygon fill="midnightblue" stroke="midnightblue" points="145,-46.08 148.5,-56.08 152,-46.08 145,-46.08"/>
</g>
<!-- Node2&#45;&gt;Node4 -->
<g id="edge3" class="edge">
<title>Node2&#45;&gt;Node4</title>
<path fill="none" stroke="midnightblue" d="M121.98,-51.86C101.77,-41.85 74.51,-28.35 56.97,-19.65"/>
<polygon fill="midnightblue" stroke="midnightblue" points="120.47,-55.02 130.99,-56.32 123.58,-48.75 120.47,-55.02"/>
</g>
<!-- Node5 -->
<g id="node5" class="node">
<title>Node5</title>
<g id="a_node5"><a xlink:href="GamePlayTest_8cpp.html" target="_top" xlink:title=" ">
<polygon fill="white" stroke="black" points="218.5,-0.5 218.5,-19.5 352.5,-19.5 352.5,-0.5 218.5,-0.5"/>
<text text-anchor="middle" x="285.5" y="-7.5" font-family="Helvetica,sans-Serif" font-size="10.00">tests/GamePlayTest.cpp</text>
</a>
</g>
</g>
<!-- Node2&#45;&gt;Node5 -->
<g id="edge4" class="edge">
<title>Node2&#45;&gt;Node5</title>
<path fill="none" stroke="midnightblue" d="M179.52,-52.77C205.26,-42.63 241.19,-28.47 263.89,-19.52"/>
<polygon fill="midnightblue" stroke="midnightblue" points="178.23,-49.52 170.21,-56.44 180.79,-56.03 178.23,-49.52"/>
</g>
<!-- Node6 -->
<g id="node6" class="node">
<title>Node6</title>
<g id="a_node6"><a xlink:href="tests_2main_8cpp.html" target="_top" xlink:title=" ">
<polygon fill="white" stroke="black" points="371,-0.5 371,-19.5 460,-19.5 460,-0.5 371,-0.5"/>
<text text-anchor="middle" x="415.5" y="-7.5" font-family="Helvetica,sans-Serif" font-size="10.00">tests/main.cpp</text>
</a>
</g>
</g>
<!-- Node2&#45;&gt;Node6 -->
<g id="edge5" class="edge">
<title>Node2&#45;&gt;Node6</title>
<path fill="none" stroke="midnightblue" d="M200.86,-54.41C251.32,-44.2 326.7,-28.96 373.39,-19.52"/>
<polygon fill="midnightblue" stroke="midnightblue" points="199.91,-51.03 190.81,-56.44 201.3,-57.89 199.91,-51.03"/>
</g>
</g>
</svg>
